<svg width="175" height="33" viewBox="0 0 175 33" fill="none" xmlns="http://www.w3.org/2000/svg">
<path d="M0 1.39504V28.6943C4.62023 28.8585 8.47845 28.796 11.2998 28.6943C19.6803 28.392 21.8439 27.6388 23.2713 26.0093C23.501 25.7475 25.3159 23.6645 25.0617 20.7507C24.6995 16.6025 20.4829 14.5917 20.249 14.4853C20.425 14.3612 24.0337 11.7315 23.7171 7.99609C23.411 4.36163 19.5026 1.04506 14.5429 1.39504H0Z" fill="#023E89"/>
<path d="M1.524 0.837244C1.46785 2.50271 1.43704 4.71699 1.524 7.32643C1.59324 9.40604 1.6781 11.7592 2.08338 14.8225C2.56803 18.4874 3.22746 21.0178 3.42588 21.7592C4.18874 24.6076 4.87519 26.1531 5.44006 27.2415C6.13115 28.5777 6.61116 29.4857 7.56569 30.374C9.22355 31.9187 11.1909 32.3544 12.2632 32.5H28.9351C27.1962 31.9748 25.566 31.141 24.1224 30.0384C22.1166 28.5 21.0405 26.8577 20.2067 25.5634C18.277 22.5609 17.5247 19.9096 16.7382 17.06C15.7625 13.5167 15.4324 10.5586 15.1719 8.22143C14.9549 6.2748 14.8498 4.43329 14.8342 4.1935C14.7624 2.91052 14.7325 1.77742 14.7223 0.837244H1.524Z" fill="#04C9FF"/>
<path d="M1.566 0.500023C1.50985 2.16549 1.47903 4.37977 1.566 6.98921C1.63523 9.06882 1.72009 11.422 2.12537 14.4853C2.61002 18.1501 3.26945 20.6806 3.46787 21.422C4.23074 24.2703 4.91719 25.8159 5.48205 26.9043C6.17314 28.2404 6.65315 29.1485 7.60768 30.0368C9.26554 31.5815 11.2329 32.0172 12.3052 32.1628H28.9771C27.2382 31.6376 25.608 30.8037 24.1644 29.7011C22.1586 28.1628 21.0825 26.5205 20.2487 25.2261C18.319 22.2237 17.5667 19.5724 16.7802 16.7228C15.8045 13.1795 15.4744 10.2213 15.2139 7.88421C14.9969 5.93758 14.8918 4.09607 14.8762 3.85628C14.8044 2.5733 14.7744 1.4402 14.7643 0.500023H1.566Z" fill="#51EBFF"/>
<path d="M0.895508 1.39502L1.56676 0.500023V1.39502H0.895508Z" fill="#C9EFF7"/>
<path d="M37.8244 26V7.55987H45.2076C46.5642 7.55987 47.6957 7.76096 48.6021 8.16314C49.5086 8.56532 50.1899 9.12356 50.6461 9.83788C51.1023 10.5462 51.3304 11.3626 51.3304 12.287C51.3304 13.0073 51.1863 13.6406 50.8982 14.1868C50.61 14.727 50.2139 15.1712 49.7096 15.5194C49.2114 15.8615 48.6412 16.1046 47.9989 16.2487V16.4288C48.7012 16.4588 49.3585 16.6569 49.9708 17.0231C50.589 17.3892 51.0902 17.9024 51.4744 18.5627C51.8586 19.217 52.0507 19.9974 52.0507 20.9038C52.0507 21.8822 51.8076 22.7556 51.3214 23.5239C50.8411 24.2863 50.1298 24.8895 49.1874 25.3337C48.245 25.7779 47.0835 26 45.7029 26H37.8244ZM41.7231 22.8126H44.9015C45.988 22.8126 46.7803 22.6055 47.2786 22.1913C47.7768 21.7712 48.0259 21.2129 48.0259 20.5166C48.0259 20.0064 47.9028 19.5562 47.6567 19.166C47.4106 18.7758 47.0595 18.4697 46.6033 18.2476C46.1531 18.0255 45.6158 17.9144 44.9916 17.9144H41.7231V22.8126ZM41.7231 15.2763H44.6134C45.1476 15.2763 45.6218 15.1832 46.036 14.9972C46.4562 14.8051 46.7863 14.535 47.0265 14.1868C47.2726 13.8386 47.3956 13.4215 47.3956 12.9352C47.3956 12.269 47.1585 11.7317 46.6843 11.3235C46.2161 10.9154 45.5498 10.7113 44.6854 10.7113H41.7231V15.2763ZM63.3844 20.1114V12.1699H67.2201V26H63.5375V23.4879H63.3934C63.0813 24.2983 62.5621 24.9496 61.8357 25.4418C61.1154 25.934 60.236 26.1801 59.1976 26.1801C58.2732 26.1801 57.4598 25.97 56.7575 25.5498C56.0552 25.1296 55.5059 24.5324 55.1098 23.758C54.7196 22.9837 54.5215 22.0563 54.5155 20.9758V12.1699H58.3512V20.2915C58.3572 21.1079 58.5763 21.7531 59.0085 22.2274C59.4407 22.7016 60.0199 22.9387 60.7463 22.9387C61.2085 22.9387 61.6407 22.8336 62.0428 22.6235C62.445 22.4074 62.7692 22.0893 63.0153 21.6691C63.2674 21.2489 63.3904 20.7297 63.3844 20.1114ZM72.6563 31.1863C72.1701 31.1863 71.7139 31.1473 71.2877 31.0693C70.8675 30.9972 70.5193 30.9042 70.2432 30.7901L71.1076 27.9269C71.5578 28.0649 71.963 28.14 72.3231 28.152C72.6893 28.164 73.0044 28.0799 73.2685 27.8999C73.5387 27.7198 73.7578 27.4136 73.9258 26.9815L74.1509 26.3962L69.1897 12.1699H73.2235L76.0868 22.3264H76.2309L79.1211 12.1699H83.1819L77.8066 27.4947C77.5484 28.239 77.1973 28.8873 76.7531 29.4395C76.3149 29.9978 75.7596 30.427 75.0873 30.7271C74.4151 31.0332 73.6047 31.1863 72.6563 31.1863ZM85.2168 7.55987H90.0249L95.1032 19.9493H95.3193L100.398 7.55987H105.206V26H101.424V13.9977H101.271L96.4988 25.91H93.9237L89.1516 13.9527H88.9985V26H85.2168V7.55987ZM110.714 31.1863C110.228 31.1863 109.771 31.1473 109.345 31.0693C108.925 30.9972 108.577 30.9042 108.301 30.7901L109.165 27.9269C109.615 28.0649 110.021 28.14 110.381 28.152C110.747 28.164 111.062 28.0799 111.326 27.8999C111.596 27.7198 111.815 27.4136 111.983 26.9815L112.208 26.3962L107.247 12.1699H111.281L114.144 22.3264H114.288L117.179 12.1699H121.239L115.864 27.4947C115.606 28.239 115.255 28.8873 114.811 29.4395C114.372 29.9978 113.817 30.427 113.145 30.7271C112.473 31.0332 111.662 31.1863 110.714 31.1863ZM123.274 26V7.55987H130.658C132.014 7.55987 133.146 7.76096 134.052 8.16314C134.959 8.56532 135.64 9.12356 136.096 9.83788C136.552 10.5462 136.78 11.3626 136.78 12.287C136.78 13.0073 136.636 13.6406 136.348 14.1868C136.06 14.727 135.664 15.1712 135.16 15.5194C134.661 15.8615 134.091 16.1046 133.449 16.2487V16.4288C134.151 16.4588 134.808 16.6569 135.421 17.0231C136.039 17.3892 136.54 17.9024 136.924 18.5627C137.309 19.217 137.501 19.9974 137.501 20.9038C137.501 21.8822 137.258 22.7556 136.771 23.5239C136.291 24.2863 135.58 24.8895 134.637 25.3337C133.695 25.7779 132.533 26 131.153 26H123.274ZM127.173 22.8126H130.352C131.438 22.8126 132.23 22.6055 132.729 22.1913C133.227 21.7712 133.476 21.2129 133.476 20.5166C133.476 20.0064 133.353 19.5562 133.107 19.166C132.861 18.7758 132.509 18.4697 132.053 18.2476C131.603 18.0255 131.066 17.9144 130.442 17.9144H127.173V22.8126ZM127.173 15.2763H130.063C130.598 15.2763 131.072 15.1832 131.486 14.9972C131.906 14.8051 132.236 14.535 132.476 14.1868C132.723 13.8386 132.846 13.4215 132.846 12.9352C132.846 12.269 132.609 11.7317 132.134 11.3235C131.666 10.9154 131 10.7113 130.135 10.7113H127.173V15.2763ZM139.966 26V12.1699H143.801V26H139.966ZM141.892 10.3871C141.322 10.3871 140.833 10.198 140.425 9.81987C140.023 9.4357 139.821 8.9765 139.821 8.44226C139.821 7.91403 140.023 7.46083 140.425 7.08266C140.833 6.69849 141.322 6.50641 141.892 6.50641C142.463 6.50641 142.949 6.69849 143.351 7.08266C143.759 7.46083 143.963 7.91403 143.963 8.44226C143.963 8.9765 143.759 9.4357 143.351 9.81987C142.949 10.198 142.463 10.3871 141.892 10.3871ZM150.71 7.55987V26H146.874V7.55987H150.71ZM157.618 7.55987V26H153.782V7.55987H157.618ZM172.198 16.1137L168.686 16.3297C168.626 16.0296 168.497 15.7595 168.299 15.5194C168.101 15.2733 167.84 15.0782 167.515 14.9341C167.197 14.7841 166.816 14.709 166.372 14.709C165.778 14.709 165.276 14.8351 164.868 15.0872C164.46 15.3333 164.256 15.6635 164.256 16.0776C164.256 16.4078 164.388 16.6869 164.652 16.915C164.916 17.1431 165.369 17.3262 166.012 17.4642L168.515 17.9685C169.859 18.2446 170.862 18.6888 171.522 19.3011C172.182 19.9133 172.513 20.7177 172.513 21.7141C172.513 22.6205 172.246 23.4159 171.711 24.1002C171.183 24.7845 170.457 25.3187 169.532 25.7029C168.614 26.0811 167.554 26.2701 166.354 26.2701C164.523 26.2701 163.064 25.889 161.978 25.1266C160.898 24.3583 160.264 23.3138 160.078 21.9933L163.851 21.7952C163.965 22.3534 164.241 22.7796 164.679 23.0737C165.117 23.3619 165.679 23.5059 166.363 23.5059C167.035 23.5059 167.575 23.3769 167.984 23.1187C168.398 22.8546 168.608 22.5155 168.614 22.1013C168.608 21.7531 168.461 21.468 168.173 21.2459C167.885 21.0178 167.44 20.8437 166.84 20.7237L164.445 20.2465C163.094 19.9764 162.089 19.5082 161.429 18.8419C160.774 18.1756 160.447 17.3262 160.447 16.2937C160.447 15.4053 160.687 14.64 161.168 13.9977C161.654 13.3554 162.335 12.8602 163.212 12.5121C164.094 12.1639 165.126 11.9898 166.309 11.9898C168.056 11.9898 169.43 12.359 170.433 13.0973C171.441 13.8356 172.029 14.8411 172.198 16.1137Z" fill="#023E89"/>
</svg>
