<svg width="25" height="24" viewBox="0 0 25 24" fill="none" xmlns="http://www.w3.org/2000/svg">
<path d="M12.3684 17.75C12.7826 17.75 13.1184 17.4142 13.1184 17V11C13.1184 10.5858 12.7826 10.25 12.3684 10.25C11.9542 10.25 11.6184 10.5858 11.6184 11V17C11.6184 17.4142 11.9542 17.75 12.3684 17.75Z" fill="#999999"/>
<path d="M12.3684 7C12.9207 7 13.3684 7.44772 13.3684 8C13.3684 8.55228 12.9207 9 12.3684 9C11.8161 9 11.3684 8.55228 11.3684 8C11.3684 7.44772 11.8161 7 12.3684 7Z" fill="#999999"/>
<path fill-rule="evenodd" clip-rule="evenodd" d="M1.61841 12C1.61841 6.06294 6.43135 1.25 12.3684 1.25C18.3055 1.25 23.1184 6.06294 23.1184 12C23.1184 17.9371 18.3055 22.75 12.3684 22.75C6.43135 22.75 1.61841 17.9371 1.61841 12ZM12.3684 2.75C7.25977 2.75 3.11841 6.89137 3.11841 12C3.11841 17.1086 7.25977 21.25 12.3684 21.25C17.477 21.25 21.6184 17.1086 21.6184 12C21.6184 6.89137 17.477 2.75 12.3684 2.75Z" fill="#999999"/>
</svg>
