<svg width="25" height="24" viewBox="0 0 25 24" fill="none" xmlns="http://www.w3.org/2000/svg">
<path fill-rule="evenodd" clip-rule="evenodd" d="M12.5 1.25C9.87665 1.25 7.75 3.37665 7.75 6C7.75 8.62335 9.87665 10.75 12.5 10.75C15.1234 10.75 17.25 8.62335 17.25 6C17.25 3.37665 15.1234 1.25 12.5 1.25ZM9.25 6C9.25 4.20507 10.7051 2.75 12.5 2.75C14.2949 2.75 15.75 4.20507 15.75 6C15.75 7.79493 14.2949 9.25 12.5 9.25C10.7051 9.25 9.25 7.79493 9.25 6Z" fill="#999999"/>
<path fill-rule="evenodd" clip-rule="evenodd" d="M12.5 12.25C10.4607 12.25 8.57752 12.7208 7.17815 13.5204C5.8 14.3079 4.75 15.5101 4.75 17C4.75 18.4899 5.8 19.6921 7.17815 20.4796C8.57752 21.2792 10.4607 21.75 12.5 21.75C14.5393 21.75 16.4225 21.2792 17.8219 20.4796C19.2 19.6921 20.25 18.4899 20.25 17C20.25 15.5101 19.2 14.3079 17.8219 13.5204C16.4225 12.7208 14.5393 12.25 12.5 12.25ZM6.25 17C6.25 16.2807 6.76701 15.483 7.92236 14.8228C9.05649 14.1747 10.6733 13.75 12.5 13.75C14.3267 13.75 15.9435 14.1747 17.0776 14.8228C18.233 15.483 18.75 16.2807 18.75 17C18.75 17.7193 18.233 18.517 17.0776 19.1772C15.9435 19.8253 14.3267 20.25 12.5 20.25C10.6733 20.25 9.05649 19.8253 7.92236 19.1772C6.76701 18.517 6.25 17.7193 6.25 17Z" fill="#999999"/>
</svg>
