<svg width="25" height="24" viewBox="0 0 25 24" fill="none" xmlns="http://www.w3.org/2000/svg">
<path d="M1.7002 11.5989V21.1989C1.70196 22.7446 2.95453 23.9971 4.5002 23.9989H19.7002C21.2459 23.9971 22.4984 22.7446 22.5002 21.1989V18.7253C22.9779 18.5564 23.2981 18.1056 23.3002 17.5989V15.1989C23.2981 14.6922 22.9779 14.2414 22.5002 14.0725V11.5989C22.4987 10.2689 21.5631 9.12284 20.2602 8.85531L19.3282 4.67611C19.2593 4.36503 19.0695 4.09412 18.8006 3.92312C18.5318 3.75211 18.206 3.69505 17.895 3.76451L17.4994 3.85251L15.1222 0.502912C14.7373 -0.036238 13.9884 -0.161567 13.449 0.222912L4.1438 6.82411L3.9974 6.85651C3.68614 6.92542 3.41509 7.11534 3.24407 7.38437C3.07304 7.6534 3.0161 7.97943 3.0858 8.29051L3.265 9.09051C2.3085 9.56068 1.70188 10.5331 1.7002 11.5989ZM22.5002 17.5989C22.5002 17.8198 22.3211 17.9989 22.1002 17.9989H18.9002C18.0165 17.9989 17.3002 17.2826 17.3002 16.3989C17.3002 15.5153 18.0165 14.7989 18.9002 14.7989H22.1002C22.3211 14.7989 22.5002 14.978 22.5002 15.1989V17.5989ZM13.9122 0.872912C13.9985 0.811267 14.1059 0.786455 14.2105 0.803934C14.3151 0.821412 14.4086 0.879751 14.4702 0.966112L16.651 4.04091L15.8038 4.22931L14.7402 2.73531C14.6787 2.64876 14.5854 2.59018 14.4808 2.57248C14.3761 2.55477 14.2687 2.57939 14.1822 2.64091C14.0957 2.70315 13.9878 2.72827 13.8827 2.7107C13.7776 2.69312 13.6838 2.63431 13.6222 2.54731C13.4943 2.36732 13.2447 2.32507 13.0646 2.45291L8.1686 5.92771L6.1534 6.37571L13.9122 0.872912ZM14.9562 4.41811L10.1862 5.47891L13.2602 3.29731C13.4073 3.39971 13.5754 3.46803 13.7522 3.49731C13.9287 3.52745 14.1097 3.51747 14.2818 3.46811L14.9562 4.41811ZM3.8666 8.11611C3.84278 8.01205 3.86154 7.90279 3.91871 7.81264C3.97588 7.72249 4.06671 7.65893 4.171 7.63611L15.711 5.06851L15.7258 5.06531L18.067 4.54531C18.1711 4.5215 18.2804 4.54032 18.3706 4.59757C18.4607 4.65483 18.5243 4.74576 18.547 4.85011L19.4262 8.79891H18.6046L18.1106 6.58371C18.0873 6.48015 18.0239 6.39007 17.9342 6.33331C17.8448 6.27604 17.7361 6.25715 17.6326 6.28091C17.5304 6.30351 17.4235 6.28451 17.3354 6.22811C17.2452 6.17106 17.1816 6.08033 17.1586 5.97611C17.1106 5.76052 16.897 5.62461 16.6814 5.67251L5.9054 8.07251C5.69041 8.12032 5.55452 8.33292 5.6014 8.54811C5.61924 8.63259 5.60928 8.72057 5.573 8.79891H4.5002C4.34234 8.79992 4.18485 8.81423 4.0294 8.84171L3.8666 8.11611ZM17.785 8.79891H6.399C6.399 8.79291 6.40219 8.78731 6.4026 8.78131L16.531 6.52571C16.7232 6.83221 17.0429 7.03628 17.4018 7.08171L17.785 8.79891ZM4.5002 9.59891H19.7002C20.8042 9.60023 21.6989 10.4949 21.7002 11.5989V13.9989H18.9002C17.5747 13.9989 16.5002 15.0734 16.5002 16.3989C16.5002 17.7244 17.5747 18.7989 18.9002 18.7989H21.7002V21.1989C21.6989 22.3029 20.8042 23.1976 19.7002 23.1989H4.5002C3.39617 23.1976 2.50152 22.3029 2.5002 21.1989V11.5989C2.50152 10.4949 3.39617 9.60023 4.5002 9.59891Z" fill="#999999"/>
<path d="M18.9 15.1992C18.4146 15.1992 17.9771 15.4916 17.7913 15.94C17.6056 16.3884 17.7083 16.9045 18.0515 17.2477C18.3947 17.5909 18.9108 17.6936 19.3592 17.5079C19.8076 17.3221 20.1 16.8846 20.1 16.3992C20.1 15.7365 19.5627 15.1992 18.9 15.1992ZM18.9 16.7992C18.6791 16.7992 18.5 16.6201 18.5 16.3992C18.5 16.1783 18.6791 15.9992 18.9 15.9992C19.1209 15.9992 19.3 16.1783 19.3 16.3992C19.3 16.6201 19.1209 16.7992 18.9 16.7992Z" fill="#999999"/>
<path d="M4.09995 11.1984H4.49995C4.72087 11.1984 4.89995 11.0194 4.89995 10.7984C4.89995 10.5775 4.72087 10.3984 4.49995 10.3984H4.09995C3.87904 10.3984 3.69995 10.5775 3.69995 10.7984C3.69995 11.0194 3.87904 11.1984 4.09995 11.1984Z" fill="#999999"/>
<path d="M6.09995 11.1984H6.49995C6.72087 11.1984 6.89995 11.0194 6.89995 10.7984C6.89995 10.5775 6.72087 10.3984 6.49995 10.3984H6.09995C5.87904 10.3984 5.69995 10.5775 5.69995 10.7984C5.69995 11.0194 5.87904 11.1984 6.09995 11.1984Z" fill="#999999"/>
<path d="M8.1002 11.1984H8.5002C8.72111 11.1984 8.9002 11.0194 8.9002 10.7984C8.9002 10.5775 8.72111 10.3984 8.5002 10.3984H8.1002C7.87928 10.3984 7.7002 10.5775 7.7002 10.7984C7.7002 11.0194 7.87928 11.1984 8.1002 11.1984Z" fill="#999999"/>
<path d="M10.1 11.1984H10.5C10.7209 11.1984 10.9 11.0194 10.9 10.7984C10.9 10.5775 10.7209 10.3984 10.5 10.3984H10.1C9.87904 10.3984 9.69995 10.5775 9.69995 10.7984C9.69995 11.0194 9.87904 11.1984 10.1 11.1984Z" fill="#999999"/>
<path d="M12.1 11.1984H12.5C12.7209 11.1984 12.9 11.0194 12.9 10.7984C12.9 10.5775 12.7209 10.3984 12.5 10.3984H12.1C11.879 10.3984 11.7 10.5775 11.7 10.7984C11.7 11.0194 11.879 11.1984 12.1 11.1984Z" fill="#999999"/>
<path d="M14.1002 11.1984H14.5002C14.7211 11.1984 14.9002 11.0194 14.9002 10.7984C14.9002 10.5775 14.7211 10.3984 14.5002 10.3984H14.1002C13.8793 10.3984 13.7002 10.5775 13.7002 10.7984C13.7002 11.0194 13.8793 11.1984 14.1002 11.1984Z" fill="#999999"/>
<path d="M16.1 11.1984H16.5C16.7209 11.1984 16.9 11.0194 16.9 10.7984C16.9 10.5775 16.7209 10.3984 16.5 10.3984H16.1C15.879 10.3984 15.7 10.5775 15.7 10.7984C15.7 11.0194 15.879 11.1984 16.1 11.1984Z" fill="#999999"/>
<path d="M18.1 11.1984H18.5C18.7209 11.1984 18.9 11.0194 18.9 10.7984C18.9 10.5775 18.7209 10.3984 18.5 10.3984H18.1C17.879 10.3984 17.7 10.5775 17.7 10.7984C17.7 11.0194 17.879 11.1984 18.1 11.1984Z" fill="#999999"/>
<path d="M20.1002 11.1984H20.5002C20.7211 11.1984 20.9002 11.0194 20.9002 10.7984C20.9002 10.5775 20.7211 10.3984 20.5002 10.3984H20.1002C19.8793 10.3984 19.7002 10.5775 19.7002 10.7984C19.7002 11.0194 19.8793 11.1984 20.1002 11.1984Z" fill="#999999"/>
<path d="M4.09995 22.3996H4.49995C4.72087 22.3996 4.89995 22.2205 4.89995 21.9996C4.89995 21.7787 4.72087 21.5996 4.49995 21.5996H4.09995C3.87904 21.5996 3.69995 21.7787 3.69995 21.9996C3.69995 22.2205 3.87904 22.3996 4.09995 22.3996Z" fill="#999999"/>
<path d="M6.09995 22.3996H6.49995C6.72087 22.3996 6.89995 22.2205 6.89995 21.9996C6.89995 21.7787 6.72087 21.5996 6.49995 21.5996H6.09995C5.87904 21.5996 5.69995 21.7787 5.69995 21.9996C5.69995 22.2205 5.87904 22.3996 6.09995 22.3996Z" fill="#999999"/>
<path d="M8.1002 22.3996H8.5002C8.72111 22.3996 8.9002 22.2205 8.9002 21.9996C8.9002 21.7787 8.72111 21.5996 8.5002 21.5996H8.1002C7.87928 21.5996 7.7002 21.7787 7.7002 21.9996C7.7002 22.2205 7.87928 22.3996 8.1002 22.3996Z" fill="#999999"/>
<path d="M10.1 22.3996H10.5C10.7209 22.3996 10.9 22.2205 10.9 21.9996C10.9 21.7787 10.7209 21.5996 10.5 21.5996H10.1C9.87904 21.5996 9.69995 21.7787 9.69995 21.9996C9.69995 22.2205 9.87904 22.3996 10.1 22.3996Z" fill="#999999"/>
<path d="M12.1 22.3996H12.5C12.7209 22.3996 12.9 22.2205 12.9 21.9996C12.9 21.7787 12.7209 21.5996 12.5 21.5996H12.1C11.879 21.5996 11.7 21.7787 11.7 21.9996C11.7 22.2205 11.879 22.3996 12.1 22.3996Z" fill="#999999"/>
<path d="M14.1002 22.3996H14.5002C14.7211 22.3996 14.9002 22.2205 14.9002 21.9996C14.9002 21.7787 14.7211 21.5996 14.5002 21.5996H14.1002C13.8793 21.5996 13.7002 21.7787 13.7002 21.9996C13.7002 22.2205 13.8793 22.3996 14.1002 22.3996Z" fill="#999999"/>
<path d="M16.1 22.3996H16.5C16.7209 22.3996 16.9 22.2205 16.9 21.9996C16.9 21.7787 16.7209 21.5996 16.5 21.5996H16.1C15.879 21.5996 15.7 21.7787 15.7 21.9996C15.7 22.2205 15.879 22.3996 16.1 22.3996Z" fill="#999999"/>
<path d="M18.1 22.3996H18.5C18.7209 22.3996 18.9 22.2205 18.9 21.9996C18.9 21.7787 18.7209 21.5996 18.5 21.5996H18.1C17.879 21.5996 17.7 21.7787 17.7 21.9996C17.7 22.2205 17.879 22.3996 18.1 22.3996Z" fill="#999999"/>
<path d="M20.1002 22.3996H20.5002C20.7211 22.3996 20.9002 22.2205 20.9002 21.9996C20.9002 21.7787 20.7211 21.5996 20.5002 21.5996H20.1002C19.8793 21.5996 19.7002 21.7787 19.7002 21.9996C19.7002 22.2205 19.8793 22.3996 20.1002 22.3996Z" fill="#999999"/>
</svg>
