<svg width="18" height="18" viewBox="0 0 18 18" fill="none" xmlns="http://www.w3.org/2000/svg">
<path fill-rule="evenodd" clip-rule="evenodd" d="M7.26447 2.02634C6.55162 2.57022 5.72282 3.39714 4.55974 4.56023C3.39665 5.72331 2.56973 6.55211 2.02585 7.26495C1.49297 7.96338 1.29102 8.47655 1.29102 8.99984C1.29102 9.52313 1.49297 10.0363 2.02585 10.7347C2.56973 11.4476 3.39665 12.2764 4.55974 13.4395C5.72282 14.6025 6.55162 15.4295 7.26446 15.9733C7.96289 16.5062 8.47606 16.7082 8.99935 16.7082C9.52264 16.7082 10.0358 16.5062 10.7342 15.9733C11.4471 15.4295 12.2759 14.6025 13.439 13.4394C14.602 12.2764 15.429 11.4476 15.9728 10.7347C16.5057 10.0363 16.7077 9.52313 16.7077 8.99984C16.7077 8.47655 16.5057 7.96338 15.9728 7.26495C15.429 6.55211 14.602 5.72331 13.439 4.56023C12.2759 3.39714 11.4471 2.57022 10.7342 2.02634C10.0358 1.49346 9.52264 1.2915 8.99935 1.2915C8.47606 1.2915 7.96289 1.49346 7.26447 2.02634ZM6.50624 1.03256C7.31585 0.414846 8.09286 0.0415039 8.99935 0.0415039C9.90584 0.0415039 10.6828 0.414846 11.4925 1.03256C12.2799 1.63334 13.1672 2.52069 14.2895 3.64302L14.3562 3.70966C15.4785 4.83198 16.3659 5.71931 16.9666 6.50673C17.5843 7.31634 17.9577 8.09335 17.9577 8.99984C17.9577 9.90632 17.5843 10.6833 16.9666 11.4929C16.3659 12.2804 15.4785 13.1677 14.3562 14.29L14.2895 14.3567C13.1672 15.479 12.2799 16.3663 11.4925 16.9671C10.6828 17.5848 9.90584 17.9582 8.99935 17.9582C8.09286 17.9582 7.31585 17.5848 6.50624 16.9671C5.71883 16.3663 4.83149 15.479 3.70918 14.3567L3.64253 14.29C2.5202 13.1677 1.63285 12.2804 1.03207 11.4929C0.414358 10.6833 0.0410156 9.90632 0.0410156 8.99984C0.0410156 8.09335 0.414358 7.31634 1.03207 6.50673C1.63284 5.71932 2.52019 4.83199 3.64251 3.70969L3.7092 3.643C4.8315 2.52067 5.71883 1.63333 6.50624 1.03256Z" fill="white"/>
<path fill-rule="evenodd" clip-rule="evenodd" d="M9.6545 6.07237C9.89058 5.82055 10.2861 5.8078 10.5379 6.04388L12.7601 8.12721C12.8862 8.24537 12.9577 8.41042 12.9577 8.58317C12.9577 8.75593 12.8862 8.92098 12.7601 9.03913L10.5379 11.1225C10.2861 11.3585 9.89058 11.3458 9.6545 11.094C9.41842 10.8421 9.43118 10.4466 9.683 10.2105L10.7522 9.20817H7.88824C7.61009 9.20817 7.18476 9.29124 6.84902 9.51787C6.54669 9.72194 6.29102 10.0544 6.29102 10.6665C6.29102 11.0117 6.01119 11.2915 5.66602 11.2915C5.32084 11.2915 5.04102 11.0117 5.04102 10.6665C5.04102 9.61195 5.52608 8.90274 6.14968 8.48181C6.73986 8.08344 7.42565 7.95817 7.88824 7.95817H10.7522L9.683 6.9558C9.43118 6.71972 9.41842 6.3242 9.6545 6.07237Z" fill="white"/>
</svg>
