<svg width="25" height="24" viewBox="0 0 25 24" fill="none" xmlns="http://www.w3.org/2000/svg">
<path fill-rule="evenodd" clip-rule="evenodd" d="M12.1318 1.25C9.50848 1.25 7.38184 3.37665 7.38184 6C7.38184 8.62335 9.50848 10.75 12.1318 10.75C14.7552 10.75 16.8818 8.62335 16.8818 6C16.8818 3.37665 14.7552 1.25 12.1318 1.25ZM8.88184 6C8.88184 4.20507 10.3369 2.75 12.1318 2.75C13.9268 2.75 15.3818 4.20507 15.3818 6C15.3818 7.79493 13.9268 9.25 12.1318 9.25C10.3369 9.25 8.88184 7.79493 8.88184 6Z" fill="#999999"/>
<path fill-rule="evenodd" clip-rule="evenodd" d="M12.1318 12.25C10.0925 12.25 8.20935 12.7208 6.80998 13.5204C5.43183 14.3079 4.38184 15.5101 4.38184 17C4.38184 18.4899 5.43183 19.6921 6.80998 20.4796C8.20935 21.2792 10.0925 21.75 12.1318 21.75C14.1712 21.75 16.0543 21.2792 17.4537 20.4796C18.8318 19.6921 19.8818 18.4899 19.8818 17C19.8818 15.5101 18.8318 14.3079 17.4537 13.5204C16.0543 12.7208 14.1712 12.25 12.1318 12.25ZM5.88184 17C5.88184 16.2807 6.39884 15.483 7.55419 14.8228C8.68833 14.1747 10.3052 13.75 12.1318 13.75C13.9585 13.75 15.5753 14.1747 16.7095 14.8228C17.8648 15.483 18.3818 16.2807 18.3818 17C18.3818 17.7193 17.8648 18.517 16.7095 19.1772C15.5753 19.8253 13.9585 20.25 12.1318 20.25C10.3052 20.25 8.68833 19.8253 7.55419 19.1772C6.39884 18.517 5.88184 17.7193 5.88184 17Z" fill="#999999"/>
</svg>
