<svg width="25" height="24" viewBox="0 0 25 24" fill="none" xmlns="http://www.w3.org/2000/svg">
<g clip-path="url(#clip0_441_16105)">
<path d="M22.9435 16.7818C23.5848 15.4512 23.9143 13.9919 23.907 12.5148C23.8998 11.0377 23.5558 9.58176 22.9014 8.25754C22.247 6.93333 21.2992 5.77574 20.1303 4.87276C18.9613 3.96977 17.6019 3.34517 16.1553 3.04641C12.3654 0.36221 7.06806 0.715601 3.67582 4.10785C2.25086 5.53298 1.30423 7.36588 0.966987 9.35278C0.629739 11.3397 0.918558 13.3823 1.79346 15.1978L0.387628 20.4449C0.362029 20.5403 0.362001 20.6408 0.387549 20.7362C0.413096 20.8316 0.463317 20.9186 0.533161 20.9884C0.603004 21.0583 0.690008 21.1085 0.785421 21.1341C0.880833 21.1596 0.981291 21.1596 1.07669 21.134L6.32388 19.728C7.04294 20.0758 7.8023 20.3332 8.58461 20.4944C10.0013 21.4945 11.6595 22.0977 13.3877 22.2414C15.1158 22.3852 16.8509 22.0643 18.4134 21.312L23.6606 22.7178C23.756 22.7434 23.8565 22.7434 23.9519 22.7179C24.0473 22.6923 24.1343 22.6421 24.2042 22.5723C24.274 22.5024 24.3242 22.4154 24.3498 22.32C24.3753 22.2246 24.3753 22.1241 24.3497 22.0287L22.9435 16.7818ZM6.23786 18.5862L1.72647 19.7951L2.93528 15.2837C2.97134 15.1493 2.95631 15.0063 2.8931 14.8823C1.96504 13.0602 1.71734 10.9668 2.19451 8.97847C2.67169 6.9901 3.84244 5.23713 5.49634 4.03465C7.15023 2.83218 9.1788 2.25906 11.2174 2.41831C13.256 2.57756 15.171 3.45874 16.6181 4.90346C19.967 8.25235 19.967 13.7014 16.6181 17.0503C13.8142 19.8542 9.9431 20.3146 6.63925 18.6286C6.51532 18.5653 6.37231 18.5502 6.23786 18.5862ZM18.4991 20.1701C18.3646 20.1341 18.2216 20.1491 18.0977 20.2123C15.9924 21.2874 13.5282 21.4184 11.342 20.6576C11.559 20.6396 11.7762 20.6145 11.9936 20.5822C14.0481 20.2779 15.9492 19.3179 17.4138 17.8454C20.9362 14.3229 21.182 8.74637 18.1525 4.93637C20.1635 5.98342 21.6796 7.78224 22.3709 9.94146C23.0623 12.1007 22.8729 14.4455 21.8441 16.4659C21.7809 16.5899 21.7659 16.7329 21.802 16.8674L23.0108 21.3787L18.4991 20.1701ZM8.80558 11.6113C8.75335 11.6635 8.69134 11.7049 8.62309 11.7332C8.55484 11.7615 8.48169 11.776 8.40782 11.776C8.33395 11.776 8.2608 11.7615 8.19256 11.7332C8.12431 11.7049 8.0623 11.6635 8.01006 11.6113C7.55556 11.1559 7.24625 10.576 7.1212 9.94483C6.99615 9.3137 7.06097 8.65966 7.30749 8.06536C7.554 7.47106 7.97114 6.96316 8.5062 6.60584C9.04125 6.24852 9.67022 6.05781 10.3136 6.05781C10.957 6.05781 11.586 6.24852 12.121 6.60584C12.6561 6.96316 13.0732 7.47106 13.3198 8.06536C13.5663 8.65966 13.6311 9.3137 13.506 9.94483C13.381 10.576 13.0717 11.1559 12.6172 11.6113L11.0483 13.1801C10.9918 13.2333 10.9473 13.2978 10.9176 13.3695C10.8879 13.4411 10.8738 13.5183 10.8761 13.5958V14.2811C10.8761 14.4303 10.8169 14.5734 10.7114 14.6789C10.6059 14.7844 10.4628 14.8436 10.3136 14.8436C10.1645 14.8436 10.0214 14.7844 9.9159 14.6789C9.81041 14.5734 9.75114 14.4303 9.75114 14.2811V13.5958C9.74926 13.3706 9.79269 13.1473 9.87886 12.9393C9.96502 12.7312 10.0922 12.5426 10.2527 12.3847L11.8216 10.8158C12.1188 10.5177 12.3209 10.1383 12.4026 9.72536C12.4842 9.31247 12.4417 8.88464 12.2803 8.49592C12.1189 8.10719 11.846 7.775 11.4959 7.54131C11.1459 7.30761 10.7345 7.18288 10.3136 7.18288C9.89269 7.18288 9.48124 7.30761 9.1312 7.54131C8.78115 7.775 8.50821 8.10719 8.34685 8.49592C8.18549 8.88464 8.14294 9.31247 8.22458 9.72536C8.30621 10.1383 8.50838 10.5177 8.80553 10.8158C8.85777 10.868 8.89921 10.93 8.92749 10.9982C8.95576 11.0665 8.97031 11.1396 8.97032 11.2135C8.97032 11.2874 8.95578 11.3605 8.92751 11.4288C8.89925 11.497 8.85781 11.559 8.80558 11.6113ZM10.9337 15.7962V15.7998C10.9332 15.9489 10.8736 16.0916 10.768 16.1967C10.6624 16.3019 10.5193 16.3608 10.3703 16.3605C10.2213 16.3603 10.0784 16.3009 9.97314 16.1955C9.86785 16.09 9.80871 15.9471 9.80871 15.798C9.80871 15.649 9.86785 15.5061 9.97314 15.4006C10.0784 15.2951 10.2213 15.2358 10.3703 15.2355C10.5193 15.2353 10.6624 15.2942 10.768 15.3993C10.8736 15.5045 10.9332 15.6472 10.9337 15.7962Z" fill="#999999"/>
</g>
<defs>
<clipPath id="clip0_441_16105">
<rect width="24" height="24" fill="white" transform="translate(0.368408)"/>
</clipPath>
</defs>
</svg>
