<svg width="25" height="24" viewBox="0 0 25 24" fill="none" xmlns="http://www.w3.org/2000/svg">
<mask id="mask0_2408_25711" style="mask-type:luminance" maskUnits="userSpaceOnUse" x="0" y="0" width="25" height="24">
<path d="M0.841797 0H24.8418V24H0.841797V0Z" fill="white"/>
</mask>
<g mask="url(#mask0_2408_25711)">
<path fill-rule="evenodd" clip-rule="evenodd" d="M17.9548 7C17.9548 4.23857 15.6656 2 12.8418 2C10.018 2 7.72883 4.23857 7.72883 7H5.39866C3.86094 7 2.67118 8.31796 2.86191 9.81008L4.14016 19.8101C4.30007 21.0612 5.38761 22 6.6769 22H19.0067C20.296 22 21.3835 21.0612 21.5435 19.8101L22.8217 9.81008C23.0124 8.31795 21.8226 7 20.285 7H17.9548ZM17.9548 10.3333C17.9548 10.7936 17.5732 11.1667 17.1026 11.1667C16.632 11.1667 16.2505 10.7936 16.2505 10.3333V8.66667H5.39866C4.88608 8.66667 4.4895 9.10598 4.55307 9.60336L5.83131 19.6033C5.88462 20.0204 6.24713 20.3333 6.6769 20.3333H19.0067C19.4365 20.3333 19.799 20.0204 19.8523 19.6033L21.1305 9.60336C21.1941 9.10598 20.7975 8.66667 20.285 8.66667H17.9548V10.3333ZM9.43316 7H16.2505C16.2505 5.15905 14.7244 3.66667 12.8418 3.66667C10.9593 3.66667 9.43316 5.15905 9.43316 7Z" fill="white"/>
</g>
</svg>
