<svg width="25" height="24" viewBox="0 0 25 24" fill="none" xmlns="http://www.w3.org/2000/svg">
<path d="M9.37036 7C9.38247 4.82497 9.47892 3.64706 10.2473 2.87868C11.126 2 12.5402 2 15.3686 2L16.3686 2C19.1971 2 20.6113 2 21.4899 2.87868C22.3686 3.75736 22.3686 5.17157 22.3686 8L22.3686 16C22.3686 18.8284 22.3686 20.2426 21.4899 21.1213C20.6113 22 19.1971 22 16.3686 22H15.3686C12.5402 22 11.126 22 10.2473 21.1213C9.47892 20.3529 9.38247 19.175 9.37036 17" stroke="#999999" stroke-width="1.5" stroke-linecap="round"/>
<path d="M15.3684 12L2.36841 12M2.36841 12L5.86841 9M2.36841 12L5.86841 15" stroke="#999999" stroke-width="1.5" stroke-linecap="round" stroke-linejoin="round"/>
</svg>
