<svg width="25" height="24" viewBox="0 0 25 24" fill="none" xmlns="http://www.w3.org/2000/svg">
<path fill-rule="evenodd" clip-rule="evenodd" d="M12.1319 1.25C7.85167 1.25 4.38188 4.71979 4.38188 9V9.7041C4.38188 10.401 4.17559 11.0824 3.789 11.6622L2.6404 13.3851C1.3073 15.3848 2.32501 18.1028 4.6436 18.7351C5.39922 18.9412 6.16121 19.1155 6.92762 19.2581L6.92951 19.2632C7.69851 21.3151 9.75382 22.75 12.1318 22.75C14.5098 22.75 16.5651 21.3151 17.3341 19.2632L17.336 19.2581C18.1025 19.1155 18.8645 18.9412 19.6201 18.7351C21.9387 18.1028 22.9564 15.3848 21.6234 13.3851L20.4747 11.6622C20.0882 11.0824 19.8819 10.401 19.8819 9.7041V9C19.8819 4.71979 16.4121 1.25 12.1319 1.25ZM15.5083 19.537C13.2653 19.805 10.9983 19.8049 8.75533 19.5369C9.46628 20.5585 10.7028 21.25 12.1318 21.25C13.5608 21.25 14.7973 20.5585 15.5083 19.537ZM5.88188 9C5.88188 5.54822 8.6801 2.75 12.1319 2.75C15.5837 2.75 18.3819 5.54822 18.3819 9V9.7041C18.3819 10.6972 18.6758 11.668 19.2267 12.4943L20.3753 14.2172C21.1404 15.3649 20.5563 16.925 19.2255 17.288C14.5812 18.5546 9.68253 18.5546 5.03828 17.288C3.70745 16.925 3.1233 15.3649 3.88848 14.2172L5.03708 12.4943C5.58793 11.668 5.88188 10.6972 5.88188 9.7041V9Z" fill="#999999"/>
</svg>
