<svg width="25" height="24" viewBox="0 0 25 24" fill="none" xmlns="http://www.w3.org/2000/svg">
<path d="M22.8881 1.61194L22.8849 1.60907C22.7085 1.43419 22.4653 1.33398 22.2171 1.33398H22.2158C22.0013 1.33398 21.7913 1.40773 21.6246 1.54144C19.3559 3.35353 17.0788 5.22394 14.8564 7.10061C14.316 7.5569 13.7751 8.01678 13.2347 8.47919L7.06478 2.30936C6.45553 1.70019 5.46428 1.70028 4.85507 2.30936L1.92478 5.23969C1.80274 5.36178 1.80274 5.55961 1.92478 5.68165C2.04682 5.80365 2.2447 5.80365 2.3667 5.68165L4.41316 3.63523L4.86037 4.08244L2.81395 6.12886C2.69191 6.25094 2.69191 6.44878 2.81395 6.57082C2.87495 6.63182 2.95495 6.66232 3.03491 6.66232C3.11487 6.66232 3.19487 6.63182 3.25587 6.57082L5.30233 4.5244L5.74953 4.97161L3.70307 7.01803C3.58103 7.14011 3.58103 7.33794 3.70307 7.45998C3.76407 7.52098 3.84407 7.55148 3.92403 7.55148C4.00399 7.55148 4.08399 7.52098 4.14499 7.45998L6.19145 5.41353L6.63866 5.86073L4.59224 7.90715C4.4702 8.02923 4.4702 8.22707 4.59224 8.34911C4.65324 8.41011 4.73324 8.44061 4.8132 8.44061C4.89316 8.44061 4.97316 8.41011 5.03416 8.34911L7.08057 6.30269L7.52778 6.7499L5.48137 8.79632C5.35932 8.9184 5.35932 9.11623 5.48137 9.23828C5.54237 9.29928 5.62237 9.32978 5.70232 9.32978C5.78228 9.32978 5.86228 9.29928 5.92328 9.23828L7.9697 7.19186L8.41691 7.63907L6.37049 9.68548C6.24845 9.80757 6.24845 10.0054 6.37049 10.1274C6.43149 10.1884 6.51149 10.2189 6.59145 10.2189C6.67141 10.2189 6.75141 10.1884 6.81241 10.1274L8.85883 8.08103L9.30603 8.52823L7.25962 10.5747C7.13758 10.6967 7.13758 10.8946 7.25962 11.0166C7.32062 11.0776 7.40062 11.1081 7.48058 11.1081C7.56053 11.1081 7.64053 11.0776 7.70153 11.0166L9.74795 8.97019L10.1952 9.41744L8.14878 11.4639C8.02674 11.5859 8.02674 11.7838 8.14878 11.9058C8.20978 11.9668 8.28978 11.9973 8.36974 11.9973C8.4497 11.9973 8.5297 11.9668 8.5907 11.9058L10.6372 9.85936L11.1001 10.3223C10.1406 11.1579 9.18599 11.9985 8.24216 12.8402C7.96178 13.0895 7.65553 13.3772 7.35383 13.6493C7.16899 13.783 7.2042 14.0181 7.29591 14.1098C7.59674 14.4739 7.76341 14.9394 7.76341 15.4202C7.76341 15.9822 7.54716 16.5081 7.15428 16.9006C7.15033 16.9045 6.21587 17.839 6.21178 17.8431C4.85282 19.2337 2.45962 18.2847 2.45824 16.3152C2.45907 15.1195 3.42478 14.1319 4.64487 14.1311C5.30941 14.1315 5.92983 14.4273 6.34691 14.9419C6.46003 15.0813 6.66774 15.0964 6.79941 14.9769C6.80108 14.9757 6.80232 14.9744 6.80399 14.9727L6.80691 14.9702C6.95328 14.8386 6.94295 14.6015 6.77941 14.4844C6.24524 13.8627 5.46816 13.5061 4.64695 13.5061H4.64278C3.08037 13.5061 1.83145 14.7784 1.83328 16.3152C1.83191 17.4733 2.53962 18.4962 3.58657 18.9215C4.20824 19.1732 4.88924 19.1906 5.50441 18.9934C4.91808 20.8174 6.2827 22.6673 8.17937 22.6673H8.1827C9.73253 22.6673 10.9956 21.4127 10.9939 19.8565C10.9947 19.1169 10.7097 18.419 10.1927 17.8906L10.8307 17.1652C11.9566 15.9124 13.0702 14.6539 14.1703 13.3924L14.6412 13.8632L12.5947 15.9097C12.4727 16.0317 12.4727 16.2296 12.5947 16.3516C12.6558 16.4126 12.7358 16.4431 12.8157 16.4431C12.8957 16.4431 12.9757 16.4126 13.0367 16.3516L15.0832 14.3052L15.5304 14.7524L13.484 16.7988C13.3619 16.9209 13.3619 17.1187 13.484 17.2408C13.545 17.3018 13.625 17.3323 13.705 17.3323C13.7849 17.3323 13.8649 17.3018 13.926 17.2408L15.9724 15.1944L16.4195 15.6415L14.3731 17.6879C14.2511 17.81 14.2511 18.0079 14.3731 18.1299C14.4342 18.1909 14.5142 18.2214 14.5941 18.2214C14.6741 18.2214 14.7541 18.1909 14.8151 18.1299L16.8615 16.0835L17.3087 16.5307L15.2623 18.5771C15.1402 18.6992 15.1402 18.897 15.2623 19.0191C15.3233 19.0801 15.4033 19.1106 15.4833 19.1106C15.5632 19.1106 15.6432 19.0801 15.7043 19.0191L17.7507 16.9726L18.1979 17.4198L16.1515 19.4662C16.0295 19.5883 16.0295 19.7862 16.1515 19.9082C16.2125 19.9692 16.2925 19.9997 16.3725 19.9997C16.4525 19.9997 16.5325 19.9692 16.5935 19.9082L18.6399 17.8618L19.0871 18.3089L17.0407 20.3554C16.9186 20.4774 16.9186 20.6753 17.0407 20.7973C17.1017 20.8583 17.1817 20.8888 17.2617 20.8888C17.3416 20.8888 17.4216 20.8583 17.4827 20.7973L19.5291 18.7509L19.9762 19.1981L17.9298 21.2445C17.8078 21.3666 17.8078 21.5644 17.9298 21.6864C17.9909 21.7474 18.0709 21.7779 18.1508 21.7779C18.2308 21.7779 18.3108 21.7474 18.3718 21.6864L20.4182 19.64L20.8654 20.0872L18.819 22.1336C18.697 22.2557 18.697 22.4535 18.819 22.5756C18.88 22.6366 18.96 22.6671 19.04 22.6671C19.12 22.6671 19.2 22.6366 19.261 22.5756L21.5281 20.3084L22.1913 19.6452C22.4864 19.3501 22.649 18.9577 22.649 18.5404C22.649 18.123 22.4864 17.7306 22.1913 17.4355L16.0146 11.2592C18.4106 8.46411 20.7333 5.66057 22.9589 2.87523C23.2609 2.49728 23.2304 1.95419 22.8881 1.61194ZM4.85512 3.19328L5.29703 2.75136C5.66253 2.38586 6.25732 2.38586 6.62287 2.75136L12.759 8.88757C12.3632 9.22765 11.9676 9.56865 11.5729 9.91111L4.85512 3.19328ZM21.7492 17.8777C21.9263 18.0548 22.0239 18.2902 22.0239 18.5406C22.0239 18.791 21.9263 19.0264 21.7492 19.2035L21.3073 19.6454C21.1008 19.439 15.025 13.3632 14.5817 12.9198C14.9246 12.5251 15.2663 12.1302 15.6064 11.7349L21.7492 17.8777ZM10.5397 16.5533C10.3883 16.4374 9.98445 16.2366 9.91728 15.6664C9.89853 15.509 9.76562 15.3906 9.6077 15.3906C9.41891 15.3906 9.27503 15.5546 9.29645 15.7398C9.35603 16.2494 9.63312 16.6998 10.0556 16.9752C10.0777 16.9898 10.0998 17.0048 10.1227 17.0214C9.90595 17.2687 9.72703 17.4769 9.52187 17.7035C9.46478 17.7669 9.43562 17.8522 9.44228 17.9372C9.44853 18.0222 9.49062 18.1022 9.55687 18.156C10.0813 18.5841 10.3684 19.2003 10.3689 19.8564C10.3681 21.0608 9.39787 22.0414 8.18149 22.0423C6.97924 22.0407 5.99403 21.0717 5.99403 19.8564C5.99545 18.8674 6.62099 18.3377 6.66903 18.2698L7.59612 17.3427C8.10687 16.8319 8.38858 16.1409 8.38858 15.4202C8.38899 14.8935 8.23816 14.3847 7.9532 13.9498C8.19787 13.726 8.41066 13.5275 8.65778 13.3072L8.65903 13.3056C15.4346 7.26423 21.9349 2.07103 22.0571 2.00107C21.9733 2.08486 9.78062 14.2723 9.72437 14.3357C9.60978 14.4648 9.62187 14.6627 9.75062 14.7769C9.88003 14.8922 10.0782 14.8787 10.1919 14.7507C10.2292 14.7081 22.4097 2.53203 22.499 2.44273C22.4735 2.48769 17.4408 8.86228 10.5397 16.5533Z" fill="#999999"/>
<path d="M4.90719 15.6139C3.79826 14.505 1.90616 15.3041 1.90625 16.8566C1.90625 17.3259 2.0892 17.7672 2.42141 18.0994C2.76411 18.442 3.21411 18.6133 3.6643 18.6133C4.11434 18.6133 4.56453 18.4419 4.90719 18.0994C5.5933 17.4134 5.59339 16.2999 4.90719 15.6139ZM4.41008 17.6021C3.99884 18.0132 3.32975 18.0133 2.91852 17.6021C2.25992 16.9436 2.72108 15.8027 3.6643 15.8027C4.61023 15.8028 5.06567 16.9466 4.41008 17.6021Z" fill="#999999"/>
<path d="M7.64166 19.082C6.9188 19.082 6.29785 19.4971 6.0211 20.1652C5.74299 20.8367 5.88774 21.5712 6.39882 22.0822C6.73828 22.4216 7.17558 22.5995 7.62717 22.5995C7.85532 22.5995 8.08716 22.5541 8.31169 22.4611C8.98261 22.1831 9.39942 21.5617 9.39942 20.8394C9.39938 19.8704 8.61089 19.082 7.64166 19.082ZM8.04253 21.8115C7.728 21.9417 7.26164 21.9507 6.89588 21.585C6.52993 21.2191 6.53963 20.7507 6.67064 20.4343C6.80063 20.1205 7.12397 19.7851 7.64161 19.7851C8.22314 19.7851 8.69625 20.2581 8.69625 20.8394C8.69625 21.3565 8.35856 21.6806 8.04253 21.8115Z" fill="#999999"/>
</svg>
