<svg width="25" height="24" viewBox="0 0 25 24" fill="none" xmlns="http://www.w3.org/2000/svg">
<g clip-path="url(#clip0_441_16006)">
<path d="M20.0553 22.6686H4.94417C4.20906 22.6686 3.61084 22.0704 3.61084 21.3353V12.4464C3.61084 12.2011 3.80995 12.002 4.05528 12.002H20.9442C21.1895 12.002 21.3886 12.2011 21.3886 12.4464V21.3353C21.3886 22.0704 20.7904 22.6686 20.0553 22.6686ZM4.49973 12.8908V21.3353C4.49973 21.5797 4.69973 21.7797 4.94417 21.7797H20.0553C20.2997 21.7797 20.4997 21.5797 20.4997 21.3353V12.8908H4.49973Z" fill="#999999"/>
<path d="M21.833 12.8919H3.16634C2.43123 12.8919 1.83301 12.2937 1.83301 11.5586V8.89193C1.83301 8.15682 2.43123 7.55859 3.16634 7.55859H21.833C22.5681 7.55859 23.1663 8.15682 23.1663 8.89193V11.5586C23.1663 12.2937 22.5681 12.8919 21.833 12.8919ZM3.16634 8.44748C2.9219 8.44748 2.7219 8.64748 2.7219 8.89193V11.5586C2.7219 11.803 2.9219 12.003 3.16634 12.003H21.833C22.0775 12.003 22.2775 11.803 22.2775 11.5586V8.89193C22.2775 8.64748 22.0775 8.44748 21.833 8.44748H3.16634Z" fill="#999999"/>
<path d="M12.4998 8.44705C12.3709 8.44705 12.2483 8.39194 12.1638 8.29327C12.0794 8.19638 12.0412 8.06749 12.0598 7.94038C12.0696 7.87372 13.0634 1.33594 18.2776 1.33594C20.5745 1.33594 21.3896 2.57683 21.3896 3.63905C21.3896 5.63549 18.6314 8.44705 12.4998 8.44705ZM18.2776 2.22483C14.6225 2.22483 13.3763 6.1226 13.0429 7.54927C17.9132 7.39816 20.5007 5.22394 20.5007 3.63905C20.5007 3.24438 20.3345 2.91905 20.0083 2.6746C19.6172 2.38038 19.018 2.22483 18.2776 2.22483Z" fill="#999999"/>
<path d="M12.5006 8.44705C6.36906 8.44705 3.61084 5.63549 3.61084 3.63905C3.61084 2.96883 3.91217 2.37327 4.45795 1.96349C5.00462 1.55283 5.78773 1.33594 6.72284 1.33594C11.9371 1.33594 12.9308 7.87372 12.9406 7.94038C12.9593 8.06838 12.9211 8.19638 12.8366 8.29327C12.7522 8.39194 12.6295 8.44705 12.5006 8.44705ZM6.72284 2.22483C5.35128 2.22483 4.49973 2.76616 4.49973 3.63905C4.49973 5.22483 7.08906 7.39905 11.962 7.55016C11.6393 6.1146 10.4242 2.22483 6.72284 2.22483Z" fill="#999999"/>
<path d="M12.4996 22.6697C12.2543 22.6697 12.0552 22.4706 12.0552 22.2253V8.00304C12.0552 7.7577 12.2543 7.55859 12.4996 7.55859C12.745 7.55859 12.9441 7.7577 12.9441 8.00304V22.2253C12.9441 22.4706 12.745 22.6697 12.4996 22.6697Z" fill="#999999"/>
</g>
<defs>
<clipPath id="clip0_441_16006">
<rect width="21.3333" height="21.3333" fill="white" transform="translate(1.83325 1.33398)"/>
</clipPath>
</defs>
</svg>
