<svg width="25" height="24" viewBox="0 0 25 24" fill="none" xmlns="http://www.w3.org/2000/svg">
<path d="M7.99966 15.3744H4.62485C4.52543 15.3743 4.43011 15.3348 4.35981 15.2645C4.28951 15.1942 4.24997 15.0989 4.24987 14.9994V9.74973C4.24672 9.45345 4.1268 9.17038 3.91618 8.96199C3.70555 8.7536 3.42122 8.63672 3.12493 8.63672C2.82863 8.63672 2.5443 8.75361 2.33368 8.96201C2.12306 9.1704 2.00315 9.45348 2 9.74975V14.9994C2.00023 15.4254 2.10418 15.8449 2.30289 16.2217C2.5016 16.5985 2.78908 16.9212 3.14048 17.162C3.11848 17.1828 2.39013 22.0388 2.37935 22.0671C2.36617 22.1645 2.39177 22.2632 2.45062 22.3419C2.50948 22.4207 2.59689 22.4731 2.69405 22.4881C2.7912 22.503 2.89033 22.4792 2.97009 22.4217C3.04986 22.3643 3.10388 22.2778 3.12054 22.181L3.84006 17.5042C4.09402 17.5839 4.35867 17.6244 4.62485 17.6243H6.92805L7.62908 22.181C7.6458 22.2778 7.69986 22.3642 7.77961 22.4215C7.85937 22.4789 7.95846 22.5027 8.05557 22.4878C8.15267 22.4729 8.24005 22.4204 8.29889 22.3417C8.35774 22.2631 8.38336 22.1644 8.37024 22.0671L7.68673 17.6243H7.99966C8.29594 17.6211 8.57901 17.5012 8.7874 17.2906C8.99579 17.08 9.11268 16.7956 9.11268 16.4993C9.11268 16.2031 8.99579 15.9187 8.7874 15.7081C8.57901 15.4975 8.29594 15.3776 7.99966 15.3744ZM7.99966 16.8743H4.62485C4.12778 16.8737 3.65123 16.676 3.29975 16.3245C2.94826 15.9731 2.75054 15.4965 2.74996 14.9994V9.74973C2.74996 9.65028 2.78947 9.5549 2.85979 9.48458C2.93011 9.41426 3.02549 9.37475 3.12494 9.37475C3.22439 9.37475 3.31976 9.41426 3.39009 9.48458C3.46041 9.5549 3.49991 9.65028 3.49991 9.74973V14.9994C3.50024 15.2977 3.61886 15.5836 3.82976 15.7945C4.04066 16.0054 4.3266 16.124 4.62485 16.1244H7.99966C8.09812 16.1259 8.19205 16.166 8.26116 16.2362C8.33026 16.3063 8.36899 16.4009 8.36899 16.4993C8.36899 16.5978 8.33026 16.6923 8.26116 16.7625C8.19205 16.8327 8.09812 16.8728 7.99966 16.8743Z" fill="#999999"/>
<path d="M22.9989 14.9994V9.74973C22.9957 9.45345 22.8758 9.17038 22.6652 8.96199C22.4546 8.7536 22.1702 8.63672 21.8739 8.63672C21.5777 8.63672 21.2933 8.75361 21.0827 8.96201C20.8721 9.1704 20.7522 9.45348 20.749 9.74975V14.9994C20.7489 15.0989 20.7094 15.1942 20.6391 15.2645C20.5688 15.3348 20.4735 15.3743 20.374 15.3744H16.9992C16.703 15.3776 16.4199 15.4975 16.2115 15.7081C16.0031 15.9187 15.8862 16.2031 15.8862 16.4994C15.8862 16.7957 16.0031 17.08 16.2115 17.2906C16.4199 17.5012 16.703 17.6211 16.9993 17.6243H17.3122L16.6286 22.0671C16.6155 22.1645 16.6411 22.2632 16.6999 22.3419C16.7588 22.4206 16.8462 22.4731 16.9433 22.488C17.0405 22.5029 17.1396 22.4791 17.2194 22.4217C17.2991 22.3643 17.3532 22.2778 17.3698 22.181L18.0709 17.6243H20.3741C20.6402 17.6244 20.9049 17.5839 21.1588 17.5042L21.8784 22.181C21.8858 22.2296 21.9028 22.2764 21.9284 22.3185C21.9539 22.3606 21.9875 22.3972 22.0272 22.4263C22.0669 22.4555 22.1119 22.4765 22.1597 22.4882C22.2076 22.4999 22.2572 22.5021 22.3059 22.4946C22.3546 22.4871 22.4013 22.4701 22.4434 22.4446C22.4855 22.4191 22.5221 22.3855 22.5513 22.3458C22.5804 22.3061 22.6014 22.2611 22.6131 22.2132C22.6248 22.1654 22.627 22.1158 22.6195 22.0671L21.8696 17.1924C22.2106 16.9353 22.4893 16.6047 22.6849 16.225C22.8804 15.8453 22.9877 15.4264 22.9989 14.9994ZM20.374 16.8743H16.9992C16.9011 16.8724 16.8076 16.832 16.7388 16.7619C16.6701 16.6918 16.6316 16.5975 16.6316 16.4993C16.6316 16.4011 16.6701 16.3069 16.7388 16.2368C16.8076 16.1667 16.9011 16.1263 16.9993 16.1244H20.374C20.6723 16.124 20.9582 16.0054 21.1691 15.7945C21.38 15.5836 21.4987 15.2977 21.499 14.9994V9.74973C21.4988 9.70039 21.5084 9.6515 21.5272 9.60587C21.546 9.56024 21.5735 9.51876 21.6084 9.48381C21.6432 9.44887 21.6846 9.42114 21.7302 9.40222C21.7758 9.3833 21.8246 9.37356 21.874 9.37356C21.9233 9.37356 21.9722 9.3833 22.0177 9.40222C22.0633 9.42114 22.1047 9.44887 22.1395 9.48381C22.1744 9.51876 22.202 9.56024 22.2207 9.60587C22.2395 9.6515 22.2491 9.70039 22.2489 9.74973V14.9994C22.2484 15.4965 22.0506 15.9731 21.6991 16.3245C21.3477 16.676 20.8711 16.8737 20.374 16.8743Z" fill="#999999"/>
<path d="M14.3741 21.7494H12.8742V14.2499H16.9989C17.2973 14.2499 17.5834 14.1314 17.7944 13.9204C18.0054 13.7094 18.1239 13.4233 18.1239 13.1249C18.1239 12.8266 18.0054 12.5405 17.7944 12.3295C17.5834 12.1185 17.2973 12 16.9989 12H7.99945C7.7011 12 7.41496 12.1185 7.204 12.3295C6.99303 12.5405 6.87451 12.8266 6.87451 13.1249C6.87451 13.4233 6.99303 13.7094 7.204 13.9204C7.41496 14.1314 7.7011 14.2499 7.99945 14.2499H12.1242V21.7494H10.6243C10.575 21.7493 10.5261 21.7589 10.4804 21.7776C10.4348 21.7964 10.3933 21.824 10.3584 21.8589C10.3234 21.8937 10.2957 21.9351 10.2768 21.9807C10.2579 22.0262 10.2481 22.0751 10.2481 22.1244C10.2481 22.1738 10.2579 22.2226 10.2768 22.2682C10.2957 22.3138 10.3234 22.3552 10.3584 22.39C10.3933 22.4248 10.4348 22.4524 10.4804 22.4712C10.5261 22.49 10.575 22.4996 10.6243 22.4994H14.3741C14.4733 22.4991 14.5684 22.4594 14.6385 22.3892C14.7085 22.3189 14.7479 22.2237 14.7479 22.1244C14.7479 22.0252 14.7085 21.93 14.6385 21.8597C14.5684 21.7894 14.4733 21.7498 14.3741 21.7494ZM7.99946 13.4999C7.90022 13.4996 7.80514 13.46 7.73508 13.3897C7.66501 13.3194 7.62567 13.2242 7.62567 13.1249C7.62567 13.0257 7.66501 12.9305 7.73508 12.8602C7.80514 12.7899 7.90022 12.7503 7.99946 12.75H16.9989C17.0483 12.7498 17.0972 12.7594 17.1428 12.7782C17.1884 12.7969 17.2299 12.8245 17.2649 12.8594C17.2998 12.8942 17.3275 12.9356 17.3464 12.9812C17.3654 13.0267 17.3751 13.0756 17.3751 13.1249C17.3751 13.1743 17.3654 13.2231 17.3464 13.2687C17.3275 13.3143 17.2998 13.3557 17.2649 13.3905C17.2299 13.4253 17.1884 13.4529 17.1428 13.4717C17.0972 13.4905 17.0483 13.5001 16.9989 13.4999H7.99946Z" fill="#999999"/>
<path d="M9.49948 7.87583H15.4992C15.5484 7.87584 15.5972 7.86615 15.6427 7.84731C15.6882 7.82847 15.7295 7.80085 15.7643 7.76603C15.7992 7.7312 15.8268 7.68986 15.8456 7.64436C15.8645 7.59886 15.8741 7.55009 15.8741 7.50085V7.12587C15.873 6.29619 15.5666 5.49595 15.0134 4.87765C14.4601 4.25934 13.6987 3.86621 12.8743 3.77317V1.87617C12.8745 1.82682 12.8649 1.77794 12.8461 1.7323C12.8273 1.68667 12.7997 1.64519 12.7649 1.61025C12.7301 1.5753 12.6887 1.54758 12.6431 1.52866C12.5975 1.50974 12.5487 1.5 12.4993 1.5C12.45 1.5 12.4011 1.50974 12.3555 1.52866C12.31 1.54758 12.2686 1.5753 12.2338 1.61025C12.1989 1.64519 12.1713 1.68667 12.1525 1.7323C12.1338 1.77794 12.1242 1.82682 12.1243 1.87617V3.77317C11.2999 3.86621 10.5385 4.25934 9.98529 4.87765C9.43206 5.49595 9.12567 6.29619 9.12451 7.12587V7.50085C9.1245 7.55009 9.13419 7.59886 9.15303 7.64436C9.17187 7.68986 9.19949 7.7312 9.23431 7.76602C9.26913 7.80084 9.31047 7.82846 9.35597 7.84731C9.40147 7.86615 9.45023 7.87584 9.49948 7.87583ZM12.4993 4.50102C13.1952 4.50183 13.8624 4.77863 14.3545 5.27071C14.8465 5.76279 15.1233 6.42996 15.1242 7.12587H9.87446C9.87527 6.42996 10.1521 5.76279 10.6442 5.27071C11.1362 4.77864 11.8034 4.50183 12.4993 4.50102Z" fill="#999999"/>
</svg>
