<svg width="25" height="24" viewBox="0 0 25 24" fill="none" xmlns="http://www.w3.org/2000/svg">
<g clip-path="url(#clip0_1009_17881)">
<path d="M18.9532 14.9108C19.3607 13.9948 19.5702 13.0032 19.5682 12.0008C19.5682 10.0912 18.8097 8.25987 17.4594 6.90961C16.1091 5.55935 14.2778 4.80078 12.3682 4.80078C10.4587 4.80078 8.62733 5.55935 7.27707 6.90961C5.9268 8.25987 5.16823 10.0912 5.16823 12.0008C5.16579 13.0033 5.37537 13.995 5.78323 14.9108C5.82488 15.0094 5.88582 15.0986 5.96248 15.1733C6.03913 15.248 6.12995 15.3066 6.2296 15.3457C6.32924 15.3847 6.43569 15.4035 6.54268 15.4008C6.64967 15.3981 6.75504 15.374 6.8526 15.33C6.95015 15.286 7.03791 15.2229 7.11071 15.1444C7.18352 15.066 7.2399 14.9738 7.27653 14.8732C7.31316 14.7727 7.32931 14.6658 7.32402 14.5589C7.31873 14.452 7.29211 14.3472 7.24573 14.2508C6.93228 13.5422 6.77129 12.7756 6.77323 12.0008C6.82629 10.5514 7.43938 9.179 8.48355 8.17236C9.52772 7.16571 10.9216 6.60323 12.372 6.60323C13.8224 6.60323 15.2162 7.16571 16.2604 8.17236C17.3046 9.179 17.9177 10.5514 17.9707 12.0008C17.9725 12.7756 17.8115 13.5421 17.4982 14.2508C17.4117 14.4497 17.4077 14.6748 17.4872 14.8767C17.5667 15.0785 17.7231 15.2405 17.922 15.327C18.1209 15.4136 18.346 15.4175 18.5479 15.3381C18.7497 15.2586 18.9117 15.1022 18.9982 14.9033L18.9532 14.9108Z" fill="#999999"/>
<path d="M16.3731 16.1856H8.3706C8.23785 16.1841 8.10682 16.2156 7.98924 16.2773C7.87166 16.3389 7.77121 16.4288 7.69688 16.5388C7.62256 16.6488 7.57669 16.7755 7.56337 16.9076C7.55006 17.0397 7.56972 17.173 7.6206 17.2956L8.8131 20.1231C9.03561 20.6557 9.44316 21.0899 9.9606 21.3456V22.3956C9.96059 22.607 10.0024 22.8163 10.0835 23.0115C10.1646 23.2068 10.2835 23.384 10.4333 23.5332C10.5832 23.6823 10.761 23.8004 10.9566 23.8806C11.1522 23.9608 11.3617 24.0016 11.5731 24.0006H13.1706C13.5937 23.9986 13.9989 23.8297 14.298 23.5305C14.5972 23.2314 14.7661 22.8262 14.7681 22.4031V21.3531C15.2855 21.0974 15.6931 20.6632 15.9156 20.1306L17.1081 17.3031C17.159 17.1805 17.1786 17.0472 17.1653 16.9151C17.152 16.783 17.1061 16.6563 17.0318 16.5463C16.9575 16.4363 16.857 16.3464 16.7395 16.2848C16.6219 16.2231 16.4908 16.1916 16.3581 16.1931L16.3731 16.1856ZM11.5731 22.3956V21.6006H13.1706V22.4031L11.5731 22.3956Z" fill="#999999"/>
<path d="M12.3682 3.20314C12.5811 3.20314 12.7852 3.11859 12.9357 2.96809C13.0862 2.81759 13.1707 2.61347 13.1707 2.40064V0.803135C13.1515 0.604646 13.059 0.420437 12.9114 0.286406C12.7637 0.152375 12.5714 0.078125 12.372 0.078125C12.1726 0.078125 11.9803 0.152375 11.8326 0.286406C11.685 0.420437 11.5925 0.604646 11.5732 0.803135V2.40064C11.5732 2.61218 11.6568 2.81517 11.8056 2.96545C11.9545 3.11574 12.1567 3.20116 12.3682 3.20314Z" fill="#999999"/>
<path d="M19.7182 3.51732L18.8257 4.40982C18.7432 4.48224 18.6764 4.57081 18.6295 4.67007C18.5825 4.76932 18.5565 4.87715 18.5529 4.98688C18.5493 5.09661 18.5683 5.2059 18.6087 5.308C18.649 5.4101 18.7099 5.50283 18.7875 5.58046C18.8652 5.65809 18.9579 5.71897 19.06 5.75932C19.1621 5.79968 19.2714 5.81866 19.3811 5.81508C19.4908 5.81151 19.5987 5.78546 19.6979 5.73854C19.7972 5.69162 19.8858 5.62484 19.9582 5.54232L20.8507 4.64982C20.9332 4.57741 21 4.48884 21.0469 4.38958C21.0938 4.29032 21.1199 4.1825 21.1234 4.07277C21.127 3.96304 21.108 3.85375 21.0677 3.75165C21.0273 3.64955 20.9664 3.55682 20.8888 3.47919C20.8112 3.40156 20.7184 3.34068 20.6163 3.30033C20.5142 3.25997 20.405 3.24099 20.2952 3.24457C20.1855 3.24814 20.0777 3.27419 19.9784 3.32111C19.8792 3.36802 19.7906 3.43481 19.7182 3.51732Z" fill="#999999"/>
<path d="M4.77823 18.4587L3.88573 19.3512C3.80321 19.4236 3.73643 19.5122 3.68952 19.6115C3.6426 19.7107 3.61655 19.8186 3.61297 19.9283C3.6094 20.038 3.62838 20.1473 3.66873 20.2494C3.70909 20.3515 3.76997 20.4442 3.8476 20.5219C3.92523 20.5995 4.01796 20.6604 4.12006 20.7007C4.22216 20.7411 4.33145 20.7601 4.44118 20.7565C4.55091 20.7529 4.65873 20.7269 4.75799 20.6799C4.85725 20.633 4.94582 20.5662 5.01823 20.4837L5.91073 19.5912C5.99325 19.5188 6.06003 19.4302 6.10695 19.331C6.15386 19.2317 6.17992 19.1239 6.18349 19.0142C6.18706 18.9044 6.16809 18.7952 6.12773 18.6931C6.08737 18.591 6.0265 18.4982 5.94887 18.4206C5.87124 18.343 5.77851 18.2821 5.67641 18.2417C5.57431 18.2014 5.46501 18.1824 5.35529 18.186C5.24556 18.1895 5.13773 18.2156 5.03848 18.2625C4.93922 18.3094 4.85064 18.3762 4.77823 18.4587Z" fill="#999999"/>
<path d="M23.5656 11.1971H21.9681C21.8567 11.1863 21.7443 11.1989 21.6381 11.2341C21.5318 11.2694 21.4341 11.3264 21.3513 11.4016C21.2684 11.4769 21.2022 11.5686 21.1569 11.6709C21.1115 11.7733 21.0881 11.8839 21.0881 11.9959C21.0881 12.1078 21.1115 12.2185 21.1569 12.3208C21.2022 12.4231 21.2684 12.5149 21.3513 12.5901C21.4341 12.6653 21.5318 12.7224 21.6381 12.7576C21.7443 12.7928 21.8567 12.8054 21.9681 12.7946H23.5656C23.7641 12.7754 23.9483 12.6829 24.0824 12.5352C24.2164 12.3876 24.2906 12.1953 24.2906 11.9959C24.2906 11.7964 24.2164 11.6042 24.0824 11.4565C23.9483 11.3088 23.7641 11.2164 23.5656 11.1971Z" fill="#999999"/>
<path d="M2.76826 11.1971H1.17076C1.05936 11.1863 0.946938 11.1989 0.840706 11.2341C0.734473 11.2694 0.636783 11.3264 0.55391 11.4016C0.471038 11.4769 0.404816 11.5686 0.359499 11.6709C0.314182 11.7733 0.290771 11.8839 0.290771 11.9959C0.290771 12.1078 0.314182 12.2185 0.359499 12.3208C0.404816 12.4231 0.471038 12.5149 0.55391 12.5901C0.636783 12.6653 0.734473 12.7224 0.840706 12.7576C0.946938 12.7928 1.05936 12.8054 1.17076 12.7946H2.76826C2.87966 12.8054 2.99208 12.7928 3.09832 12.7576C3.20455 12.7224 3.30224 12.6653 3.38511 12.5901C3.46798 12.5149 3.53421 12.4231 3.57952 12.3208C3.62484 12.2185 3.64825 12.1078 3.64825 11.9959C3.64825 11.8839 3.62484 11.7733 3.57952 11.6709C3.53421 11.5686 3.46798 11.4769 3.38511 11.4016C3.30224 11.3264 3.20455 11.2694 3.09832 11.2341C2.99208 11.1989 2.87966 11.1863 2.76826 11.1971Z" fill="#999999"/>
<path d="M19.9583 18.4571C19.8051 18.3227 19.6065 18.2516 19.4028 18.2582C19.1991 18.2649 19.0056 18.3488 18.8615 18.4929C18.7174 18.637 18.6335 18.8305 18.6269 19.0342C18.6203 19.2379 18.6914 19.4365 18.8258 19.5896L19.7183 20.4821C19.7907 20.5646 19.8793 20.6314 19.9785 20.6783C20.0778 20.7253 20.1856 20.7513 20.2953 20.7549C20.4051 20.7585 20.5144 20.7395 20.6165 20.6991C20.7186 20.6588 20.8113 20.5979 20.8889 20.5203C20.9665 20.4426 21.0274 20.3499 21.0678 20.2478C21.1081 20.1457 21.1271 20.0364 21.1235 19.9267C21.12 19.817 21.0939 19.7091 21.047 19.6099C21.0001 19.5106 20.9333 19.422 20.8508 19.3496L19.9583 18.4571Z" fill="#999999"/>
<path d="M4.77813 5.54294C4.85054 5.62546 4.93911 5.69224 5.03837 5.73916C5.13762 5.78607 5.24545 5.81212 5.35518 5.8157C5.46491 5.81927 5.5742 5.8003 5.6763 5.75994C5.7784 5.71958 5.87113 5.65871 5.94876 5.58108C6.02639 5.50345 6.08727 5.41071 6.12762 5.30862C6.16798 5.20652 6.18696 5.09722 6.18338 4.98749C6.17981 4.87777 6.15376 4.76994 6.10684 4.67068C6.05993 4.57143 5.99314 4.48285 5.91063 4.41044L5.01813 3.51794C4.94762 3.43038 4.8595 3.35861 4.75947 3.30728C4.65945 3.25595 4.54976 3.22621 4.43751 3.21998C4.32526 3.21376 4.21295 3.23119 4.10787 3.27114C4.00279 3.3111 3.90727 3.37268 3.82751 3.45192C3.74775 3.53115 3.68553 3.62625 3.64488 3.73107C3.60423 3.83588 3.58605 3.94807 3.59153 4.06036C3.59701 4.17265 3.62602 4.28254 3.67668 4.3829C3.72735 4.48326 3.79853 4.57185 3.88563 4.64294L4.77813 5.54294Z" fill="#999999"/>
</g>
<defs>
<clipPath id="clip0_1009_17881">
<rect width="24" height="24" fill="white" transform="translate(0.368408)"/>
</clipPath>
</defs>
</svg>
