<svg width="24" height="24" viewBox="0 0 24 24" fill="none" xmlns="http://www.w3.org/2000/svg">
<g clip-path="url(#clip0_441_16051)">
<path d="M7.84863 8.71776C8.05571 8.71776 8.22363 8.55002 8.22363 8.34276V5.05273C8.22363 4.84547 8.05571 4.67773 7.84863 4.67773C7.64156 4.67773 7.47363 4.84547 7.47363 5.05273V8.34276C7.47363 8.55006 7.64152 8.71776 7.84863 8.71776Z" fill="#999999"/>
<path d="M4.3667 8.7178H5.1989C6.10895 8.7178 6.58501 8.1154 6.58501 7.52027C6.58501 7.2226 6.46569 6.92308 6.23247 6.69808C6.46569 6.47297 6.58501 6.17327 6.58501 5.87526C6.58501 5.28017 6.10895 4.67773 5.1989 4.67773H4.3667C4.15962 4.67773 3.9917 4.84547 3.9917 5.05273V8.34276C3.9917 8.5501 4.15962 8.7178 4.3667 8.7178ZM5.83505 7.52031C5.83505 7.74332 5.6384 7.96783 5.19894 7.96783H4.74174V7.0732H5.19894C5.63836 7.07316 5.83505 7.29763 5.83505 7.52031ZM5.19894 5.42777C5.6384 5.42777 5.83505 5.65262 5.83505 5.8753C5.83505 6.09831 5.6384 6.32316 5.19894 6.32316H4.74174V5.42777H5.19894Z" fill="#999999"/>
<path d="M9.89746 8.71776H11.441C11.6481 8.71776 11.816 8.55002 11.816 8.34276C11.816 8.1355 11.6481 7.96776 11.441 7.96776H10.2725V5.05273C10.2725 4.84547 10.1045 4.67773 9.89746 4.67773C9.69039 4.67773 9.52246 4.84547 9.52246 5.05273V8.34276C9.52246 8.55006 9.69035 8.71776 9.89746 8.71776Z" fill="#999999"/>
<path d="M15.0587 7.96776H13.8901V5.05273C13.8901 4.84547 13.7222 4.67773 13.5151 4.67773C13.3081 4.67773 13.1401 4.84547 13.1401 5.05273V8.34276C13.1401 8.55002 13.3081 8.71776 13.5151 8.71776H15.0587C15.2658 8.71776 15.4337 8.55002 15.4337 8.34276C15.4337 8.1355 15.2658 7.96776 15.0587 7.96776Z" fill="#999999"/>
<path d="M13.8793 11.2617H4.04639C3.83931 11.2617 3.67139 11.4295 3.67139 11.6367C3.67139 11.844 3.83931 12.0117 4.04639 12.0117H13.8793C14.0864 12.0117 14.2543 11.844 14.2543 11.6367C14.2543 11.4295 14.0864 11.2617 13.8793 11.2617Z" fill="#999999"/>
<path d="M13.8793 13.6797H4.04639C3.83931 13.6797 3.67139 13.8474 3.67139 14.0547C3.67139 14.262 3.83931 14.4297 4.04639 14.4297H13.8793C14.0864 14.4297 14.2543 14.262 14.2543 14.0547C14.2543 13.8474 14.0864 13.6797 13.8793 13.6797Z" fill="#999999"/>
<path d="M13.8793 16.1016H4.04639C3.83931 16.1016 3.67139 16.2693 3.67139 16.4766C3.67139 16.6838 3.83931 16.8516 4.04639 16.8516H13.8793C14.0864 16.8516 14.2543 16.6838 14.2543 16.4766C14.2543 16.2693 14.0864 16.1016 13.8793 16.1016Z" fill="#999999"/>
<path d="M9.37112 18.5195H4.04639C3.83931 18.5195 3.67139 18.6873 3.67139 18.8945C3.67139 19.1018 3.83931 19.2695 4.04639 19.2695H9.37109C9.57816 19.2695 9.74609 19.1018 9.74609 18.8945C9.74609 18.6873 9.5782 18.5195 9.37112 18.5195Z" fill="#999999"/>
<path d="M19.9259 0H4.07284C2.57873 0 1.36328 1.2129 1.36328 2.70375V23.625C1.36328 23.938 1.74792 24.114 1.98421 23.9081L3.05884 22.9776C3.41772 23.2874 3.77607 23.5972 4.13404 23.9081C4.27542 24.0304 4.48433 24.0308 4.62533 23.9088L5.70143 22.9779L6.77644 23.9085C6.91707 24.0308 7.12617 24.0304 7.26717 23.9088L8.34327 22.9779L9.41937 23.9088C9.56037 24.0304 9.76947 24.0308 9.91009 23.9085L10.9851 22.9779L12.0612 23.9088C12.2026 24.0304 12.4115 24.0304 12.5525 23.9081L13.6271 22.9776C13.986 23.2874 14.3444 23.5972 14.7023 23.9081C14.8433 24.03 15.0522 24.0304 15.1936 23.9088L16.2695 22.9779L17.3445 23.9085C17.4553 24.0051 17.6128 24.0279 17.7457 23.966C17.8792 23.9052 17.9649 23.7719 17.9649 23.625V5.52907L18.7636 4.75489L19.6676 5.64184C19.8134 5.78539 20.0468 5.78468 20.1926 5.64184L21.0958 4.75635L21.9966 5.63917C22.2182 5.86084 22.5952 5.71875 22.6287 5.41463C22.6302 5.40067 22.6368 5.38853 22.6368 5.37413V2.70375C22.6368 1.2129 21.4208 0 19.9259 0ZM17.2149 2.70375V22.8043L16.515 22.1986C16.3744 22.0763 16.1653 22.0767 16.0243 22.1982L14.9486 23.1288C14.59 22.8182 14.2311 22.508 13.8715 22.1979C13.7309 22.077 13.5222 22.0767 13.3815 22.1982L12.3063 23.1291L11.2302 22.1982C11.0892 22.0767 10.8801 22.0763 10.7395 22.1986L9.66451 23.1291L8.58859 22.1982C8.44759 22.0767 8.23887 22.0767 8.09787 22.1982L7.02196 23.1291L5.94694 22.1986C5.80632 22.0763 5.59722 22.0767 5.45622 22.1982L4.38031 23.1288C4.02177 22.8182 3.66308 22.508 3.30327 22.1979C3.16264 22.077 2.95407 22.077 2.81311 22.1982L2.11328 22.8042V2.70375C2.11328 1.62638 2.99236 0.75 4.07288 0.75H18.057C17.5394 1.24267 17.2149 1.93549 17.2149 2.70375ZM21.8868 4.48147L21.3584 3.96349C21.2123 3.82065 20.979 3.82065 20.8332 3.96349L19.9301 4.84898L19.0278 3.96349C18.8826 3.8214 18.6502 3.81994 18.5043 3.96203L17.9648 4.48489V2.70375C17.9648 1.62638 18.8445 0.75 19.9259 0.75C21.0071 0.75 21.8868 1.62634 21.8868 2.70375L21.8868 4.48147Z" fill="#999999"/>
</g>
<defs>
<clipPath id="clip0_441_16051">
<rect width="24" height="24" fill="white"/>
</clipPath>
</defs>
</svg>
