<svg width="21" height="21" viewBox="0 0 21 21" fill="none" xmlns="http://www.w3.org/2000/svg">
<path d="M19.1568 1.48163C19.1559 1.4808 19.155 1.48007 19.1541 1.47924C19.0071 1.33351 18.8044 1.25 18.5976 1.25H18.5966C18.4178 1.25 18.2428 1.31146 18.1039 1.42288C16.2133 2.93295 14.3157 4.49163 12.4637 6.05552C12.0133 6.43576 11.5626 6.81899 11.1123 7.20434L5.97069 2.06281C5.46299 1.55517 4.63694 1.55524 4.12927 2.06281L1.68736 4.50476C1.58566 4.60649 1.58566 4.77135 1.68736 4.87306C1.78906 4.97472 1.95396 4.97472 2.05562 4.87306L3.76101 3.16771L4.13368 3.54038L2.42833 5.24573C2.32663 5.34747 2.32663 5.51233 2.42833 5.61403C2.47917 5.66486 2.54583 5.69028 2.61246 5.69028C2.6791 5.69028 2.74576 5.66486 2.7966 5.61403L4.50198 3.90868L4.87465 4.28135L3.16927 5.9867C3.06757 6.08844 3.06757 6.2533 3.16927 6.355C3.2201 6.40583 3.28677 6.43125 3.3534 6.43125C3.42003 6.43125 3.4867 6.40583 3.53753 6.355L5.24292 4.64962L5.61559 5.02229L3.91024 6.72764C3.80854 6.82938 3.80854 6.99424 3.91024 7.09594C3.96108 7.14677 4.02774 7.17219 4.09437 7.17219C4.16101 7.17219 4.22767 7.14677 4.27851 7.09594L5.98385 5.39059L6.35653 5.76326L4.65118 7.46861C4.54948 7.57035 4.54948 7.73521 4.65118 7.83691C4.70201 7.88774 4.76868 7.91316 4.83531 7.91316C4.90194 7.91316 4.96861 7.88774 5.01944 7.83691L6.72479 6.13156L7.09746 6.50424L5.39212 8.20958C5.29042 8.31132 5.29042 8.47618 5.39212 8.57788C5.44295 8.62872 5.50962 8.65413 5.57625 8.65413C5.64288 8.65413 5.70955 8.62872 5.76038 8.57788L7.46573 6.87254L7.8384 7.24521L6.13305 8.95056C6.03135 9.05229 6.03135 9.21715 6.13305 9.31885C6.18389 9.36969 6.25055 9.3951 6.31719 9.3951C6.38382 9.3951 6.45049 9.36969 6.50132 9.31885L8.20667 7.61351L8.57937 7.98622L6.87403 9.69156C6.77233 9.7933 6.77233 9.95816 6.87403 10.0599C6.92486 10.1107 6.99153 10.1361 7.05816 10.1361C7.12479 10.1361 7.19146 10.1107 7.24229 10.0599L8.94767 8.35448L9.33347 8.74028C8.53385 9.43663 7.73837 10.1371 6.95184 10.8385C6.95149 10.8385 6.95149 10.8385 6.95149 10.8389C6.71785 11.0467 6.46299 11.286 6.21156 11.5128C6.05753 11.6242 6.08687 11.8201 6.1633 11.8965C6.1633 11.8965 6.1633 11.8968 6.16365 11.8968C6.41434 12.2003 6.55288 12.5878 6.55288 12.9885C6.55288 13.4569 6.37267 13.8951 6.04528 14.2222C6.04198 14.2255 5.26326 15.0042 5.25986 15.0076C4.12739 16.1664 2.13305 15.3756 2.13191 13.7344C2.1326 12.738 2.93736 11.915 3.9541 11.9142C4.50788 11.9146 5.02489 12.1611 5.37246 12.5899C5.46674 12.7061 5.63983 12.7187 5.74955 12.6191C5.75094 12.6181 5.75198 12.617 5.75337 12.6156L5.7558 12.6135C5.87778 12.5039 5.86917 12.3063 5.73288 12.2086C5.28774 11.6906 4.64017 11.3934 3.95583 11.3934H3.95236C2.65035 11.3934 1.60958 12.4536 1.61111 13.7344C1.60996 14.6994 2.19972 15.5519 3.07219 15.9063C3.59024 16.116 4.15774 16.1305 4.67038 15.9661C4.18177 17.4861 5.31896 19.0278 6.89951 19.0278H6.90229C8.19382 19.0278 9.24639 17.9822 9.24497 16.6854C9.24566 16.0691 9.00816 15.4875 8.57726 15.0472C8.5775 15.0469 9.10899 14.4427 9.10899 14.4427C10.0472 13.3987 10.9752 12.35 11.892 11.2987L12.2843 11.691L10.579 13.3964C10.4773 13.4981 10.4773 13.663 10.579 13.7647C10.6299 13.8155 10.6965 13.8409 10.7632 13.8409C10.8298 13.8409 10.8965 13.8155 10.9473 13.7647L12.6527 12.0593L13.0253 12.432L11.32 14.1374C11.2183 14.2391 11.2183 14.404 11.32 14.5057C11.3709 14.5565 11.4375 14.5819 11.5042 14.5819C11.5708 14.5819 11.6375 14.5565 11.6883 14.5057L13.3937 12.8003L13.7663 13.173L12.061 14.8783C11.9593 14.98 11.9593 15.1449 12.061 15.2466C12.1118 15.2974 12.1785 15.3228 12.2451 15.3228C12.3118 15.3228 12.3784 15.2974 12.4293 15.2466L14.1347 13.5413L14.5073 13.9139L12.8019 15.6193C12.7002 15.721 12.7002 15.8859 12.8019 15.9876C12.8528 16.0384 12.9195 16.0638 12.9861 16.0638C13.0527 16.0638 13.1194 16.0384 13.1703 15.9876L14.8756 14.2822L15.2483 14.6549L13.543 16.3602C13.4412 16.4619 13.4412 16.6268 13.543 16.7285C13.5938 16.7793 13.6605 16.8048 13.7271 16.8048C13.7937 16.8048 13.8604 16.7793 13.9113 16.7285L15.6166 15.0232L15.9893 15.3958L14.2839 17.1011C14.1822 17.2029 14.1822 17.3677 14.2839 17.4694C14.3348 17.5203 14.4015 17.5457 14.4681 17.5457C14.5347 17.5457 14.6014 17.5203 14.6523 17.4694L16.3576 15.7641L16.7302 16.1367L15.0249 17.8421C14.9232 17.9438 14.9232 18.1087 15.0249 18.2104C15.0758 18.2612 15.1424 18.2866 15.2091 18.2866C15.2757 18.2866 15.3424 18.2612 15.3932 18.2104L17.0986 16.505L17.4712 16.8777L15.7659 18.583C15.6642 18.6848 15.6642 18.8496 15.7659 18.9513C15.8167 19.0022 15.8834 19.0276 15.95 19.0276C16.0167 19.0276 16.0833 19.0022 16.1342 18.9513L18.0234 17.062C18.0235 17.062 18.0236 17.0619 18.0237 17.0618C18.0238 17.0617 18.0239 17.0616 18.024 17.0615L18.5761 16.5094C18.822 16.2634 18.9575 15.9365 18.9575 15.5886C18.9575 15.2408 18.822 14.9139 18.5761 14.6679L13.4289 9.52101C15.4255 7.19177 17.3611 4.85549 19.2158 2.53438C19.4674 2.21941 19.442 1.76684 19.1568 1.48163ZM4.1293 2.79941L4.49757 2.43115C4.80215 2.12656 5.29781 2.12656 5.60243 2.43115L10.7159 7.54465C10.386 7.82806 10.0564 8.11222 9.72743 8.3976L4.1293 2.79941ZM18.2077 15.0365C18.3553 15.184 18.4366 15.3802 18.4366 15.5889C18.4366 15.7975 18.3553 15.9937 18.2077 16.1413L17.8395 16.5095C17.6674 16.3375 12.6042 11.2743 12.2348 10.9049C12.5205 10.5759 12.8053 10.2468 13.0887 9.91747L18.2077 15.0365ZM8.86649 13.9328C8.74028 13.8361 8.40375 13.6689 8.34778 13.1937C8.33215 13.0625 8.22139 12.9639 8.08979 12.9639C7.93247 12.9639 7.81257 13.1005 7.83042 13.2549C7.83076 13.2549 7.83076 13.2549 7.83076 13.2549C7.88042 13.6795 8.11097 14.0549 8.46306 14.2843C8.48146 14.2965 8.49986 14.309 8.51896 14.3229C8.33833 14.529 8.18924 14.7025 8.01826 14.8913C7.97069 14.9441 7.94639 15.0152 7.95194 15.086C7.95715 15.1569 7.99222 15.2235 8.04743 15.2683C8.48448 15.6251 8.72375 16.1386 8.72417 16.6854C8.72344 17.689 7.91493 18.5062 6.90128 18.5069C5.89941 18.5056 5.0784 17.6981 5.0784 16.6854C5.07958 15.8612 5.60087 15.4198 5.6409 15.3632L6.41347 14.5906C6.8391 14.165 7.07385 13.5891 7.07385 12.9885C7.0742 12.5496 6.94851 12.1256 6.71104 11.7632C6.91493 11.5767 7.09226 11.4113 7.29819 11.2277L7.29924 11.2263C12.9456 6.19187 18.3625 1.8642 18.4643 1.8059C18.3944 1.87573 8.23389 12.0319 8.18701 12.0847C8.09153 12.1924 8.1016 12.3573 8.20889 12.4524C8.31674 12.5485 8.48191 12.5372 8.5766 12.4306C8.60774 12.3951 18.7582 2.24837 18.8326 2.17396C18.8113 2.21142 14.6174 7.52358 8.86649 13.9328Z" fill="#0566EA"/>
<path d="M4.1729 13.1509C3.2488 12.2269 1.67204 12.8927 1.67212 14.1865C1.67212 14.5776 1.82458 14.9453 2.10142 15.2221C2.387 15.5077 2.762 15.6504 3.13716 15.6504C3.5122 15.6504 3.88735 15.5076 4.1729 15.2221C4.74466 14.6505 4.74473 13.7226 4.1729 13.1509ZM3.75864 14.8078C3.41595 15.1503 2.85837 15.1504 2.51567 14.8078C1.96685 14.259 2.35114 13.3083 3.13716 13.3083C3.92544 13.3083 4.30497 14.2615 3.75864 14.8078Z" fill="#0566EA"/>
<path d="M6.45163 16.041C5.84924 16.041 5.33178 16.3869 5.10116 16.9437C4.8694 17.5032 4.99003 18.1154 5.41592 18.5412C5.69881 18.824 6.06323 18.9723 6.43956 18.9723C6.62967 18.9723 6.82288 18.9344 7.00999 18.8569C7.56909 18.6252 7.91643 18.1074 7.91643 17.5055C7.91639 16.698 7.25932 16.041 6.45163 16.041ZM6.78569 18.3156C6.52358 18.4241 6.13495 18.4316 5.83014 18.1268C5.52518 17.8219 5.53327 17.4316 5.64245 17.1679C5.75077 16.9064 6.02022 16.6269 6.45159 16.6269C6.9362 16.6269 7.33045 17.0211 7.33045 17.5055C7.33045 17.9364 7.04905 18.2065 6.78569 18.3156Z" fill="#0566EA"/>
</svg>
