<svg width="21" height="21" viewBox="0 0 21 21" fill="none" xmlns="http://www.w3.org/2000/svg">
<g clip-path="url(#clip0_1009_13735)">
<path d="M20.1664 15.9724H19.7961C20.7168 15.0764 20.7369 13.6035 19.8408 12.6828C19.6987 12.5367 19.5379 12.41 19.3628 12.3058C20.0669 11.8853 20.4986 11.126 20.4997 10.3058C20.4981 9.01786 19.4544 7.97416 18.1664 7.9725H15.1665V5.63919C15.1664 5.45511 15.0171 5.3059 14.833 5.30599C14.8161 5.30599 14.7992 5.30728 14.7825 5.30986L10.8332 5.91719V5.60586C11.6087 5.4464 12.1655 4.76424 12.1665 3.97255C12.1665 2.5179 10.7942 1.12858 10.7355 1.07025C10.6054 0.940125 10.3944 0.940125 10.2642 1.07025C10.2055 1.12858 8.83323 2.5179 8.83323 3.97255C8.83423 4.76424 9.3911 5.4464 10.1665 5.60586V6.02019L6.11593 6.64351C5.95347 6.66851 5.83347 6.80813 5.83327 6.97251V10.6861C5.58981 10.4235 5.30902 10.1982 4.99994 10.0175C4.89682 9.95793 4.76974 9.95793 4.66661 10.0175C3.68229 10.5894 3.0178 11.5844 2.86664 12.7128C2.63626 12.6655 2.40181 12.6409 2.16665 12.6391C2.01952 12.6398 1.87261 12.6493 1.72665 12.6678C1.6084 12.682 1.50678 12.7583 1.45999 12.8678C0.780747 14.4611 1.31011 16.3123 2.72897 17.3057H0.5V17.9724H1.29399L1.86832 19.1214C1.92477 19.2344 2.04031 19.3057 2.16665 19.3057H14.8332C15.0172 19.3057 15.1665 19.1564 15.1665 18.9724V17.9724H17.2938L17.8681 19.1214C17.9246 19.2344 18.0401 19.3057 18.1664 19.3057H19.4998C19.6838 19.3057 19.8331 19.1564 19.8331 18.9724V17.9724H20.1664C20.3505 17.9724 20.4997 17.8231 20.4997 17.639V16.3057C20.4997 16.1216 20.3505 15.9724 20.1664 15.9724ZM19.8331 14.3057C19.832 15.2257 19.0864 15.9713 18.1664 15.9724H12.1665C11.2461 15.9724 10.4999 15.2262 10.4999 14.3057C10.4999 13.3853 11.2461 12.6391 12.1665 12.6391H16.4998C17.0521 12.6391 17.4998 13.0868 17.4998 13.6391C17.4998 14.1914 17.0521 14.6391 16.4998 14.6391H13.1665C12.9824 14.6391 12.8332 14.4898 12.8332 14.3057C12.8332 14.1217 12.9824 13.9724 13.1665 13.9724H15.4998V13.3058H13.1665C12.6142 13.3058 12.1665 13.7535 12.1665 14.3057C12.1665 14.858 12.6142 15.3057 13.1665 15.3057H16.4998C17.4198 15.3047 18.1654 14.5591 18.1664 13.6391C18.1652 13.2773 18.045 12.9259 17.8244 12.6391H18.1664C19.0864 12.6402 19.832 13.3858 19.8331 14.3057ZM17.1665 8.63915C17.7187 8.63915 18.1664 9.08686 18.1664 9.63914C18.1664 10.1914 17.7187 10.6391 17.1665 10.6391H13.8332C13.6491 10.6391 13.4998 10.4899 13.4998 10.3058C13.4998 10.1217 13.6491 9.97247 13.8332 9.97247H16.1665V9.30581H13.8332C13.2809 9.30581 12.8332 9.75351 12.8332 10.3058C12.8332 10.8581 13.2809 11.3058 13.8332 11.3058H17.1665C18.0864 11.3047 18.832 10.5591 18.8331 9.63914C18.8328 9.29531 18.7251 8.96019 18.5251 8.68049C19.4228 8.88415 19.9854 9.77693 19.7817 10.6746C19.6103 11.43 18.9411 11.9678 18.1664 11.9724H16.4998H13.4998C12.5794 11.9724 11.8332 11.2262 11.8332 10.3058C11.8332 9.38535 12.5794 8.63915 13.4998 8.63915H17.1665ZM9.49989 3.97255C9.49989 3.12022 10.1415 2.2339 10.4999 1.80591C10.8585 2.23357 11.4999 3.11822 11.4999 3.97255C11.4981 4.39479 11.2313 4.77045 10.8332 4.9112V4.30587H10.1665V4.9112C9.76842 4.77045 9.50164 4.39479 9.49989 3.97255ZM4.83328 10.6985C5.57798 11.1997 6.06018 12.0071 6.14826 12.9004C5.6511 13.099 5.20336 13.4038 4.83628 13.7934C4.46653 13.4053 4.01666 13.1023 3.51796 12.9058C3.6045 12.0104 4.087 11.2007 4.83328 10.6985ZM6.50534 13.4753C6.82492 13.3631 7.16117 13.3058 7.49991 13.3058C7.55224 13.3058 7.60691 13.3078 7.66391 13.3114C8.21307 14.8746 7.39104 16.587 5.82785 17.1361C5.50827 17.2484 5.17198 17.3057 4.83328 17.3057C4.78095 17.3057 4.72628 17.3037 4.66928 17.3C4.12012 15.7369 4.94215 14.0245 6.50534 13.4753ZM1.83332 14.3057C1.8329 13.9671 1.89015 13.6308 2.00265 13.3114C2.05965 13.3078 2.11431 13.3058 2.16665 13.3058C3.0298 13.3032 3.85133 13.6763 4.41728 14.3281C3.87067 15.1682 3.698 16.1979 3.94062 17.1704C2.68693 16.7796 1.83307 15.6189 1.83332 14.3057ZM7.29391 18.639H2.37264L2.03931 17.9724H7.62724L7.29391 18.639ZM10.4999 18.639H8.03924L8.37257 17.9724H9.16656V17.3057H6.93492C8.35536 16.3137 8.88606 14.4619 8.20657 12.8681C8.15978 12.7586 8.05816 12.6824 7.93991 12.6681C7.56062 12.6194 7.17587 12.6329 6.80092 12.7081C6.74892 12.3374 6.64021 11.9768 6.47859 11.6391H6.49992V7.2585L14.4998 6.02785V7.9725H13.4998C12.2129 7.97079 11.1682 9.01273 11.1664 10.2997C11.1656 10.9386 11.4271 11.5499 11.8899 11.9904C10.6121 12.1412 9.69851 13.2993 9.84926 14.577C9.9118 15.1072 10.1545 15.5998 10.5369 15.9724H10.1665C9.98246 15.9724 9.83322 16.1216 9.83322 16.3057V17.639C9.83322 17.8231 9.98246 17.9724 10.1665 17.9724H10.4999V18.639ZM11.9605 18.639H11.1665V17.9724H12.2939L11.9605 18.639ZM14.4998 18.639H12.7058L13.0392 17.9724H14.4998V18.639ZM19.1664 18.639H18.3724L18.0391 17.9724H19.1664V18.639ZM19.8331 17.3057H10.4999V16.6391H19.8331V17.3057Z" fill="#0566EA"/>
<path d="M7.83365 7.9707H7.16699V10.6373H7.83365V7.9707Z" fill="#0566EA"/>
<path d="M7.83365 11.3047H7.16699V11.9713H7.83365V11.3047Z" fill="#0566EA"/>
</g>
<defs>
<clipPath id="clip0_1009_13735">
<rect width="20" height="20" fill="white" transform="translate(0.5 0.138672)"/>
</clipPath>
</defs>
</svg>
