<svg width="21" height="21" viewBox="0 0 21 21" fill="none" xmlns="http://www.w3.org/2000/svg">
<path d="M6.74972 12.9507H3.93737C3.85452 12.9506 3.77509 12.9177 3.71651 12.8591C3.65792 12.8005 3.62498 12.721 3.62489 12.6382V8.26345C3.62226 8.01655 3.52234 7.78066 3.34681 7.607C3.17129 7.43334 2.93435 7.33594 2.68744 7.33594C2.44053 7.33594 2.20358 7.43335 2.02807 7.60701C1.85255 7.78068 1.75263 8.01657 1.75 8.26347V12.6382C1.75019 12.9932 1.83682 13.3428 2.00241 13.6568C2.168 13.9708 2.40756 14.2397 2.7004 14.4404C2.68207 14.4577 2.07511 18.5044 2.06612 18.5279C2.05514 18.6091 2.07647 18.6914 2.12552 18.757C2.17457 18.8226 2.24741 18.8663 2.32837 18.8787C2.40933 18.8912 2.49194 18.8713 2.55841 18.8234C2.62488 18.7756 2.6699 18.7035 2.68378 18.6228L3.28338 14.7255C3.49502 14.7919 3.71555 14.8257 3.93737 14.8256H5.85671L6.4409 18.6228C6.45483 18.7035 6.49988 18.7755 6.56634 18.8233C6.63281 18.8711 6.71538 18.8909 6.7963 18.8785C6.87723 18.8661 6.95004 18.8224 6.99908 18.7568C7.04812 18.6912 7.06947 18.609 7.05854 18.5279L6.48894 14.8256H6.74972C6.99661 14.8229 7.23251 14.723 7.40617 14.5475C7.57983 14.372 7.67724 14.135 7.67724 13.8881C7.67724 13.6412 7.57983 13.4043 7.40617 13.2288C7.23251 13.0532 6.99661 12.9533 6.74972 12.9507ZM6.74972 14.2006H3.93737C3.52315 14.2001 3.12602 14.0354 2.83312 13.7425C2.54022 13.4495 2.37545 13.0524 2.37497 12.6382V8.26345C2.37497 8.18057 2.40789 8.10109 2.46649 8.04249C2.52509 7.98389 2.60457 7.95097 2.68745 7.95097C2.77032 7.95097 2.8498 7.98389 2.9084 8.04249C2.96701 8.10109 2.99993 8.18057 2.99993 8.26345V12.6382C3.0002 12.8867 3.09905 13.125 3.2748 13.3008C3.45055 13.4765 3.68883 13.5754 3.93737 13.5756H6.74972C6.83177 13.5769 6.91004 13.6104 6.96763 13.6688C7.02522 13.7273 7.05749 13.8061 7.05749 13.8881C7.05749 13.9702 7.02522 14.049 6.96763 14.1074C6.91004 14.1659 6.83177 14.1994 6.74972 14.2006Z" fill="#0F71FA"/>
<path d="M19.249 12.6382V8.26345C19.2464 8.01655 19.1464 7.78066 18.9709 7.607C18.7954 7.43334 18.5585 7.33594 18.3115 7.33594C18.0646 7.33594 17.8277 7.43335 17.6522 7.60701C17.4767 7.78068 17.3767 8.01657 17.3741 8.26347V12.6382C17.374 12.721 17.3411 12.8005 17.2825 12.8591C17.2239 12.9177 17.1445 12.9506 17.0616 12.9507H14.2493C14.0024 12.9533 13.7665 13.0532 13.5928 13.2288C13.4192 13.4043 13.3218 13.6412 13.3218 13.8881C13.3218 14.1351 13.4192 14.372 13.5929 14.5475C13.7665 14.723 14.0024 14.823 14.2493 14.8256H14.5101L13.9405 18.5279C13.9295 18.6091 13.9508 18.6913 13.9998 18.7569C14.0489 18.8225 14.1217 18.8662 14.2027 18.8787C14.2836 18.8911 14.3663 18.8713 14.4327 18.8234C14.4992 18.7756 14.5442 18.7035 14.5581 18.6228L15.1423 14.8256H17.0616C17.2835 14.8257 17.504 14.7919 17.7156 14.7255L18.3152 18.6228C18.3215 18.6634 18.3356 18.7023 18.3569 18.7374C18.3782 18.7725 18.4061 18.803 18.4392 18.8273C18.4723 18.8516 18.5098 18.8691 18.5497 18.8788C18.5896 18.8886 18.6309 18.8904 18.6715 18.8842C18.712 18.878 18.751 18.8638 18.7861 18.8425C18.8211 18.8212 18.8517 18.7933 18.876 18.7602C18.9002 18.7271 18.9178 18.6896 18.9275 18.6497C18.9373 18.6099 18.9391 18.5685 18.9329 18.5279L18.3079 14.4656C18.5921 14.2515 18.8244 13.9759 18.9873 13.6595C19.1502 13.3431 19.2397 12.994 19.249 12.6382ZM17.0616 14.2006H14.2493C14.1675 14.199 14.0896 14.1654 14.0323 14.1069C13.975 14.0485 13.9429 13.9699 13.9429 13.8881C13.9429 13.8063 13.975 13.7277 14.0323 13.6693C14.0896 13.6109 14.1675 13.5773 14.2493 13.5756H17.0616C17.3102 13.5754 17.5484 13.4765 17.7242 13.3008C17.8999 13.125 17.9988 12.8867 17.9991 12.6382V8.26345C17.9989 8.22233 18.0069 8.18159 18.0226 8.14356C18.0382 8.10554 18.0612 8.07097 18.0902 8.04185C18.1193 8.01273 18.1538 7.98962 18.1917 7.97386C18.2297 7.95809 18.2704 7.94998 18.3115 7.94998C18.3527 7.94998 18.3934 7.95809 18.4314 7.97386C18.4693 7.98962 18.5038 8.01273 18.5329 8.04185C18.5619 8.07097 18.5849 8.10554 18.6005 8.14356C18.6162 8.18159 18.6242 8.22233 18.624 8.26345V12.6382C18.6235 13.0524 18.4588 13.4495 18.1659 13.7425C17.873 14.0354 17.4758 14.2001 17.0616 14.2006Z" fill="#0F71FA"/>
<path d="M12.0617 18.2632H10.8117V12.0136H14.249C14.4977 12.0136 14.7361 11.9148 14.9119 11.739C15.0877 11.5632 15.1865 11.3247 15.1865 11.0761C15.1865 10.8275 15.0877 10.589 14.9119 10.4132C14.7361 10.2374 14.4977 10.1387 14.249 10.1387H6.74946C6.50083 10.1387 6.26239 10.2374 6.08658 10.4132C5.91078 10.589 5.81201 10.8275 5.81201 11.0761C5.81201 11.3247 5.91078 11.5632 6.08658 11.739C6.26239 11.9148 6.50083 12.0136 6.74946 12.0136H10.1868V18.2632H8.93684C8.89572 18.2631 8.85498 18.2711 8.81695 18.2867C8.77893 18.3024 8.74436 18.3254 8.71524 18.3544C8.68612 18.3834 8.66301 18.4179 8.64725 18.4559C8.63148 18.4939 8.62336 18.5346 8.62336 18.5757C8.62336 18.6168 8.63148 18.6575 8.64725 18.6955C8.66301 18.7335 8.68612 18.768 8.71524 18.797C8.74436 18.826 8.77893 18.849 8.81695 18.8647C8.85498 18.8803 8.89572 18.8883 8.93684 18.8882H12.0617C12.1444 18.8879 12.2236 18.8549 12.282 18.7963C12.3404 18.7377 12.3732 18.6584 12.3732 18.5757C12.3732 18.493 12.3404 18.4137 12.282 18.3551C12.2236 18.2965 12.1444 18.2635 12.0617 18.2632ZM6.74947 11.3886C6.66677 11.3883 6.58754 11.3553 6.52915 11.2967C6.47076 11.2382 6.43797 11.1588 6.43797 11.0761C6.43797 10.9934 6.47076 10.9141 6.52915 10.8555C6.58754 10.7969 6.66677 10.7639 6.74947 10.7636H14.249C14.2902 10.7635 14.3309 10.7715 14.3689 10.7871C14.4069 10.8028 14.4415 10.8258 14.4706 10.8548C14.4998 10.8838 14.5229 10.9183 14.5386 10.9563C14.5544 10.9943 14.5625 11.035 14.5625 11.0761C14.5625 11.1172 14.5544 11.158 14.5386 11.1959C14.5229 11.2339 14.4998 11.2684 14.4706 11.2974C14.4415 11.3265 14.4069 11.3495 14.3689 11.3651C14.3309 11.3807 14.2902 11.3887 14.249 11.3886H6.74947Z" fill="#0F71FA"/>
<path d="M7.99948 6.70186H12.9992C13.0403 6.70187 13.0809 6.6938 13.1188 6.6781C13.1567 6.6624 13.1912 6.63938 13.2202 6.61036C13.2492 6.58134 13.2722 6.54689 13.2879 6.50897C13.3036 6.47106 13.3117 6.43042 13.3117 6.38938V6.07689C13.3107 5.3855 13.0554 4.71863 12.5944 4.20338C12.1334 3.68812 11.4989 3.36051 10.8118 3.28298V1.70214C10.812 1.66103 10.804 1.62029 10.7883 1.58226C10.7727 1.54423 10.7497 1.50967 10.7207 1.48055C10.6916 1.45142 10.6571 1.42832 10.6192 1.41255C10.5812 1.39679 10.5405 1.38867 10.4994 1.38867C10.4582 1.38867 10.4175 1.39679 10.3795 1.41255C10.3416 1.42832 10.3071 1.45142 10.278 1.48055C10.249 1.50967 10.226 1.54423 10.2104 1.58226C10.1947 1.62029 10.1867 1.66103 10.1869 1.70214V3.28298C9.49984 3.36051 8.86535 3.68812 8.40432 4.20338C7.9433 4.71863 7.68798 5.3855 7.68701 6.07689V6.38938C7.687 6.43042 7.69508 6.47105 7.71077 6.50897C7.72647 6.54689 7.74949 6.58134 7.77851 6.61036C7.80753 6.63938 7.84198 6.66239 7.87989 6.67809C7.91781 6.69379 7.95845 6.70187 7.99948 6.70186ZM10.4993 3.88952C11.0793 3.89019 11.6352 4.12087 12.0453 4.53093C12.4554 4.941 12.686 5.49697 12.6867 6.07689H8.31196C8.31264 5.49697 8.54331 4.941 8.95338 4.53093C9.36345 4.12087 9.91942 3.8902 10.4993 3.88952Z" fill="#0F71FA"/>
</svg>
