<svg width="25" height="24" viewBox="0 0 25 24" fill="none" xmlns="http://www.w3.org/2000/svg">
<path d="M12.3682 17.75C12.7824 17.75 13.1182 17.4142 13.1182 17V11C13.1182 10.5858 12.7824 10.25 12.3682 10.25C11.954 10.25 11.6182 10.5858 11.6182 11V17C11.6182 17.4142 11.954 17.75 12.3682 17.75Z" fill="#555555"/>
<path d="M12.3682 7C12.9204 7 13.3682 7.44772 13.3682 8C13.3682 8.55228 12.9204 9 12.3682 9C11.8159 9 11.3682 8.55228 11.3682 8C11.3682 7.44772 11.8159 7 12.3682 7Z" fill="#555555"/>
<path fill-rule="evenodd" clip-rule="evenodd" d="M1.61816 12C1.61816 6.06294 6.4311 1.25 12.3682 1.25C18.3052 1.25 23.1182 6.06294 23.1182 12C23.1182 17.9371 18.3052 22.75 12.3682 22.75C6.4311 22.75 1.61816 17.9371 1.61816 12ZM12.3682 2.75C7.25953 2.75 3.11816 6.89137 3.11816 12C3.11816 17.1086 7.25953 21.25 12.3682 21.25C17.4768 21.25 21.6182 17.1086 21.6182 12C21.6182 6.89137 17.4768 2.75 12.3682 2.75Z" fill="#555555"/>
</svg>
