<svg width="25" height="24" viewBox="0 0 25 24" fill="none" xmlns="http://www.w3.org/2000/svg">
<path fill-rule="evenodd" clip-rule="evenodd" d="M12.3682 1.25C9.74481 1.25 7.61816 3.37665 7.61816 6C7.61816 8.62335 9.74481 10.75 12.3682 10.75C14.9915 10.75 17.1182 8.62335 17.1182 6C17.1182 3.37665 14.9915 1.25 12.3682 1.25ZM9.11816 6C9.11816 4.20507 10.5732 2.75 12.3682 2.75C14.1631 2.75 15.6182 4.20507 15.6182 6C15.6182 7.79493 14.1631 9.25 12.3682 9.25C10.5732 9.25 9.11816 7.79493 9.11816 6Z" fill="#555555"/>
<path fill-rule="evenodd" clip-rule="evenodd" d="M12.3682 12.25C10.3288 12.25 8.44568 12.7208 7.04631 13.5204C5.66816 14.3079 4.61816 15.5101 4.61816 17C4.61816 18.4899 5.66816 19.6921 7.04631 20.4796C8.44568 21.2792 10.3288 21.75 12.3682 21.75C14.4075 21.75 16.2906 21.2792 17.69 20.4796C19.0682 19.6921 20.1182 18.4899 20.1182 17C20.1182 15.5101 19.0682 14.3079 17.69 13.5204C16.2906 12.7208 14.4075 12.25 12.3682 12.25ZM6.11816 17C6.11816 16.2807 6.63517 15.483 7.79052 14.8228C8.92465 14.1747 10.5415 13.75 12.3682 13.75C14.1948 13.75 15.8117 14.1747 16.9458 14.8228C18.1012 15.483 18.6182 16.2807 18.6182 17C18.6182 17.7193 18.1012 18.517 16.9458 19.1772C15.8117 19.8253 14.1948 20.25 12.3682 20.25C10.5415 20.25 8.92465 19.8253 7.79052 19.1772C6.63517 18.517 6.11816 17.7193 6.11816 17Z" fill="#555555"/>
</svg>
