<svg width="32" height="29" viewBox="0 0 32 29" fill="none" xmlns="http://www.w3.org/2000/svg">
<circle cx="15.2462" cy="14.6251" r="11.9259" fill="#568CF8" fill-opacity="0.67"/>
<circle cx="15.2461" cy="14.627" r="14" fill="#568CF8" fill-opacity="0.67"/>
<g filter="url(#filter0_d_2_71442)">
<path d="M3.17763 5.72726L5.72303 5.54263C6.52705 5.48431 7.13966 5.50283 7.56086 5.59819C7.98609 5.69325 8.3399 5.92347 8.62228 6.28884C8.90437 6.65016 9.07618 7.25506 9.13773 8.10353C9.17934 8.67725 9.11745 9.08383 8.95204 9.32328C8.79068 9.56243 8.44975 9.76181 7.92927 9.92141C8.52882 10.012 8.94493 10.2052 9.17759 10.501C9.40996 10.7928 9.5493 11.2579 9.5956 11.8963L9.66154 12.8054C9.7096 13.468 9.66844 13.9645 9.53806 14.2948C9.41172 14.6248 9.18715 14.8604 8.86434 15.0016C8.54153 15.1428 7.86701 15.2506 6.84077 15.3251L3.88932 15.5392L3.17763 5.72726ZM5.85086 7.22094L6.00911 9.40271C6.1179 9.39076 6.2026 9.38258 6.26321 9.37819C6.51371 9.36002 6.6689 9.28784 6.7288 9.16164C6.7884 9.03141 6.7971 8.67539 6.7549 8.09359C6.73262 7.78653 6.68881 7.57444 6.62345 7.45733C6.5578 7.33619 6.47734 7.26282 6.38207 7.23724C6.29084 7.21137 6.11377 7.20593 5.85086 7.22094ZM6.11988 10.9299L6.31901 13.6753C6.67772 13.6371 6.9019 13.564 6.99154 13.456C7.08522 13.3476 7.1177 13.0955 7.08898 12.6995L7.0226 11.7844C6.99213 11.3642 6.92922 11.1129 6.83389 11.0305C6.73855 10.948 6.50055 10.9145 6.11988 10.9299ZM10.0381 5.22965L14.2925 4.92106L14.435 6.88465L12.732 7.00817L12.8669 8.86873L14.4608 8.75312L14.5962 10.6197L13.0023 10.7354L13.1588 12.8929L15.0315 12.7571L15.1739 14.7206L10.7498 15.0415L10.0381 5.22965ZM20.8229 7.43264L18.4533 7.60451L18.4005 6.87726C18.3759 6.53787 18.3299 6.32391 18.2626 6.23538C18.1953 6.14685 18.0909 6.10771 17.9495 6.11797C17.7959 6.12911 17.6833 6.20023 17.6116 6.33134C17.5439 6.46216 17.5193 6.65484 17.5378 6.90938C17.5615 7.23664 17.6238 7.47988 17.7247 7.63908C17.8216 7.79858 18.0765 7.98114 18.4894 8.18676C19.6737 8.77914 20.429 9.28079 20.7553 9.69171C21.0816 10.1026 21.2796 10.7889 21.3494 11.7505C21.4001 12.4495 21.3546 12.9706 21.213 13.3139C21.0754 13.657 20.7805 13.9586 20.3282 14.2188C19.8756 14.4751 19.3383 14.6257 18.716 14.6709C18.0332 14.7204 17.44 14.6334 16.9364 14.41C16.4369 14.1863 16.0979 13.8799 15.9194 13.4908C15.7409 13.1016 15.6249 12.5394 15.5716 11.804L15.525 11.1616L17.8946 10.9897L17.9812 12.1836C18.0079 12.5513 18.0574 12.7853 18.1296 12.8857C18.2059 12.9858 18.3289 13.0296 18.4986 13.0173C18.6683 13.005 18.7887 12.9293 18.8599 12.7901C18.9351 12.6506 18.9631 12.4495 18.9441 12.1869C18.9022 11.6092 18.796 11.2371 18.6255 11.0708C18.451 10.9047 18.0315 10.6366 17.367 10.2665C16.7022 9.89228 16.2599 9.61772 16.04 9.44277C15.8202 9.26782 15.6294 9.01765 15.4677 8.69227C15.3101 8.3666 15.2124 7.94316 15.1745 7.42196C15.12 6.67046 15.1751 6.11409 15.3398 5.75285C15.5086 5.39132 15.8 5.09805 16.2142 4.87305C16.6281 4.64401 17.1381 4.50752 17.7442 4.46356C18.4068 4.4155 18.9782 4.48168 19.4583 4.66212C19.9425 4.84226 20.2713 5.09054 20.4445 5.40696C20.6215 5.71905 20.7382 6.26499 20.7948 7.04477L20.8229 7.43264ZM26.765 4.01639L26.9074 5.97998L25.3923 6.08988L25.9615 13.9382L23.4101 14.1232L22.8408 6.27494L21.3318 6.3844L21.1893 4.42081L26.765 4.01639ZM1.79164 16.8567L4.36128 16.6703C5.05621 16.6199 5.59349 16.6358 5.97311 16.7179C6.35677 16.7997 6.649 16.9369 6.8498 17.1295C7.05464 17.3218 7.20008 17.563 7.28612 17.8533C7.37591 18.1392 7.44307 18.5892 7.48762 19.2034L7.5496 20.0579C7.59502 20.6841 7.56349 21.1454 7.45501 21.4416C7.34653 21.7379 7.12412 21.9754 6.78779 22.1541C6.4555 22.3325 6.01057 22.442 5.45301 22.4824L4.76818 22.5321L5.05479 26.4835L2.50333 26.6686L1.79164 16.8567ZM4.46486 18.3504L4.64597 20.8473C4.71899 20.846 4.78176 20.8435 4.83429 20.8397C5.06863 20.8227 5.22613 20.7544 5.30682 20.6349C5.39124 20.5109 5.42027 20.2672 5.3939 19.9035L5.33543 19.0975C5.31111 18.7622 5.24276 18.5478 5.13038 18.4544C5.01801 18.361 4.79617 18.3263 4.46486 18.3504ZM8.0218 16.4048L9.82782 16.2738C11.0318 16.1865 11.8493 16.1739 12.2803 16.236C12.7153 16.2979 13.0801 16.5111 13.3746 16.8756C13.6728 17.2357 13.8523 17.834 13.9129 18.6703C13.9683 19.4339 13.9106 19.9539 13.7397 20.2303C13.5689 20.5067 13.2066 20.6914 12.6529 20.7844C13.167 20.873 13.5185 21.016 13.7075 21.2135C13.8965 21.411 14.0176 21.5972 14.0709 21.772C14.1279 21.9426 14.1852 22.4238 14.2426 23.2157L14.4303 25.8035L12.0607 25.9754L11.8242 22.7148C11.7861 22.1896 11.7201 21.8674 11.6261 21.7483C11.5363 21.6289 11.3156 21.582 10.964 21.6075L11.2849 26.0316L8.73349 26.2167L8.0218 16.4048ZM10.695 17.8985L10.8533 20.0802C11.1401 20.0594 11.3373 20.0065 11.4449 19.9216C11.5562 19.8323 11.5962 19.5715 11.5648 19.1391L11.5257 18.5998C11.5031 18.2887 11.4318 18.0887 11.3116 18C11.1955 17.9109 10.99 17.8771 10.695 17.8985ZM17.264 15.7344L17.9757 25.5463L15.4242 25.7314L14.7126 15.9195L17.264 15.7344ZM24.556 19.5067L22.0046 19.6918L21.8806 17.9827C21.8446 17.4858 21.7939 17.1787 21.7285 17.0616C21.6669 16.9402 21.5432 16.8862 21.3573 16.8997C21.1472 16.9149 21.0193 16.9993 20.9736 17.1529C20.9279 17.3065 20.923 17.6318 20.9591 18.1288L21.2896 22.6862C21.3242 23.163 21.3751 23.472 21.4422 23.6134C21.5093 23.7547 21.6418 23.8182 21.8398 23.8039C22.0297 23.7901 22.1477 23.7084 22.1937 23.5589C22.2437 23.409 22.2493 23.0654 22.2103 22.5281L22.1211 21.2978L24.6725 21.1127L24.7002 21.4945C24.7738 22.5087 24.7532 23.2331 24.6385 23.6679C24.5279 24.1024 24.2377 24.4971 23.7679 24.852C23.3022 25.2067 22.7097 25.4101 21.9906 25.4622C21.2431 25.5165 20.6171 25.4258 20.1127 25.1903C19.6082 24.9547 19.2599 24.6043 19.0677 24.139C18.8753 23.6696 18.7442 22.9541 18.6744 21.9925L18.4665 19.1259C18.4152 18.4189 18.4011 17.8878 18.4241 17.5328C18.4468 17.1738 18.5654 16.8219 18.7801 16.4774C18.9987 16.1325 19.3135 15.8518 19.7242 15.6352C20.1387 15.4142 20.6227 15.2837 21.1762 15.2435C21.9277 15.189 22.5585 15.2895 23.0685 15.5449C23.5784 15.8004 23.926 16.1407 24.1112 16.5659C24.2961 16.9871 24.4218 17.6562 24.4883 18.5734L24.556 19.5067ZM25.1608 15.1616L29.4152 14.8531L29.5577 16.8166L27.8547 16.9402L27.9896 18.8007L29.5835 18.6851L29.7189 20.5517L28.125 20.6674L28.2815 22.8249L30.1542 22.689L30.2966 24.6526L25.8725 24.9735L25.1608 15.1616Z" fill="white"/>
</g>
<defs>
<filter id="filter0_d_2_71442" x="0.980469" y="3.66406" width="30.3691" height="24.248" filterUnits="userSpaceOnUse" color-interpolation-filters="sRGB">
<feFlood flood-opacity="0" result="BackgroundImageFix"/>
<feColorMatrix in="SourceAlpha" type="matrix" values="0 0 0 0 0 0 0 0 0 0 0 0 0 0 0 0 0 0 127 0" result="hardAlpha"/>
<feOffset dx="1.03704" dy="1.03704"/>
<feComposite in2="hardAlpha" operator="out"/>
<feColorMatrix type="matrix" values="0 0 0 0 0.0196078 0 0 0 0 0.4 0 0 0 0 0.917647 0 0 0 1 0"/>
<feBlend mode="normal" in2="BackgroundImageFix" result="effect1_dropShadow_2_71442"/>
<feBlend mode="normal" in="SourceGraphic" in2="effect1_dropShadow_2_71442" result="shape"/>
</filter>
</defs>
</svg>
