<svg width="297" height="7" viewBox="0 0 297 7" fill="none" xmlns="http://www.w3.org/2000/svg">
<path d="M176.979 6.44545C174.728 6.4459 172.856 5.18001 171.204 4.06241L170.542 3.61561C169.003 2.57298 167.412 1.49488 165.623 1.48036C163.831 1.48276 162.201 2.55517 160.643 3.60783L159.978 4.05748C158.338 5.16835 156.479 6.42763 154.244 6.44529C151.946 6.43811 150.086 5.18853 148.423 4.0636L147.759 3.61545C146.22 2.57281 144.629 1.49473 142.841 1.48021C140.991 1.45238 139.418 2.55456 137.86 3.60767L137.197 4.05627C135.556 5.16759 133.697 6.42734 131.461 6.44514C131.445 6.44514 131.429 6.44514 131.413 6.44514C129.163 6.44514 127.292 5.18015 125.64 4.06345L124.977 3.61576C123.438 2.57267 121.847 1.49456 120.058 1.48005C118.247 1.48244 116.636 2.55486 115.078 3.60752L114.413 4.05656C112.773 5.16788 110.914 6.42719 108.678 6.445C106.394 6.41567 104.521 5.18779 102.857 4.0633L102.194 3.61516C100.655 2.57252 99.0639 1.49442 97.2758 1.4799C95.4669 1.45207 93.853 2.55427 92.2953 3.60738L91.6296 4.05748C89.9898 5.1679 88.1312 6.42704 85.8958 6.44485C83.6036 6.43767 81.7382 5.18809 80.0745 4.06316L79.4121 3.61545C77.8732 2.57236 76.282 1.49427 74.4927 1.47976C72.6728 1.49233 71.0694 2.55502 69.5108 3.60873L68.8481 4.05642C67.2077 5.16773 65.3488 6.42704 63.1128 6.44485C63.097 6.44485 63.0811 6.44485 63.0653 6.44485C60.8149 6.44485 58.944 5.17986 57.292 4.06316L56.6282 3.61501C55.0899 2.57237 53.4985 1.49427 51.7103 1.47976C49.8706 1.45193 48.2875 2.55412 46.7299 3.60723L46.0647 4.05687C44.4247 5.16774 42.5657 6.42705 40.3305 6.4447C38.0647 6.43752 36.1726 5.18795 34.509 4.06301L33.8466 3.6153C32.3078 2.57222 30.7165 1.49413 28.9273 1.47961C27.0726 1.45178 25.5045 2.55397 23.9468 3.60708L23.283 4.05567C21.6426 5.16699 19.7838 6.42675 17.5473 6.44456C15.2668 6.41523 13.39 5.18733 11.7265 4.06285L11.0633 3.6147C9.52453 2.57206 7.93319 1.49398 6.14464 1.47947C6.13252 1.47947 6.12055 1.47947 6.10903 1.47947C4.3103 1.47947 2.70879 2.56249 1.1604 3.60977L0.824921 3.83646L0 2.60903L0.331585 2.38533C1.99654 1.2595 3.85781 -0.0330231 6.15631 0.000644103C8.39256 0.0184503 10.252 1.27866 11.8929 2.39057L12.5553 2.83766C14.1134 3.89137 15.7684 4.98594 17.5363 4.96573C19.325 4.95137 20.9157 3.87356 22.4542 2.83152L23.1195 2.3819C24.771 1.26519 26.6414 0.000644103 28.8919 0.000644103C28.9077 0.000644103 28.9236 0.000644103 28.9394 0.000644103C31.1761 0.0184503 33.0362 1.2791 34.6765 2.39101L35.3374 2.83766C36.896 3.89092 38.4907 4.95661 40.3192 4.96573C42.1069 4.95137 43.6978 3.87402 45.2362 2.83198L45.9019 2.3819C47.5659 1.25696 49.4465 0.0127643 51.7223 0.000644103C53.9581 0.0184503 55.8175 1.27865 57.4584 2.38997L58.1207 2.83766C59.6788 3.89137 61.2923 4.98594 63.1016 4.96573C64.8897 4.95137 66.4806 3.87402 68.019 2.83198L68.6828 2.38338C70.3473 1.25799 72.2452 0.0127608 74.5046 0.000790228C76.7413 0.0185964 78.6008 1.27924 80.2417 2.39116L80.9026 2.83783C82.4612 3.89109 84.0981 4.95675 85.8845 4.96588C87.6723 4.95152 89.2625 3.87417 90.8005 2.83258L91.4677 2.38204C93.1307 1.25711 95.0445 0.0129104 97.2876 0.000790228C99.5234 0.0185964 101.383 1.2788 103.024 2.39012L103.686 2.83783C105.244 3.89153 106.888 4.98608 108.667 4.96588C110.455 4.95152 112.046 3.87416 113.584 2.83213L114.251 2.38204C115.914 1.25771 117.806 0.0307166 120.07 0.000790228C122.307 0.0185964 124.166 1.27924 125.807 2.39116L126.468 2.83783C128.027 3.89109 129.634 4.95675 131.45 4.96588C133.239 4.95152 134.829 3.87373 136.368 2.83169L137.033 2.38204C138.685 1.26534 140.555 0.000790228 142.805 0.000790228C142.821 0.000790228 142.837 0.000790228 142.853 0.000790228C145.089 0.0185964 146.948 1.2788 148.589 2.39012L149.251 2.83783C150.809 3.89109 152.438 4.95675 154.233 4.96588C156.021 4.95152 157.611 3.87416 159.15 2.83213L159.816 2.38204C161.467 1.26534 163.338 0.000790228 165.588 0.000790228C165.603 0.000790228 165.619 0.000790228 165.635 0.000790228C167.872 0.0185964 169.731 1.2788 171.372 2.39072L172.032 2.83647C173.59 3.89063 175.242 4.95675 177.015 4.96588C178.804 4.95152 180.395 3.87373 181.933 2.83169L182.598 2.38204C184.262 1.25711 186.171 0.0129104 188.418 0.000790228C190.654 0.0185964 192.513 1.27836 194.153 2.38983L194.816 2.83783C196.375 3.89109 197.974 4.95675 199.798 4.96588C201.586 4.95152 203.177 3.87416 204.715 2.83213L205.381 2.38204C207.033 1.26534 208.903 0.000790228 211.153 0.000790228C211.169 0.000790228 211.185 0.000790228 211.201 0.000790228C213.437 0.0185964 215.296 1.2788 216.937 2.39072L217.6 2.83783C219.158 3.89153 220.805 4.98608 222.58 4.96588C224.369 4.95152 225.96 3.87373 227.498 2.83169L228.164 2.38204C229.815 1.26534 231.686 0.000790228 233.936 0.000790228C233.952 0.000790228 233.968 0.000790228 233.984 0.000790228C236.22 0.0185964 238.08 1.27924 239.721 2.39116L240.382 2.83783C241.94 3.89109 243.582 4.95675 245.363 4.96588C247.151 4.95152 248.742 3.87416 250.28 2.83213L250.946 2.38204C252.61 1.25711 254.499 0.0129104 256.766 0.000790228C259.002 0.0185964 260.862 1.2788 262.503 2.39012L263.165 2.83783C264.723 3.89153 266.329 4.98608 268.146 4.96588C269.934 4.95152 271.525 3.87416 273.063 2.83213L273.727 2.38354C275.391 1.25816 277.298 0.0129069 279.549 0.000936353C281.786 0.0187426 283.645 1.27941 285.286 2.39132L285.947 2.83797C287.505 3.89123 289.117 4.9569 290.929 4.96603C292.711 4.95211 294.295 3.88015 295.828 2.8438L296.175 2.60932L297 3.83676L296.656 4.0684C295.022 5.17403 293.169 6.4275 290.94 6.4447C288.632 6.43752 286.783 5.18795 285.119 4.06301L284.457 3.6153C282.918 2.57222 281.326 1.49413 279.537 1.47961C277.765 1.49218 276.114 2.55487 274.555 3.60858L273.893 4.05627C272.252 5.16759 270.393 6.4269 268.158 6.4447C268.142 6.4447 268.126 6.4447 268.11 6.4447C265.86 6.4447 263.989 5.17972 262.337 4.06301L261.673 3.61486C260.135 2.57223 258.543 1.49413 256.755 1.47961C254.909 1.45178 253.332 2.55397 251.775 3.60708L251.109 4.05673C249.469 5.1676 247.61 6.4269 245.375 6.44456C243.093 6.43737 241.217 5.18778 239.554 4.06285L238.891 3.61516C237.353 2.57207 235.761 1.49398 233.972 1.47947C233.96 1.47947 233.948 1.47947 233.936 1.47947C232.139 1.47947 230.539 2.56099 228.992 3.60692L228.328 4.05552C226.687 5.16684 224.829 6.42659 222.592 6.44439C220.32 6.41507 218.435 5.18719 216.771 4.0627L216.108 3.61455C214.569 2.57192 212.978 1.49382 211.189 1.4793C209.416 1.4817 207.767 2.55411 206.209 3.60677L205.544 4.05642C203.904 5.16729 202.045 6.42659 199.81 6.44425C197.554 6.43706 195.652 5.18749 193.989 4.06255L193.324 3.61395C191.786 2.57132 190.195 1.49367 188.407 1.4793C186.587 1.45147 184.985 2.55366 183.427 3.60677L182.763 4.05538C181.122 5.16669 179.264 6.42644 177.027 6.44425C177.011 6.44544 176.995 6.44545 176.979 6.44545Z" fill="url(#paint0_linear_1086_5691)"/>
<defs>
<linearGradient id="paint0_linear_1086_5691" x1="0" y1="3.22273" x2="297" y2="3.22273" gradientUnits="userSpaceOnUse">
<stop stop-color="#999999" stop-opacity="0"/>
<stop offset="0.500612" stop-color="#999999" stop-opacity="0.6"/>
<stop offset="1" stop-color="#999999" stop-opacity="0"/>
</linearGradient>
</defs>
</svg>
