<svg width="20" height="21" viewBox="0 0 20 21" fill="none" xmlns="http://www.w3.org/2000/svg">
<path d="M3.66241 1.13151C3.6913 1.12632 3.72066 1.12422 3.75 1.12526C4.57871 1.12556 5.37339 1.45489 5.95938 2.04088C6.54536 2.62687 6.8747 3.42155 6.875 4.25026V11.7503C6.87452 11.9159 6.80852 12.0746 6.69141 12.1917C6.57431 12.3088 6.41561 12.3748 6.25 12.3753H3.125C2.79667 12.3753 2.47154 12.3107 2.16819 12.1851C1.86483 12.0595 1.5892 11.8754 1.35703 11.6432C1.12487 11.4111 0.940723 11.1354 0.815119 10.8321C0.689514 10.5287 0.62491 10.2036 0.625 9.87526V4.25026C0.624865 3.43706 0.942304 2.65595 1.50968 2.07339C2.07705 1.49082 2.84949 1.15286 3.66241 1.13151ZM1.875 9.87526C1.87596 10.2065 2.00797 10.5239 2.24218 10.7581C2.47639 10.9923 2.79378 11.1243 3.125 11.1253H5.625V4.25026C5.62354 3.75343 5.42552 3.27736 5.07421 2.92605C4.7229 2.57473 4.24683 2.37672 3.75 2.37526C3.65773 2.37399 3.56557 2.38237 3.47504 2.40026C3.03076 2.46539 2.62471 2.68808 2.33098 3.0277C2.03725 3.36732 1.87541 3.80123 1.875 4.25026V9.87526Z" fill="#0566EA"/>
<path d="M3.18753 1.48151C3.23244 1.38909 3.29911 1.30895 3.38183 1.24799C3.46454 1.18702 3.56081 1.14705 3.66238 1.13151C3.69127 1.12632 3.72064 1.12422 3.74997 1.12526H15C16.1599 1.12654 17.2719 1.58789 18.0921 2.40809C18.9123 3.22828 19.3737 4.34033 19.375 5.50026V17.9253C19.3768 18.2199 19.2942 18.509 19.1369 18.7582C18.9796 19.0074 18.7543 19.2063 18.4875 19.3315C18.2153 19.4625 17.9108 19.5115 17.6112 19.4727C17.3116 19.4339 17.0298 19.3088 16.7999 19.1128C16.6463 18.9583 16.4638 18.8356 16.2626 18.752C16.0615 18.6683 15.8458 18.6252 15.628 18.6252C15.4102 18.6252 15.1945 18.6683 14.9934 18.752C14.7923 18.8356 14.6097 18.9583 14.4561 19.1128C13.9239 19.6031 13.2267 19.8752 12.503 19.8752C11.7794 19.8752 11.0822 19.6031 10.5499 19.1128C10.397 18.9566 10.2141 18.8329 10.0122 18.7491C9.81028 18.6654 9.59354 18.6232 9.37497 18.6253C9.14684 18.6256 8.92117 18.6723 8.71165 18.7625C8.50214 18.8528 8.31316 18.9847 8.15622 19.1503C7.92582 19.3316 7.64908 19.4446 7.35757 19.4762C7.06607 19.5078 6.77154 19.4569 6.5076 19.3291C6.24367 19.2014 6.02096 19.0021 5.86489 18.7538C5.70883 18.5056 5.62569 18.2185 5.62497 17.9253V4.25026C5.62351 3.75343 5.42549 3.27736 5.07418 2.92605C4.72287 2.57473 4.2468 2.37672 3.74997 2.37526C3.6577 2.37399 3.56554 2.38237 3.47501 2.40026L3.26247 2.13776C3.18863 2.04694 3.14233 1.93688 3.12905 1.82059C3.11577 1.7043 3.13606 1.58663 3.18753 1.48151ZM11.25 12.3753H16.25C16.4157 12.3753 16.5747 12.3094 16.6919 12.1922C16.8091 12.075 16.875 11.916 16.875 11.7503C16.875 11.5845 16.8091 11.4255 16.6919 11.3083C16.5747 11.1911 16.4157 11.1253 16.25 11.1253H11.25C11.0842 11.1253 10.9252 11.1911 10.808 11.3083C10.6908 11.4255 10.625 11.5845 10.625 11.7503C10.625 11.916 10.6908 12.075 10.808 12.1922C10.9252 12.3094 11.0842 12.3753 11.25 12.3753ZM9.06247 8.62526H15.9375C16.1032 8.62526 16.2622 8.55941 16.3794 8.4422C16.4966 8.32499 16.5625 8.16602 16.5625 8.00026C16.5625 7.8345 16.4966 7.67553 16.3794 7.55832C16.2622 7.4411 16.1032 7.37526 15.9375 7.37526H9.06247C8.89671 7.37526 8.73774 7.4411 8.62053 7.55832C8.50332 7.67553 8.43747 7.8345 8.43747 8.00026C8.43747 8.16602 8.50332 8.32499 8.62053 8.4422C8.73774 8.55941 8.89671 8.62526 9.06247 8.62526Z" fill="#0566EA"/>
</svg>
