<svg width="293" height="125" viewBox="0 0 293 125" fill="none" xmlns="http://www.w3.org/2000/svg">
<mask id="mask0_686_15875" style="mask-type:alpha" maskUnits="userSpaceOnUse" x="0" y="13" width="293" height="93">
<rect y="13" width="293" height="93" rx="15.2975" fill="#2E6DE9"/>
</mask>
<g mask="url(#mask0_686_15875)">
<mask id="mask1_686_15875" style="mask-type:alpha" maskUnits="userSpaceOnUse" x="0" y="13" width="293" height="93">
<rect y="13" width="293" height="93" rx="15.2975" fill="#2E6DE9"/>
</mask>
<g mask="url(#mask1_686_15875)">
<path d="M188.764 176.748C189.825 176.748 189.88 175.961 188.822 175.881C178.605 175.112 168.528 173.34 158.131 173.818C152.005 174.098 145.918 174.723 139.795 175.043C137.079 175.183 135.576 173.994 134.563 172.464C133.525 170.895 132.717 168.773 129.209 169.149C124.776 169.624 123.528 171.981 123.078 174.521C122.975 175.101 122.309 175.434 121.772 175.193C121.618 175.123 121.471 175.049 121.338 174.966C114.752 170.838 115.332 165.133 124.392 162.682C138.118 158.969 145.699 151.992 153.257 144.608C156.309 141.625 160.533 139.122 166.63 140.976C172.93 142.891 171.75 146.853 170.59 150.107C167.482 158.814 171.335 167.467 180.092 169.836C187.991 171.974 196.586 172.28 204.79 173.617C208.494 174.22 212.026 175.069 215.093 176.496C215.442 176.658 215.819 176.748 216.203 176.748H216.666C219.389 176.748 220.018 172.968 217.416 172.167C209.91 169.857 201.667 169.198 193.624 168.045C181.406 166.294 175.843 158.411 178.281 149.735C181.482 138.34 194.221 132.184 207.178 125.859C218.532 120.319 228.648 114.203 228.445 104.103C228.317 97.7375 223.95 92.4566 217.043 88.0294C206.641 81.3595 207.966 74.0297 213.262 66.2218C218.536 58.4517 222.428 50.5263 217.609 41.931C215.694 38.5154 211.343 36.833 207.188 34.8881C199.95 31.4977 199.749 28.236 207.671 25.5596C217.389 22.2784 221.828 17.3837 223.799 10.6962C226.258 2.3505 237.232 -0.300179 250.043 3.62476C259.053 6.38411 266.341 10.9686 275.764 13.2498C280.899 14.4929 285.992 14.6218 291.041 13.6724C292.196 13.4552 292.998 12.4227 292.998 11.2473C292.998 9.5353 291.34 8.31266 289.669 8.68548C274.474 12.0759 263.414 5.87769 252.215 0.0678272C244.93 -3.71019 237.013 -5.39397 227.475 -4.05674C224.259 -3.60618 218.465 -2.95645 218.434 -6.32168C218.401 -9.66453 223.396 -9.42898 227.302 -9.81985H223.459C214.439 -9.81985 209.853 -2.74425 212.452 5.89424C212.526 6.14217 212.596 6.39079 212.661 6.64017C214.669 14.3739 208.455 19.5703 199.641 23.957C196.638 25.4496 193.579 26.9309 190.308 28.1623C186.826 29.4739 182.263 30.9445 179.834 27.9039C177.324 24.7672 182.302 23.3875 185.752 22.2009C192.409 19.9117 200.723 19.1011 202.904 13.234C205.102 7.32582 201.703 1.89993 199.934 -3.68314C199.55 -4.88952 199.248 -6.10612 198.962 -7.32472C198.618 -8.78864 197.319 -9.82031 195.815 -9.82031C193.376 -9.82031 191.817 -7.24402 192.922 -5.06892C193.202 -4.51689 193.48 -3.96427 193.752 -3.41075C196.551 2.26421 200.315 8.07349 192.91 13.4168C187.954 16.9933 180.685 19.0666 176.291 23.0428C170.267 28.4906 164.007 33.6744 153.825 36.2621C151.466 36.861 148.112 37.4655 148.299 39.4487C148.504 41.5985 151.874 42.4879 154.557 43.425C162.811 46.3061 172.186 45.4306 180.961 46.571C185.455 47.1554 190.125 47.9073 191.769 51.0757C193.023 53.4922 190.636 55.4727 187.783 56.7045C182.15 59.1413 176.312 61.3792 170.294 63.4079C155.761 68.2927 142.87 74.2606 135.632 84.0494C133.693 86.6716 132.14 89.5606 134.746 92.3792C136.175 93.9249 138.826 94.5094 141.636 94.2705C146.803 93.8321 150.969 91.9552 155.221 90.229C164.047 86.646 172.649 82.3432 183.422 81.9328C194.922 81.4948 203.462 86.6049 212.639 90.0849C220.414 93.0336 225.139 97.6125 223.666 103.635C220.951 114.73 210.106 122.343 195.964 128.266C191.489 130.14 186.321 131.866 180.927 130.048C175.954 128.369 176.655 125.024 177.619 122.22C179.681 116.223 176.203 112.655 168.069 109.387C157.627 105.189 157.426 101.666 165.925 96.9259C172.089 93.4884 179.256 89.903 187.776 90.8568C200.841 92.3195 207.635 98.8028 207.808 107.81C207.831 108.969 207.428 110.519 209.81 111.032C210.564 111.195 212.033 110.743 212.658 110.286C215.149 108.461 216.133 106.215 216.385 103.838C217.089 97.2062 209.818 94.2239 202.165 91.639C196.17 89.6143 190.738 86.1432 183.257 86.9281C173.372 87.9678 166.611 93.0331 157.821 95.5868C150.163 97.8126 149.063 100.887 154.388 105.071C156.789 106.958 159.76 108.644 162.892 110.041C175.051 115.465 176.477 119.259 168.479 126.197C164.336 129.791 158.961 133.013 156.14 136.981C149.675 146.076 140.731 152.779 125.376 156.321C110.469 159.761 105.24 168.014 111.695 174.778C113.047 176.195 115.028 176.748 116.986 176.748H188.764ZM148.899 88.1282C146.753 89.4762 143.112 91.3829 140.748 89.4156C137.352 86.5891 141.857 84.2891 144.601 82.4057C156.283 74.3875 171.13 68.956 184.943 62.6705C190.403 60.1863 195.482 57.1919 197.094 52.8159C198.573 48.8047 193.399 47.5029 189.073 45.9959C187.784 45.5467 185.591 45.4105 185.819 44.3019C185.901 43.8993 188.613 43.4861 190.135 43.4712C198.418 43.39 203.717 46.5729 203.717 52.9731C202.985 59.1345 195.349 64.0935 186.384 68.0068C172.797 73.9369 160.578 80.7919 148.899 88.1282ZM171.964 80.6401C171.964 80.6408 171.964 80.6413 171.963 80.6415C171.836 80.6668 171.705 80.6861 171.573 80.7022C171.188 80.7488 170.826 80.2776 171.079 79.9848C171.099 79.9614 171.121 79.9386 171.144 79.9164C176.684 74.609 185.821 72.0945 193.475 68.476C204.916 63.0655 211.748 52.7012 206.871 46.5799C203.219 41.9954 197.051 40.0966 188.046 40.105C183.505 40.0714 178.216 41.2711 172.844 42.2445C170.564 42.6587 167.506 43.529 166.229 41.8359C164.984 40.1852 167.856 39.1978 169.886 38.5094C185.734 33.1334 210.015 34.5592 215.007 47.676C217.974 55.4741 212.424 61.9993 204.991 67.7937C196.405 74.481 184.657 78.114 171.966 80.6387C171.965 80.6388 171.964 80.6394 171.964 80.6401Z" fill="#3E7CF7" fill-opacity="0.67"/>
<path d="M182.379 -9.01657C182.063 -9.5153 181.516 -9.82031 180.926 -9.82031C179.297 -9.82031 178.542 -7.68447 179.656 -6.49692C181.5 -4.53078 182.822 -2.39696 183.295 0.0258484C184.233 4.81926 182.603 9.24187 177.132 12.5054C167.42 18.2993 161.278 26.1445 150.407 31.2033C142.27 34.9897 133.513 34.0061 125.275 31.5713C115.484 28.6795 106.206 29.2108 96.8042 31.9725C96.6273 32.0244 96.4417 32.0644 96.2512 32.0977C95.6612 32.2009 95.0798 31.5221 95.4257 31.0331C98.6977 26.3973 111.541 24.5797 121.348 27.2602C131.176 29.9454 141.012 33.444 151.364 28.0065C158.426 24.2961 162.545 19.1062 168.032 14.602C172.202 11.178 177.994 8.29224 178.296 3.54313C178.69 -2.57508 173.707 -6.61715 166.21 -9.54597C165.74 -9.72964 165.238 -9.81845 164.733 -9.81845H137.4C135.902 -9.81845 135.68 -7.71858 137.154 -7.45229C144.355 -6.14631 151.51 -8.18271 158.706 -7.77179C165.733 -7.36973 170.929 -4.98725 174.305 -1.11409C176.378 1.26466 176.313 3.73297 173.797 6.08233C172.809 7.00445 171.526 7.57488 169.841 7.41257C167.835 7.22087 167.014 6.15323 166.574 5.01843C163.601 -2.67753 160.128 -4.29788 148.14 -2.18126C140.311 -0.799253 134.506 -3.40188 128.197 -5.03763C114.484 -8.59362 100.935 -3.02502 100.875 6.35239C100.859 8.61453 100.629 10.8823 100.296 13.1351C100.065 14.7051 99.584 16.5087 96.2007 16.2051C93.1073 15.9252 91.9668 14.1062 92.0621 12.462C92.4361 6.00335 93.9262 -1.19725 100.762 -5.76816C101.729 -6.4149 101.132 -9.82031 99.9687 -9.82031C99.7534 -9.82031 99.5428 -9.74567 99.3762 -9.60946C90.912 -2.69176 87.2984 5.23112 88.6421 13.9872C89.1489 17.2932 92.0115 20.3866 98.1388 19.8133C104.777 19.192 103.9 15.1538 104.603 12.1174C105.875 6.62012 104.645 0.407381 114.409 -2.67427C120.855 -4.70926 127.012 -3.3114 132.247 -0.756807C136.761 1.4461 141.103 2.267 146.953 1.87568C159.881 1.01046 164.515 5.10191 161.383 13.7634C158.521 21.6725 148.439 28.4757 139.544 28.354C132.903 28.2607 128.028 25.2882 122.232 23.812C110.932 20.9332 101.828 24.0494 93.259 28.3829C80.2411 34.966 66.3032 40.2673 49.2479 41.2141C47.665 41.3018 45.7832 41.1526 45.4221 40.0369C45.0185 38.7888 46.9771 38.4408 48.4253 38.1157C56.3765 36.3256 64.7086 35.2052 72.1361 32.4991C83.2538 28.4473 84.4969 22.2695 82.6217 14.8767C80.7981 7.68975 82.5869 0.792491 87.1245 -5.71474C88.2847 -7.37851 87.1711 -9.82031 85.1428 -9.82031C84.3364 -9.82031 83.5789 -9.40847 83.1825 -8.70624C78.6394 -0.657103 79.3249 7.82511 78.6955 16.2097C78.3132 21.3161 76.5808 26.2206 70.7517 30.0303C58.6978 37.9086 40.5766 37.5775 27.1874 29.4729C25.3664 28.3708 22.9712 26.145 20.302 27.5694C17.5991 29.0107 20.2968 30.8437 21.942 32.291C23.0649 33.2798 24.1754 34.2878 25.4741 35.1791C32.3712 39.9096 38.5454 45.453 50.5546 44.7123C57.8444 44.2627 63.5344 41.3886 69.8192 39.445C83.4282 35.2383 97.1588 40.6652 97.1588 50.3248C97.1588 62.2707 77.9411 70.6943 58.5681 68.1141C45.1635 66.3281 33.2883 61.9489 19.9819 60.1742C12.4907 59.1751 3.47221 62.4354 1.60802 67.2032C0.0434133 71.1971 4.40834 74.5763 12.4357 75.9546C23.8231 77.9136 34.4383 80.6655 41.9376 87.0205C49.8221 93.7043 52.6393 93.9328 63.7835 88.993C73.0414 84.8885 82.5572 83.0228 93.7204 85.6165C103.929 87.9883 108.169 86.2458 108.266 79.3381C108.392 70.4718 114.807 64.7773 127.517 61.6364C138.449 58.9349 144.174 52.3635 141.429 45.252C139.964 41.4585 135.188 39.973 129.612 40.7827C124.635 41.5047 126.462 44.341 127.159 46.418C129.054 52.0566 128.391 57.0944 120.261 60.7535C115.117 63.0688 110.251 65.5655 107.808 69.4709C105.949 72.4467 103.969 75.4094 100.441 77.7592C92.6569 82.9449 82.139 82.0727 72.3668 82.6995C51.5428 84.0349 34.3307 77.7583 17.0636 71.7386C13.7007 70.5661 9.68228 68.8869 12.3757 66.0586C14.9291 63.3762 19.3798 64.2759 22.8774 65.6131C34.5372 70.0698 45.8623 74.7625 59.6588 76.4808C71.4453 77.9472 83.3806 76.0955 88.8508 71.3412C99.3767 62.1943 102.109 51.8448 101.538 40.8242C101.19 34.0648 107.292 31.0135 117.36 33.1637C133.487 36.6073 148.198 36.369 160.384 27.7807C166.695 23.3348 171.628 18.0834 179.344 14.4611C186.086 11.2955 189.228 7.25398 187.914 1.83276C186.993 -2.00151 184.61 -5.4876 182.379 -9.01657Z" fill="#3E7CF7" fill-opacity="0.67"/>
<path d="M202.415 161.78C216.442 164.865 228.052 170.823 241.349 174.747C243.07 175.255 244.808 175.739 246.551 176.216C247.858 176.573 249.208 176.753 250.564 176.753H258.43C257.917 176.706 257.417 176.644 256.935 176.584C244.97 175.084 235.492 170.94 227.135 165.385C213.73 156.476 216.642 136.924 232.472 129.88C241.265 125.968 249.814 121.817 258.203 117.558C260.675 116.302 262.973 113.78 260.07 112.226C257.061 110.618 255.801 113.451 254.009 114.619C250.744 116.747 247.77 119.165 244.005 120.853C229.464 127.371 216.363 134.481 212.765 146.413C212.13 148.521 210.687 150.711 206.477 149.996C203.217 149.442 203.029 147.327 203.62 145.504C206.843 135.532 217.253 128.82 229.096 122.733C235.849 119.258 244.065 116.594 247.288 110.983C249.95 106.357 246.164 101.854 245.827 97.2636C245.549 93.4669 246.695 89.2696 242.806 86.0592C239.909 83.666 234.842 82.3171 232.08 79.8847C224.665 73.3548 227.199 65.9905 229.985 59.0166C233.052 51.3379 235.787 43.849 232.898 35.8499C230.202 28.3801 230.367 20.8903 235.758 13.7765C236.697 12.539 238.16 11.3884 240.606 11.7181C243.135 12.0591 243.463 13.4905 243.452 14.8931C243.408 20.665 240.689 26.2896 241.62 32.1507C242.495 37.6545 248.268 41.7063 254.849 40.71C266.284 38.9791 278.904 42.7725 282.976 49.7366C287.02 56.6476 284.762 64.1957 287.22 71.3184C287.404 71.8537 287.579 72.3912 287.758 72.9274C289.052 76.798 292.992 75.2145 292.992 71.1334C292.992 70.242 292.743 69.3727 292.358 68.569C290.762 65.2424 290.342 61.7614 290.229 58.3319C289.84 46.2222 281.231 38.4091 262.858 34.7309C251.097 32.3778 247.101 27.3433 247.833 17.1995C248.093 13.5922 249.958 9.33706 242.323 8.33285C235.266 7.40468 233.379 11.5768 231.292 14.7723C228.344 19.2872 223.868 23.0186 218.657 26.576C213.371 30.1838 218.945 32.8074 221.874 35.4403C231.587 44.1685 230.136 53.6308 223.771 62.3375C216.418 72.394 219.589 79.8638 231.006 87.5956C242.566 95.425 244.014 107.695 235.27 115.188C228.443 121.039 217.797 124.385 209.836 129.547C200.355 135.696 189.196 141.319 187.46 150.617C186.223 157.266 194.165 159.967 202.415 161.78Z" fill="#3E7CF7" fill-opacity="0.67"/>
<path d="M180.554 52.3204C180.408 51.8399 179.003 51.2942 178.048 51.173C170.035 50.1701 161.696 50.3474 153.968 48.2448C151.219 47.4962 149.831 48.7788 149.611 50.3497C148.541 57.9799 143.232 63.4305 131.337 66.0457C124.39 67.5728 117.485 69.7962 115.852 74.9078C114.71 78.4824 115.145 82.2725 115.039 85.9685C114.904 90.6882 111.041 92.9349 103.899 92.0576C97.5805 91.281 91.3931 89.704 85.0512 89.4456C71.4166 88.8859 63.113 94.7736 55.4995 100.802C51.8927 103.657 52.5139 106.872 57.0824 109.365C60.1003 111.012 63.3298 110.412 66.1968 109.108C69.619 107.552 72.5124 105.304 76.2576 104.292C95.7221 99.032 114.622 101.55 131.986 107.831C147.451 113.423 150.821 121.035 143.78 128.545C137.26 135.495 126.053 137.5 115.079 139.845C100.404 142.979 87.5329 147.358 83.5642 158.138C81.4224 163.954 76.8253 168.847 66.6297 169.859C57.4157 170.773 51.5799 166.882 45.8086 163.046C40.9288 159.803 36.4027 156.149 29.4997 154.536C18.0246 151.856 9.36459 155.212 1.21827 159.509C0.46559 159.906 0 160.691 0 161.542C0 163.565 2.3666 164.563 3.94297 163.293C5.28801 162.21 6.78991 161.21 8.64341 160.396C19.8982 155.452 29.5121 156.623 38.0076 163.644C42.9022 167.691 48.1057 171.586 54.0943 174.993C56.2057 176.194 58.6124 176.751 61.0415 176.751H62.9593C73.63 176.751 83.2554 164.369 90.9744 157.001C93.5843 154.51 96.7877 152.159 100.365 149.909C107.869 145.189 118.274 143.453 127.365 140.361C139.421 136.26 149.59 130.994 152.282 121.821C154.256 115.095 146.764 111.82 139.653 108.426C134.505 105.97 127.933 104.259 126.797 99.4826C126.744 99.2567 126.764 99.0237 126.825 98.7868C127.081 97.7924 128.441 97.0526 129.282 97.6411C130.216 98.2997 130.937 99.0791 131.826 99.7657C137.439 104.1 144.622 107.302 151.401 110.798C160.67 115.577 160.385 121.355 152.982 129.659C143.293 140.527 127.172 145.933 111.088 151.541C99.9434 155.426 89.5264 165.979 93.8014 175.095C94.3083 176.176 95.4663 176.749 96.6601 176.749C99.6512 176.749 101.447 173.13 100.991 170.174C99.6507 161.484 108.259 153.505 121.857 150.563C129.335 148.946 137.567 148.138 142.689 143.596C148.653 138.309 151.87 131.935 159.036 127.104C162.429 124.819 166.055 122.374 165.467 118.864C164.691 114.226 158.309 112.349 153.571 109.727C144.805 104.876 134.142 100.859 130.465 93.413C125.509 83.378 133.9 75.7151 143.82 68.7099C153.196 62.0868 166.435 59.2416 178.04 54.8017C179.461 54.2588 180.912 53.4752 180.554 52.3204ZM132.916 74.1354C128.121 79.662 126.423 85.6844 124.975 91.8473C123.259 99.1523 114.741 102.559 103.44 99.6024C88.4624 95.6845 76.0034 96.7666 64.8688 104.267C63.6097 105.115 60.9866 106.354 59.8974 105.125C58.0141 103.001 60.9368 101.2 63.0207 99.6677C73.647 91.8496 86.1587 90.5618 101.033 94.6215C106.746 96.1808 114.715 98.3529 118.206 92.3547C119.99 89.2908 119.808 85.7618 120.515 82.4428C120.816 78.4721 120.425 74.3079 125.451 71.2431C127.58 69.9446 130.45 68.6862 133.194 69.8149C135.886 70.9203 134.097 72.7725 132.916 74.1354Z" fill="#3E7CF7" fill-opacity="0.67"/>
<path d="M137.312 121.348C135.346 120.142 132.788 123.388 130.74 124.783C126.332 127.786 121.228 129.523 114.867 127.845C108.901 126.272 103.109 125.345 96.7879 126.9C83.7774 130.099 72.6325 135.849 58.3548 137.458C46.1456 138.835 32.1315 134.559 28.335 127.046C25.3567 121.157 27.782 114.872 25.4644 108.902C21.9935 99.9657 15.6657 92.4474 2.71978 88.1578C1.36346 87.7084 0 88.7453 0 90.1742C0 91.1194 0.619683 91.9503 1.51068 92.266C11.6459 95.8565 16.3913 102.068 19.0741 108.937C22.8772 118.677 25.0681 128.676 20.104 138.476C17.2003 144.208 9.78538 147.313 1.25877 149.294C0.525672 149.464 0 150.113 0 150.866C0 152.041 1.22993 152.816 2.30753 152.347C22.0016 143.774 37.7351 147.187 52.5541 158.062C60.6848 164.027 69.1517 164.049 73.7144 156.729C80.5398 145.777 91.1162 137.819 109.391 134.485C118.141 132.89 127.978 132.787 134.607 127.928C137.204 126.023 140.435 123.263 137.312 121.348ZM104.313 132.352C92.2999 136.372 82.968 142.803 71.3506 147.159C67.2062 148.713 62.634 149.478 57.2135 149.496C49.3993 149.305 41.8722 147.401 34.9824 144.455C33.5101 143.825 31.4664 142.879 32.6611 141.44C34.2367 139.539 37.1601 139.75 39.6513 140.401C58.1951 145.248 72.76 139.655 87.1901 133.296C92.0516 131.15 97.0934 128.993 103.557 129.334C104.926 129.406 106.17 129.804 106.161 130.509C106.151 131.14 105.227 132.046 104.313 132.352Z" fill="#3E7CF7" fill-opacity="0.67"/>
<path d="M124.117 110.434C110.102 106.626 95.29 108.001 80.7258 108.722C77.7607 108.868 74.6461 110.616 75.2277 112.894C75.613 114.403 78.817 114.17 80.6965 113.88C91.2444 112.251 101.866 111.238 112.69 112.329C115.898 112.652 120.837 112.412 120.826 115.321C120.814 118.35 116.132 118.12 112.774 117.931C102.843 117.371 93.0544 116.681 83.2258 118.85C62.6157 123.397 50.4966 120.039 45.3757 106.536C39.4454 90.9001 24.6026 82.6109 1.40218 79.5044C0.660566 79.4051 0 79.9843 0 80.7325V81.3822C0 81.6577 0.210819 81.8845 0.481248 81.9371C20.7149 86.0416 36.8686 101.262 37.8948 116.897C38.2237 121.896 39.7004 126.894 47.2619 129.649C55.9126 132.801 64.0184 130.419 71.3192 127.465C84.8446 121.992 97.9731 116.805 115.192 121.284C119.859 122.496 125.878 121.092 128.399 117.621C130.57 114.632 128.451 111.612 124.117 110.434Z" fill="#3E7CF7" fill-opacity="0.67"/>
<path d="M87.0399 44.2588C83.3518 40.8371 75.6196 40.4164 68.888 43.4579C63.3943 45.9384 58.8111 49.3722 51.4107 49.6786C39.8029 50.159 32.385 45.5979 25.041 40.8828C15.6473 34.8535 12.5081 34.1578 2.06806 37.3846C0.833001 37.7664 0 38.9173 0 40.21C0 42.2281 1.96854 43.6592 3.95915 43.3274C13.5405 41.7301 21.1528 45.7133 29.2404 48.722C45.5281 54.7743 56.0269 54.0536 71.9242 46.2369C74.1444 45.145 77.163 43.6184 79.4447 45.2747C82.2062 47.2803 79.8476 49.5597 77.4018 51.0919C66.429 57.9655 53.0947 58.1418 39.0419 56.4324C29.6096 55.285 22.0737 51.2397 12.8765 49.8092C8.80118 49.1726 5.16582 49.8469 1.6633 50.9059C0.665065 51.2077 0 52.1403 0 53.1831C0 55.0009 1.92775 56.1674 3.61379 55.4882C7.15375 54.0621 11.0294 53.245 15.3867 54.0961C24.7934 55.9338 33.743 58.7603 43.2061 60.4348C56.3236 62.7566 69.7135 64.5393 82.2479 58.8653C89.2909 55.6787 91.7176 48.5988 87.0399 44.2588Z" fill="#3E7CF7" fill-opacity="0.67"/>
<path d="M292.995 94.6484C292.996 90.4629 290.634 86.9016 287.673 83.9432C279.948 76.2244 279.72 67.3167 278.348 58.63C277.103 50.7242 266.715 45.233 254.689 46.3697C244.467 47.3356 236.917 53.8007 236.481 61.5526C236.204 66.5009 234.54 71.5266 239.465 75.9781C242.118 78.376 247.734 78.4427 250.059 81.1158C253.434 84.9959 251.335 89.245 251.765 93.3211C252.329 98.6681 254.628 103.438 261.971 106.582C270.427 110.202 276.693 110.618 285.208 107.428C290.131 105.584 292.994 100.588 292.995 95.3311L292.995 94.6484ZM280.617 106.816C272.707 108.176 266.612 105.944 261.935 102.033C257.774 98.5534 257.069 94.3943 257.009 90.1709C256.981 85.3924 259.197 80.1624 252.175 76.5565C248.18 74.5042 242.427 74.0625 240.636 70.0947C236.995 62.0335 243.786 52.2904 254.941 50.3315C263.676 48.7974 271.762 53.2937 274.593 61.041C277.545 69.118 276.174 77.8158 282.956 85.328C286.225 88.9479 290.716 92.2245 290.936 96.6593C291.174 101.503 288.592 105.444 280.617 106.816Z" fill="#3E7CF7" fill-opacity="0.67"/>
<path d="M58.0551 -0.721198C58.2839 -5.22958 55.0189 -9.82031 50.5047 -9.82031C48.5798 -9.82031 46.7524 -8.96745 45.4934 -7.5114C43.7216 -5.46236 41.9537 -3.41238 40.5722 -1.26147C37.3411 3.76842 39.7913 7.79644 46.8877 10.7909C49.5979 11.935 52.9271 12.9364 52.9938 15.4304C53.0106 16.0507 51.8906 17.0792 50.9867 17.2461C46.8115 18.0195 43.4062 16.6864 40.6264 14.9509C29.3958 7.9359 27.5653 -0.748876 35.244 -9.48029C35.3643 -9.62034 35.2557 -9.82031 35.0711 -9.82031H31.1616C30.3887 -9.82031 29.6501 -9.45819 29.2491 -8.79744C24.6017 -1.1389 27.447 10.3933 36.0153 16.2485C40.4352 19.2699 45.6644 21.7028 52.5352 19.8637C58.4252 18.2877 58.7446 14.6165 58.5014 11.2064C58.2164 7.22189 57.8541 3.24196 58.0551 -0.721198Z" fill="#3E7CF7" fill-opacity="0.67"/>
<path d="M292.994 28.1395C292.994 23.8395 288.713 20.8193 284.413 20.774C278.646 20.7133 273.355 18.7443 267.986 16.387C264.708 14.9477 260.328 10.6421 256.302 14.9066C253.169 18.2233 254.859 22.4496 259.2 25.6241C264.873 29.7729 273.421 30.8648 280.509 33.5164C281.182 33.7682 281.839 34.0307 282.481 34.3029C287.177 36.2943 292.994 33.2406 292.994 28.1395Z" fill="#3E7CF7" fill-opacity="0.67"/>
<path d="M73.8679 -5.85092C74.2674 -7.73663 72.9731 -9.82031 71.0455 -9.82031C70.1004 -9.82031 69.1983 -9.31862 68.8072 -8.4582C68.7549 -8.34306 68.7052 -8.22748 68.6591 -8.11134C65.4932 -0.124337 68.0731 8.11034 66.0829 16.1556C64.7219 21.6524 58.1412 26.8619 50.2874 27.7378C43.1661 28.5307 37.1084 26.6371 33.2379 22.8903C24.0677 14.012 19.1609 4.40954 20.1233 -6.05703C20.3024 -8.00412 18.8611 -9.82031 16.9058 -9.82031H16.7066C15.4831 -9.82031 14.1191 -9.03011 14.2598 -7.8147C15.642 4.10331 21.2778 15.4476 31.0683 25.3362C38.9953 33.3456 53.3968 35.7542 64.9702 26.7868C72.5669 20.9006 73.506 13.9206 73.599 6.71014C73.6528 2.52869 72.9882 -1.69847 73.8679 -5.85092Z" fill="#3E7CF7" fill-opacity="0.67"/>
<path d="M11.3221 110.955C10.2417 107.297 8.29235 103.824 4.4 101.137C2.43646 99.7809 0 101.407 0 103.793C0 104.788 0.452628 105.72 1.16284 106.416C5.95629 111.111 6.57382 116.549 6.70524 122.046C6.78292 125.303 5.59802 128.251 2.6232 130.69C1.11514 131.926 0 133.657 0 135.607C0 139.074 3.36313 141.689 6.17502 139.66C7.40367 138.774 8.42424 137.758 9.27775 136.664C15.7867 128.318 13.8697 119.583 11.3221 110.955Z" fill="#3E7CF7" fill-opacity="0.67"/>
<path d="M15.8519 11.9714C13.42 5.50516 7.89673 -0.505196 7.43647 -7.2661C7.34441 -8.61839 6.3111 -9.82031 4.95569 -9.82031C3.89906 -9.82031 2.95719 -9.08013 2.93111 -8.02383C2.81529 -3.33161 6.07776 0.917542 8.38704 5.27962C12.5115 13.0699 10.2326 19.8958 1.66632 25.174C0.656987 25.7959 0 26.876 0 28.0615C0 30.024 1.74831 31.549 3.60777 30.9217C12.464 27.9341 18.5037 19.024 15.8519 11.9714Z" fill="#3E7CF7" fill-opacity="0.67"/>
<path d="M2.87723 7.58471C2.32787 4.91411 0 5.56229 0 8.28881V18.97C0 19.0211 0.0558427 19.0515 0.0915616 19.0148C3.42587 15.4476 3.6881 11.5199 2.87723 7.58471Z" fill="#3E7CF7" fill-opacity="0.67"/>
<path d="M199.331 107.519C199.416 108.499 199.3 109.485 199.158 110.459C198.683 113.71 198.124 117.473 191.501 119.112C186.588 120.324 187.692 117.362 187.316 115.754C186.307 111.456 182.327 108.487 177.044 106.033C175.102 105.131 171.929 104.447 172.477 102.654C173.229 100.194 176.908 99.1359 180.241 98.3653C191.43 95.7821 198.595 99.0929 199.331 107.519Z" fill="#3E7CF7" fill-opacity="0.67"/>
<path d="M120.206 50.4232C120.435 54.232 118.684 57.2469 112.258 58.3201C108.286 58.9839 107.539 57.1718 107.601 55.4283C107.781 50.3229 108.208 45.2184 108.744 40.1227C108.876 38.8704 109.476 37.3167 112.023 37.2369C115.678 37.1227 116.545 39.1959 117.521 40.8158C119.366 43.8807 120.277 47.1412 120.206 50.4232Z" fill="#3E7CF7" fill-opacity="0.67"/>
<path d="M141.038 22.8989C138.553 23.4369 135.979 23.03 133.593 22.1511C127.647 19.9608 120.929 17.7071 115.359 14.6128C109.362 11.2802 111.193 3.23815 117.217 1.64858C123.02 0.121052 126.73 3.0721 130.715 4.93872C135.319 7.09545 140.069 7.94714 145.867 7.32727C153.986 6.45879 156.089 8.29649 153.541 14.0549C151.736 18.1328 148.256 21.3364 141.038 22.8989Z" fill="#3E7CF7" fill-opacity="0.67"/>
<path d="M264.758 88.8702C264.952 83.0637 266.42 77.0888 259.21 72.2847C256.008 70.1518 250.319 69.9437 248.408 66.9264C245.976 63.0887 250.312 57.918 257.351 57.1918C265.116 56.39 265.775 60.9973 267.24 64.1484C270.991 72.232 269.717 81.087 276.304 88.7587C278.665 91.5106 282.06 93.957 282.85 97.1599C283.303 98.9981 282.431 100.796 279.323 101.409C273.778 102.502 270.393 100.409 267.662 97.7383C264.896 95.0377 264.501 91.9891 264.758 88.8702Z" fill="#3E7CF7" fill-opacity="0.67"/>
</g>
</g>
</svg>
