<svg width="23" height="24" viewBox="0 0 23 24" fill="none" xmlns="http://www.w3.org/2000/svg">
<path d="M10.8963 10.6693C9.936 10.0013 9.19042 9.0286 8.84254 7.86135C8.717 7.43585 8.79942 6.98448 9.06967 6.62223C9.42329 6.14594 10.0481 5.9284 10.6088 6.0961C11.776 6.44302 12.7487 7.1886 13.4167 8.14885V3.96094H2.39583C1.07429 3.96094 0 5.03619 0 6.35677V10.6693H10.8963Z" fill="url(#paint0_linear_2_73197)"/>
<path d="M17.955 7.19543C17.862 7.07084 17.7221 6.99609 17.5793 6.99609C17.539 6.99609 17.4978 7.0028 17.4566 7.0143C15.8073 7.50497 14.6094 8.95493 14.4062 10.6387C16.09 10.4356 17.54 9.23859 18.0297 7.58834C18.0853 7.40722 18.0067 7.26443 17.955 7.19543Z" fill="url(#paint1_linear_2_73197)"/>
<path d="M14.375 8.14885C15.043 7.1886 16.0157 6.44302 17.1829 6.09515C17.7435 5.92744 18.3674 6.14594 18.722 6.62127C18.9922 6.98352 19.0747 7.43585 18.9482 7.8604C18.6012 9.02669 17.8557 9.9994 16.8945 10.6683H23V6.35677C23 5.03619 21.9257 3.96094 20.6042 3.96094H14.375V8.14885Z" fill="url(#paint2_linear_2_73197)"/>
<path d="M10.3348 7.0143C10.2935 7.0028 10.2523 6.99609 10.2121 6.99609C10.0703 6.99609 9.92938 7.07084 9.83642 7.19543C9.78467 7.26443 9.70609 7.40722 9.76071 7.58834C10.2514 9.23764 11.7004 10.4346 13.3842 10.6387C13.182 8.95493 11.985 7.50497 10.3348 7.0143Z" fill="url(#paint3_linear_2_73197)"/>
<path d="M13.4167 12.3045L11.3601 14.3611C11.2662 14.455 11.1435 14.502 11.0208 14.502C10.8982 14.502 10.7755 14.455 10.6816 14.362C10.4947 14.1752 10.4947 13.8714 10.6816 13.6845L12.7391 11.627H0V16.8978C0 18.2184 1.07429 19.2936 2.39583 19.2936H13.4167V12.3045ZM3.35417 13.5436H7.1875C7.452 13.5436 7.66667 13.7583 7.66667 14.0228C7.66667 14.2873 7.452 14.502 7.1875 14.502H3.35417C3.08967 14.502 2.875 14.2873 2.875 14.0228C2.875 13.7583 3.08967 13.5436 3.35417 13.5436ZM10.0625 16.4186H3.35417C3.08967 16.4186 2.875 16.204 2.875 15.9395C2.875 15.675 3.08967 15.4603 3.35417 15.4603H10.0625C10.327 15.4603 10.5417 15.675 10.5417 15.9395C10.5417 16.204 10.327 16.4186 10.0625 16.4186Z" fill="url(#paint4_linear_2_73197)"/>
<path d="M15.0525 11.627L17.1091 13.6835C17.296 13.8704 17.296 14.1742 17.1091 14.3611C17.0162 14.455 16.8935 14.502 16.7708 14.502C16.6482 14.502 16.5255 14.455 16.4316 14.362L14.375 12.3045V19.2936H20.6042C21.9257 19.2936 23 18.2184 23 16.8978V11.627H15.0525Z" fill="url(#paint5_linear_2_73197)"/>
<defs>
<linearGradient id="paint0_linear_2_73197" x1="11.5" y1="3.96094" x2="11.5" y2="19.2943" gradientUnits="userSpaceOnUse">
<stop stop-color="#003AFF"/>
<stop offset="1" stop-color="#90A8F9"/>
</linearGradient>
<linearGradient id="paint1_linear_2_73197" x1="11.5015" y1="3.96105" x2="11.5015" y2="19.2944" gradientUnits="userSpaceOnUse">
<stop stop-color="#003AFF"/>
<stop offset="1" stop-color="#90A8F9"/>
</linearGradient>
<linearGradient id="paint2_linear_2_73197" x1="11.5" y1="3.96094" x2="11.5" y2="19.2943" gradientUnits="userSpaceOnUse">
<stop stop-color="#003AFF"/>
<stop offset="1" stop-color="#90A8F9"/>
</linearGradient>
<linearGradient id="paint3_linear_2_73197" x1="11.4991" y1="3.96105" x2="11.4991" y2="19.2944" gradientUnits="userSpaceOnUse">
<stop stop-color="#003AFF"/>
<stop offset="1" stop-color="#90A8F9"/>
</linearGradient>
<linearGradient id="paint4_linear_2_73197" x1="11.5" y1="3.96029" x2="11.5" y2="19.2936" gradientUnits="userSpaceOnUse">
<stop stop-color="#003AFF"/>
<stop offset="1" stop-color="#90A8F9"/>
</linearGradient>
<linearGradient id="paint5_linear_2_73197" x1="11.5" y1="3.96029" x2="11.5" y2="19.2936" gradientUnits="userSpaceOnUse">
<stop stop-color="#003AFF"/>
<stop offset="1" stop-color="#90A8F9"/>
</linearGradient>
</defs>
</svg>
