<svg width="18" height="19" viewBox="0 0 18 19" fill="none" xmlns="http://www.w3.org/2000/svg">
<path d="M17.3258 10.0672C17.3258 14.7941 13.4942 18.6265 8.76639 18.6265C4.03948 18.6265 0.207031 14.794 0.207031 10.0672C0.207031 9.96123 0.208945 9.85528 0.213731 9.74933C0.379777 5.16942 4.14553 1.50781 8.7665 1.50781C13.3875 1.50781 17.1531 5.16942 17.3193 9.74933C17.3238 9.85528 17.3258 9.96123 17.3258 10.0672Z" fill="#FDC161"/>
<path d="M17.3204 9.74933C17.1534 14.3292 13.3886 17.9909 8.76761 17.9909C4.1476 17.9909 0.381953 14.3292 0.214844 9.74933C0.380889 5.16942 4.14664 1.50781 8.76761 1.50781C13.3887 1.50781 17.1543 5.16942 17.3204 9.74933Z" fill="#735900"/>
<path d="M15.6083 10.0678C15.6083 10.1728 15.6054 10.2778 15.6016 10.3818C15.4364 14.0091 12.4344 16.909 8.76704 16.909C5.09968 16.909 2.09768 14.0091 1.93248 10.3818C1.92865 10.2778 1.92578 10.1728 1.92578 10.0678C1.92578 6.29547 4.99459 3.22656 8.76704 3.22656C12.5395 3.22667 15.6083 6.29547 15.6083 10.0678Z" fill="#FF9B38"/>
<path d="M15.6026 10.3797C15.4374 14.0069 12.4354 16.9068 8.76804 16.9068C8.68592 16.9068 8.60487 16.9049 8.52371 16.902C7.70571 16.8734 6.92389 16.7007 6.20226 16.4076C5.48064 16.1146 4.82008 15.7022 4.24546 15.1943C4.09942 15.0655 3.95911 14.9309 3.8236 14.7896C3.21079 14.1472 2.7201 13.3874 2.39269 12.5455C2.31345 12.3441 2.24377 12.1369 2.18463 11.9269C2.04337 11.4316 1.95838 10.9132 1.93359 10.3797C2.09868 6.75241 5.10079 3.85156 8.76815 3.85156C9.23203 3.85156 9.68549 3.89837 10.1246 3.98708C10.348 4.03197 10.5685 4.08824 10.7842 4.15504C11.6653 4.42703 12.4709 4.87283 13.161 5.45223C13.3099 5.57722 13.454 5.70901 13.5924 5.8474C14.1298 6.38192 14.5794 7.00525 14.9164 7.69347C15.2448 8.36457 15.4662 9.09566 15.5597 9.86599C15.5806 10.035 15.5949 10.2068 15.6026 10.3797Z" fill="#FDC161"/>
<g filter="url(#filter0_d_2_71420)">
<path d="M5.48047 6.46948V13.5475C6.67838 13.59 7.67871 13.5738 8.41022 13.5475C10.5831 13.4691 11.144 13.2738 11.5141 12.8513C11.5737 12.7834 12.0442 12.2434 11.9783 11.4879C11.8844 10.4124 10.7911 9.89103 10.7305 9.86344C10.7761 9.83126 11.7118 9.14945 11.6297 8.18097C11.5503 7.23864 10.537 6.37874 9.25107 6.46948H5.48047Z" fill="#FF901A"/>
</g>
<path d="M5.87345 6.33008C5.85889 6.76189 5.8509 7.336 5.87345 8.01255C5.8914 8.55174 5.9134 9.16186 6.01848 9.95609C6.14414 10.9063 6.31511 11.5624 6.36656 11.7546C6.56435 12.4931 6.74232 12.8938 6.88878 13.176C7.06796 13.5224 7.19241 13.7579 7.4399 13.9882C7.86974 14.3887 8.37981 14.5017 8.65784 14.5394H12.9804C12.5296 14.4032 12.1069 14.187 11.7326 13.9012C11.2126 13.5023 10.9336 13.0765 10.7174 12.7409C10.2171 11.9624 10.022 11.2751 9.81809 10.5362C9.56513 9.61753 9.47954 8.85056 9.412 8.2446C9.35574 7.73989 9.32848 7.26244 9.32443 7.20027C9.30583 6.86763 9.29805 6.57384 9.29543 6.33008H5.87345Z" fill="#FF9B38"/>
<path d="M5.88517 6.23828C5.87061 6.67009 5.86262 7.2442 5.88517 7.92076C5.90312 8.45995 5.92512 9.07006 6.0302 9.86429C6.15586 10.8145 6.32683 11.4706 6.37827 11.6628C6.57606 12.4013 6.75404 12.802 6.9005 13.0842C7.07968 13.4306 7.20413 13.6661 7.45162 13.8964C7.88146 14.2969 8.39153 14.4099 8.66955 14.4476H12.9922C12.5413 14.3114 12.1186 14.0952 11.7443 13.8094C11.2243 13.4105 10.9453 12.9847 10.7291 12.6491C10.2288 11.8707 10.0337 11.1833 9.82981 10.4444C9.57685 9.52574 9.49125 8.75877 9.42372 8.15281C9.36746 7.6481 9.3402 7.17064 9.33615 7.10847C9.31754 6.77583 9.30977 6.48204 9.30715 6.23828H5.88517Z" fill="#735900"/>
<path d="M5.71094 6.47033L5.88498 6.23828V6.47033H5.71094Z" fill="#0B414C"/>
<path opacity="0.2" d="M15.5606 9.86588L8.52457 16.9018C7.70657 16.8732 6.92475 16.7004 6.20312 16.4074L14.9171 7.69336C15.2455 8.36435 15.467 9.09554 15.5606 9.86588Z" fill="#735900"/>
<path opacity="0.2" d="M10.7831 4.15624L2.39165 12.5467C2.31241 12.3453 2.24274 12.1381 2.18359 11.9281L10.1236 3.98828C10.3468 4.03306 10.5673 4.08944 10.7831 4.15624Z" fill="#735900"/>
<path opacity="0.2" d="M13.593 5.84829L4.24609 15.1952C4.10004 15.0664 3.95974 14.9317 3.82422 14.7905L13.1616 5.45312C13.3105 5.57822 13.4546 5.7099 13.593 5.84829Z" fill="#735900"/>
<path d="M5.61204 15.935C3.72428 16.1584 3.54312 16.3395 3.31964 18.2274C3.09626 16.3395 2.91511 16.1585 1.02734 15.935C2.91522 15.7116 3.09626 15.5305 3.31964 13.6426C3.54312 15.5305 3.72428 15.7115 5.61204 15.935Z" fill="#0D0D0D"/>
<path d="M16.5105 2.91936C14.6227 3.14273 14.4416 3.32388 14.2181 5.21176C13.9947 3.32399 13.8135 3.14284 11.9258 2.91936C13.8135 2.69598 13.9947 2.51483 14.2181 0.626953C14.4416 2.51483 14.6226 2.69587 16.5105 2.91936Z" fill="#0D0D0D"/>
<defs>
<filter id="filter0_d_2_71420" x="5.48047" y="6.46289" width="6.50391" height="7.71915" filterUnits="userSpaceOnUse" color-interpolation-filters="sRGB">
<feFlood flood-opacity="0" result="BackgroundImageFix"/>
<feColorMatrix in="SourceAlpha" type="matrix" values="0 0 0 0 0 0 0 0 0 0 0 0 0 0 0 0 0 0 127 0" result="hardAlpha"/>
<feOffset dy="0.60782"/>
<feComposite in2="hardAlpha" operator="out"/>
<feColorMatrix type="matrix" values="0 0 0 0 1 0 0 0 0 0.368627 0 0 0 0 0 0 0 0 1 0"/>
<feBlend mode="normal" in2="BackgroundImageFix" result="effect1_dropShadow_2_71420"/>
<feBlend mode="normal" in="SourceGraphic" in2="effect1_dropShadow_2_71420" result="shape"/>
</filter>
</defs>
</svg>
