<svg width="25" height="24" viewBox="0 0 25 24" fill="none" xmlns="http://www.w3.org/2000/svg">
<g clip-path="url(#clip0_2_73135)">
<path d="M24.2061 5.35321C24.2061 4.63155 23.6157 4.04102 22.894 4.04102H2.10903C1.38732 4.04106 0.796875 4.63155 0.796875 5.35321V18.056C0.796875 18.7776 1.38732 19.3682 2.10903 19.3682H22.8939C23.6156 19.3682 24.2061 18.7777 24.2061 18.056L24.2061 5.35321Z" fill="#00BCFB"/>
<path d="M24.2063 10.8145H0.796875V13.8186H24.2063V10.8145Z" fill="#007FE8"/>
<path d="M21.9316 10.4982C21.9316 10.0652 21.5774 9.71094 21.1443 9.71094H18.1701C17.7371 9.71094 17.3828 10.0652 17.3828 10.4982V11.9192C17.3828 12.3522 17.7371 12.7065 18.1701 12.7065H21.1443C21.5774 12.7065 21.9316 12.3523 21.9316 11.9192V10.4982Z" fill="#FFA930"/>
<path d="M17.9929 9.73242C17.6446 9.81344 17.3828 10.1267 17.3828 10.4987V11.9197C17.3828 12.2918 17.6446 12.605 17.9929 12.686C18.5503 12.4279 18.937 11.8639 18.937 11.2092C18.9371 10.5546 18.5503 9.99061 17.9929 9.73242Z" fill="#292929"/>
<path d="M21.3231 9.73242C21.6714 9.81344 21.9332 10.1267 21.9332 10.4987V11.9197C21.9332 12.2918 21.6714 12.605 21.3231 12.686C20.7658 12.4279 20.3789 11.8639 20.3789 11.2092C20.3789 10.5546 20.7657 9.99061 21.3231 9.73242Z" fill="#292929"/>
<path d="M7.43749 16.4292C7.43749 16.1405 7.20129 15.9043 6.91265 15.9043H4.23577C3.94704 15.9043 3.71094 16.1405 3.71094 16.4292V16.8491C3.71094 17.1378 3.94713 17.3739 4.23577 17.3739H6.91261C7.20125 17.3739 7.43744 17.1377 7.43744 16.8491V16.4292H7.43749Z" fill="#292929"/>
<path d="M12.0548 16.4292C12.0548 16.1405 11.8186 15.9043 11.5298 15.9043H8.85305C8.56432 15.9043 8.32812 16.1405 8.32812 16.4292V16.8491C8.32812 17.1378 8.56432 17.3739 8.85305 17.3739H11.5298C11.8185 17.3739 12.0548 17.1377 12.0548 16.8491V16.4292Z" fill="#292929"/>
<path d="M16.6757 16.4292C16.6757 16.1405 16.4395 15.9043 16.1508 15.9043H13.4741C13.1854 15.9043 12.9492 16.1405 12.9492 16.4292V16.8491C12.9492 17.1378 13.1854 17.3739 13.4741 17.3739H16.1508C16.4396 17.3739 16.6757 17.1377 16.6757 16.8491V16.4292Z" fill="#292929"/>
<path d="M21.2929 16.4292C21.2929 16.1405 21.0567 15.9043 20.7681 15.9043H18.0912C17.8026 15.9043 17.5664 16.1405 17.5664 16.4292V16.8491C17.5664 17.1378 17.8026 17.3739 18.0912 17.3739H20.7681C21.0568 17.3739 21.2929 17.1377 21.2929 16.8491V16.4292Z" fill="#292929"/>
<path d="M12.9487 7.99256C12.9487 8.42559 12.5944 8.77983 12.1614 8.77983H4.49821C4.06519 8.77983 3.71094 8.42559 3.71094 7.99256V7.20524C3.71094 6.77222 4.06519 6.41797 4.49821 6.41797H12.1614C12.5944 6.41797 12.9487 6.77222 12.9487 7.20524V7.99256Z" fill="#333E48"/>
</g>
<defs>
<clipPath id="clip0_2_73135">
<rect width="23.4094" height="23.4094" fill="white" transform="translate(0.796875)"/>
</clipPath>
</defs>
</svg>
