<svg width="20" height="21" viewBox="0 0 20 21" fill="none" xmlns="http://www.w3.org/2000/svg">
<g clip-path="url(#clip0_1028_24999)">
<path d="M13.0591 15.157C13.8333 14.3828 12.7927 12.087 10.7348 10.0291C8.67687 7.97117 6.38102 6.9305 5.60684 7.70468C4.83267 8.47885 5.87333 10.7747 7.93123 12.8326C9.98913 14.8905 12.285 15.9312 13.0591 15.157Z" fill="#EFECEF"/>
<path d="M10.7377 10.0287C8.82586 8.11686 6.70884 7.08315 5.79688 7.56644C6.8355 7.87239 8.19923 8.75587 9.4721 10.0287C11.5303 12.0869 12.5711 14.3831 11.7968 15.1574C11.7418 15.2124 11.6788 15.258 11.609 15.295C12.2499 15.4837 12.767 15.4529 13.0625 15.1574C13.8368 14.3831 12.7959 12.0869 10.7377 10.0287Z" fill="#E2DFE2"/>
<path d="M7.93268 12.8338C6.26476 11.1659 5.26511 9.34179 5.358 8.29785L0.274293 20.3529C0.237226 20.4408 0.325695 20.5292 0.41354 20.4922L12.4686 15.4085C11.4247 15.5014 9.6006 14.5017 7.93268 12.8338Z" fill="#DD636E"/>
<path d="M10.8755 15.0088L0.721524 19.2908L0.274293 20.3513C0.237226 20.4391 0.325695 20.5276 0.41354 20.4905L12.4686 15.4068C12.0451 15.4445 11.4933 15.3024 10.8755 15.0088Z" fill="#DA4A54"/>
<path d="M6.81845 17.7905L4.15213 11.1592L2.94336 14.0256L4.79946 18.6418L6.81845 17.7905Z" fill="#F6F6F6"/>
<path d="M6.44863 16.877L4.42969 17.7283L4.79747 18.6431L5.24037 18.4564L6.81645 17.7917L6.44863 16.877Z" fill="#EAEAEA"/>
<path d="M9.64632 11.2176C9.56992 11.2176 9.49345 11.1885 9.43513 11.1302C9.3185 11.0135 9.3185 10.8245 9.43513 10.7078C9.94314 10.1998 10.4754 10.1966 10.9031 10.194C11.3025 10.1916 11.6179 10.1897 11.9524 9.85517C12.2869 9.52066 12.2888 9.20526 12.2913 8.80588C12.2939 8.37814 12.2971 7.84583 12.8051 7.33783C13.3131 6.82986 13.8453 6.82666 14.2731 6.82408C14.6724 6.82162 14.9878 6.81974 15.3224 6.4852C15.6569 6.15061 15.6589 5.83521 15.6613 5.43583C15.6639 5.00805 15.6672 4.47575 16.1752 3.9677C16.6832 3.45969 17.2155 3.45645 17.6433 3.45383C18.0427 3.45133 18.3581 3.44942 18.6927 3.11484C18.8094 2.99817 18.9984 2.99821 19.115 3.1148C19.2317 3.23143 19.2317 3.42052 19.1151 3.53715C18.607 4.04523 18.0747 4.04847 17.6469 4.05109C17.2476 4.05355 16.9321 4.05551 16.5975 4.39009C16.263 4.72463 16.261 5.04008 16.2586 5.43946C16.256 5.8672 16.2527 6.39954 15.7447 6.90755C15.2367 7.41556 14.7044 7.41876 14.2767 7.42134C13.8773 7.4238 13.5619 7.42571 13.2275 7.76022C12.8929 8.09472 12.891 8.41013 12.8885 8.80951C12.8859 9.23725 12.8827 9.76955 12.3747 10.2776C11.8667 10.7855 11.3345 10.7887 10.9067 10.7913C10.5074 10.7938 10.192 10.7957 9.85752 11.1302C9.7992 11.1885 9.72276 11.2176 9.64632 11.2176Z" fill="#DD636E"/>
<path d="M18.0203 8.55132C17.9037 8.43473 17.7146 8.43469 17.5979 8.55136C17.3502 8.79908 17.1228 8.80048 16.808 8.80243C16.4572 8.80458 16.0206 8.80724 15.5994 9.22838C15.1783 9.64956 15.1756 10.0862 15.1734 10.437C15.1715 10.7518 15.1701 10.9792 14.9224 11.2269C14.6747 11.4746 14.4473 11.476 14.1325 11.4779C13.7817 11.48 13.3451 11.4827 12.924 11.9038C12.7631 12.0647 12.6634 12.2278 12.6014 12.3876C12.5011 12.646 12.4994 12.8956 12.4981 13.1124C12.4961 13.4271 12.4948 13.6546 12.2471 13.9022C11.9839 14.1654 11.676 14.2072 11.3194 14.2554C10.9641 14.3036 10.5671 14.3575 10.2012 14.6439C10.4088 14.7694 10.6121 14.8809 10.809 14.9771C10.9889 14.9034 11.1855 14.8764 11.3997 14.8474C11.8047 14.7924 12.2638 14.7303 12.6695 14.3246C12.9905 14.0036 13.0683 13.6736 13.0881 13.3794C13.0942 13.2877 13.0949 13.1994 13.0954 13.116C13.0973 12.8013 13.0987 12.5739 13.3464 12.3262C13.594 12.0785 13.8214 12.0771 14.1362 12.0752C14.487 12.0731 14.9236 12.0705 15.3448 11.6493C15.7659 11.2281 15.7685 10.7915 15.7707 10.4407C15.7726 10.126 15.7741 9.89848 16.0218 9.65077C16.2695 9.40305 16.4969 9.40165 16.8117 9.39969C17.1625 9.39754 17.5992 9.39489 18.0203 8.97367C18.137 8.85708 18.137 8.66795 18.0203 8.55132Z" fill="#80B4FB"/>
<path d="M13.761 3.89799C13.6443 3.7814 13.4553 3.7814 13.3386 3.89799C13.0909 4.14571 12.8635 4.14711 12.5487 4.14907C12.1979 4.15121 11.7613 4.15387 11.3401 4.57505C10.9189 4.99623 10.9162 5.43287 10.9141 5.7837C10.9121 6.09844 10.9107 6.32589 10.6631 6.5736C10.4153 6.82128 10.188 6.82268 9.8732 6.8246C9.52241 6.82671 9.0858 6.82932 8.66466 7.25046C8.38023 7.53489 8.2868 7.82636 8.2554 8.09372C8.24028 8.22222 8.23946 8.34518 8.23876 8.45904C8.2368 8.77374 8.23544 9.00119 7.98772 9.24886C7.72063 9.51599 7.37304 9.57501 6.97054 9.6434C6.60037 9.70633 6.1888 9.77706 5.82812 10.0374C5.91492 10.2092 6.01299 10.3855 6.12154 10.5651C6.37859 10.3503 6.70142 10.295 7.07057 10.2323C7.51014 10.1575 8.00838 10.0729 8.41011 9.67121C8.83121 9.25007 8.83387 8.81347 8.83601 8.46263C8.83605 8.4592 8.83605 8.45592 8.83609 8.45248C8.83805 8.14309 8.84203 7.91779 9.08705 7.67281C9.33469 7.42514 9.56209 7.42373 9.87683 7.42182C10.2276 7.41971 10.6643 7.41709 11.0854 6.99591C11.5065 6.57477 11.5092 6.13813 11.5114 5.78734C11.5133 5.47259 11.5147 5.24511 11.7625 4.9974C12.0102 4.74964 12.2376 4.74824 12.5524 4.74628C12.9032 4.74414 13.3398 4.74148 13.761 4.32034C13.8776 4.20371 13.8776 4.01466 13.761 3.89799Z" fill="#69B76B"/>
<path d="M8.87487 5.23358C8.84073 5.23358 8.80597 5.22769 8.77202 5.21523C8.61719 5.1584 8.53771 4.98681 8.59454 4.83194L9.05411 3.57965C9.11094 3.42486 9.28233 3.34529 9.4374 3.40217C9.59223 3.459 9.67172 3.63059 9.61489 3.78546L9.15531 5.03774C9.1109 5.15863 8.99658 5.23358 8.87487 5.23358Z" fill="#80B4FB"/>
<path d="M16.5127 13.2194H15.2225C15.0575 13.2194 14.9238 13.0857 14.9238 12.9207C14.9238 12.7558 15.0575 12.6221 15.2225 12.6221H16.5127C16.6777 12.6221 16.8114 12.7558 16.8114 12.9207C16.8114 13.0857 16.6777 13.2194 16.5127 13.2194Z" fill="#69B76B"/>
<path d="M18.4864 5.99205C18.3988 5.99205 18.312 5.95369 18.253 5.87999C18.1499 5.75121 18.1708 5.56325 18.2996 5.46017L19.2483 4.70121C19.3771 4.59813 19.5651 4.61907 19.6681 4.74785C19.7712 4.87663 19.7503 5.06458 19.6215 5.16766L18.6728 5.92662C18.6177 5.97064 18.5518 5.99205 18.4864 5.99205Z" fill="#69B76B"/>
<path d="M13.5506 2.19784C13.3857 2.19784 13.252 2.06414 13.252 1.89919V0.798649C13.252 0.633701 13.3857 0.5 13.5506 0.5C13.7155 0.5 13.8492 0.633701 13.8492 0.798649V1.89919C13.8492 2.06414 13.7155 2.19784 13.5506 2.19784Z" fill="#F6E738"/>
<path d="M16.5134 2.00775C16.3826 2.00775 16.2625 1.92116 16.2258 1.78902C16.1817 1.63009 16.2747 1.46545 16.4336 1.42131L17.7304 1.06083C17.8893 1.01654 18.054 1.10966 18.0981 1.26859C18.1423 1.42752 18.0493 1.59216 17.8904 1.6363L16.5936 1.99678C16.5668 2.00424 16.5399 2.00775 16.5134 2.00775Z" fill="#80B4FB"/>
<path d="M19.2902 12.9881C19.2439 12.9881 19.197 12.9773 19.1531 12.9547L18.349 12.5386C18.2025 12.4628 18.1452 12.2826 18.2209 12.1361C18.2967 11.9896 18.477 11.9323 18.6234 12.0081L19.4276 12.4241C19.574 12.4999 19.6314 12.6801 19.5556 12.8267C19.5026 12.9292 19.3982 12.9881 19.2902 12.9881Z" fill="#DD636E"/>
<path d="M6.81695 5.9921C6.71953 5.9921 6.62407 5.94449 6.56673 5.85688L6.07025 5.09791C5.97994 4.95991 6.01865 4.77481 6.15669 4.68451C6.29461 4.5942 6.47979 4.63291 6.57009 4.77095L7.06658 5.52991C7.15688 5.66791 7.11818 5.85301 6.98014 5.94331C6.92979 5.97632 6.87304 5.9921 6.81695 5.9921Z" fill="#DD636E"/>
<path d="M11.4056 12.8961H10.4608C10.2958 12.8961 10.1621 12.7624 10.1621 12.5975C10.1621 12.4325 10.2958 12.2988 10.4608 12.2988H11.4056C11.5705 12.2988 11.7042 12.4325 11.7042 12.5975C11.7043 12.7624 11.5706 12.8961 11.4056 12.8961Z" fill="#F6E738"/>
<path d="M10.9335 8.59572C10.8535 8.59572 10.7737 8.56377 10.7148 8.50061C10.6025 8.37992 10.6092 8.19091 10.7299 8.07849L11.2023 7.63861C11.323 7.52631 11.512 7.53303 11.6244 7.65364C11.7368 7.77434 11.7301 7.96335 11.6094 8.07576L11.137 8.51565C11.0794 8.5692 11.0064 8.59572 10.9335 8.59572Z" fill="#80B4FB"/>
<path d="M14.1348 9.63492C14.0478 9.63492 13.9616 9.59711 13.9026 9.52434C13.7987 9.39618 13.8184 9.20811 13.9465 9.10429L14.6545 8.53051C14.7827 8.42661 14.9708 8.44641 15.0745 8.57445C15.1784 8.70261 15.1587 8.89068 15.0306 8.9945L14.3226 9.56828C14.2673 9.61308 14.2008 9.63492 14.1348 9.63492Z" fill="#F6E738"/>
<path d="M19.435 8.48838C19.4021 8.48838 19.3687 8.48295 19.336 8.47142L18.3873 8.13817C18.2317 8.08349 18.1498 7.91299 18.2045 7.75742C18.2591 7.60176 18.4296 7.51986 18.5852 7.57462L19.5339 7.90787C19.6895 7.96256 19.7714 8.13305 19.7167 8.28863C19.6736 8.41147 19.5582 8.48838 19.435 8.48838Z" fill="#F6E738"/>
<path d="M10.6548 2.00813C10.5535 2.00813 10.4548 1.95665 10.3988 1.86365L9.84958 0.952898C9.76443 0.81162 9.80985 0.62808 9.95113 0.542891C10.0924 0.457819 10.2759 0.503206 10.3611 0.644445L10.9103 1.55519C10.9955 1.69647 10.95 1.88001 10.8088 1.9652C10.7605 1.9943 10.7073 2.00813 10.6548 2.00813Z" fill="#DD636E"/>
</g>
<defs>
<clipPath id="clip0_1028_24999">
<rect width="20" height="20" fill="white" transform="translate(0 0.5)"/>
</clipPath>
</defs>
</svg>
