<svg width="25" height="24" viewBox="0 0 25 24" fill="none" xmlns="http://www.w3.org/2000/svg">
<g clip-path="url(#clip0_1025_18953)">
<path d="M14.6182 4.5H5.61816C5.20416 4.5 4.86816 4.836 4.86816 5.25C4.86816 5.664 5.20416 6 5.61816 6H14.6182C15.0322 6 15.3682 5.664 15.3682 5.25C15.3682 4.836 15.0322 4.5 14.6182 4.5Z" fill="#555555"/>
<path d="M11.6182 7.5H5.61816C5.20416 7.5 4.86816 7.836 4.86816 8.25C4.86816 8.664 5.20416 9 5.61816 9H11.6182C12.0322 9 12.3682 8.664 12.3682 8.25C12.3682 7.836 12.0322 7.5 11.6182 7.5Z" fill="#555555"/>
<path d="M16.8682 0H3.36816C1.71366 0 0.368164 1.3455 0.368164 3V18C0.368164 18.291 0.536164 18.5565 0.800164 18.6795C0.900664 18.726 1.01016 18.75 1.11816 18.75C1.29066 18.75 1.46166 18.69 1.59816 18.576L5.88966 15H16.8682C18.5227 15 19.8682 13.6545 19.8682 12V3C19.8682 1.3455 18.5227 0 16.8682 0ZM18.3682 12C18.3682 12.8265 17.6962 13.5 16.8682 13.5H5.61816C5.44266 13.5 5.27316 13.5615 5.13816 13.674L1.86816 16.3995V3C1.86816 2.1735 2.54016 1.5 3.36816 1.5H16.8682C17.6962 1.5 18.3682 2.1735 18.3682 3V12Z" fill="#555555"/>
<path d="M21.3682 6C20.9542 6 20.6182 6.336 20.6182 6.75C20.6182 7.164 20.9542 7.5 21.3682 7.5C22.1962 7.5 22.8682 8.1735 22.8682 9V21.6885L20.3362 19.6635C20.2042 19.5585 20.0377 19.5 19.8682 19.5H9.36816C8.54016 19.5 7.86816 18.8265 7.86816 18V17.25C7.86816 16.836 7.53216 16.5 7.11816 16.5C6.70416 16.5 6.36816 16.836 6.36816 17.25V18C6.36816 19.6545 7.71366 21 9.36816 21H19.6042L23.1487 23.8365C23.2852 23.9445 23.4517 24 23.6182 24C23.7277 24 23.8387 23.976 23.9437 23.9265C24.2032 23.8005 24.3682 23.538 24.3682 23.25V9C24.3682 7.3455 23.0227 6 21.3682 6Z" fill="#555555"/>
</g>
<defs>
<clipPath id="clip0_1025_18953">
<rect width="24" height="24" fill="white" transform="translate(0.368164)"/>
</clipPath>
</defs>
</svg>
