<svg width="156" height="156" viewBox="0 0 156 156" fill="none" xmlns="http://www.w3.org/2000/svg">
<g clip-path="url(#clip0_648_2626)">
<path d="M78 156C121.078 156 156 121.078 156 78C156 34.9218 121.078 0 78 0C34.9218 0 0 34.9218 0 78C0 121.078 34.9218 156 78 156Z" fill="#3284F1" fill-opacity="0.1"/>
<path d="M66.8049 96.5363C84.2402 79.6516 111.219 82.5881 112.871 82.7716C113.238 82.9552 113.605 82.7716 113.972 82.5881C114.339 82.0375 114.339 81.4869 113.972 80.9363L90.1132 57.0775L66.2544 33.4022C66.0708 33.0352 65.7038 33.0352 65.3367 33.0352C64.7861 33.0352 64.4191 33.5857 64.4191 34.3199C64.4191 35.054 68.2732 62.5834 50.8379 80.3857C51.2049 80.5693 51.3885 80.7528 51.7555 81.1199L66.2544 95.6187C66.4379 95.8022 66.8049 96.1693 66.8049 96.5363Z" fill="white"/>
<path d="M50.1038 82.5887L64.7861 97.0875C65.1532 97.6381 65.1532 98.3723 64.7861 98.7393L59.2802 104.245C57.0779 106.448 54.1414 107.549 51.2049 107.549C48.2685 107.549 45.332 106.448 43.1296 104.245C40.9273 102.043 39.6426 99.1064 39.6426 96.1699C39.6426 93.2334 40.9273 90.297 43.1296 88.0946L48.6355 82.5887C49.0026 82.0381 49.7367 82.0381 50.1038 82.5887Z" fill="white"/>
<path d="M95.9857 51.2045C98.1881 53.4069 99.4728 55.9763 100.023 58.7292C100.39 60.5645 100.39 62.3998 100.207 64.0516L83.1387 47.1669C84.974 46.7998 86.8093 46.7998 88.461 47.1669C91.214 47.901 93.9669 49.1857 95.9857 51.2045Z" fill="white"/>
<path d="M110.118 38.7249C110.486 38.3579 110.486 37.6237 110.118 37.2567C109.751 36.7061 109.017 36.7061 108.467 37.2567L102.961 42.7626C102.594 43.1296 102.594 43.8637 102.961 44.4143C103.328 44.7814 104.062 44.7814 104.429 44.4143L110.118 38.7249Z" fill="white"/>
<path d="M115.073 53.2238C115.807 53.2238 116.358 52.6732 116.358 52.1227C116.358 51.3885 115.807 51.0215 115.073 51.0215H107.181C106.631 51.0215 106.08 51.3885 106.08 52.1227C106.08 52.6732 106.631 53.2238 107.181 53.2238H115.073Z" fill="white"/>
<path d="M108.467 66.9886C109.017 67.3556 109.751 67.3556 110.118 66.9886C110.486 66.438 110.486 65.8874 110.118 65.3368L104.429 59.8309C104.062 59.2803 103.328 59.2803 102.961 59.8309C102.594 60.198 102.594 60.9321 102.961 61.2991L108.467 66.9886Z" fill="white"/>
<path d="M81.8538 37.2567C81.4868 36.7061 80.7527 36.7061 80.3856 37.2567C79.835 37.6237 79.835 38.3579 80.3856 38.7249L85.8915 44.4143C86.4421 44.7814 86.9927 44.7814 87.5432 44.4143C87.9103 43.8637 87.9103 43.1296 87.5432 42.7626L81.8538 37.2567Z" fill="white"/>
<path d="M96.3527 32.1178C96.3527 31.5672 95.8022 31.0166 95.2516 31.0166C94.5174 31.0166 94.1504 31.5672 94.1504 32.1178V40.0095C94.1504 40.5601 94.5174 41.1107 95.2516 41.1107C95.8022 41.1107 96.3527 40.5601 96.3527 40.0095V32.1178Z" fill="white"/>
<path d="M66.804 99.6565C66.6205 99.84 66.4369 100.024 66.2534 100.207L60.7475 105.713C60.3805 106.264 59.8299 106.631 59.2793 106.998L80.3852 124.617C80.7522 125.167 81.4864 125.167 81.8534 124.617L89.1946 117.275H89.3781C89.7452 116.725 89.7452 115.991 89.1946 115.624L68.8228 97.6377C68.6393 97.8212 68.4558 97.8212 68.4558 98.0048L66.804 99.6565Z" fill="white"/>
</g>
<defs>
<clipPath id="clip0_648_2626">
<rect width="156" height="156" fill="white"/>
</clipPath>
</defs>
</svg>
