<svg width="23" height="24" viewBox="0 0 23 24" fill="none" xmlns="http://www.w3.org/2000/svg">
<g clip-path="url(#clip0_2_73181)">
<path d="M21.6149 7.18945H19.0306L2.89844 14.9684V17.7355C2.92612 18.5411 3.5803 19.1838 4.38638 19.1973H21.6149C22.3933 19.1834 23.0131 18.5411 22.9992 17.7627C22.999 17.7536 22.9988 17.7445 22.9984 17.7355V8.70348C23.0422 7.91174 22.4358 7.23452 21.6441 7.19075C21.6344 7.19025 21.6246 7.1898 21.6149 7.18945Z" fill="#30B43E"/>
<path d="M20.1263 7.23937V14.5223C20.1263 15.3297 19.4719 15.9842 18.6645 15.9842H1.43598C0.643043 15.9843 0.000149893 15.3416 0 14.5487C0 14.5399 9.9929e-05 14.5311 0.000249822 14.5223V5.5165C-0.0141899 4.72371 0.616812 4.06933 1.4096 4.05494C1.41839 4.05479 1.42714 4.05469 1.43593 4.05469H18.6645C19.4718 4.05469 20.1263 4.70917 20.1263 5.5165L20.1263 7.23937Z" fill="#47C355"/>
<path d="M17.4895 14.4457C18.0661 14.4457 18.5336 13.9783 18.5336 13.4016C18.5336 12.8249 18.0661 12.3574 17.4895 12.3574C16.9128 12.3574 16.4453 12.8249 16.4453 13.4016C16.4453 13.9783 16.9128 14.4457 17.4895 14.4457Z" fill="#30B43E"/>
<path d="M10.0527 14.6797C12.6189 14.6797 14.6992 12.5994 14.6992 10.0332C14.6992 7.46703 12.6189 5.38672 10.0527 5.38672C7.48656 5.38672 5.40625 7.46703 5.40625 10.0332C5.40625 12.5994 7.48656 14.6797 10.0527 14.6797Z" fill="#30B43E"/>
<path d="M2.61056 7.65668C3.18724 7.65668 3.65472 7.18919 3.65472 6.61252C3.65472 6.03584 3.18724 5.56836 2.61056 5.56836C2.03389 5.56836 1.56641 6.03584 1.56641 6.61252C1.56641 7.18919 2.03389 7.65668 2.61056 7.65668Z" fill="#30B43E"/>
<path d="M11.6157 8.49397H11.1458C11.1147 8.3171 11.071 8.14262 11.0153 7.97189H11.6157C11.904 7.97189 12.1377 7.73816 12.1377 7.44981C12.1377 7.16147 11.904 6.92773 11.6157 6.92773H8.40489C8.11655 6.92773 7.88281 7.16147 7.88281 7.44981C7.88281 7.73816 8.11655 7.97189 8.40489 7.97189H9.34462C9.60564 7.97189 9.84062 8.23291 9.99721 8.49397H8.40489C8.11655 8.49397 7.88281 8.72771 7.88281 9.01605C7.88281 9.3044 8.11655 9.53813 8.40489 9.53813H9.99721C9.97113 9.53813 9.97113 9.56421 9.945 9.59034C9.77752 9.73169 9.56367 9.80609 9.34462 9.79919H8.40489C8.19159 9.79949 8.00238 9.93615 7.93503 10.1386C7.86328 10.3391 7.91419 10.563 8.06553 10.7128L10.3366 12.8795C10.4356 12.9708 10.5676 13.0179 10.702 13.01C10.9903 13.0059 11.2207 12.7689 11.2167 12.4806C11.2148 12.3464 11.1614 12.2182 11.0674 12.1224L9.68393 10.8172C10.379 10.7126 10.9498 10.2132 11.1457 9.53813H11.6156C11.904 9.53813 12.1377 9.3044 12.1377 9.01605C12.1377 8.72771 11.904 8.49397 11.6157 8.49397Z" fill="#FEE05A"/>
</g>
<defs>
<clipPath id="clip0_2_73181">
<rect width="23" height="23" fill="white" transform="translate(0 0.126953)"/>
</clipPath>
</defs>
</svg>
