<svg width="86" height="55" viewBox="0 0 86 55" fill="none" xmlns="http://www.w3.org/2000/svg">
<g opacity="0.2">
<path d="M42.9673 48.3914C41.7653 48.3914 40.5555 48.3531 39.3714 48.2776L39.4889 47.5637C40.6342 47.6367 41.8046 47.6738 42.9673 47.6738H42.9798V48.3916L42.9673 48.3914ZM44.5743 48.3689L44.5223 47.6519C45.6823 47.6193 46.8484 47.5489 47.988 47.4427L48.1585 48.1526C46.9799 48.2623 45.7739 48.3351 44.5743 48.3689ZM37.7882 48.1536C36.6034 48.0435 35.4157 47.8932 34.2584 47.7069L34.5471 47.0121C35.6655 47.1921 36.8131 47.3373 37.9585 47.4439L37.7882 48.1536ZM49.7307 47.9826L49.5076 47.2786C50.6419 47.1391 51.7775 46.9606 52.8828 46.7479L53.2231 47.4336C52.0795 47.6537 50.9044 47.8384 49.7307 47.9826ZM32.7233 47.436C31.6179 47.2235 30.5137 46.9725 29.4413 46.6901L29.3416 46.6638L29.7946 46.0039L29.8898 46.0291C30.927 46.3023 31.9945 46.5448 33.0633 46.7503L32.7233 47.436ZM54.7364 47.1183L54.3455 46.4432C54.9134 46.3157 55.4849 46.1764 56.0446 46.0291C56.5526 45.8953 57.0612 45.7522 57.5563 45.6035L58.0568 46.25C57.5447 46.4037 57.0188 46.5517 56.4935 46.6901C55.9148 46.8424 55.3238 46.9865 54.7364 47.1183ZM27.8892 46.2534C26.809 45.9295 25.746 45.5673 24.7298 45.1767L25.3352 44.566C26.3175 44.9434 27.3451 45.2936 28.3895 45.6068L27.8892 46.2534ZM59.4774 45.7983L58.9298 45.1667C59.9481 44.8243 60.9484 44.4448 61.9027 44.0387L62.5531 44.6311C61.5657 45.0514 60.5311 45.4441 59.4774 45.7983ZM23.3917 44.6355C22.4056 44.2163 21.442 43.7589 20.5276 43.276L21.273 42.7285C22.1571 43.1953 23.0887 43.6374 24.0419 44.0428L23.3917 44.6355ZM63.8492 44.0519L63.1555 43.4787C64.0763 43.0466 64.9741 42.578 65.8243 42.0859L66.6091 42.6116C65.7301 43.1203 64.8015 43.6049 63.8492 44.0519ZM19.3346 42.6167C19.019 42.4341 18.7039 42.245 18.3981 42.0546C17.8563 41.7172 17.327 41.3655 16.8249 41.0091L17.6913 40.5357C18.1772 40.8805 18.6891 41.2208 19.2133 41.547C19.5091 41.7312 19.8138 41.9141 20.1192 42.0908L19.3346 42.6167ZM67.7525 41.9189L66.9306 41.4158C67.7447 40.9 68.5221 40.3543 69.2416 39.7936L70.1422 40.2417C69.3983 40.8213 68.5944 41.3857 67.7525 41.9189ZM15.8004 40.2477C15.0523 39.6652 14.3459 39.0521 13.7008 38.4257L14.6712 38.0383C15.2948 38.6438 15.9777 39.2364 16.7008 39.7996L15.8004 40.2477ZM71.109 39.4514L70.1764 39.0296C70.856 38.4468 71.4937 37.8351 72.0718 37.2114L73.0701 37.5702C72.4721 38.2155 71.8122 38.8484 71.109 39.4514ZM12.8706 37.5769C12.2736 36.9335 11.7229 36.2615 11.2337 35.5797L12.2862 35.2869C12.7593 35.9462 13.2917 36.596 13.8687 37.2179L12.8706 37.5769ZM73.8357 36.6986L72.8119 36.3689C73.2086 35.8913 73.5814 35.3966 73.9194 34.899C74.0329 34.7321 74.144 34.5623 74.25 34.3942L75.3228 34.6565C75.2132 34.8304 75.0981 35.0061 74.981 35.1786C74.6313 35.6932 74.246 36.2046 73.8357 36.6986ZM10.6164 34.6638C10.1774 33.9687 9.7934 33.2531 9.47446 32.5369L10.5852 32.3451C10.8933 33.0374 11.2647 33.7291 11.689 34.4012L10.6164 34.6638ZM75.8719 33.7237L74.7808 33.4922C75.154 32.8098 75.4732 32.1081 75.7291 31.4067L76.8531 31.5657C76.5882 32.2917 76.258 33.0176 75.8719 33.7237ZM9.08427 31.5734C8.8192 30.8481 8.61244 30.1045 8.46994 29.3635L9.61442 29.2781C9.75226 29.9944 9.95202 30.713 10.2082 31.414L9.08427 31.5734ZM77.1705 30.592L76.0358 30.4657C76.2387 29.7587 76.3848 29.035 76.4694 28.3146L77.619 28.367C77.5314 29.1121 77.3807 29.8608 77.1705 30.592ZM8.31641 28.3748C8.25321 27.8407 8.22119 27.2961 8.22119 26.7562C8.22119 26.5493 8.22586 26.3399 8.23519 26.1336L9.3873 26.1537C9.3784 26.3533 9.37373 26.556 9.37373 26.7562C9.37373 27.2786 9.40469 27.8054 9.46577 28.3221L8.31641 28.3748ZM77.6996 27.3749L76.5475 27.355C76.5564 27.1564 76.5608 26.9551 76.5608 26.7563C76.5608 26.2328 76.5297 25.7047 76.4684 25.1866L77.618 25.1338C77.6814 25.6694 77.7136 26.2154 77.7136 26.7563C77.7134 26.9615 77.7087 27.1698 77.6996 27.3749ZM9.46555 25.1941L8.31598 25.1416C8.40377 24.3962 8.55497 23.6477 8.76534 22.9165L9.89985 23.043C9.6967 23.7497 9.55038 24.4735 9.46555 25.1941ZM76.3197 24.2305C76.1817 23.514 75.9815 22.7955 75.7251 22.0947L76.849 21.9352C77.1143 22.6603 77.3213 23.4038 77.464 24.1449L76.3197 24.2305ZM10.2069 22.102L9.083 21.9429C9.34807 21.217 9.67846 20.4911 10.0648 19.785L11.1559 20.0166C10.7824 20.6989 10.4631 21.4006 10.2069 22.102ZM75.3477 21.1637C75.0393 20.4713 74.6678 19.7796 74.2433 19.1078L75.3161 18.845C75.755 19.54 76.1395 20.2555 76.4584 20.9718L75.3477 21.1637ZM11.6869 19.1149L10.6141 18.8524C10.7231 18.6796 10.8374 18.5051 10.9536 18.334C11.3041 17.818 11.6905 17.3054 12.1019 16.8104L13.1255 17.1402C12.7277 17.6189 12.3542 18.1146 12.0151 18.6136C11.9027 18.7791 11.7923 18.9478 11.6869 19.1149ZM73.6461 18.222C73.1728 17.5628 72.6401 16.9131 72.0629 16.2912L73.0608 15.932C73.658 16.5754 74.2089 17.2473 74.6983 17.929L73.6461 18.222ZM13.8658 16.2977L12.8676 15.9388C13.4658 15.2938 14.1258 14.6609 14.8292 14.0578L15.7618 14.4796C15.0822 15.0625 14.4441 15.6742 13.8658 16.2977ZM71.2604 15.4711C70.6368 14.8657 69.9537 14.2732 69.2302 13.71L70.1304 13.2618C70.8787 13.8443 71.5853 14.4574 72.2306 15.0837L71.2604 15.4711ZM16.697 13.7158L15.7966 13.2677C16.5405 12.6882 17.3446 12.1239 18.1865 11.5908L19.0084 12.094C18.1939 12.6097 17.4163 13.1555 16.697 13.7158ZM68.2392 12.9738C67.7545 12.6299 67.2438 12.2906 66.7213 11.9654C66.4242 11.7802 66.1178 11.5964 65.8109 11.419L66.5953 10.8931C66.9128 11.0766 67.2292 11.2666 67.5365 11.4578C68.0766 11.7941 68.6044 12.1448 69.1055 12.5003L68.2392 12.9738ZM20.1147 11.424L19.3301 10.8983C20.2091 10.3896 21.1379 9.90498 22.0905 9.45828L22.7839 10.0315C21.863 10.4635 20.9649 10.932 20.1147 11.424ZM64.6571 10.7813C63.7728 10.3147 62.841 9.87263 61.8878 9.46739L62.5378 8.87466C63.5239 9.29376 64.4877 9.75115 65.4023 10.2338L64.6571 10.7813ZM24.037 9.47162L23.3868 8.87901C24.3744 8.45899 25.4092 8.06643 26.4627 7.71229L27.0103 8.34385C25.992 8.6861 24.9915 9.06546 24.037 9.47162ZM60.5943 8.94451C59.6116 8.56713 58.584 8.21709 57.5398 7.90401L58.0396 7.25727C59.1198 7.58104 60.1829 7.9431 61.1993 8.33355L60.5943 8.94451ZM28.384 7.90731L27.8837 7.2607C28.3935 7.1078 28.9175 6.96031 29.4411 6.82232C30.0211 6.66955 30.6144 6.52497 31.2042 6.39266L31.5948 7.06792C31.0245 7.19587 30.4509 7.33557 29.8902 7.48333C29.3838 7.61682 28.877 7.75943 28.384 7.90731ZM56.1351 7.50736L56.0446 7.48346C55.0059 7.20987 53.9365 6.96691 52.8656 6.76119L53.2053 6.07536C54.3131 6.28821 55.4194 6.53949 56.4933 6.82232L56.5864 6.84702L56.1351 7.50736ZM33.0578 6.76343L32.7176 6.07774C33.8613 5.85776 35.0365 5.67316 36.2102 5.52897L36.4331 6.23315C35.2988 6.37232 34.163 6.55071 33.0578 6.76343ZM51.3816 6.49948C50.263 6.31951 49.1153 6.17439 47.9702 6.0681L48.14 5.35824C49.3248 5.46823 50.5126 5.61836 51.67 5.80454L51.3816 6.49948ZM37.9527 6.06916L37.7824 5.3593C38.9613 5.24957 40.1673 5.17695 41.3667 5.14328L41.4184 5.86027C40.2584 5.89288 39.0923 5.96313 37.9527 6.06916ZM46.4398 5.94847C45.2965 5.87571 44.1283 5.83874 42.9675 5.83874H42.9613V5.12109V5.47998L42.9628 5.12109C44.1675 5.12109 45.3752 5.15925 46.5572 5.23452L46.4398 5.94847Z" fill="white"/>
<path d="M64.451 40.133C76.3161 32.745 76.3161 20.7667 64.451 13.3787C52.5859 5.99071 33.3487 5.99071 21.4837 13.3787C9.61856 20.7667 9.61856 32.745 21.4837 40.133C33.3487 47.521 52.5859 47.521 64.451 40.133Z" fill="white"/>
</g>
<path opacity="0.2" d="M40.8725 55.0012C63.4457 55.0012 81.7449 48.7443 81.7449 41.026C81.7449 33.3077 63.4457 27.0508 40.8725 27.0508C18.2992 27.0508 0 33.3077 0 41.026C0 48.7443 18.2992 55.0012 40.8725 55.0012Z" fill="black"/>
<path d="M78.1992 31.6621L78.2053 34.936C78.2053 34.9689 78.2043 35.0029 78.2033 35.0359C78.1692 36.1547 77.5085 37.1671 76.4862 37.6329C75.0527 38.2859 73.3559 38.7937 71.5041 39.1679C70.9295 39.2852 70.3407 39.3893 69.74 39.4805C68.4188 39.6805 67.0403 39.8201 65.6388 39.9027C65.143 39.9321 64.6452 39.954 64.1452 39.9692C62.2676 40.0253 60.369 39.985 58.5251 39.8557C57.6991 39.797 56.884 39.7206 56.0865 39.6266C54.0406 39.3859 52.116 39.0307 50.4318 38.5742C49.4649 38.3129 48.5771 38.0183 47.7912 37.6919C47.4267 37.5412 47.1039 37.3236 46.8347 37.0575C46.316 36.5441 45.9945 35.8482 45.958 35.0959C45.9546 35.0487 45.9533 35.0017 45.9533 34.9545L45.9473 31.7223L78.1992 31.6621Z" fill="#FDB748"/>
<path d="M78.2027 35.0332C78.1687 36.152 77.508 37.1644 76.4857 37.6302C74.6073 38.486 72.2789 39.0924 69.7395 39.4778C67.9523 39.7477 66.0595 39.9079 64.1445 39.9665C62.2669 40.0226 60.3683 39.9823 58.5244 39.853C57.6983 39.7943 56.8833 39.7179 56.0858 39.6239C54.0399 39.3832 52.1153 39.028 50.431 38.5715C49.4642 38.3102 48.5764 38.0156 47.7905 37.6892C47.426 37.5384 47.1032 37.3208 46.834 37.0548C46.3153 36.5414 45.9937 35.8455 45.9573 35.0932C46.5983 35.387 47.2734 35.6601 47.9746 35.9099C49.2235 36.355 50.5601 36.7321 51.9559 37.041C53.8168 37.4533 55.7827 37.7447 57.7848 37.9185C58.6174 37.9905 59.4578 38.0415 60.298 38.0729C62.258 38.1461 64.2267 38.1084 66.1393 37.9645C68.2163 37.8071 70.2283 37.5226 72.0956 37.1134C74.4033 36.6075 76.4891 35.9125 78.2027 35.0332Z" fill="#FF901E"/>
<path opacity="0.2" d="M57.2785 31.7012L51.9558 37.0437L50.4308 38.5744C49.464 38.313 48.5762 38.0185 47.7902 37.6921C47.4258 37.5413 47.103 37.3237 46.8337 37.0577L47.9744 35.9128L52.1607 31.7109L57.2785 31.7012Z" fill="#FFEAA5"/>
<path opacity="0.2" d="M78.1986 31.6621L78.2 32.4638L73.6306 37.0502L71.5034 39.1677C70.9288 39.285 70.3401 39.3891 69.7393 39.4803C68.4181 39.6803 67.0396 39.8199 65.6382 39.9025L67.6746 37.9016L73.8818 31.6702L78.1986 31.6621Z" fill="#FFEAA5"/>
<path opacity="0.2" d="M66.665 31.6816L60.2979 38.0735L58.5245 39.8536C57.6985 39.7948 56.8834 39.7184 56.0859 39.6244L57.785 37.9191L63.9943 31.6865L66.665 31.6816Z" fill="#FFEAA5"/>
<path d="M78.1992 31.6137C78.2037 33.9807 70.988 35.9132 62.0812 35.9298C53.1753 35.9464 45.9515 34.0407 45.9473 31.6737C45.9473 31.6206 45.9503 31.5675 45.959 31.5144C46.2684 29.2205 53.359 27.3737 62.0652 27.3575C70.7715 27.3413 77.869 29.1617 78.1869 31.4544C78.1956 31.5077 78.199 31.5608 78.1992 31.6137Z" fill="#FFEAA5"/>
<path d="M74.9616 31.6149C74.9618 31.6674 74.9564 31.7201 74.9493 31.7722C74.6415 33.5891 68.9884 35.0518 62.0789 35.0645C55.1696 35.0775 49.511 33.6357 49.1963 31.82C49.189 31.7679 49.1836 31.7152 49.1834 31.6628C49.1799 29.7739 54.9587 28.2263 62.0659 28.213C69.1733 28.2 74.958 29.7258 74.9616 31.6149Z" fill="#FF901E"/>
<path d="M74.9497 31.7745C74.642 33.5915 68.9888 35.0541 62.0793 35.0669C61.9247 35.0673 61.7718 35.0665 61.619 35.0655C60.0778 35.0539 58.6046 34.9703 57.2449 34.826C55.885 34.6817 54.6402 34.4775 53.5571 34.2253C53.2819 34.1612 53.0173 34.0944 52.7618 34.0241C51.6068 33.7046 50.6817 33.3257 50.0639 32.9053C49.9144 32.8048 49.7829 32.7013 49.6713 32.5963C49.4046 32.3487 49.2442 32.0894 49.1968 31.8223C49.5045 30.0054 55.1577 28.5423 62.0672 28.5294C62.9412 28.5278 63.7954 28.5496 64.6229 28.5924C65.0437 28.6141 65.4592 28.6414 65.8656 28.6742C67.5258 28.8074 69.0441 29.0278 70.3449 29.3155C70.6255 29.3777 70.8972 29.4431 71.1581 29.5118C72.1712 29.7776 73.0187 30.0882 73.6542 30.4317C74.2734 30.7666 74.6914 31.1319 74.8685 31.5172C74.908 31.6021 74.9351 31.688 74.9497 31.7745Z" fill="#FDB748"/>
<path opacity="0.2" d="M74.8682 31.5194L61.6189 35.0672C60.0777 35.0557 58.6046 34.972 57.2449 34.8277L73.6542 30.4336C74.2734 30.7685 74.6913 31.134 74.8682 31.5194Z" fill="#FFEAA5"/>
<path opacity="0.2" d="M65.865 28.6737L50.0633 32.9045C49.9138 32.804 49.7823 32.7005 49.6707 32.5955L64.6222 28.5918C65.043 28.6137 65.4586 28.641 65.865 28.6737Z" fill="#FFEAA5"/>
<path opacity="0.2" d="M71.1585 29.5108L53.5574 34.224C53.2823 34.16 53.0177 34.0931 52.7622 34.0228L70.3452 29.3145C70.6258 29.3765 70.8975 29.4419 71.1585 29.5108Z" fill="#FFEAA5"/>
<path d="M68.6636 30.2024L64.3918 30.2103C64.7644 30.3619 65.0692 30.5442 65.2321 30.7614L68.6646 30.7549L68.6658 31.4082L65.2616 31.4144C64.8489 32.0478 63.1616 32.392 61.8765 32.5324C61.5211 32.5717 61.1376 32.59 60.7538 32.5908L59.0205 32.594L65.8757 34.4025L62.6699 34.4083L55.8147 32.5999L55.8135 31.9467L59.815 31.9392C61.1116 31.9368 62.2359 31.7222 62.6871 31.4189L56.1905 31.431L56.1893 30.778L62.682 30.7659C62.2675 30.4541 61.3598 30.2881 60.857 30.2166L56.1883 30.2253L56.1871 29.5721L68.6622 29.5488L68.6636 30.2024Z" fill="#FF5E00"/>
<path d="M68.6636 30.0671L64.3919 30.075C64.7644 30.2265 65.0692 30.4089 65.2321 30.6261L68.6646 30.6198L68.6658 31.273L65.2616 31.2793C64.8489 31.9126 63.1616 32.2568 61.8765 32.3972C61.5211 32.4366 61.1376 32.455 60.7538 32.4556L59.0205 32.4588L65.8757 34.2673L62.6701 34.2734L55.8147 32.4649L55.8135 31.8119L59.815 31.8044C61.1116 31.802 62.2359 31.5874 62.6871 31.2841L56.1905 31.2963L56.1893 30.6431L62.682 30.6309C62.2675 30.3193 61.3598 30.1532 60.857 30.0817L56.1883 30.0904L56.1871 29.4374L68.6622 29.4141L68.6636 30.0671Z" fill="#FF8400"/>
<path d="M72.8931 26.7285L72.8992 30.0024C72.8992 30.0353 72.8981 30.0693 72.8971 30.1023C72.8631 31.2211 72.2024 32.2335 71.18 32.6993C69.7466 33.3523 68.0498 33.8601 66.1979 34.2343C65.6233 34.3516 65.0346 34.4557 64.4338 34.5469C63.1126 34.7469 61.7341 34.8865 60.3327 34.9691C59.8369 34.9985 59.3391 35.0204 58.8391 35.0356C56.9615 35.0917 55.0629 35.0514 53.2189 34.9221C52.3929 34.8634 51.5778 34.787 50.7804 34.693C48.7344 34.4523 46.8099 34.0971 45.1256 33.6406C44.1588 33.3793 43.2709 33.0847 42.485 32.7583C42.1205 32.6076 41.7978 32.39 41.5285 32.1239C41.0099 31.6105 40.6883 30.9146 40.6519 30.1623C40.6484 30.1151 40.6472 30.0681 40.6472 30.0209L40.6411 26.7887L72.8931 26.7285Z" fill="#FDB748"/>
<path d="M72.8968 30.1074C72.8628 31.2262 72.2021 32.2386 71.1797 32.7044C69.3014 33.5602 66.973 34.1666 64.4336 34.552C62.6464 34.8219 60.7536 34.9821 58.8386 35.0407C56.961 35.0968 55.0624 35.0565 53.2185 34.9272C52.3924 34.8685 51.5773 34.7921 50.7799 34.6981C48.734 34.4574 46.8094 34.1022 45.1251 33.6457C44.1583 33.3844 43.2705 33.0898 42.4846 32.7634C42.1201 32.6127 41.7973 32.3951 41.528 32.129C41.0094 31.6156 40.6878 30.9197 40.6514 30.1674C41.2924 30.4612 41.9675 30.7343 42.6687 30.9841C43.9176 31.4292 45.2542 31.8063 46.6499 32.1153C48.5109 32.5276 50.4768 32.8189 52.4787 32.9927C53.3112 33.0647 54.1517 33.1157 54.9919 33.1471C56.9519 33.2203 58.9206 33.1826 60.8332 33.0387C62.9102 32.8813 64.9222 32.5969 66.7895 32.1876C69.0972 31.6819 71.1832 30.9869 72.8968 30.1074Z" fill="#FF901E"/>
<path opacity="0.2" d="M51.9726 26.7695L46.6499 32.1121L45.1249 33.6428C44.1581 33.3814 43.2703 33.0868 42.4843 32.7604C42.1199 32.6097 41.7971 32.3921 41.5278 32.1261L42.6685 30.9811L46.8548 26.7793L51.9726 26.7695Z" fill="#FFEAA5"/>
<path opacity="0.2" d="M72.8924 26.7285L72.8939 27.5302L68.3245 32.1166L66.1973 34.2341C65.6227 34.3514 65.0339 34.4555 64.4332 34.5467C63.112 34.7467 61.7335 34.8863 60.332 34.9689L62.3684 32.968L68.5757 26.7366L72.8924 26.7285Z" fill="#FFEAA5"/>
<path opacity="0.2" d="M61.3594 26.7559L54.9923 33.1477L53.2188 34.9278C52.3928 34.869 51.5777 34.7927 50.7803 34.6987L52.4793 32.9933L58.6888 26.7607L61.3594 26.7559Z" fill="#FFEAA5"/>
<path d="M72.8931 26.6801C72.8975 29.0471 65.6819 30.9796 56.7751 30.9962C47.8691 31.0128 40.6454 29.1073 40.6411 26.7401C40.6409 26.687 40.6442 26.6339 40.6529 26.5808C40.9623 24.2869 48.0529 22.4401 56.7591 22.4239C65.4653 22.4077 72.5628 24.2282 72.8807 26.5208C72.8896 26.5741 72.8931 26.627 72.8931 26.6801Z" fill="#FFEAA5"/>
<path d="M69.6553 26.6872C69.6555 26.7397 69.65 26.7924 69.6429 26.8444C69.3351 28.6614 63.682 30.124 56.7725 30.1368C49.8632 30.1496 44.2046 28.708 43.89 26.8922C43.8827 26.8402 43.8772 26.7875 43.8772 26.735C43.8738 24.8461 49.6527 23.2986 56.7597 23.2852C63.8672 23.2723 69.6518 24.7981 69.6553 26.6872Z" fill="#FF901E"/>
<path d="M69.6438 26.8431C69.3361 28.6601 63.6829 30.1227 56.7734 30.1355C56.6188 30.1357 56.4659 30.1351 56.3131 30.1338C54.7719 30.1223 53.2987 30.0386 51.939 29.8944C50.5791 29.7501 49.3343 29.5459 48.2512 29.2936C47.9758 29.2296 47.7114 29.1627 47.4559 29.0924C46.3009 28.7729 45.3758 28.3941 44.758 27.9736C44.6085 27.8732 44.477 27.7696 44.3654 27.6647C44.0987 27.4171 43.9383 27.158 43.8909 26.8907C44.1986 25.0737 49.8518 23.6107 56.7613 23.5977C57.6353 23.5961 58.4895 23.618 59.3169 23.6608C59.7378 23.6824 60.1533 23.7098 60.5597 23.7426C62.2199 23.8757 63.738 24.0962 65.039 24.3839C65.3196 24.4459 65.5913 24.5113 65.8522 24.5802C66.8653 24.846 67.7128 25.1566 68.3483 25.5C68.9675 25.8349 69.3855 26.2002 69.5626 26.5856C69.6021 26.6707 69.6292 26.7566 69.6438 26.8431Z" fill="#FDB748"/>
<path opacity="0.2" d="M69.5618 26.5858L56.3126 30.1336C54.7713 30.1221 53.2982 30.0384 51.9385 29.8941L68.3478 25.5C68.967 25.8349 69.3849 26.2002 69.5618 26.5858Z" fill="#FFEAA5"/>
<path opacity="0.2" d="M60.5594 23.7401L44.7576 27.9709C44.6081 27.8704 44.4766 27.7669 44.365 27.6619L59.3166 23.6582C59.7374 23.6799 60.1529 23.7074 60.5594 23.7401Z" fill="#FFEAA5"/>
<path opacity="0.2" d="M65.8516 24.5791L48.2506 29.2924C47.9752 29.2284 47.7108 29.1615 47.4553 29.0912L65.0384 24.3828C65.319 24.445 65.5907 24.5105 65.8516 24.5791Z" fill="#FFEAA5"/>
<path d="M63.3573 25.2688L59.0855 25.2767C59.4581 25.4283 59.7628 25.6106 59.9257 25.8278L63.3583 25.8216L63.3595 26.4746L59.9553 26.4808C59.5426 27.1142 57.8553 27.4584 56.5701 27.5988C56.2148 27.6381 55.8312 27.6566 55.4475 27.6572L53.7142 27.6604L60.5694 29.4689L57.3637 29.4748L50.5085 27.6663L50.5073 27.0133L54.5088 27.0058C55.8055 27.0034 56.9298 26.7888 57.381 26.4855L50.8844 26.4977L50.8832 25.8445L57.3759 25.8323C56.9614 25.5205 56.0537 25.3545 55.5508 25.283L50.8821 25.2917L50.8809 24.6385L63.356 24.6152L63.3573 25.2688Z" fill="#FF5E00"/>
<path d="M63.3573 25.1354L59.0855 25.1433C59.4581 25.2949 59.7628 25.4772 59.9257 25.6944L63.3583 25.6879L63.3595 26.3411L59.9553 26.3474C59.5426 26.9808 57.8553 27.325 56.5701 27.4656C56.2148 27.5049 55.8312 27.5231 55.4475 27.524L53.7142 27.5272L60.5694 29.3357L57.3637 29.3417L50.5085 27.5333L50.5073 26.8803L54.5088 26.8728C55.8055 26.8703 56.9298 26.6558 57.381 26.3525L50.8844 26.3646L50.8832 25.7116L57.3759 25.6995C56.9614 25.3879 56.0537 25.2217 55.5508 25.1502L50.8821 25.1589L50.8809 24.5057L63.356 24.4824L63.3573 25.1354Z" fill="#FF8400"/>
<path d="M78.8845 21.4863L78.8906 24.7603C78.8906 24.7931 78.8896 24.8271 78.8886 24.8601C78.8545 25.9789 78.1938 26.9914 77.1715 27.4571C75.738 28.1102 74.0412 28.6179 72.1894 28.9921C71.6148 29.1094 71.026 29.2135 70.4253 29.3047C69.1041 29.5045 67.7255 29.6443 66.3241 29.727C65.8283 29.7563 65.3305 29.7782 64.8305 29.7934C62.9529 29.8495 61.0543 29.8092 59.2104 29.68C58.3844 29.6212 57.5693 29.5448 56.7718 29.4508C54.7259 29.2101 52.8013 28.8549 51.1171 28.3985C50.1502 28.1371 49.2624 27.8425 48.4765 27.5161C48.112 27.3654 47.7892 27.1478 47.52 26.8817C47.0013 26.3683 46.6798 25.6724 46.6433 24.9201C46.6399 24.8729 46.6386 24.8257 46.6386 24.7787L46.6326 21.5465L78.8845 21.4863Z" fill="#FDB748"/>
<path d="M78.889 24.8613C78.855 25.9801 78.1943 26.9925 77.1719 27.4583C75.2936 28.3142 72.9652 28.9206 70.4257 29.3059C68.6385 29.5758 66.7458 29.736 64.8308 29.7946C62.9532 29.8507 61.0546 29.8104 59.2106 29.6811C58.3846 29.6224 57.5695 29.546 56.7721 29.452C54.7262 29.2113 52.8016 28.8561 51.1173 28.3997C50.1505 28.1383 49.2627 27.8437 48.4767 27.5173C48.1123 27.3666 47.7895 27.149 47.5202 26.8829C47.0016 26.3695 46.68 25.6736 46.6436 24.9213C47.2846 25.2151 47.9597 25.488 48.6609 25.738C49.9098 26.1831 51.2466 26.5602 52.6421 26.869C54.5031 27.2813 56.469 27.5726 58.4709 27.7464C59.3034 27.8184 60.1439 27.8694 60.9839 27.9008C62.9439 27.974 64.9126 27.9363 66.8252 27.7924C68.9021 27.635 70.9142 27.3506 72.7815 26.9413C75.0893 26.4358 77.1752 25.7408 78.889 24.8613Z" fill="#FF901E"/>
<path opacity="0.2" d="M57.965 21.5254L52.6424 26.8679L51.1173 28.3986C50.1505 28.1373 49.2627 27.8427 48.4768 27.5163C48.1123 27.3655 47.7895 27.1479 47.5203 26.8819L48.6609 25.737L52.8472 21.5351L57.965 21.5254Z" fill="#FFEAA5"/>
<path opacity="0.2" d="M78.8851 21.4863L78.8865 22.288L74.3171 26.8747L72.19 28.9921C71.6154 29.1094 71.0266 29.2135 70.4259 29.3047C69.1047 29.5045 67.7261 29.6443 66.3247 29.727L68.3611 27.726L74.5684 21.4946L78.8851 21.4863Z" fill="#FFEAA5"/>
<path opacity="0.2" d="M67.3508 21.5059L60.9837 27.8977L59.2103 29.6778C58.3843 29.619 57.5692 29.5427 56.7717 29.4487L58.4708 27.7433L64.6803 21.5107L67.3508 21.5059Z" fill="#FFEAA5"/>
<path d="M78.8845 21.432C78.889 23.7991 71.6735 25.7316 62.7665 25.7482C53.8606 25.7648 46.6368 23.8593 46.6326 21.492C46.6326 21.4389 46.6356 21.3859 46.6443 21.3328C46.9537 19.0389 54.0443 17.1921 62.7505 17.1759C71.4568 17.1597 78.5543 18.9801 78.8722 21.2728C78.8811 21.3259 78.8845 21.379 78.8845 21.432Z" fill="#FFEAA5"/>
<path d="M75.6477 21.4431C75.6477 21.4955 75.6424 21.5482 75.6353 21.6003C75.3276 23.4173 69.6744 24.8799 62.7649 24.8927C55.8556 24.9056 50.197 23.4639 49.8824 21.6481C49.8751 21.596 49.8696 21.5436 49.8696 21.4909C49.8662 19.602 55.6449 18.0545 62.7522 18.0411C69.8596 18.0279 75.6443 19.554 75.6477 21.4431Z" fill="#FF901E"/>
<path d="M75.635 21.597C75.3273 23.414 69.6741 24.8766 62.7646 24.8894C62.61 24.8896 62.4571 24.889 62.3043 24.8877C60.7631 24.8762 59.2901 24.7925 57.9302 24.6483C56.5703 24.504 55.3255 24.2998 54.2424 24.0475C53.967 23.9835 53.7026 23.9166 53.4471 23.8463C52.2921 23.5268 51.367 23.148 50.7492 22.7275C50.5997 22.6271 50.4682 22.5235 50.3566 22.4186C50.09 22.171 49.9295 21.9119 49.8821 21.6446C50.1898 19.8276 55.843 18.3646 62.7525 18.3516C63.6265 18.35 64.4807 18.3719 65.3081 18.4147C65.729 18.4363 66.1445 18.4637 66.5509 18.4965C68.2111 18.6296 69.7294 18.8501 71.0302 19.1378C71.3108 19.1998 71.5825 19.2652 71.8434 19.3341C72.8565 19.5999 73.704 19.9105 74.3396 20.2539C74.9587 20.5888 75.3767 20.9541 75.5538 21.3395C75.5933 21.4244 75.6204 21.5105 75.635 21.597Z" fill="#FDB748"/>
<path opacity="0.2" d="M75.5535 21.3397L62.3043 24.8875C60.763 24.876 59.2901 24.7923 57.9302 24.648L74.3395 20.2539C74.9587 20.589 75.3764 20.9543 75.5535 21.3397Z" fill="#FFEAA5"/>
<path opacity="0.2" d="M66.5515 18.4938L50.7498 22.7248C50.6003 22.6243 50.4688 22.5208 50.3572 22.4158L65.3087 18.4121C65.7296 18.4336 66.1449 18.4609 66.5515 18.4938Z" fill="#FFEAA5"/>
<path opacity="0.2" d="M71.8436 19.3389L54.2425 24.0521C53.9672 23.9881 53.7028 23.9213 53.4473 23.851L71.0303 19.1426C71.3111 19.2046 71.5828 19.27 71.8436 19.3389Z" fill="#FFEAA5"/>
<path d="M69.3489 20.0245L65.0771 20.0324C65.4497 20.184 65.7545 20.3663 65.9174 20.5835L69.3499 20.5772L69.3511 21.2304L65.9469 21.2367C65.5342 21.87 63.8469 22.2143 62.5618 22.3547C62.2064 22.394 61.8229 22.4124 61.4391 22.413L59.7058 22.4163L66.561 24.2247L63.3554 24.2306L56.5 22.4221L56.4988 21.7689L60.5003 21.7614C61.7969 21.759 62.9212 21.5445 63.3724 21.2412L56.8758 21.2533L56.8746 20.6003L63.3674 20.5882C62.9528 20.2763 62.0451 20.1104 61.5423 20.0389L56.8736 20.0476L56.8724 19.3944L69.3475 19.3711L69.3489 20.0245Z" fill="#FF5E00"/>
<path d="M69.3487 19.8899L65.0769 19.8978C65.4495 20.0494 65.7543 20.2317 65.9172 20.4489L69.3497 20.4426L69.3509 21.0957L65.9467 21.1019C65.534 21.7353 63.8467 22.0795 62.5616 22.2199C62.2062 22.2592 61.8227 22.2775 61.4389 22.2783L59.7056 22.2815L66.5608 24.09L63.3552 24.0958L56.5 22.2874L56.4988 21.6342L60.5003 21.6267C61.7969 21.6242 62.9212 21.4097 63.3724 21.1064L56.8758 21.1185L56.8746 20.4655L63.3674 20.4534C62.9528 20.1416 62.0451 19.9756 61.5423 19.9041L56.8736 19.9128L56.8724 19.2596L69.3475 19.2363L69.3487 19.8899Z" fill="#FF8400"/>
<path d="M72.8743 16.2578L72.8803 19.5317C72.8803 19.5646 72.8793 19.5986 72.8783 19.6316C72.8443 20.7504 72.1836 21.7628 71.1612 22.2286C69.7278 22.8816 68.031 23.3894 66.1791 23.7636C65.6045 23.8809 65.0158 23.985 64.415 24.0762C63.0938 24.276 61.7153 24.4158 60.3139 24.4984C59.8181 24.5278 59.3203 24.5497 58.8202 24.5649C56.9427 24.621 55.0441 24.5807 53.2001 24.4514C52.3741 24.3927 51.559 24.3163 50.7616 24.2223C48.7156 23.9814 46.7911 23.6264 45.1068 23.1699C44.14 22.9086 43.2521 22.614 42.4662 22.2876C42.1017 22.1369 41.779 21.9193 41.5097 21.6532C40.9911 21.1398 40.6695 20.4439 40.6331 19.6916C40.6296 19.6444 40.6284 19.5972 40.6284 19.5502L40.6223 16.318L72.8743 16.2578Z" fill="#FDB748"/>
<path d="M72.878 19.6348C72.844 20.7536 72.1833 21.766 71.1609 22.2318C69.2826 23.0876 66.9542 23.694 64.4147 24.0794C62.6276 24.3492 60.7348 24.5095 58.8198 24.568C56.9422 24.6242 55.0436 24.5838 53.1997 24.4546C52.3736 24.3958 51.5585 24.3194 50.7611 24.2254C48.7152 23.9845 46.7906 23.6296 45.1063 23.1731C44.1395 22.9117 43.2517 22.6171 42.4658 22.2907C42.1013 22.14 41.7785 21.9224 41.5092 21.6564C40.9906 21.143 40.669 20.447 40.6326 19.6947C41.2736 19.9885 41.9487 20.2614 42.6499 20.5115C43.899 20.9566 45.2356 21.3336 46.6311 21.6424C48.4921 22.0547 50.458 22.3461 52.4599 22.5199C53.2925 22.5918 54.1329 22.6429 54.9731 22.6743C56.9331 22.7474 58.9018 22.7097 60.8144 22.5659C62.8914 22.4085 64.9034 22.124 66.7707 21.7147C69.0786 21.209 71.1644 20.5143 72.878 19.6348Z" fill="#FF901E"/>
<path opacity="0.2" d="M51.9538 16.3008L46.6311 21.6433L45.1061 23.174C44.1393 22.9127 43.2515 22.6181 42.4655 22.2917C42.1011 22.1409 41.7783 21.9233 41.509 21.6573L42.6497 20.5124L46.836 16.3105L51.9538 16.3008Z" fill="#FFEAA5"/>
<path opacity="0.2" d="M72.8746 16.2578L72.876 17.0595L68.3066 21.6459L66.1795 23.7634C65.6049 23.8807 65.0161 23.9848 64.4154 24.076C63.0942 24.2758 61.7156 24.4156 60.3142 24.4982L62.3504 22.4973L68.5577 16.2659L72.8746 16.2578Z" fill="#FFEAA5"/>
<path opacity="0.2" d="M61.3403 16.2773L54.9732 22.6692L53.1998 24.4493C52.3738 24.3905 51.5587 24.3141 50.7612 24.2201L52.4603 22.5148L58.6698 16.2822L61.3403 16.2773Z" fill="#FFEAA5"/>
<path d="M72.8745 16.2055C72.8789 18.5725 65.6633 20.505 56.7563 20.5216C47.8503 20.5382 40.6268 18.6327 40.6223 16.2655C40.6221 16.2124 40.6254 16.1593 40.6341 16.1062C40.9435 13.8123 48.0341 11.9655 56.7403 11.9493C65.4465 11.9331 72.544 13.7535 72.8619 16.0462C72.8708 16.0993 72.8743 16.1524 72.8745 16.2055Z" fill="#FFEAA5"/>
<path d="M69.6374 16.2146C69.6376 16.267 69.6321 16.3197 69.625 16.3718C69.3173 18.1888 63.6641 19.6514 56.7546 19.6641C49.8453 19.6771 44.1867 18.2354 43.8721 16.4196C43.8648 16.3675 43.8593 16.3148 43.8591 16.2624C43.8557 14.3733 49.6344 12.826 56.7417 12.8126C63.8491 12.7996 69.6338 14.3256 69.6374 16.2146Z" fill="#FF901E"/>
<path d="M69.625 16.3743C69.3173 18.1913 63.6641 19.6539 56.7546 19.6667C56.6 19.6669 56.4471 19.6663 56.2943 19.6651C54.7531 19.6535 53.2801 19.5699 51.9202 19.4256C50.5603 19.2813 49.3155 19.0771 48.2324 18.8249C47.957 18.7608 47.6926 18.694 47.4371 18.6237C46.2821 18.3042 45.357 17.9253 44.7392 17.5049C44.5897 17.4044 44.4582 17.3009 44.3466 17.1959C44.0799 16.9483 43.9195 16.689 43.8721 16.422C44.1798 14.605 49.833 13.142 56.7425 13.129C57.6165 13.1274 58.4707 13.1493 59.2981 13.192C59.719 13.2137 60.1345 13.241 60.5409 13.2739C62.2011 13.407 63.7194 13.6274 65.0202 13.9151C65.3008 13.9771 65.5725 14.0427 65.8334 14.1114C66.8465 14.3773 67.694 14.6878 68.3295 15.0313C68.9487 15.3662 69.3667 15.7315 69.5438 16.1168C69.5833 16.2019 69.6104 16.288 69.625 16.3743Z" fill="#FDB748"/>
<path opacity="0.2" d="M69.5437 16.1131L56.2942 19.661C54.753 19.6494 53.2801 19.5657 51.9202 19.4215L68.3295 15.0273C68.9489 15.3623 69.3668 15.7278 69.5437 16.1131Z" fill="#FFEAA5"/>
<path opacity="0.2" d="M60.5415 13.2711L44.7398 17.5021C44.5903 17.4016 44.4588 17.2981 44.3472 17.1932L59.2987 13.1895C59.7196 13.2109 60.1351 13.2383 60.5415 13.2711Z" fill="#FFEAA5"/>
<path opacity="0.2" d="M65.8335 14.1026L48.2325 18.8158C47.9571 18.7518 47.6927 18.6849 47.4373 18.6146L65.0203 13.9062C65.3009 13.9682 65.5726 14.0337 65.8335 14.1026Z" fill="#FFEAA5"/>
<path d="M63.3397 14.7999L59.0679 14.8078C59.4405 14.9593 59.7452 15.1417 59.9081 15.3589L63.3407 15.3526L63.3419 16.0056L59.9377 16.0119C59.525 16.6452 57.8377 16.9895 56.5525 17.1299C56.1972 17.1692 55.8136 17.1876 55.4299 17.1882L53.6966 17.1915L60.552 18.9999L57.3462 19.0058L50.491 17.1973L50.4897 16.5441L54.4912 16.5366C55.7879 16.5342 56.9122 16.3196 57.3634 16.0163L50.8668 16.0285L50.8656 15.3755L57.3583 15.3633C56.9438 15.0515 56.0361 14.8856 55.5332 14.8141L50.8646 14.8228L50.8634 14.1698L63.3385 14.1465L63.3397 14.7999Z" fill="#FF5E00"/>
<path d="M63.3389 14.6608L59.0671 14.6687C59.4397 14.8203 59.7445 15.0026 59.9074 15.2198L63.3399 15.2135L63.3411 15.8665L59.9369 15.8728C59.5242 16.5062 57.8369 16.8504 56.5518 16.991C56.1964 17.0303 55.8129 17.0487 55.4291 17.0493L53.6958 17.0526L60.551 18.8611L57.3452 18.8671L50.49 17.0587L50.4888 16.4057L54.4903 16.3982C55.7869 16.3957 56.9112 16.1812 57.3624 15.8779L50.8658 15.89L50.8646 15.237L57.3573 15.2249C56.9428 14.9133 56.0351 14.7471 55.5323 14.6756L50.8636 14.6843L50.8624 14.0311L63.3375 14.0078L63.3389 14.6608Z" fill="#FF8400"/>
<path d="M76.5874 11.3145L76.5935 14.5884C76.5935 14.6212 76.5925 14.6552 76.5915 14.6883C76.5574 15.8071 75.8967 16.8195 74.8744 17.2853C73.4409 17.9383 71.7441 18.446 69.8923 18.8202C69.3177 18.9375 68.7289 19.0417 68.1282 19.1328C66.807 19.3328 65.4284 19.4724 64.027 19.5551C63.5312 19.5845 63.0334 19.6063 62.5334 19.6215C60.6558 19.6777 58.7572 19.6373 56.9133 19.5081C56.0873 19.4493 55.2722 19.3729 54.4747 19.2789C52.4288 19.0382 50.5042 18.6831 48.8199 18.2266C47.8531 17.9652 46.9653 17.6706 46.1794 17.3442C45.8149 17.1935 45.4921 16.9759 45.2229 16.7099C44.7042 16.1965 44.3827 15.5005 44.3462 14.7482C44.3427 14.701 44.3415 14.654 44.3415 14.6068L44.3354 11.3746L76.5874 11.3145Z" fill="#FDB748"/>
<path d="M76.5914 14.6895C76.5574 15.8082 75.8967 16.8207 74.8743 17.2865C72.996 18.1423 70.6676 18.7487 68.1281 19.1338C66.3409 19.4037 64.4482 19.564 62.5332 19.6225C60.6556 19.6786 58.757 19.6383 56.913 19.5091C56.087 19.4503 55.2719 19.3739 54.4745 19.2799C52.4285 19.0392 50.504 18.6841 48.8197 18.2276C47.8529 17.9662 46.965 17.6716 46.1791 17.3452C45.8146 17.1945 45.4919 16.9769 45.2226 16.7109C44.704 16.1975 44.3824 15.5015 44.3459 14.7492C44.987 15.043 45.6621 15.3159 46.3633 15.5659C47.6122 16.0111 48.949 16.3881 50.3445 16.6971C52.2055 17.1094 54.1714 17.4007 56.1733 17.5746C57.0058 17.6465 57.8462 17.6976 58.6865 17.729C60.6465 17.8021 62.6152 17.7644 64.5278 17.6206C66.6047 17.4631 68.6168 17.1787 70.484 16.7694C72.7917 16.2639 74.8776 15.569 76.5914 14.6895Z" fill="#FF901E"/>
<path opacity="0.2" d="M55.6674 11.3555L50.3448 16.698L48.8197 18.2287C47.8529 17.9673 46.9651 17.6727 46.1792 17.3463C45.8147 17.1956 45.4919 16.978 45.2227 16.712L46.3633 15.5671L50.5496 11.3652L55.6674 11.3555Z" fill="#FFEAA5"/>
<path opacity="0.2" d="M76.5875 11.3145L76.5889 12.1162L72.0195 16.7026L69.8924 18.82C69.3178 18.9373 68.729 19.0415 68.1283 19.1326C66.8071 19.3326 65.4285 19.4722 64.0271 19.5549L66.0635 17.5539L72.2708 11.3226L76.5875 11.3145Z" fill="#FFEAA5"/>
<path opacity="0.2" d="M65.0532 11.334L58.6861 17.7258L56.9127 19.5059C56.0867 19.4472 55.2716 19.3708 54.4741 19.2768L56.1732 17.5714L62.3827 11.3388L65.0532 11.334Z" fill="#FFEAA5"/>
<path d="M76.5874 11.2602C76.5919 13.6272 69.3764 15.5597 60.4694 15.5763C51.5635 15.5929 44.3397 13.6872 44.3355 11.3201C44.3353 11.2671 44.3385 11.214 44.3472 11.1609C44.6566 8.86698 51.7472 7.02022 60.4536 7.00401C69.1599 6.98781 76.2574 8.80823 76.5753 11.1009C76.584 11.154 76.5874 11.2071 76.5874 11.2602Z" fill="#FFEAA5"/>
<path d="M73.3503 11.2634C73.3505 11.3159 73.3451 11.3685 73.338 11.4206C73.0302 13.2376 67.3771 14.7002 60.4676 14.713C53.5583 14.7257 47.8997 13.2842 47.585 11.4684C47.5777 11.4164 47.5723 11.3637 47.5723 11.3112C47.5688 9.42209 53.3476 7.87478 60.4548 7.86141C67.5623 7.84844 73.3469 9.37448 73.3503 11.2634Z" fill="#FF901E"/>
<path d="M73.3379 11.4232C73.0301 13.2402 67.377 14.7028 60.4675 14.7155C60.3129 14.7157 60.1599 14.7151 60.0072 14.7139C58.466 14.7024 56.9928 14.6187 55.6331 14.4744C54.2732 14.3302 53.0284 14.1259 51.9453 13.8737C51.6701 13.8097 51.4055 13.7428 51.15 13.6725C49.995 13.353 49.0699 12.9741 48.4521 12.5537C48.3026 12.4532 48.1711 12.3497 48.0595 12.2447C47.7928 11.9972 47.6324 11.7378 47.585 11.4708C47.8927 9.65381 53.5459 8.19079 60.4554 8.17782C61.3294 8.1762 62.1836 8.19808 63.011 8.24083C63.4318 8.26251 63.8474 8.28986 64.2538 8.32268C65.914 8.45579 67.4323 8.67623 68.733 8.96393C69.0137 9.02613 69.2854 9.09157 69.5463 9.16026C70.5593 9.42608 71.4069 9.73668 72.0424 10.0801C72.6616 10.415 73.0796 10.7803 73.2567 11.1657C73.2964 11.2506 73.3235 11.3367 73.3379 11.4232Z" fill="#FDB748"/>
<path opacity="0.2" d="M73.2559 11.1698L60.0066 14.7176C58.4654 14.7061 56.9923 14.6224 55.6326 14.4781L72.0419 10.084C72.6611 10.4191 73.0788 10.7844 73.2559 11.1698Z" fill="#FFEAA5"/>
<path opacity="0.2" d="M64.2539 8.32209L48.4522 12.5529C48.3027 12.4524 48.1712 12.3489 48.0596 12.2439L63.0111 8.24023C63.432 8.26191 63.8473 8.28926 64.2539 8.32209Z" fill="#FFEAA5"/>
<path opacity="0.2" d="M69.5459 9.15726L51.9449 13.8705C51.6698 13.8065 51.4051 13.7396 51.1497 13.6693L68.7327 8.96094C69.0135 9.02294 69.2852 9.08838 69.5459 9.15726Z" fill="#FFEAA5"/>
<path d="M67.0518 9.85262L62.78 9.86053C63.1526 10.0121 63.4573 10.1944 63.6202 10.4116L67.0528 10.4053L67.054 11.0583L63.6498 11.0646C63.2371 11.698 61.5498 12.0422 60.2647 12.1826C59.9093 12.2219 59.5258 12.2403 59.142 12.241L57.4087 12.2442L64.2639 14.0527L61.0583 14.0585L54.2029 12.2501L54.2017 11.5969L58.2031 11.5894C59.4998 11.5869 60.6241 11.3724 61.0753 11.0691L54.5787 11.0812L54.5775 10.4282L61.0702 10.4161C60.6557 10.1043 59.748 9.93833 59.2452 9.86681L54.5765 9.87552L54.5753 9.22252L67.0504 9.19922L67.0518 9.85262Z" fill="#FF5E00"/>
<path d="M67.0516 9.7157L62.7798 9.72361C63.1524 9.87516 63.4571 10.0575 63.62 10.2747L67.0526 10.2682L67.0538 10.9212L63.6496 10.9275C63.2369 11.5608 61.5496 11.9051 60.2645 12.0457C59.9091 12.085 59.5256 12.1034 59.1418 12.104L57.4085 12.1073L64.2639 13.9157L61.0581 13.9216L54.2029 12.1132L54.2017 11.4601L58.2031 11.4527C59.4998 11.4502 60.6241 11.2357 61.0753 10.9324L54.5787 10.9445L54.5775 10.2915L61.0702 10.2794C60.6557 9.96775 59.748 9.80161 59.2452 9.73009L54.5765 9.7388L54.5753 9.0858L67.0504 9.0625L67.0516 9.7157Z" fill="#FF8400"/>
<path d="M81.1343 6.06641L81.1404 9.34033C81.1404 9.37315 81.1393 9.40719 81.1383 9.44021C81.1043 10.559 80.4436 11.5714 79.4212 12.0372C77.9878 12.6902 76.291 13.198 74.4391 13.5722C73.8645 13.6895 73.276 13.7936 72.675 13.8848C71.3538 14.0846 69.9753 14.2244 68.5739 14.307C68.0781 14.3364 67.5803 14.3583 67.0803 14.3735C65.2027 14.4296 63.3041 14.3893 61.4601 14.26C60.6341 14.2013 59.819 14.1249 59.0216 14.0309C56.9756 13.79 55.0511 13.435 53.3668 12.9785C52.4 12.7172 51.5122 12.4226 50.7262 12.0962C50.3618 11.9454 50.039 11.7278 49.7697 11.4618C49.2511 10.9484 48.9295 10.2525 48.8931 9.50019C48.8896 9.45298 48.8884 9.40597 48.8884 9.35877L48.8823 6.12658L81.1343 6.06641Z" fill="#FDB748"/>
<path d="M81.1381 9.44141C81.104 10.5602 80.4433 11.5726 79.421 12.0384C77.5426 12.894 75.2142 13.5006 72.6748 13.886C70.8876 14.1559 68.9948 14.3161 67.0798 14.3747C65.2022 14.4308 63.3036 14.3905 61.4597 14.2612C60.6336 14.2025 59.8186 14.1261 59.0211 14.0321C56.9752 13.7912 55.0506 13.4362 53.3663 12.9797C52.3995 12.7184 51.5117 12.4238 50.7258 12.0974C50.3613 11.9466 50.0385 11.729 49.7693 11.463C49.2506 10.9496 48.929 10.2537 48.8926 9.50138C49.5336 9.79516 50.2087 10.0683 50.9099 10.3181C52.1588 10.7632 53.4956 11.1403 54.8912 11.449C56.7521 11.8613 58.718 12.1527 60.7201 12.3265C61.5527 12.3985 62.3931 12.4495 63.2333 12.4809C65.1933 12.5541 67.162 12.5164 69.0746 12.3725C71.1516 12.2151 73.1636 11.9306 75.0309 11.5214C77.3384 11.0157 79.4244 10.3209 81.1381 9.44141Z" fill="#FF901E"/>
<path opacity="0.2" d="M60.2143 6.10742L54.8916 11.45L53.3666 12.9807C52.3998 12.7193 51.512 12.4247 50.726 12.0983C50.3615 11.9476 50.0388 11.73 49.7695 11.4639L50.9102 10.319L55.0965 6.11715L60.2143 6.10742Z" fill="#FFEAA5"/>
<path opacity="0.2" d="M81.1344 6.06641L81.1358 6.86812L76.5664 11.4545L74.4392 13.572C73.8646 13.6893 73.2761 13.7934 72.6751 13.8846C71.3539 14.0844 69.9754 14.2242 68.574 14.3068L70.6104 12.3059L76.8176 6.07451L81.1344 6.06641Z" fill="#FFEAA5"/>
<path opacity="0.2" d="M69.6004 6.08594L63.2332 12.4778L61.4598 14.2579C60.6338 14.1991 59.8187 14.1227 59.0212 14.0287L60.7203 12.3234L66.9296 6.0908L69.6004 6.08594Z" fill="#FFEAA5"/>
<path d="M81.1338 6.01408C81.1383 8.38114 73.9228 10.3136 65.0158 10.3302C56.1098 10.3468 48.8861 8.44111 48.8818 6.07405C48.8816 6.02097 48.8849 5.96789 48.8936 5.9148C49.203 3.62089 56.2936 1.77413 64.9998 1.75792C73.706 1.74171 80.8036 3.56213 81.1214 5.85483C81.1304 5.90791 81.1338 5.961 81.1338 6.01408Z" fill="#FFEAA5"/>
<path d="M77.8972 6.02315C77.8972 6.07582 77.8919 6.1283 77.8848 6.18037C77.577 7.99735 71.9239 9.45997 65.0144 9.47273C58.1051 9.4857 52.4465 8.04395 52.1319 6.22819C52.1246 6.17612 52.1191 6.12344 52.1189 6.07096C52.1155 4.18186 57.8942 2.63455 65.0014 2.62118C72.1091 2.60821 77.8937 4.13424 77.8972 6.02315Z" fill="#FF901E"/>
<path d="M77.885 6.17708C77.5773 7.99406 71.9241 9.45668 65.0146 9.46944C64.86 9.46964 64.7071 9.46903 64.5543 9.46782C63.0131 9.45627 61.5399 9.37259 60.1802 9.22834C58.8203 9.08408 57.5755 8.87986 56.4924 8.62761C56.2172 8.56359 55.9526 8.49672 55.6971 8.42642C54.5421 8.10691 53.617 7.72804 52.9992 7.30763C52.8497 7.20713 52.7182 7.1036 52.6066 6.99865C52.34 6.75106 52.1795 6.49193 52.1321 6.22469C52.4398 4.40772 58.093 2.94469 65.0025 2.93172C65.8765 2.9301 66.7307 2.95198 67.5582 2.99494C67.979 3.01662 68.3945 3.04397 68.8009 3.07679C70.4611 3.2099 71.9792 3.43034 73.2802 3.71804C73.5608 3.78004 73.8325 3.84569 74.0934 3.91437C75.1065 4.18019 75.954 4.49078 76.5896 4.8342C77.2087 5.16911 77.6267 5.53441 77.8038 5.91977C77.8433 6.00446 77.8704 6.09057 77.885 6.17708Z" fill="#FDB748"/>
<path opacity="0.2" d="M77.8035 5.92171L64.5543 9.46955C63.013 9.458 61.5399 9.37433 60.1802 9.23007L76.5895 4.83594C77.2087 5.17105 77.6266 5.53635 77.8035 5.92171Z" fill="#FFEAA5"/>
<path opacity="0.2" d="M68.8008 3.07404L52.9991 7.30487C52.8496 7.20438 52.7181 7.10085 52.6064 6.9959L67.558 2.99219C67.9788 3.01387 68.3944 3.04122 68.8008 3.07404Z" fill="#FFEAA5"/>
<path opacity="0.2" d="M74.0936 3.91898L56.4925 8.63222C56.2174 8.5682 55.9528 8.50134 55.6973 8.43103L73.2803 3.72266C73.5609 3.78465 73.8326 3.85009 74.0936 3.91898Z" fill="#FFEAA5"/>
<path d="M39.2728 39.5256V42.9296C39.2728 42.9638 39.2716 42.9991 39.2705 43.0333C39.2329 44.1965 38.5442 45.248 37.4801 45.7304C35.9885 46.4067 34.2232 46.9313 32.297 47.3166C31.6995 47.4376 31.0871 47.5448 30.4622 47.6382C29.0879 47.8434 27.6545 47.986 26.1971 48.0693C25.6817 48.0989 25.1639 48.1206 24.644 48.1354C22.6916 48.1901 20.7176 48.1445 18.8006 48.0065C17.9419 47.9437 17.0946 47.8629 16.2656 47.7636C14.1388 47.5093 12.1385 47.1363 10.3879 46.6586C9.38322 46.3848 8.46075 46.0769 7.64404 45.7361C7.26537 45.5787 6.93026 45.3518 6.65086 45.0746C6.11254 44.5397 5.77965 43.8156 5.74318 43.0333C5.73974 42.9843 5.73853 42.9353 5.73853 42.8862V39.5254H39.2728V39.5256Z" fill="#FDB748"/>
<path d="M39.2705 43.0312C39.2328 44.1944 38.5441 45.2459 37.4801 45.7284C35.5253 46.6146 33.1031 47.2406 30.462 47.6363C28.603 47.9135 26.6347 48.0766 24.6437 48.1335C22.6914 48.1882 20.7174 48.1426 18.8003 48.0046C17.9417 47.9418 17.0944 47.861 16.2653 47.7617C14.1385 47.5074 12.1382 47.1344 10.3877 46.6567C9.38295 46.383 8.46049 46.075 7.64378 45.7342C7.26511 45.5768 6.92999 45.3499 6.6506 45.0727C6.11227 44.5378 5.77939 43.8137 5.74292 43.0315C6.40889 43.3382 7.11031 43.6233 7.83889 43.8844C9.13658 44.3498 10.5257 44.7443 11.9763 45.0681C13.9104 45.5002 15.9541 45.807 18.0353 45.9917C18.9008 46.0681 19.7745 46.1228 20.6479 46.1571C22.6857 46.2369 24.7328 46.2016 26.7216 46.0556C28.8816 45.8959 30.9742 45.604 32.9163 45.1821C35.3168 44.6608 37.4869 43.9424 39.2705 43.0312Z" fill="#FF901E"/>
<path opacity="0.2" d="M17.5204 39.5254L11.9756 45.0699L10.387 46.6586C9.38226 46.3848 8.45979 46.0769 7.64308 45.7361C7.26441 45.5787 6.9293 45.3518 6.6499 45.0746L7.83819 43.8863L12.1991 39.5254H17.5204Z" fill="#FFEAA5"/>
<path opacity="0.2" d="M39.2722 39.5254V40.3591L34.5121 45.1192L32.2964 47.3166C31.6989 47.4376 31.0865 47.5448 30.4616 47.6382C29.0873 47.8434 27.6539 47.986 26.1965 48.0693L28.3176 45.9926L34.7836 39.5254H39.2722Z" fill="#FFEAA5"/>
<path opacity="0.2" d="M27.2801 39.5256L20.6475 46.1593L18.8002 48.0067C17.9415 47.9439 17.0942 47.8631 16.2651 47.7638L18.0351 45.9938L24.5035 39.5254H27.2801V39.5256Z" fill="#FFEAA5"/>
<path d="M39.2722 39.4702C39.2722 41.9315 31.766 43.9268 22.5049 43.9268C13.2447 43.9268 5.73755 41.9315 5.73755 39.4702C5.73755 39.4151 5.74099 39.3598 5.75011 39.3047C6.07631 36.9202 13.4524 35.0137 22.5049 35.0137C31.5573 35.0137 38.9335 36.9202 39.2596 39.3047C39.2688 39.36 39.2722 39.4151 39.2722 39.4702Z" fill="#FFEAA5"/>
<path d="M35.9066 39.4702C35.9066 39.5249 35.9009 39.5796 35.8934 39.6337C35.5698 41.5222 29.6892 43.0323 22.5049 43.0323C15.3207 43.0323 9.44004 41.5224 9.11648 39.6337C9.10899 39.5796 9.10352 39.5249 9.10352 39.4702C9.10352 37.5062 15.1153 35.9082 22.5049 35.9082C29.8946 35.9082 35.9066 37.5062 35.9066 39.4702Z" fill="#FF901E"/>
<path d="M35.8941 39.6331C35.5706 41.5216 29.6899 43.0316 22.5057 43.0316C22.3448 43.0316 22.186 43.0306 22.0269 43.0292C20.4245 43.0142 18.893 42.9243 17.4794 42.7717C16.0658 42.6191 14.7718 42.4044 13.6461 42.14C13.36 42.0729 13.0851 42.0028 12.8197 41.9292C11.6192 41.5947 10.6581 41.1993 10.0168 40.7608C9.86161 40.6561 9.72505 40.5481 9.60916 40.4389C9.3324 40.181 9.16606 39.9111 9.11743 39.6333C9.44099 37.7448 15.3217 36.2344 22.5059 36.2344C23.4146 36.2344 24.3028 36.2587 25.1631 36.3049C25.6007 36.3282 26.0327 36.3576 26.4551 36.3924C28.1809 36.534 29.7592 36.7662 31.111 37.0679C31.4028 37.1329 31.685 37.2016 31.9563 37.2737C33.009 37.5521 33.8898 37.8765 34.5499 38.2349C35.1931 38.5842 35.6269 38.9649 35.8101 39.3661C35.851 39.4538 35.8792 39.5432 35.8941 39.6331Z" fill="#FDB748"/>
<path opacity="0.2" d="M35.8094 39.3636L22.0263 43.0269C20.4239 43.0119 18.8923 42.922 17.4788 42.7694L34.549 38.2324C35.1925 38.5817 35.6262 38.9624 35.8094 39.3636Z" fill="#FFEAA5"/>
<path opacity="0.2" d="M26.4546 36.392L10.0163 40.7606C9.86109 40.6559 9.72453 40.5479 9.60864 40.4387L25.1624 36.3047C25.6 36.328 26.0319 36.3574 26.4546 36.392Z" fill="#FFEAA5"/>
<path opacity="0.2" d="M31.9555 37.276L13.6455 42.1426C13.3594 42.0755 13.0845 42.0054 12.8191 41.9319L31.1104 37.0703C31.402 37.1353 31.6844 37.204 31.9555 37.276Z" fill="#FFEAA5"/>
<path d="M29.3605 37.9916H24.9187C25.3059 38.1499 25.6224 38.3401 25.7914 38.5662H29.3605V39.2454H25.8209C25.3906 39.903 23.6354 40.2578 22.299 40.4014C21.9295 40.4418 21.5305 40.46 21.1316 40.46H19.3294L26.4539 42.3536H23.1206L15.9963 40.46V39.7809H20.1569C21.505 39.7809 22.6745 39.5598 23.1441 39.2454H16.3892V38.5662H23.14C22.7097 38.2412 21.7662 38.0668 21.2434 37.9916H16.389V37.3125H29.3603V37.9916H29.3605Z" fill="#FF5E00"/>
<path d="M29.3605 37.8471H24.9187C25.3059 38.0053 25.6224 38.1956 25.7914 38.4217H29.3605V39.1008H25.8209C25.3906 39.7585 23.6354 40.1133 22.299 40.2569C21.9295 40.297 21.5305 40.3155 21.1316 40.3155H19.3294L26.4539 42.209H23.1206L15.9963 40.3155V39.6363H20.1569C21.505 39.6363 22.6745 39.4155 23.1441 39.1008H16.3892V38.4217H23.14C22.7097 38.0967 21.7662 37.9223 21.2434 37.8471H16.389V37.168H29.3603V37.8471H29.3605Z" fill="#FF8400"/>
<path d="M39.2728 34.3887V37.7929C39.2728 37.8271 39.2716 37.8624 39.2705 37.8966C39.2329 39.0598 38.5442 40.1113 37.4801 40.5937C35.9885 41.27 34.2232 41.7946 32.297 42.1799C31.6995 42.3009 31.0871 42.408 30.4622 42.5015C29.0879 42.7067 27.6545 42.8493 26.1971 42.9326C25.6817 42.9622 25.1639 42.9839 24.644 42.9988C22.6916 43.0536 20.7176 43.008 18.8006 42.87C17.9419 42.8074 17.0946 42.7263 16.2656 42.6271C14.1388 42.3728 12.1385 41.9998 10.3879 41.522C9.38322 41.2483 8.46075 40.9404 7.64404 40.5994C7.26537 40.442 6.93026 40.215 6.65086 39.9379C6.11254 39.403 5.77965 38.6789 5.74318 37.8966C5.73974 37.8476 5.73853 37.7985 5.73853 37.7495V34.3887H39.2728Z" fill="#FDB748"/>
<path d="M39.2705 37.9043C39.2328 39.0675 38.5441 40.119 37.4801 40.6014C35.5253 41.4874 33.1031 42.1137 30.462 42.5093C28.603 42.7865 26.6347 42.9496 24.6437 43.0065C22.6914 43.0612 20.7174 43.0157 18.8003 42.8777C17.9417 42.8151 17.0944 42.734 16.2653 42.6348C14.1385 42.3805 12.1382 42.0075 10.3877 41.5297C9.38295 41.256 8.46049 40.9481 7.64378 40.6071C7.26511 40.4496 6.92999 40.2227 6.6506 39.9456C6.11227 39.4107 5.77939 38.6866 5.74292 37.9043C6.40889 38.211 7.11031 38.4961 7.83889 38.7573C9.13658 39.2225 10.5257 39.6171 11.9763 39.9409C13.9104 40.3731 15.9541 40.6798 18.0353 40.8646C18.9008 40.941 19.7745 40.9957 20.6479 41.0299C22.6857 41.1097 24.7328 41.0743 26.7216 40.9284C28.8816 40.7688 30.9742 40.4768 32.9163 40.055C35.3168 39.5339 37.4869 38.8154 39.2705 37.9043Z" fill="#FF901E"/>
<path opacity="0.2" d="M17.5204 34.3887L11.9756 39.9334L10.387 41.522C9.38226 41.2483 8.45979 40.9404 7.64308 40.5994C7.26441 40.442 6.9293 40.215 6.6499 39.9379L7.83819 38.7496L12.1991 34.3887H17.5204Z" fill="#FFEAA5"/>
<path opacity="0.2" d="M39.2722 34.3887V35.2224L34.5121 39.9824L32.2964 42.1799C31.6989 42.3009 31.0865 42.408 30.4616 42.5015C29.0873 42.7067 27.6539 42.8493 26.1965 42.9326L28.3176 40.8559L34.7836 34.3887H39.2722Z" fill="#FFEAA5"/>
<path opacity="0.2" d="M27.2801 34.3889L20.6475 41.0226L18.8002 42.87C17.9415 42.8074 17.0942 42.7263 16.2651 42.6271L18.0351 40.8571L24.5035 34.3887H27.2801V34.3889Z" fill="#FFEAA5"/>
<path d="M39.2722 34.3315C39.2722 36.7928 31.766 38.7881 22.5049 38.7881C13.2447 38.7881 5.73755 36.7928 5.73755 34.3315C5.73755 34.2764 5.74099 34.2211 5.75011 34.166C6.07631 31.7815 13.4524 29.875 22.5049 29.875C31.5573 29.875 38.9335 31.7815 39.2596 34.166C39.2688 34.2211 39.2722 34.2764 39.2722 34.3315Z" fill="#FFEAA5"/>
<path d="M35.9066 34.3355C35.9066 34.3902 35.9009 34.4449 35.8934 34.499C35.5698 36.3875 29.6892 37.8975 22.5049 37.8975C15.3207 37.8975 9.44004 36.3877 9.11648 34.499C9.10899 34.4449 9.10352 34.3902 9.10352 34.3355C9.10352 32.3714 15.1153 30.7734 22.5049 30.7734C29.8946 30.7734 35.9066 32.3714 35.9066 34.3355Z" fill="#FF901E"/>
<path d="M35.8941 34.4985C35.5706 36.387 29.6899 37.8971 22.5057 37.8971C22.3448 37.8971 22.186 37.8961 22.0269 37.8946C20.4245 37.8796 18.893 37.7897 17.4794 37.6371C16.0658 37.4846 14.7718 37.2698 13.6461 37.0054C13.36 36.9383 13.0851 36.8682 12.8197 36.7947C11.6192 36.4602 10.6581 36.0647 10.0168 35.6263C9.86161 35.5213 9.72505 35.4135 9.60916 35.3041C9.3324 35.0462 9.16606 34.7763 9.11743 34.4985C9.44099 32.6098 15.3217 31.0996 22.5059 31.0996C23.4146 31.0996 24.3028 31.1239 25.1631 31.1701C25.6007 31.1934 26.0327 31.2228 26.4551 31.2576C28.1809 31.3993 29.7592 31.6315 31.111 31.9331C31.4028 31.9982 31.685 32.0669 31.9563 32.139C33.009 32.4174 33.8898 32.7417 34.5499 33.1001C35.1931 33.4496 35.6269 33.8301 35.8101 34.2313C35.851 34.319 35.8792 34.4086 35.8941 34.4985Z" fill="#FDB748"/>
<path opacity="0.2" d="M35.8094 34.2366L22.0263 37.9C20.4239 37.885 18.8923 37.795 17.4788 37.6424L34.549 33.1055C35.1925 33.455 35.6262 33.8357 35.8094 34.2366Z" fill="#FFEAA5"/>
<path opacity="0.2" d="M26.4546 31.2594L10.0163 35.628C9.86109 35.5231 9.72453 35.4153 9.60864 35.3059L25.1624 31.1719C25.6 31.1952 26.0319 31.2246 26.4546 31.2594Z" fill="#FFEAA5"/>
<path opacity="0.2" d="M31.9555 32.1392L13.6455 37.0059C13.3594 36.9388 13.0845 36.8687 12.8191 36.7951L31.1104 31.9336C31.402 31.9986 31.6844 32.0671 31.9555 32.1392Z" fill="#FFEAA5"/>
<path d="M29.3605 32.851H24.9187C25.3059 33.0092 25.6224 33.1995 25.7914 33.4256H29.3605V34.1047H25.8209C25.3906 34.7624 23.6354 35.1172 22.299 35.2608C21.9295 35.3009 21.5305 35.3194 21.1316 35.3194H19.3294L26.4539 37.2129H23.1206L15.9963 35.3194V34.6402H20.1569C21.505 34.6402 22.6745 34.4192 23.1441 34.1047H16.3892V33.4256H23.14C22.7097 33.1006 21.7662 32.9262 21.2434 32.851H16.389V32.1719H29.3603V32.851H29.3605Z" fill="#FF5E00"/>
<path d="M29.3605 32.7065H24.9187C25.3059 32.8647 25.6224 33.055 25.7914 33.2811H29.3605V33.9602H25.8209C25.3906 34.6179 23.6354 34.9726 22.299 35.1163C21.9295 35.1566 21.5305 35.1748 21.1316 35.1748H19.3294L26.4539 37.0684H23.1206L15.9963 35.1748V34.4957H20.1569C21.505 34.4957 22.6745 34.2747 23.1441 33.9602H16.3892V33.2811H23.14C22.7097 32.9561 21.7662 32.7816 21.2434 32.7065H16.389V32.0273H29.3603V32.7065H29.3605Z" fill="#FF8400"/>
<path d="M39.2728 28.9455V32.3497C39.2728 32.384 39.2716 32.4192 39.2705 32.4534C39.2329 33.6166 38.5442 34.6681 37.4801 35.1505C35.9885 35.8268 34.2232 36.3514 32.297 36.7368C31.6995 36.8577 31.0871 36.9649 30.4622 37.0583C29.0879 37.2635 27.6545 37.4062 26.1971 37.4894C25.6817 37.519 25.1639 37.5407 24.644 37.5555C22.6916 37.6102 20.7176 37.5646 18.8006 37.4266C17.9419 37.3638 17.0946 37.283 16.2656 37.1837C14.1388 36.9294 12.1385 36.5564 10.3879 36.0787C9.38322 35.805 8.46075 35.497 7.64404 35.156C7.26537 34.9986 6.93026 34.7717 6.65086 34.4945C6.11254 33.9596 5.77965 33.2355 5.74318 32.4532C5.73974 32.4042 5.73853 32.3552 5.73853 32.3061V28.9453L39.2728 28.9455Z" fill="#FDB748"/>
<path d="M39.2705 32.4531C39.2328 33.6163 38.5441 34.6678 37.4801 35.1502C35.5253 36.0364 33.1031 36.6625 30.462 37.0582C28.603 37.3353 26.6347 37.4984 24.6437 37.5554C22.6914 37.6101 20.7174 37.5645 18.8003 37.4265C17.9417 37.3637 17.0944 37.2829 16.2653 37.1836C14.1385 36.9293 12.1382 36.5563 10.3877 36.0786C9.38295 35.8049 8.46049 35.4969 7.64378 35.1559C7.26511 34.9985 6.92999 34.7716 6.6506 34.4944C6.11227 33.9595 5.77939 33.2354 5.74292 32.4531C6.40889 32.7599 7.11031 33.0449 7.83889 33.3061C9.13658 33.7715 10.5257 34.166 11.9763 34.4897C13.9104 34.9219 15.9541 35.2286 18.0353 35.4134C18.9008 35.4898 19.7745 35.5445 20.6479 35.5787C22.6857 35.6586 24.7328 35.6231 26.7216 35.4772C28.8816 35.3176 30.9742 35.0256 32.9163 34.6038C35.3168 34.0827 37.4869 33.3642 39.2705 32.4531Z" fill="#FF901E"/>
<path opacity="0.2" d="M17.5204 28.9455L11.9756 34.49L10.387 36.0787C9.38226 35.805 8.45979 35.497 7.64308 35.156C7.26441 34.9986 6.9293 34.7717 6.6499 34.4945L7.83819 33.3062L12.1991 28.9453L17.5204 28.9455Z" fill="#FFEAA5"/>
<path opacity="0.2" d="M39.2722 28.9453V29.779L34.5121 34.5391L32.2964 36.7366C31.6989 36.8575 31.0865 36.9647 30.4616 37.0581C29.0873 37.2633 27.6539 37.406 26.1965 37.4892L28.3176 35.4125L34.7836 28.9453H39.2722Z" fill="#FFEAA5"/>
<path opacity="0.2" d="M27.2801 28.9455L20.6475 35.5793L18.8002 37.4266C17.9415 37.3638 17.0942 37.283 16.2651 37.1837L18.0351 35.4137L24.5035 28.9453L27.2801 28.9455Z" fill="#FFEAA5"/>
<path d="M39.2722 28.8882C39.2722 31.3494 31.766 33.3447 22.5049 33.3447C13.2447 33.3447 5.73755 31.3494 5.73755 28.8882C5.73755 28.8331 5.74099 28.7778 5.75011 28.7227C6.07631 26.3382 13.4524 24.4316 22.5049 24.4316C31.5573 24.4316 38.9335 26.3382 39.2596 28.7227C39.2688 28.778 39.2722 28.8331 39.2722 28.8882Z" fill="#FFEAA5"/>
<path d="M35.9066 28.8921C35.9066 28.9468 35.9009 29.0015 35.8934 29.0556C35.5698 30.9441 29.6892 32.4541 22.5049 32.4541C15.3207 32.4541 9.44004 30.9443 9.11648 29.0556C9.10899 29.0015 9.10352 28.9468 9.10352 28.8921C9.10352 26.928 15.1153 25.3301 22.5049 25.3301C29.8946 25.3301 35.9066 26.928 35.9066 28.8921Z" fill="#FF901E"/>
<path d="M35.8941 29.0552C35.5706 30.9437 29.6899 32.4537 22.5057 32.4537C22.3448 32.4537 22.186 32.4527 22.0269 32.4513C20.4245 32.4363 18.893 32.3463 17.4794 32.1938C16.0658 32.0412 14.7718 31.8264 13.6461 31.562C13.36 31.495 13.0851 31.4249 12.8197 31.3513C11.6192 31.0168 10.6581 30.6213 10.0168 30.1829C9.86161 30.0779 9.72505 29.9702 9.60916 29.8607C9.3324 29.6028 9.16606 29.333 9.11743 29.0552C9.44099 27.1667 15.3217 25.6562 22.5059 25.6562C23.4146 25.6562 24.3028 25.6806 25.1631 25.7268C25.6007 25.7501 26.0327 25.7794 26.4551 25.8143C28.1809 25.9559 29.7592 26.1881 31.111 26.4898C31.4028 26.5548 31.685 26.6235 31.9563 26.6956C33.009 26.974 33.8898 27.2986 34.5499 27.6568C35.1931 28.0061 35.6269 28.3868 35.8101 28.7879C35.851 28.8757 35.8792 28.9652 35.8941 29.0552Z" fill="#FDB748"/>
<path opacity="0.2" d="M35.8094 28.7855L22.0263 32.4488C20.4239 32.4338 18.8923 32.3438 17.4788 32.1913L34.549 27.6543C35.1925 28.0038 35.6262 28.3845 35.8094 28.7855Z" fill="#FFEAA5"/>
<path opacity="0.2" d="M26.4546 25.8141L10.0163 30.1827C9.86109 30.0777 9.72453 29.97 9.60864 29.8606L25.1624 25.7266C25.6 25.7501 26.0319 25.7792 26.4546 25.8141Z" fill="#FFEAA5"/>
<path opacity="0.2" d="M31.9555 26.6881L13.6455 31.5547C13.3594 31.4876 13.0845 31.4175 12.8191 31.344L31.1104 26.4824C31.402 26.5475 31.6844 26.6159 31.9555 26.6881Z" fill="#FFEAA5"/>
<path d="M29.3605 27.4077H24.9187C25.3059 27.5659 25.6224 27.7561 25.7914 27.9822H29.3605V28.6614H25.8209C25.3906 29.319 23.6354 29.6738 22.299 29.8175C21.9295 29.8576 21.5305 29.876 21.1316 29.876H19.3294L26.4539 31.7696H23.1206L15.9963 29.876V29.1969H20.1569C21.505 29.1969 22.6745 28.9758 23.1441 28.6614H16.3892V27.9822H23.14C22.7097 27.6573 21.7662 27.4828 21.2434 27.4077H16.389V26.7285H29.3603V27.4077H29.3605Z" fill="#FF5E00"/>
<path d="M29.3605 27.2651H24.9187C25.3059 27.4233 25.6224 27.6136 25.7914 27.8397H29.3605V28.5188H25.8209C25.3906 29.1765 23.6354 29.5312 22.299 29.6749C21.9295 29.7152 21.5305 29.7334 21.1316 29.7334H19.3294L26.4539 31.627H23.1206L15.9963 29.7334V29.0543H20.1569C21.505 29.0543 22.6745 28.8333 23.1441 28.5188H16.3892V27.8397H23.14C22.7097 27.5147 21.7662 27.3402 21.2434 27.2651H16.389V26.5859H29.3603V27.2651H29.3605Z" fill="#FF8400"/>
<path d="M39.2728 23.5039V26.9081C39.2728 26.9423 39.2716 26.9776 39.2705 27.0118C39.2329 28.175 38.5442 29.2265 37.4801 29.7089C35.9885 30.3852 34.2232 30.9098 32.297 31.2952C31.6995 31.4161 31.0871 31.5233 30.4622 31.6167C29.0879 31.8219 27.6545 31.9646 26.1971 32.0478C25.6817 32.0774 25.1639 32.0991 24.644 32.1141C22.6916 32.1688 20.7176 32.1232 18.8006 31.9852C17.9419 31.9224 17.0946 31.8416 16.2656 31.7423C14.1388 31.488 12.1385 31.115 10.3879 30.6373C9.38322 30.3636 8.46075 30.0556 7.64404 29.7146C7.26537 29.5572 6.93026 29.3303 6.65086 29.0531C6.11254 28.5182 5.77965 27.7941 5.74318 27.0118C5.73974 26.9628 5.73853 26.9138 5.73853 26.8647V23.5039H39.2728Z" fill="#FDB748"/>
<path d="M39.2705 27.0098C39.2328 28.1729 38.5441 29.2245 37.4801 29.7069C35.5253 30.5931 33.1031 31.2191 30.462 31.6148C28.603 31.892 26.6347 32.0551 24.6437 32.112C22.6914 32.1667 20.7174 32.1211 18.8003 31.9832C17.9417 31.9203 17.0944 31.8395 16.2653 31.7402C14.1385 31.486 12.1382 31.113 10.3877 30.6352C9.38295 30.3615 8.46049 30.0535 7.64378 29.7125C7.26511 29.5551 6.92999 29.3282 6.6506 29.051C6.11227 28.5161 5.77939 27.792 5.74292 27.0098C6.40889 27.3165 7.11031 27.6016 7.83889 27.8627C9.13658 28.3279 10.5257 28.7226 11.9763 29.0464C13.9104 29.4785 15.9541 29.7853 18.0353 29.9701C18.9008 30.0464 19.7745 30.1011 20.6479 30.1354C22.6857 30.2152 24.7328 30.18 26.7216 30.0339C28.8816 29.8742 30.9742 29.5823 32.9163 29.1602C35.3168 28.6395 37.4869 27.9211 39.2705 27.0098Z" fill="#FF901E"/>
<path opacity="0.2" d="M17.5204 23.5039L11.9756 29.0486L10.387 30.6373C9.38226 30.3636 8.45979 30.0556 7.64308 29.7146C7.26441 29.5572 6.9293 29.3303 6.6499 29.0531L7.83819 27.8648L12.1991 23.5039H17.5204Z" fill="#FFEAA5"/>
<path opacity="0.2" d="M39.2722 23.5039V24.3376L34.5121 29.0977L32.2964 31.2952C31.6989 31.4161 31.0865 31.5233 30.4616 31.6167C29.0873 31.8219 27.6539 31.9646 26.1965 32.0478L28.3176 29.9711L34.7836 23.5039H39.2722Z" fill="#FFEAA5"/>
<path opacity="0.2" d="M27.2801 23.5041L20.6475 30.1379L18.8002 31.9852C17.9415 31.9224 17.0942 31.8416 16.2651 31.7423L18.0351 29.9723L24.5035 23.5039L27.2801 23.5041Z" fill="#FFEAA5"/>
<path d="M39.2722 23.4468C39.2722 25.908 31.766 27.9033 22.5049 27.9033C13.2447 27.9033 5.73755 25.908 5.73755 23.4468C5.73755 23.3917 5.74099 23.3364 5.75011 23.2812C6.07631 20.8968 13.4524 18.9902 22.5049 18.9902C31.5573 18.9902 38.9335 20.8968 39.2596 23.2812C39.2688 23.3364 39.2722 23.3917 39.2722 23.4468Z" fill="#FFEAA5"/>
<path d="M35.9066 23.4409C35.9066 23.4956 35.9009 23.5503 35.8934 23.6044C35.5698 25.4929 29.6892 27.003 22.5049 27.003C15.3207 27.003 9.44004 25.4931 9.11648 23.6044C9.10899 23.5503 9.10352 23.4956 9.10352 23.4409C9.10352 21.4769 15.1153 19.8789 22.5049 19.8789C29.8946 19.8789 35.9066 21.4769 35.9066 23.4409Z" fill="#FF901E"/>
<path d="M35.8941 23.604C35.5706 25.4925 29.6899 27.0025 22.5057 27.0025C22.3448 27.0025 22.186 27.0015 22.0269 27.0001C20.4245 26.9851 18.893 26.8952 17.4794 26.7426C16.0658 26.59 14.7718 26.3753 13.6461 26.1109C13.36 26.0438 13.0851 25.9737 12.8197 25.9002C11.6192 25.5656 10.6581 25.17 10.0168 24.7317C9.86161 24.6268 9.72505 24.519 9.60916 24.4096C9.3324 24.1517 9.16606 23.8818 9.11743 23.604C9.44099 21.7153 15.3217 20.2051 22.5059 20.2051C23.4146 20.2051 24.3028 20.2294 25.1631 20.2756C25.6007 20.2989 26.0327 20.3283 26.4551 20.3631C28.1809 20.5047 29.7592 20.7369 31.111 21.0386C31.4028 21.1036 31.685 21.1723 31.9563 21.2445C33.009 21.5228 33.8898 21.8472 34.5499 22.2056C35.1931 22.5551 35.6269 22.9356 35.8101 23.3368C35.851 23.4245 35.8792 23.5141 35.8941 23.604Z" fill="#FDB748"/>
<path opacity="0.2" d="M35.8094 23.3423L22.0263 27.0056C20.4239 26.9906 18.8923 26.9007 17.4788 26.7481L34.549 22.2109C35.1925 22.5606 35.6262 22.9411 35.8094 23.3423Z" fill="#FFEAA5"/>
<path opacity="0.2" d="M26.4546 20.3688L10.0163 24.7374C9.86109 24.6324 9.72453 24.5247 9.60864 24.4152L25.1624 20.2812C25.6 20.3045 26.0319 20.3339 26.4546 20.3688Z" fill="#FFEAA5"/>
<path opacity="0.2" d="M31.9555 21.2467L13.6455 26.1133C13.3594 26.0462 13.0845 25.9761 12.8191 25.9026L31.1104 21.041C31.402 21.1061 31.6844 21.1745 31.9555 21.2467Z" fill="#FFEAA5"/>
<path d="M29.3605 21.9623H24.9187C25.3059 22.1206 25.6224 22.3108 25.7914 22.5369H29.3605V23.2161H25.8209C25.3906 23.8737 23.6354 24.2285 22.299 24.3721C21.9295 24.4125 21.5305 24.4307 21.1316 24.4307H19.3294L26.4539 26.3243H23.1206L15.9963 24.4307V23.7516H20.1569C21.505 23.7516 22.6745 23.5305 23.1441 23.2161H16.3892V22.5369H23.14C22.7097 22.212 21.7662 22.0375 21.2434 21.9623H16.389V21.2832H29.3603V21.9623H29.3605Z" fill="#FF5E00"/>
<path d="M29.3605 21.8178H24.9187C25.3059 21.976 25.6224 22.1663 25.7914 22.3924H29.3605V23.0715H25.8209C25.3906 23.7292 23.6354 24.084 22.299 24.2276C21.9295 24.2677 21.5305 24.2862 21.1316 24.2862H19.3294L26.4539 26.1797H23.1206L15.9963 24.2862V23.607H20.1569C21.505 23.607 22.6745 23.386 23.1441 23.0715H16.3892V22.3924H23.14C22.7097 22.0674 21.7662 21.893 21.2434 21.8178H16.389V21.1387H29.3603V21.8178H29.3605Z" fill="#FF8400"/>
<path d="M39.2728 18.3672V21.7714C39.2728 21.8056 39.2716 21.8409 39.2705 21.8751C39.2329 23.0383 38.5442 24.0898 37.4801 24.5722C35.9885 25.2485 34.2232 25.7731 32.297 26.1584C31.6995 26.2794 31.0871 26.3866 30.4622 26.48C29.0879 26.6852 27.6545 26.8278 26.1971 26.9111C25.6817 26.9407 25.1639 26.9624 24.644 26.9772C22.6916 27.0319 20.7176 26.9863 18.8006 26.8483C17.9419 26.7855 17.0946 26.7047 16.2656 26.6054C14.1388 26.3511 12.1385 25.9781 10.3879 25.5004C9.38322 25.2266 8.46075 24.9187 7.64404 24.5777C7.26537 24.4203 6.93026 24.1933 6.65086 23.9162C6.11254 23.3813 5.77965 22.6572 5.74318 21.8749C5.73974 21.8259 5.73853 21.7769 5.73853 21.7278V18.3672H39.2728Z" fill="#FDB748"/>
<path d="M39.2705 21.873C39.2328 23.0362 38.5441 24.0877 37.4801 24.5702C35.5253 25.4562 33.1031 26.0824 30.462 26.4781C28.603 26.7553 26.6347 26.9184 24.6437 26.9753C22.6914 27.03 20.7174 26.9844 18.8003 26.8464C17.9417 26.7836 17.0944 26.7028 16.2653 26.6035C14.1385 26.3492 12.1382 25.9762 10.3877 25.4985C9.38295 25.2248 8.46049 24.9168 7.64378 24.5758C7.26511 24.4184 6.92999 24.1915 6.6506 23.9143C6.11227 23.3794 5.77939 22.6553 5.74292 21.873C6.40889 22.1798 7.11031 22.4649 7.83889 22.726C9.13658 23.1912 10.5257 23.5859 11.9763 23.9097C13.9104 24.3418 15.9541 24.6486 18.0353 24.8333C18.9008 24.9097 19.7745 24.9644 20.6479 24.9987C22.6857 25.0785 24.7328 25.043 26.7216 24.8972C28.8816 24.7375 30.9742 24.4455 32.9163 24.0235C35.3168 23.5028 37.4869 22.7842 39.2705 21.873Z" fill="#FF901E"/>
<path opacity="0.2" d="M17.5204 18.3672L11.9756 23.9119L10.387 25.5006C9.38226 25.2268 8.45979 24.9189 7.64308 24.5779C7.26441 24.4205 6.9293 24.1936 6.6499 23.9164L7.83819 22.7281L12.1991 18.3672H17.5204Z" fill="#FFEAA5"/>
<path opacity="0.2" d="M39.2722 18.3672V19.2009L34.5121 23.961L32.2964 26.1584C31.6989 26.2794 31.0865 26.3866 30.4616 26.48C29.0873 26.6852 27.6539 26.8278 26.1965 26.9111L28.3176 24.8344L34.7836 18.3672H39.2722Z" fill="#FFEAA5"/>
<path opacity="0.2" d="M27.2801 18.3674L20.6475 25.0011L18.8002 26.8485C17.9415 26.7857 17.0942 26.7049 16.2651 26.6056L18.0351 24.8356L24.5035 18.3672H27.2801V18.3674Z" fill="#FFEAA5"/>
<path d="M39.2722 18.3101C39.2722 20.7713 31.766 22.7666 22.5049 22.7666C13.2447 22.7666 5.73755 20.7713 5.73755 18.3101C5.73755 18.2549 5.74099 18.1998 5.75011 18.1445C6.07631 15.76 13.4524 13.8535 22.5049 13.8535C31.5573 13.8535 38.9335 15.76 39.2596 18.1445C39.2688 18.1998 39.2722 18.2549 39.2722 18.3101Z" fill="#FFEAA5"/>
<path d="M35.9066 18.3062C35.9066 18.3609 35.9009 18.4156 35.8934 18.4697C35.5698 20.3582 29.6892 21.8682 22.5049 21.8682C15.3207 21.8682 9.44004 20.3584 9.11648 18.4697C9.10899 18.4156 9.10352 18.3609 9.10352 18.3062C9.10352 16.3421 15.1153 14.7441 22.5049 14.7441C29.8946 14.7441 35.9066 16.3421 35.9066 18.3062Z" fill="#FF901E"/>
<path d="M35.8941 18.4751C35.5706 20.3636 29.6899 21.8736 22.5057 21.8736C22.3448 21.8736 22.186 21.8726 22.0269 21.8712C20.4245 21.8562 18.893 21.7662 17.4794 21.6137C16.0658 21.4611 14.7718 21.2464 13.6461 20.982C13.36 20.9149 13.0851 20.8448 12.8197 20.7712C11.6192 20.4367 10.6581 20.0413 10.0168 19.6028C9.86161 19.4979 9.72505 19.3901 9.60916 19.2807C9.3324 19.0227 9.16606 18.7529 9.11743 18.4751C9.44099 16.5866 15.3217 15.0762 22.5059 15.0762C23.4146 15.0762 24.3028 15.1005 25.1631 15.1467C25.6007 15.17 26.0327 15.1994 26.4551 15.2342C28.1809 15.3758 29.7592 15.608 31.111 15.9097C31.4028 15.9747 31.685 16.0434 31.9563 16.1155C33.009 16.3939 33.8898 16.7185 34.5499 17.0767C35.1931 17.4262 35.6269 17.8067 35.8101 18.2079C35.851 18.2958 35.8792 18.3851 35.8941 18.4751Z" fill="#FDB748"/>
<path opacity="0.2" d="M35.8094 18.2054L22.0263 21.8687C20.4239 21.8537 18.8923 21.7638 17.4788 21.6112L34.549 17.0742C35.1925 17.4235 35.6262 17.8042 35.8094 18.2054Z" fill="#FFEAA5"/>
<path opacity="0.2" d="M26.4546 15.234L10.0163 19.6026C9.86109 19.4977 9.72453 19.3899 9.60864 19.2805L25.1624 15.1465C25.6 15.17 26.0319 15.1994 26.4546 15.234Z" fill="#FFEAA5"/>
<path opacity="0.2" d="M31.9555 16.1099L13.6455 20.9766C13.3594 20.9095 13.0845 20.8394 12.8191 20.7658L31.1104 15.9043C31.402 15.9691 31.6844 16.0378 31.9555 16.1099Z" fill="#FFEAA5"/>
<path d="M29.3605 16.8276H24.9187C25.3059 16.9858 25.6224 17.1761 25.7914 17.4022H29.3605V18.0813H25.8209C25.3906 18.739 23.6354 19.0937 22.299 19.2374C21.9295 19.2775 21.5305 19.2959 21.1316 19.2959H19.3294L26.4539 21.1895H23.1206L15.9963 19.2959V18.6168H20.1569C21.505 18.6168 22.6745 18.3958 23.1441 18.0813H16.3892V17.4022H23.14C22.7097 17.0772 21.7662 16.9027 21.2434 16.8276H16.389V16.1484H29.3603V16.8276H29.3605Z" fill="#FF5E00"/>
<path d="M29.3605 16.6811H24.9187C25.3059 16.8393 25.6224 17.0296 25.7914 17.2557H29.3605V17.9348H25.8209C25.3906 18.5925 23.6354 18.9472 22.299 19.0909C21.9295 19.1312 21.5305 19.1495 21.1316 19.1495H19.3294L26.4539 21.043H23.1206L15.9963 19.1495V18.4703H20.1569C21.505 18.4703 22.6745 18.2493 23.1441 17.9348H16.3892V17.2557H23.14C22.7097 16.9307 21.7662 16.7563 21.2434 16.6811H16.389V16.002H29.3603V16.6811H29.3605Z" fill="#FF8400"/>
<path d="M39.2728 12.9162V16.3202C39.2728 16.3545 39.2716 16.3897 39.2705 16.424C39.2329 17.5871 38.5442 18.6386 37.4801 19.1211C35.9885 19.7974 34.2232 20.3219 32.297 20.7073C31.6995 20.8282 31.0871 20.9354 30.4622 21.0288C29.0879 21.234 27.6545 21.3767 26.1971 21.4599C25.6817 21.4895 25.1639 21.5112 24.644 21.5262C22.6916 21.5809 20.7176 21.5353 18.8006 21.3973C17.9419 21.3345 17.0946 21.2537 16.2656 21.1544C14.1388 20.9001 12.1385 20.5271 10.3879 20.0494C9.38322 19.7757 8.46075 19.4677 7.64404 19.1267C7.26537 18.9693 6.93026 18.7424 6.65086 18.4652C6.11254 17.9303 5.77965 17.2062 5.74318 16.424C5.73974 16.3749 5.73853 16.3259 5.73853 16.2769V12.916H39.2728V12.9162Z" fill="#FDB748"/>
<path d="M39.2705 16.4297C39.2328 17.5929 38.5441 18.6444 37.4801 19.1268C35.5253 20.0128 33.1031 20.639 30.462 21.0347C28.603 21.3119 26.6347 21.475 24.6437 21.5319C22.6914 21.5866 20.7174 21.5411 18.8003 21.4031C17.9417 21.3403 17.0944 21.2594 16.2653 21.1601C14.1385 20.9059 12.1382 20.5329 10.3877 20.0551C9.38295 19.7814 8.46049 19.4734 7.64378 19.1325C7.26511 18.975 6.92999 18.7481 6.6506 18.471C6.11227 17.9361 5.77939 17.212 5.74292 16.4297C6.40889 16.7364 7.11031 17.0215 7.83889 17.2827C9.13658 17.7478 10.5257 18.1425 11.9763 18.4663C13.9104 18.8985 15.9541 19.2052 18.0353 19.39C18.9008 19.4664 19.7745 19.5211 20.6479 19.5553C22.6857 19.6351 24.7328 19.5999 26.7216 19.4538C28.8816 19.2941 30.9742 19.0022 32.9163 18.5802C35.3168 18.0595 37.4869 17.3408 39.2705 16.4297Z" fill="#FF901E"/>
<path opacity="0.2" d="M17.5204 12.916L11.9756 18.4608L10.387 20.0494C9.38226 19.7757 8.45979 19.4677 7.64308 19.1267C7.26441 18.9693 6.9293 18.7424 6.6499 18.4652L7.83819 17.2769L12.1991 12.916H17.5204Z" fill="#FFEAA5"/>
<path opacity="0.2" d="M39.2722 12.916V13.7497L34.5121 18.5098L32.2964 20.7073C31.6989 20.8282 31.0865 20.9354 30.4616 21.0288C29.0873 21.234 27.6539 21.3767 26.1965 21.4599L28.3176 19.3832L34.7836 12.916H39.2722Z" fill="#FFEAA5"/>
<path opacity="0.2" d="M27.2801 12.9162L20.6475 19.55L18.8002 21.3973C17.9415 21.3345 17.0942 21.2537 16.2651 21.1544L18.0351 19.3844L24.5035 12.916H27.2801V12.9162Z" fill="#FFEAA5"/>
<path d="M39.2722 12.8667C39.2722 15.328 31.766 17.3232 22.5049 17.3232C13.2447 17.3232 5.73755 15.328 5.73755 12.8667C5.73755 12.8116 5.74099 12.7565 5.75011 12.7012C6.07631 10.3167 13.4524 8.41016 22.5049 8.41016C31.5573 8.41016 38.9335 10.3167 39.2596 12.7012C39.2688 12.7565 39.2722 12.8116 39.2722 12.8667Z" fill="#FFEAA5"/>
<path d="M35.9066 12.8609C35.9066 12.9156 35.9009 12.9703 35.8934 13.0244C35.5698 14.9129 29.6892 16.4229 22.5049 16.4229C15.3207 16.4229 9.44004 14.9131 9.11648 13.0244C9.10899 12.9703 9.10352 12.9156 9.10352 12.8609C9.10352 10.8968 15.1153 9.29883 22.5049 9.29883C29.8946 9.29883 35.9066 10.8968 35.9066 12.8609Z" fill="#FF901E"/>
<path d="M35.8941 13.0239C35.5706 14.9124 29.6899 16.4225 22.5057 16.4225C22.3448 16.4225 22.186 16.4214 22.0269 16.42C20.4245 16.405 18.893 16.3151 17.4794 16.1625C16.0658 16.0099 14.7718 15.7952 13.6461 15.5308C13.36 15.4637 13.0851 15.3936 12.8197 15.3201C11.6192 14.9856 10.6581 14.5899 10.0168 14.1516C9.86161 14.0467 9.72505 13.9389 9.60916 13.8295C9.3324 13.5716 9.16606 13.3017 9.11743 13.0239C9.44099 11.1354 15.3217 9.625 22.5059 9.625C23.4146 9.625 24.3028 9.64931 25.1631 9.69551C25.6007 9.71881 26.0327 9.74818 26.4551 9.78303C28.1809 9.92466 29.7592 10.1568 31.111 10.4585C31.4028 10.5236 31.685 10.5922 31.9563 10.6644C33.009 10.9428 33.8898 11.2671 34.5499 11.6255C35.1931 11.975 35.6269 12.3555 35.8101 12.7567C35.851 12.8446 35.8792 12.934 35.8941 13.0239Z" fill="#FDB748"/>
<path opacity="0.2" d="M35.8094 12.762L22.0263 16.4253C20.4239 16.4104 18.8923 16.3204 17.4788 16.1678L34.549 11.6309C35.1925 11.9802 35.6262 12.3609 35.8094 12.762Z" fill="#FFEAA5"/>
<path opacity="0.2" d="M26.4546 9.78674L10.0163 14.1554C9.86109 14.0504 9.72453 13.9426 9.60864 13.8332L25.1624 9.69922C25.6 9.72272 26.0319 9.7521 26.4546 9.78674Z" fill="#FFEAA5"/>
<path opacity="0.2" d="M31.9555 10.6666L13.6455 15.5332C13.3594 15.4661 13.0845 15.396 12.8191 15.3225L31.1104 10.4609C31.402 10.5258 31.6844 10.5945 31.9555 10.6666Z" fill="#FFEAA5"/>
<path d="M10.1046 11.9445C6.50896 12.37 6.16392 12.715 5.73825 16.3109C5.31277 12.7152 4.96773 12.3702 1.37207 11.9445C4.96794 11.519 5.31277 11.174 5.73825 7.57812C6.16392 11.174 6.50896 11.519 10.1046 11.9445Z" fill="white"/>
<path d="M61.526 36.3129C61.526 45.3164 54.2279 52.6161 45.2228 52.6161C36.2194 52.6161 28.9197 45.3162 28.9197 36.3129C28.9197 36.1111 28.9233 35.9093 28.9324 35.7075C29.2487 26.9841 36.4214 20.0098 45.223 20.0098C54.0247 20.0098 61.1972 26.9841 61.5136 35.7075C61.5224 35.9093 61.526 36.1111 61.526 36.3129Z" fill="#FDB748"/>
<path d="M61.5126 35.7075C61.1945 44.431 54.0236 51.4053 45.222 51.4053C36.4222 51.4053 29.2497 44.431 28.9314 35.7075C29.2477 26.9841 36.4204 20.0098 45.222 20.0098C54.0238 20.0098 61.1963 26.9841 61.5126 35.7075Z" fill="#FFEAA5"/>
<path d="M58.2527 36.31C58.2527 36.5099 58.2472 36.7099 58.24 36.908C57.9253 43.8169 52.2073 49.3404 45.2221 49.3404C38.2368 49.3404 32.5188 43.8169 32.2042 36.908C32.1969 36.7099 32.1914 36.5099 32.1914 36.31C32.1914 29.1247 38.0366 23.2793 45.2221 23.2793C52.4075 23.2795 58.2527 29.1247 58.2527 36.31Z" fill="#FF901E"/>
<path d="M58.2407 36.9068C57.926 43.8157 52.208 49.3392 45.2228 49.3392C45.0664 49.3392 44.912 49.3356 44.7574 49.3301C43.1993 49.2756 41.7102 48.9465 40.3357 48.3884C38.9612 47.8302 37.703 47.0447 36.6085 46.0774C36.3304 45.8321 36.0631 45.5756 35.805 45.3065C34.6378 44.083 33.7032 42.6357 33.0795 41.0321C32.9286 40.6486 32.7959 40.2539 32.6832 39.854C32.4142 38.9104 32.2523 37.9231 32.2051 36.9068C32.5195 29.9979 38.2377 24.4727 45.223 24.4727C46.1065 24.4727 46.9703 24.5618 47.8066 24.7308C48.2321 24.8163 48.6521 24.9235 49.063 25.0507C50.7412 25.5688 52.2757 26.4179 53.59 27.5215C53.8737 27.7595 54.1482 28.0106 54.4118 28.2742C55.4354 29.2923 56.2918 30.4795 56.9336 31.7904C57.5591 33.0687 57.9809 34.4612 58.159 35.9284C58.1987 36.2504 58.2261 36.5776 58.2407 36.9068Z" fill="#FDB748"/>
<g filter="url(#filter0_d_1505_10249)">
<path d="M38.9612 29.4598V42.9414C41.2429 43.0225 43.1482 42.9916 44.5415 42.9414C48.6802 42.7921 49.7487 42.4202 50.4536 41.6154C50.567 41.4861 51.4633 40.4575 51.3378 39.0185C51.1589 36.9699 49.0765 35.9769 48.961 35.9244C49.0479 35.8631 50.8301 34.5644 50.6737 32.7197C50.5226 30.9249 48.5924 29.287 46.1431 29.4598H38.9612Z" fill="#FF8400"/>
</g>
<path d="M39.7141 29.1914C39.6863 30.0139 39.6711 31.1074 39.7141 32.396C39.7483 33.423 39.7902 34.5852 39.9903 36.0979C40.2296 37.9078 40.5553 39.1575 40.6533 39.5236C41.03 40.9302 41.369 41.6935 41.648 42.231C41.9893 42.8908 42.2263 43.3393 42.6977 43.7779C43.5164 44.5408 44.488 44.7559 45.0175 44.8279H53.2509C52.3921 44.5685 51.587 44.1567 50.8741 43.6122C49.8836 42.8525 49.3522 42.0415 48.9404 41.4022C47.9874 39.9195 47.6159 38.6102 47.2275 37.2029C46.7457 35.4531 46.5826 33.9922 46.454 32.838C46.3468 31.8767 46.2949 30.9673 46.2872 30.8489C46.2518 30.2153 46.237 29.6557 46.232 29.1914H39.7141Z" fill="#FF901E"/>
<path d="M39.7343 29.0195C39.7066 29.842 39.6914 30.9355 39.7343 32.2242C39.7685 33.2512 39.8104 34.4133 40.0106 35.9261C40.2499 37.7359 40.5756 38.9856 40.6736 39.3517C41.0503 40.7583 41.3893 41.5216 41.6682 42.0591C42.0095 42.7189 42.2466 43.1674 42.718 43.6061C43.5367 44.3689 44.5082 44.5841 45.0378 44.656H53.2711C52.4124 44.3966 51.6073 43.9848 50.8944 43.4403C49.9039 42.6806 49.3724 41.8696 48.9607 41.2304C48.0077 39.7476 47.6362 38.4383 47.2477 37.031C46.7659 35.2812 46.6029 33.8203 46.4743 32.6662C46.3671 31.7048 46.3152 30.7954 46.3075 30.677C46.272 30.0434 46.2572 29.4838 46.2522 29.0195H39.7343Z" fill="#FFEAA5"/>
<path d="M39.4038 29.4615L39.7353 29.0195V29.4615H39.4038Z" fill="#C9EFF7"/>
<path opacity="0.2" d="M58.1585 35.9291L44.7569 49.3305C43.1988 49.276 41.7097 48.9469 40.3352 48.3888L56.933 31.791C57.5584 33.0691 57.9802 34.4618 58.1585 35.9291Z" fill="#FFEAA5"/>
<path opacity="0.2" d="M49.0622 25.0504L33.0789 41.0318C32.928 40.6483 32.7953 40.2536 32.6826 39.8536L47.806 24.7305C48.2313 24.8158 48.6513 24.9231 49.0622 25.0504Z" fill="#FFEAA5"/>
<path opacity="0.2" d="M54.4112 28.2742L36.608 46.0774C36.3298 45.8321 36.0626 45.5756 35.8044 45.3065L53.5895 27.5215C53.8731 27.7597 54.1477 28.0106 54.4112 28.2742Z" fill="#FFEAA5"/>
<path d="M39.2128 47.4875C35.6171 47.9129 35.2721 48.258 34.8464 51.8538C34.4209 48.258 34.0759 47.9131 30.4802 47.4875C34.0761 47.062 34.4209 46.717 34.8464 43.1211C35.2721 46.717 35.6171 47.0618 39.2128 47.4875Z" fill="white"/>
<path d="M59.9791 22.6965C56.3835 23.1219 56.0384 23.467 55.6128 27.0628C55.1873 23.4672 54.8422 23.1221 51.2466 22.6965C54.8422 22.271 55.1873 21.9259 55.6128 18.3301C56.0384 21.9259 56.3833 22.2708 59.9791 22.6965Z" fill="white"/>
<defs>
<filter id="filter0_d_1505_10249" x="38.9612" y="29.4473" width="12.3887" height="14.1527" filterUnits="userSpaceOnUse" color-interpolation-filters="sRGB">
<feFlood flood-opacity="0" result="BackgroundImageFix"/>
<feColorMatrix in="SourceAlpha" type="matrix" values="0 0 0 0 0 0 0 0 0 0 0 0 0 0 0 0 0 0 127 0" result="hardAlpha"/>
<feOffset dy="0.60782"/>
<feComposite in2="hardAlpha" operator="out"/>
<feColorMatrix type="matrix" values="0 0 0 0 1 0 0 0 0 0.368627 0 0 0 0 0 0 0 0 1 0"/>
<feBlend mode="normal" in2="BackgroundImageFix" result="effect1_dropShadow_1505_10249"/>
<feBlend mode="normal" in="SourceGraphic" in2="effect1_dropShadow_1505_10249" result="shape"/>
</filter>
</defs>
</svg>
