<svg width="28" height="29" viewBox="0 0 28 29" fill="none" xmlns="http://www.w3.org/2000/svg">
<path d="M27.8512 14.7172C27.8512 22.4076 21.6174 28.6428 13.9256 28.6428C6.23518 28.6428 0 22.4075 0 14.7172C0 14.5448 0.00311305 14.3725 0.0109007 14.2001C0.281047 6.74883 6.40771 0.791595 13.9258 0.791595C21.4439 0.791595 27.5704 6.74883 27.8407 14.2001C27.8481 14.3725 27.8512 14.5448 27.8512 14.7172Z" fill="#FDB748"/>
<path d="M27.8415 14.2001C27.5698 21.6514 21.4447 27.6086 13.9266 27.6086C6.41009 27.6086 0.283596 21.6514 0.0117188 14.2001C0.281865 6.74883 6.40854 0.791595 13.9266 0.791595C21.4448 0.791595 27.5713 6.74883 27.8415 14.2001Z" fill="#FFEAA5"/>
<path d="M25.0556 14.7156C25.0556 14.8864 25.0509 15.0572 25.0447 15.2265C24.776 21.1278 19.8919 25.8458 13.9253 25.8458C7.95868 25.8458 3.07458 21.1278 2.80582 15.2265C2.79959 15.0572 2.79492 14.8864 2.79492 14.7156C2.79492 8.57819 7.7877 3.58524 13.9253 3.58524C20.0628 3.58541 25.0556 8.57819 25.0556 14.7156Z" fill="#FF901E"/>
<path d="M25.0454 15.2251C24.7766 21.1265 19.8925 25.8444 13.9259 25.8444C13.7923 25.8444 13.6604 25.8413 13.5284 25.8366C12.1976 25.7901 10.9256 25.509 9.75154 25.0322C8.5775 24.5555 7.5028 23.8845 6.56793 23.0583C6.33032 22.8487 6.10205 22.6297 5.88157 22.3998C4.88457 21.3547 4.08625 20.1186 3.55357 18.7488C3.42464 18.4212 3.31128 18.0841 3.21506 17.7424C2.98524 16.9365 2.84696 16.0932 2.80664 15.2251C3.07523 9.32377 7.9595 4.60425 13.9261 4.60425C14.6808 4.60425 15.4186 4.6804 16.1329 4.82473C16.4964 4.89776 16.8551 4.98931 17.2061 5.09799C18.6395 5.5405 19.9503 6.2658 21.0729 7.20845C21.3152 7.4118 21.5497 7.62622 21.7749 7.85137C22.6492 8.721 23.3807 9.73513 23.929 10.8548C24.4632 11.9467 24.8235 13.1361 24.9756 14.3894C25.0095 14.6644 25.0329 14.9439 25.0454 15.2251Z" fill="#FDB748"/>
<g filter="url(#filter0_d_2310_9823)">
<path d="M8.57812 8.86409V20.3796C10.5271 20.4489 12.1545 20.4225 13.3447 20.3796C16.8798 20.2521 17.7924 19.9344 18.3945 19.247C18.4914 19.1366 19.257 18.2579 19.1498 17.0288C18.997 15.279 17.2183 14.4308 17.1196 14.3859C17.1939 14.3335 18.7161 13.2242 18.5826 11.6486C18.4535 10.1155 16.8048 8.71646 14.7127 8.86409H8.57812Z" fill="#FF8400"/>
</g>
<path d="M9.22016 8.63394C9.19648 9.33647 9.18348 10.2705 9.22016 11.3712C9.24937 12.2485 9.28516 13.2411 9.45612 14.5333C9.66056 16.0792 9.93872 17.1466 10.0224 17.4593C10.3442 18.6608 10.6338 19.3128 10.872 19.7719C11.1636 20.3355 11.366 20.7186 11.7687 21.0933C12.468 21.7449 13.2979 21.9286 13.7502 21.9901H20.7828C20.0493 21.7685 19.3617 21.4168 18.7527 20.9517C17.9066 20.3028 17.4527 19.61 17.101 19.064C16.287 17.7975 15.9696 16.6791 15.6379 15.4771C15.2263 13.9825 15.0871 12.7346 14.9772 11.7488C14.8857 10.9276 14.8413 10.1508 14.8347 10.0497C14.8045 9.5085 14.7918 9.03053 14.7875 8.63394H9.22016Z" fill="#FF901E"/>
<path d="M9.23579 8.487C9.2121 9.18953 9.1991 10.1236 9.23579 11.2243C9.26499 12.1015 9.30079 13.0942 9.47174 14.3863C9.67618 15.9322 9.95435 16.9997 10.038 17.3124C10.3598 18.5139 10.6494 19.1659 10.8877 19.625C11.1792 20.1886 11.3817 20.5716 11.7843 20.9463C12.4836 21.5979 13.3135 21.7817 13.7658 21.8431H20.7985C20.0649 21.6216 19.3773 21.2698 18.7683 20.8047C17.9223 20.1558 17.4683 19.4631 17.1166 18.9171C16.3026 17.6506 15.9853 16.5322 15.6535 15.3302C15.242 13.8355 15.1027 12.5877 14.9928 11.6018C14.9013 10.7807 14.8569 10.0039 14.8504 9.90275C14.8201 9.36156 14.8074 8.88359 14.8032 8.487H9.23579Z" fill="#FFEAA5"/>
<path d="M8.95508 8.86453L9.23823 8.487V8.86453H8.95508Z" fill="#C9EFF7"/>
<path opacity="0.2" d="M24.976 14.3902L13.5288 25.8372C12.198 25.7907 10.926 25.5096 9.75195 25.0328L23.9292 10.8556C24.4634 11.9473 24.8237 13.1369 24.976 14.3902Z" fill="#FFEAA5"/>
<path opacity="0.2" d="M17.2057 5.09696L3.55335 18.7478C3.42442 18.4201 3.31107 18.083 3.21484 17.7414L16.1327 4.8237C16.496 4.89656 16.8547 4.98828 17.2057 5.09696Z" fill="#FFEAA5"/>
<path opacity="0.2" d="M21.7742 7.8519L6.56721 23.0588C6.3296 22.8493 6.10134 22.6302 5.88086 22.4004L21.0722 7.20898C21.3145 7.4125 21.549 7.62675 21.7742 7.8519Z" fill="#FFEAA5"/>
<defs>
<filter id="filter0_d_2310_9823" x="8.57812" y="8.85336" width="10.582" height="12.088" filterUnits="userSpaceOnUse" color-interpolation-filters="sRGB">
<feFlood flood-opacity="0" result="BackgroundImageFix"/>
<feColorMatrix in="SourceAlpha" type="matrix" values="0 0 0 0 0 0 0 0 0 0 0 0 0 0 0 0 0 0 127 0" result="hardAlpha"/>
<feOffset dy="0.51918"/>
<feComposite in2="hardAlpha" operator="out"/>
<feColorMatrix type="matrix" values="0 0 0 0 1 0 0 0 0 0.368627 0 0 0 0 0 0 0 0 1 0"/>
<feBlend mode="normal" in2="BackgroundImageFix" result="effect1_dropShadow_2310_9823"/>
<feBlend mode="normal" in="SourceGraphic" in2="effect1_dropShadow_2310_9823" result="shape"/>
</filter>
</defs>
</svg>
