<svg width="25" height="25" viewBox="0 0 25 25" fill="none" xmlns="http://www.w3.org/2000/svg">
<g clip-path="url(#clip0_2_71490)">
<path d="M20.4661 17.808H5.27383C4.93919 17.808 4.66797 17.5368 4.66797 17.2022V4.10391C4.66797 3.76927 4.93923 3.49805 5.27383 3.49805H20.4661C20.8007 3.49805 21.0719 3.76931 21.0719 4.10391V17.2021C21.0719 17.5368 20.8007 17.808 20.4661 17.808Z" fill="#FFBF6C"/>
<path d="M20.4645 3.49805H18.375V17.808H20.4645C20.7992 17.808 21.0704 17.5368 21.0704 17.2022V4.10391C21.0704 3.76927 20.7991 3.49805 20.4645 3.49805Z" fill="#EFB16F"/>
<path d="M14.1764 8.13894H11.5617C11.2537 8.13894 11.0039 7.88919 11.0039 7.58113V3.49805H14.7342V7.58118C14.7342 7.88919 14.4845 8.13894 14.1764 8.13894Z" fill="#FF6666"/>
<path d="M22.419 13.8844L17.5624 17.3134L16.115 17.2278L16.0583 16.6267C15.974 15.732 15.321 15.014 14.4772 14.888L10.5991 14.417C9.70452 14.2835 8.84319 13.9672 8.06333 13.4859C6.99861 12.8288 5.78732 12.4824 4.55376 12.4824H1.75781V19.2157C1.75781 19.2157 9.42777 21.7452 9.57055 21.7561C9.71586 21.7671 17.4516 21.096 17.4516 21.096C18.0247 20.9995 18.5635 20.7448 19.0133 20.3578L23.8216 15.7953C24.2532 15.3911 24.3332 14.7117 24.0085 14.2083C23.6533 13.6575 22.9431 13.5128 22.419 13.8844Z" fill="#784800"/>
<path d="M24.0085 14.2088C23.9712 14.1509 23.9296 14.0977 23.885 14.0488L19.0133 17.6629C18.5635 18.0499 18.0247 18.3046 17.4516 18.4011C17.4516 18.4011 9.71591 19.0722 9.57055 19.0612C9.42777 19.0503 1.75781 16.5208 1.75781 16.5208V19.2162C1.75781 19.2162 9.42777 21.7458 9.57055 21.7566C9.71586 21.7676 17.4516 21.0966 17.4516 21.0966C18.0247 21 18.5635 20.7453 19.0133 20.3583L23.8216 15.7959C24.2532 15.3916 24.3332 14.7122 24.0085 14.2088Z" fill="#F4C892"/>
<path d="M2.34096 21.5023H1.17383C0.639874 21.5023 0.207031 21.0694 0.207031 20.5355V11.8984C0.207031 11.3645 0.639874 10.9316 1.17383 10.9316H2.34096C2.87492 10.9316 3.30776 11.3645 3.30776 11.8984V20.5354C3.30776 21.0694 2.87492 21.5023 2.34096 21.5023Z" fill="#FF6666"/>
<path d="M8.0769 16.1538C7.87862 16.1362 7.7026 16.2831 7.68503 16.4819C7.6674 16.6808 7.8144 16.8562 8.01324 16.8738L16.1139 17.2275L8.0769 16.1538Z" fill="#F4C892"/>
</g>
<defs>
<clipPath id="clip0_2_71490">
<rect width="24" height="24" fill="white" transform="translate(0.207031 0.626953)"/>
</clipPath>
</defs>
</svg>
