<svg width="18" height="18" viewBox="0 0 18 18" fill="none" xmlns="http://www.w3.org/2000/svg">
<path fill-rule="evenodd" clip-rule="evenodd" d="M7.26642 2.02634C6.55357 2.57022 5.72478 3.39714 4.56169 4.56023C3.3986 5.72331 2.57169 6.55211 2.0278 7.26495C1.49492 7.96338 1.29297 8.47655 1.29297 8.99984C1.29297 9.52313 1.49492 10.0363 2.0278 10.7347C2.57169 11.4476 3.3986 12.2764 4.56169 13.4395C5.72478 14.6025 6.55357 15.4295 7.26642 15.9733C7.96484 16.5062 8.47801 16.7082 9.0013 16.7082C9.52459 16.7082 10.0378 16.5062 10.7362 15.9733C11.449 15.4295 12.2778 14.6025 13.4409 13.4394C14.604 12.2764 15.4309 11.4476 15.9748 10.7347C16.5077 10.0363 16.7096 9.52313 16.7096 8.99984C16.7096 8.47655 16.5077 7.96338 15.9748 7.26495C15.4309 6.55211 14.604 5.72331 13.4409 4.56023C12.2778 3.39714 11.449 2.57022 10.7362 2.02634C10.0378 1.49346 9.52459 1.2915 9.0013 1.2915C8.47801 1.2915 7.96484 1.49346 7.26642 2.02634ZM6.50819 1.03256C7.31781 0.414846 8.09482 0.0415039 9.0013 0.0415039C9.90779 0.0415039 10.6848 0.414846 11.4944 1.03256C12.2818 1.63334 13.1692 2.52069 14.2915 3.64302L14.3581 3.70966C15.4805 4.83198 16.3678 5.71931 16.9686 6.50673C17.5863 7.31634 17.9596 8.09335 17.9596 8.99984C17.9596 9.90632 17.5863 10.6833 16.9686 11.4929C16.3678 12.2804 15.4805 13.1677 14.3581 14.29L14.2915 14.3567C13.1692 15.479 12.2818 16.3663 11.4944 16.9671C10.6848 17.5848 9.90779 17.9582 9.0013 17.9582C8.09482 17.9582 7.31781 17.5848 6.50819 16.9671C5.72078 16.3663 4.83344 15.479 3.71113 14.3567L3.64448 14.29C2.52215 13.1677 1.6348 12.2804 1.03403 11.4929C0.416311 10.6833 0.0429688 9.90632 0.0429688 8.99984C0.0429688 8.09335 0.416311 7.31634 1.03403 6.50673C1.6348 5.71932 2.52214 4.83199 3.64446 3.70969L3.71115 3.643C4.83346 2.52067 5.72078 1.63333 6.50819 1.03256Z" fill="black"/>
<path fill-rule="evenodd" clip-rule="evenodd" d="M9.65645 6.07237C9.89253 5.82055 10.2881 5.8078 10.5399 6.04388L12.7621 8.12721C12.8881 8.24537 12.9596 8.41042 12.9596 8.58317C12.9596 8.75593 12.8881 8.92098 12.7621 9.03913L10.5399 11.1225C10.2881 11.3585 9.89253 11.3458 9.65645 11.094C9.42037 10.8421 9.43313 10.4466 9.68495 10.2105L10.7541 9.20817H7.89019C7.61204 9.20817 7.18672 9.29124 6.85097 9.51787C6.54865 9.72194 6.29297 10.0544 6.29297 10.6665C6.29297 11.0117 6.01315 11.2915 5.66797 11.2915C5.32279 11.2915 5.04297 11.0117 5.04297 10.6665C5.04297 9.61195 5.52803 8.90274 6.15163 8.48181C6.74181 8.08344 7.4276 7.95817 7.89019 7.95817H10.7541L9.68495 6.9558C9.43313 6.71972 9.42037 6.3242 9.65645 6.07237Z" fill="black"/>
</svg>
