<svg width="22" height="24" viewBox="0 0 22 24" fill="none" xmlns="http://www.w3.org/2000/svg">
<path d="M0.134521 0.672392V21.1455C3.59947 21.2686 6.49294 21.2218 8.60883 21.1455C14.8938 20.9188 16.5164 20.354 17.5869 19.1319C17.7591 18.9356 19.1202 17.3734 18.9296 15.1882C18.6579 12.0772 15.4957 10.5692 15.3203 10.4894C15.4523 10.3963 18.1586 8.4242 17.9212 5.62286C17.6917 2.89719 14.7605 0.409925 11.041 0.672392H0.134521Z" fill="#023E89"/>
<path d="M1.27679 0.254883C1.23468 1.5039 1.21157 3.1645 1.27679 5.12145C1.32871 6.68106 1.39235 8.44583 1.69629 10.7431C2.05976 13.4916 2.5543 15.3893 2.7031 15.9453C3.27521 18.0815 3.79002 19.2406 4.21364 20.0568C4.73192 21.0588 5.09191 21.7399 5.80775 22.406C7.05107 23.5645 8.52646 23.8912 9.33064 24.0004H21.8338C20.5297 23.6065 19.3071 22.9812 18.2245 22.1543C16.7203 21.0006 15.9132 19.769 15.2879 18.7983C13.8407 16.5465 13.2765 14.5582 12.6867 12.4212C11.955 9.76387 11.7074 7.5454 11.5121 5.79266C11.3493 4.33278 11.2705 2.95174 11.2588 2.77191C11.205 1.80974 11.1825 0.959967 11.1749 0.254883H1.27679Z" fill="#04C9FF"/>
<path d="M1.30853 0C1.26642 1.24902 1.24331 2.90962 1.30853 4.86657C1.36045 6.42618 1.42409 8.19095 1.72803 10.4882C2.0915 13.2367 2.58604 15.1345 2.73484 15.6904C3.30695 17.8266 3.82176 18.9857 4.24538 19.8019C4.76366 20.8039 5.12364 21.485 5.83949 22.1511C7.08281 23.3096 8.5582 23.6363 9.36238 23.7455H21.8655C20.5614 23.3516 19.3388 22.7263 18.2562 21.8994C16.752 20.7457 15.945 19.5141 15.3197 18.5434C13.8724 16.2917 13.3083 14.3034 12.7184 12.1663C11.9867 9.50898 11.7392 7.29051 11.5438 5.53778C11.3811 4.0779 11.3022 2.69686 11.2905 2.51703C11.2367 1.55486 11.2142 0.705084 11.2066 0H1.30853Z" fill="#51EBFF"/>
<path d="M0.804199 0.671207L1.3076 0V0.671207H0.804199Z" fill="#C9EFF7"/>
</svg>
