<svg width="25" height="24" viewBox="0 0 25 24" fill="none" xmlns="http://www.w3.org/2000/svg">
<g clip-path="url(#clip0_1025_18946)">
<path d="M22.9432 16.7818C23.5845 15.4512 23.9141 13.9919 23.9068 12.5148C23.8995 11.0377 23.5556 9.58176 22.9011 8.25754C22.2467 6.93333 21.299 5.77574 20.1301 4.87276C18.9611 3.96977 17.6017 3.34517 16.1551 3.04641C12.3651 0.36221 7.06782 0.715601 3.67557 4.10785C2.25062 5.53298 1.30399 7.36588 0.966743 9.35278C0.629495 11.3397 0.918314 13.3823 1.79321 15.1978L0.387383 20.4449C0.361784 20.5403 0.361757 20.6408 0.387305 20.7362C0.412852 20.8316 0.463073 20.9186 0.532917 20.9884C0.60276 21.0583 0.689764 21.1085 0.785176 21.1341C0.880589 21.1596 0.981047 21.1596 1.07645 21.134L6.32363 19.728C7.0427 20.0758 7.80205 20.3332 8.58437 20.4944C10.001 21.4945 11.6593 22.0977 13.3874 22.2414C15.1156 22.3852 16.8507 22.0643 18.4131 21.312L23.6604 22.7178C23.7558 22.7434 23.8563 22.7434 23.9517 22.7179C24.0471 22.6923 24.1341 22.6421 24.2039 22.5723C24.2738 22.5024 24.324 22.4154 24.3495 22.32C24.3751 22.2246 24.3751 22.1241 24.3495 22.0287L22.9432 16.7818ZM6.23762 18.5862L1.72623 19.7951L2.93504 15.2837C2.97109 15.1493 2.95607 15.0063 2.89285 14.8823C1.9648 13.0602 1.7171 10.9668 2.19427 8.97847C2.67144 6.9901 3.8422 5.23713 5.49609 4.03465C7.14999 2.83218 9.17856 2.25906 11.2172 2.41831C13.2558 2.57756 15.1707 3.45874 16.6179 4.90346C19.9667 8.25235 19.9667 13.7014 16.6179 17.0503C13.814 19.8542 9.94285 20.3146 6.63901 18.6286C6.51507 18.5653 6.37206 18.5502 6.23762 18.5862ZM18.4988 20.1701C18.3644 20.1341 18.2214 20.1491 18.0974 20.2123C15.9921 21.2874 13.5279 21.4184 11.3418 20.6576C11.5588 20.6396 11.7759 20.6145 11.9934 20.5822C14.0478 20.2779 15.949 19.3179 17.4135 17.8454C20.9359 14.3229 21.1817 8.74637 18.1523 4.93637C20.1632 5.98342 21.6793 7.78224 22.3707 9.94146C23.062 12.1007 22.8727 14.4455 21.8439 16.4659C21.7806 16.5899 21.7656 16.7329 21.8017 16.8674L23.0105 21.3787L18.4988 20.1701ZM8.80534 11.6113C8.7531 11.6635 8.69109 11.7049 8.62284 11.7332C8.5546 11.7615 8.48145 11.776 8.40758 11.776C8.33371 11.776 8.26056 11.7615 8.19231 11.7332C8.12406 11.7049 8.06205 11.6635 8.00982 11.6113C7.55532 11.1559 7.246 10.576 7.12095 9.94483C6.9959 9.3137 7.06073 8.65966 7.30724 8.06536C7.55376 7.47106 7.9709 6.96316 8.50595 6.60584C9.04101 6.24852 9.66997 6.05781 10.3134 6.05781C10.9568 6.05781 11.5857 6.24852 12.1208 6.60584C12.6559 6.96316 13.073 7.47106 13.3195 8.06536C13.566 8.65966 13.6308 9.3137 13.5058 9.94483C13.3807 10.576 13.0714 11.1559 12.6169 11.6113L11.0481 13.1801C10.9916 13.2333 10.947 13.2978 10.9173 13.3695C10.8877 13.4411 10.8735 13.5183 10.8759 13.5958V14.2811C10.8759 14.4303 10.8166 14.5734 10.7111 14.6789C10.6057 14.7844 10.4626 14.8436 10.3134 14.8436C10.1642 14.8436 10.0211 14.7844 9.91565 14.6789C9.81016 14.5734 9.7509 14.4303 9.7509 14.2811V13.5958C9.74901 13.3706 9.79245 13.1473 9.87861 12.9393C9.96478 12.7312 10.0919 12.5426 10.2525 12.3847L11.8214 10.8158C12.1185 10.5177 12.3207 10.1383 12.4023 9.72536C12.484 9.31247 12.4414 8.88464 12.28 8.49592C12.1187 8.10719 11.8457 7.775 11.4957 7.54131C11.1457 7.30761 10.7342 7.18288 10.3133 7.18288C9.89244 7.18288 9.481 7.30761 9.13095 7.54131C8.78091 7.775 8.50797 8.10719 8.34661 8.49592C8.18525 8.88464 8.1427 9.31247 8.22433 9.72536C8.30597 10.1383 8.50813 10.5177 8.80529 10.8158C8.85753 10.868 8.89897 10.93 8.92724 10.9982C8.95552 11.0665 8.97007 11.1396 8.97008 11.2135C8.97008 11.2874 8.95553 11.3605 8.92727 11.4288C8.899 11.497 8.85757 11.559 8.80534 11.6113ZM10.9335 15.7962V15.7998C10.933 15.9489 10.8734 16.0916 10.7678 16.1967C10.6621 16.3019 10.5191 16.3608 10.3701 16.3605C10.221 16.3603 10.0782 16.3009 9.9729 16.1955C9.8676 16.09 9.80846 15.9471 9.80846 15.798C9.80846 15.649 9.8676 15.5061 9.9729 15.4006C10.0782 15.2951 10.221 15.2358 10.3701 15.2355C10.5191 15.2353 10.6621 15.2942 10.7678 15.3993C10.8734 15.5045 10.933 15.6472 10.9335 15.7962Z" fill="#555555"/>
</g>
<defs>
<clipPath id="clip0_1025_18946">
<rect width="24" height="24" fill="white" transform="translate(0.368164)"/>
</clipPath>
</defs>
</svg>
