<svg width="59" height="58" viewBox="0 0 59 58" fill="none" xmlns="http://www.w3.org/2000/svg">
<path d="M55.5479 24.6991C55.6541 24.6838 55.7155 24.6697 55.8142 24.7173C55.7215 24.9504 55.5848 25.2171 55.5354 25.4606C55.4488 25.1931 55.5025 24.9667 55.5479 24.6991Z" fill="#359C82"/>
<path d="M4.16899 36.8589C4.19493 37.0467 4.22734 37.2358 4.24328 37.4247C3.00273 38.2394 1.86888 39.2014 0.621506 40.0084L0.497531 39.9446L0.15332 39.7233C1.52104 38.8245 2.82243 37.7941 4.16899 36.8589Z" fill="#F8C266"/>
<path d="M47.2563 18.8556C47.4071 18.837 47.5302 18.8177 47.6782 18.8591C47.7671 18.9445 47.8558 19.0238 47.8826 19.1511C47.9082 19.2729 47.8645 19.3497 47.802 19.4487C47.4865 19.6914 44.3493 20.0089 43.7533 20.0975C43.5973 20.1217 43.3508 20.1579 43.2052 20.0796C43.1097 20.0282 43.0729 19.9684 43.0624 19.8586C43.0508 19.7356 43.0946 19.6462 43.1599 19.5478C43.5087 19.2924 46.6353 18.9357 47.2563 18.8556Z" fill="#F9D690"/>
<path d="M27.019 10.8906C26.9907 10.2359 27.0663 9.56305 27.0742 8.90634L27.0971 4.64626C27.0996 4.2444 27.0296 3.29404 27.1412 2.94452C27.1808 2.82045 27.2222 2.7799 27.3315 2.71357C27.4578 2.70011 27.477 2.70002 27.5914 2.75351C27.665 2.84596 27.7014 2.91503 27.7217 3.03254C27.8187 3.59592 27.7607 4.24051 27.7581 4.81275L27.7401 8.02345C27.731 8.66954 27.6792 9.34105 27.724 9.98475L27.7276 10.0315C27.5134 10.3108 27.2765 10.6526 27.019 10.8906Z" fill="#F9D690"/>
<path d="M46.9555 35.8574C47.2602 36.2777 49.4949 37.7313 50.0713 38.1452C51.1219 38.8996 52.1128 39.7214 53.1102 40.5435C54.2252 41.4627 55.4648 42.406 56.3563 43.5482C55.7206 43.0802 55.0584 42.6507 54.4226 42.1836C52.7425 40.9488 51.096 39.6814 49.3951 38.4739C48.5696 37.888 47.7488 37.1654 46.8662 36.6727L46.9555 35.8574Z" fill="#F8C266"/>
<path d="M43.1417 7.41211C43.2949 7.41406 43.4151 7.42947 43.534 7.53476C43.6145 7.60613 43.6449 7.71523 43.6429 7.82079C43.6411 7.92032 43.5688 8.02101 43.5158 8.09982C42.7774 9.1978 41.8622 10.195 41.0372 11.2289C40.3694 12.0659 39.7123 12.9091 39.0334 13.7375C38.6891 14.1576 38.3548 14.6055 37.9612 14.9806C37.87 15.0525 37.7994 15.1032 37.6904 15.1476L37.6087 15.0975C37.5727 15.0187 37.5586 14.9714 37.5634 14.8826C37.5735 14.6982 37.7052 14.4875 37.8034 14.3376C38.0901 13.9 38.441 13.493 38.7526 13.0719C39.7922 11.6445 40.8727 10.2486 41.994 8.88432C42.3773 8.40967 42.7005 7.8292 43.1417 7.41211Z" fill="#F9D690"/>
<path d="M50.6399 12.7347C50.7056 12.7274 50.7799 12.7155 50.8458 12.7256C50.9913 12.7478 51.0816 12.8809 51.1563 12.9933C51.165 13.0661 51.1848 13.1117 51.1504 13.1805C51.0738 13.3338 50.9098 13.4173 50.7618 13.4894C50.4289 13.6519 50.0576 13.7608 49.7125 13.897L47.7207 14.6992C46.7457 15.0915 45.7636 15.4588 44.7851 15.8411C43.3493 16.402 41.9337 16.9835 40.4747 17.4864C40.428 17.4971 40.4083 17.5041 40.356 17.5028C40.2234 17.4992 40.1566 17.449 40.0695 17.3586C40.0335 17.2473 40.0257 17.1858 40.0733 17.0753C40.1259 16.9533 40.2593 16.8514 40.3767 16.7985C40.6965 16.6545 41.0632 16.5594 41.394 16.4335C42.0762 16.1739 42.7502 15.8898 43.4283 15.6196L50.6399 12.7347Z" fill="#F9D690"/>
<path d="M25.6286 13.4824C25.1786 12.822 24.8628 11.7431 24.4653 10.9925L21.3104 4.96212C20.8127 4.02406 20.3542 3.06945 19.8709 2.12466C19.6522 1.6973 19.3739 1.28225 19.1923 0.837707C19.116 0.650858 19.0667 0.485971 19.1454 0.291949C19.2451 0.205166 19.2721 0.197816 19.4023 0.169922C19.5335 0.207026 19.6003 0.294252 19.6702 0.406184C20.1545 1.18245 20.5234 2.04922 20.9618 2.85408C22.4108 5.48768 23.7888 8.15794 25.0958 10.8648C25.388 11.4631 25.593 12.1467 25.9206 12.7164C25.9268 12.7272 25.9333 12.7379 25.9397 12.7486L25.7339 13.2286L25.6286 13.4824Z" fill="#F9D690"/>
<path d="M48.5195 23.8564C48.611 23.7258 48.6947 23.5903 48.7707 23.4501C48.8467 23.3099 48.9144 23.1658 48.974 23.0178L48.9623 22.9766L48.9831 22.9424C50.0759 24.1813 52.5155 24.7981 54.1024 24.8947C54.5901 24.9244 55.089 24.8856 55.5469 24.7027C55.5015 24.9704 55.4477 25.1967 55.5343 25.4642C55.4764 25.6203 55.4174 25.7557 55.2896 25.8679C54.8437 26.2596 54.1289 26.2648 53.5672 26.2373C52.0382 26.162 49.6177 25.4184 48.5684 24.2632C48.538 24.13 48.5316 23.9923 48.5195 23.8564Z" fill="#359C82"/>
<path d="M53.598 16.4663C55.1705 17.3358 56.6813 17.5747 58.4512 17.226C57.9087 17.7381 57.1983 18.1588 56.5199 18.4625C54.6751 19.2884 52.747 18.9631 50.891 18.3848C50.5324 18.2731 50.1652 18.1851 49.8145 18.0501C51.5649 17.7995 52.1974 17.5346 53.598 16.4663Z" fill="#F8C266"/>
<path d="M48.5203 23.8553C48.501 23.2256 48.5219 22.374 48.9669 21.8796C49.2554 21.5591 49.6893 21.4929 50.1001 21.4801C51.705 21.4298 54.3578 22.1259 55.5307 23.2843C55.7411 23.4921 55.9671 23.777 55.9719 24.0877C55.9749 24.2855 55.8901 24.5392 55.814 24.7198C55.7153 24.6722 55.6539 24.6863 55.5477 24.7016C55.0898 24.8845 54.5909 24.9233 54.1032 24.8936C52.5162 24.797 50.0767 24.1801 48.9839 22.9412L48.9631 22.9755L48.9748 23.0167C48.9152 23.1647 48.8474 23.3087 48.7715 23.4489C48.6955 23.5892 48.6118 23.7247 48.5203 23.8553Z" fill="#55B69C"/>
<path d="M50.289 22.129C51.24 21.9895 52.4545 22.3687 53.2975 22.7953C53.6852 22.9914 54.5996 23.5189 54.6827 23.9818C54.7006 24.081 54.6687 24.1632 54.5984 24.2333C54.4288 24.4024 53.9997 24.4549 53.7704 24.4663C52.8145 24.4677 51.809 24.166 50.9379 23.7913C50.4788 23.5938 49.4619 23.1886 49.2646 22.6945C49.2742 22.6125 49.2662 22.574 49.3181 22.5062C49.5085 22.2577 49.9938 22.1774 50.289 22.129Z" fill="#146A59"/>
<path d="M27.7279 10.033C28.3514 9.42032 29.1743 8.88864 30.0199 8.64839C31.3391 8.27355 32.7755 8.51432 34.0688 8.87961C34.3949 8.97171 34.751 9.05769 35.0465 9.22462C34.2568 9.23471 33.5394 9.3493 32.8171 9.67793C32.5683 9.83343 32.367 9.99291 32.1651 10.2092C31.4189 10.3462 30.2912 11.7865 29.8779 12.3826C29.4502 12.9995 29.0925 13.6438 28.779 14.3252L28.6304 14.2922C28.1629 14.1482 27.7718 13.8345 27.3091 13.6679C26.798 13.4838 26.2314 13.4369 25.7344 13.2263L25.9402 12.7462C26.2921 12.1209 26.6429 11.5036 27.0193 10.8921C27.2768 10.6541 27.5137 10.3123 27.7279 10.033Z" fill="#F9D690"/>
<path d="M35.0458 9.22656C35.7537 9.42546 36.269 9.92765 36.6256 10.5545C37.5551 12.1883 37.473 14.084 36.9792 15.8357C36.8526 16.2775 36.7113 16.7144 36.5553 17.1467C36.5476 17.1356 36.5399 17.1244 36.532 17.1134L36.4922 17.0588C36.0282 16.4122 34.7011 16.2741 33.957 16.1008C34.0466 15.7071 34.1227 15.3109 34.1851 14.9119C34.4715 12.9751 33.9754 11.2396 32.8164 9.67987C33.5387 9.35125 34.2561 9.23666 35.0458 9.22656Z" fill="#E37B2F"/>
<path d="M5.33008 47.1247C5.35912 47.0707 5.36329 47.0229 5.42873 47.0074C5.70962 46.9411 11.1669 48.5351 11.8049 48.7445L11.8184 48.7901C11.9835 50.4458 12.1843 52.1237 12.2601 53.7852C10.1507 53.1742 8.0169 52.6418 5.90736 52.0306L5.33008 47.1247Z" fill="#324052"/>
<path d="M2.20089 25.2363C4.59929 25.7563 6.98698 26.3214 9.39618 26.7918C9.18533 28.1241 8.98617 29.4581 8.79853 30.794C8.69244 31.5708 8.63302 32.3747 8.4839 33.1431C7.74916 32.8247 6.85485 32.6629 6.08036 32.4484C5.24308 32.2165 4.41076 31.9305 3.5664 31.7312C3.3149 31.5399 1.23521 31.0521 0.6875 30.8292C1.19872 28.9676 1.73607 27.11 2.20089 25.2363Z" fill="#45566E"/>
<path d="M41.6895 23.0171L45.9501 23.9268C46.5356 24.0513 47.1229 24.2014 47.712 24.3053L48.4816 24.4226C49.1907 26.6 49.7563 28.8236 50.4667 30.9991C50.0511 31.123 47.3541 31.8138 47.2769 31.9689C47.2681 31.9869 47.2668 32.0077 47.2618 32.0271L47.2051 31.9341C46.8992 31.9458 43.6917 32.8577 43.2243 33.0257C42.9543 32.2594 42.7672 31.4435 42.5462 30.6608C42.2627 29.2207 41.8178 27.8079 41.4951 26.375C41.4619 26.2677 41.4207 26.1622 41.3828 26.0564L41.0935 26.0299C39.7103 25.7721 38.3156 25.5065 36.9189 25.3353C37.1971 25.1793 37.671 25.1594 37.9913 25.0811C39.4055 24.7357 40.7338 24.1445 41.6895 23.0171Z" fill="#232C3B"/>
<path d="M47.7111 24.3047L48.4807 24.422C47.7316 24.7074 42.0269 26.39 41.4941 26.3744C41.4609 26.2671 41.4197 26.1616 41.3818 26.0558C42.8014 25.7769 44.2194 25.3041 45.6098 24.9062C46.0865 24.7698 46.6923 24.5244 47.1851 24.4932C47.199 24.4923 47.2129 24.4931 47.2269 24.4931L47.2388 24.4635C47.3879 24.438 47.5331 24.4109 47.6792 24.3715L47.7111 24.3047Z" fill="#62748A"/>
<path d="M41.6895 23.0171L45.9501 23.9268C46.5356 24.0513 47.1229 24.2014 47.712 24.3053L47.6801 24.3721C47.534 24.4115 47.3889 24.4386 47.2397 24.4641L47.2278 24.4937C47.2138 24.4937 47.1999 24.4929 47.186 24.4938C46.6933 24.525 46.0875 24.7704 45.6107 24.9068C44.2203 25.3047 42.8023 25.7775 41.3828 26.0564L41.0935 26.0299C39.7103 25.7721 38.3156 25.5065 36.9189 25.3353C37.1971 25.1793 37.671 25.1594 37.9913 25.0811C39.4055 24.7357 40.7338 24.1445 41.6895 23.0171Z" fill="#324052"/>
<path d="M32.1629 10.2095C32.3648 9.99321 32.5661 9.83372 32.8149 9.67822C33.9739 11.2379 34.47 12.9735 34.1836 14.9103C34.1212 15.3092 34.0451 15.7055 33.9555 16.0992C33.7145 16.201 33.015 15.92 32.7064 15.9169C31.9965 15.89 31.3775 16.3074 30.8766 16.7765C29.8453 17.7422 29.1148 18.8842 28.4189 20.0967L28.3716 20.082L28.3523 20.0437C28.34 20.108 28.3294 20.1709 28.3196 20.2356C28.2746 20.5356 27.5001 21.9432 27.3132 22.3331C26.8654 23.2673 26.4734 24.2334 26.0613 25.184C25.8821 25.5977 25.7181 26.0327 25.5042 26.429L25.4428 26.4597L25.3966 26.4346C25.4209 25.6398 25.2845 24.801 25.1714 24.0154C25.0486 23.8119 24.9932 23.4186 24.9281 23.1833C24.7507 22.5422 24.5797 21.9465 24.2609 21.3574L24.1967 21.3689C24.0344 21.0843 24.0868 20.7163 23.9101 20.4496L23.8796 20.5153C23.7805 20.4569 23.7531 20.3097 23.71 20.2034C23.7121 19.7705 23.9069 19.3304 24.0679 18.9362C24.225 18.5726 24.3666 18.222 24.4415 17.8314C24.5583 17.3711 24.5968 16.8761 24.6847 16.408C24.8414 15.573 25.0956 14.7731 25.4101 13.9854L25.411 13.9375C25.5365 13.822 25.5741 13.6381 25.6269 13.4803L25.7322 13.2266C26.2292 13.4372 26.7958 13.4841 27.3069 13.6682C27.7696 13.8348 28.1607 14.1485 28.6283 14.2925L28.7768 14.3255C29.0903 13.6441 29.448 12.9998 29.8757 12.3829C30.289 11.7868 31.4167 10.3465 32.1629 10.2095Z" fill="#F8A446"/>
<path d="M24.0679 18.937C24.2191 19.3242 23.9019 20.0117 23.9101 20.4504L23.8796 20.5161C23.7805 20.4578 23.7531 20.3105 23.71 20.2042C23.7121 19.7713 23.9069 19.3313 24.0679 18.937Z" fill="#E37B2F"/>
<path d="M25.7332 13.2271C26.2303 13.4376 26.7968 13.4846 27.308 13.6687C27.7707 13.8352 28.1617 14.149 28.6293 14.293C28.1818 14.3535 26.6927 13.7442 26.0443 13.7527C25.8743 13.7549 25.6841 13.7853 25.5679 13.9195C25.5493 13.9411 25.5319 13.9637 25.5139 13.9859H25.4111L25.412 13.938C25.5375 13.8225 25.5751 13.6386 25.6279 13.4808L25.7332 13.2271Z" fill="#F8C266"/>
<path d="M28.7774 14.3251C29.0908 13.6436 29.4485 12.9993 29.8762 12.3825C30.2895 11.7863 31.4172 10.3461 32.1634 10.209C30.3567 13.3265 28.8737 16.4347 28.3528 20.0432C28.3405 20.1075 28.3299 20.1704 28.3202 20.2351C28.2751 20.5351 27.5006 21.9428 27.3137 22.3327C26.8659 23.2668 26.4739 24.2329 26.0618 25.1836C25.8826 25.5972 25.7186 26.0322 25.5048 26.4286L25.4433 26.4592L25.3971 26.4341C25.4214 25.6394 25.285 24.8005 25.1719 24.0149C25.3231 24.3258 25.3661 24.7399 25.3754 25.0841C25.3776 25.1655 25.3935 25.1715 25.4367 25.2374L25.3788 25.1962L25.4892 25.1175C25.6873 24.5795 25.9582 24.0678 26.1735 23.5361C26.4721 22.7989 26.721 22.0099 26.9399 21.2457C27.2863 20.0371 27.4509 18.7971 27.74 17.5763C28.005 16.4577 28.3982 15.4051 28.7774 14.3251Z" fill="#E37B2F"/>
<path d="M32.1641 10.2095C32.366 9.99321 32.5673 9.83372 32.8161 9.67822C33.9751 11.2379 34.4712 12.9735 34.1848 14.9103C34.1224 15.3092 34.0463 15.7055 33.9567 16.0992C33.7156 16.201 33.0162 15.92 32.7076 15.9169C31.9977 15.89 31.3787 16.3074 30.8778 16.7765C29.8464 17.7422 29.116 18.8842 28.4201 20.0967L28.3728 20.082L28.3535 20.0437C28.8744 16.4352 30.3574 13.327 32.1641 10.2095Z" fill="#FEFEFE"/>
<path d="M39.2895 47.3198C39.8191 47.062 40.3331 46.6859 40.8256 46.3637C42.1882 45.4793 43.5092 44.5367 44.7887 43.5358C45.2132 43.2008 45.8954 42.4708 46.3291 42.2476C46.3429 42.3512 46.3535 42.4542 46.3624 42.5583C46.306 43.9624 46.127 45.3599 46.0359 46.7596C46.0352 47.6792 45.9093 48.6314 45.8302 49.548C45.7609 50.3507 45.7326 51.1923 45.5971 51.9859C43.318 52.6151 41.0021 53.1415 38.7347 53.8097L33.5884 55.2495C33.47 55.2781 33.3484 55.3019 33.2334 55.3416C33.4276 53.6133 33.5091 51.8645 33.6756 50.1316C34.4454 49.9682 36.825 48.7866 37.5703 48.3611C38.0855 48.0671 38.6836 47.546 39.2664 47.4251L39.2895 47.3198Z" fill="#161C27"/>
<path d="M33.6756 50.1332C34.4454 49.9698 36.825 48.7882 37.5703 48.3627C38.0855 48.0687 38.6836 47.5476 39.2664 47.4268L38.8781 51.8562C38.8251 52.5037 38.7436 53.1621 38.7347 53.8113L33.5884 55.2511C33.47 55.2797 33.3484 55.3035 33.2334 55.3432C33.4276 53.6149 33.5091 51.8662 33.6756 50.1332Z" fill="#CC9B63"/>
<path d="M53.4121 35.4995C53.645 35.4565 53.9076 35.3798 54.1208 35.5276C54.2415 35.6113 54.3488 35.745 54.4499 35.8519C54.2782 35.9544 54.1075 36.0588 53.938 36.1649L53.9308 36.2159C53.7081 36.0322 53.5624 35.7415 53.4121 35.4995Z" fill="#F9D690"/>
<path d="M3.56543 31.731C4.40979 31.9303 5.24211 32.2163 6.07939 32.4482C6.85389 32.6627 7.7482 32.8245 8.48293 33.1429L10.5283 33.6741C10.5559 34.2121 10.6374 34.7462 10.666 35.2827L10.6925 35.4766C10.7975 37.1444 10.9624 38.8116 11.0944 40.4778C11.3047 43.2351 11.5416 45.9902 11.8051 48.7429C11.1671 48.5336 5.70986 46.9396 5.42896 47.0058C5.36352 47.0213 5.35936 47.0692 5.33031 47.1232C5.2074 46.778 5.11495 45.3655 5.05898 44.8685C4.77968 42.3871 4.556 39.9022 4.24322 37.4239C4.22728 37.235 4.19487 37.046 4.16893 36.8582C4.05212 35.6697 3.88263 34.4867 3.75609 33.2991C3.68586 32.7775 3.62866 32.2535 3.56543 31.731Z" fill="#45566E"/>
<path d="M3.56543 31.731C4.40979 31.9303 5.24211 32.2163 6.07939 32.4482C6.85389 32.6627 7.7482 32.8245 8.48293 33.1429L10.5283 33.6741C10.5559 34.2121 10.6374 34.7462 10.666 35.2827C9.75926 34.9396 8.52419 34.6718 7.5702 34.4021C6.30184 34.0435 5.03463 33.6126 3.75609 33.2991C3.68586 32.7775 3.62866 32.2535 3.56543 31.731Z" fill="#232C3B"/>
<path d="M10.9556 22.5117C11.0714 22.6622 11.1872 22.8118 11.2963 22.9671C11.6414 23.3707 11.988 23.7684 12.4009 24.1053L12.3979 24.1422L12.3703 24.1514C12.1368 24.1404 11.9129 23.9823 11.7115 23.8732C11.6372 23.7231 11.5072 23.5893 11.4038 23.4563C11.1998 23.194 10.9118 22.8629 10.9556 22.5117Z" fill="#E8903F"/>
<path d="M10.709 22.091C11.5954 21.9946 12.5114 22.4 13.4077 22.3962L13.4264 22.4305C13.1293 22.5827 11.7434 22.8286 11.2957 22.9684C11.1866 22.8132 11.0708 22.6635 10.9551 22.5131C10.9071 22.3713 10.788 22.2204 10.709 22.091Z" fill="#232C3B"/>
<path d="M9.37345 25.1005C9.4288 24.7869 9.47458 24.4525 9.59112 24.1546C9.68853 23.9058 9.84057 23.6813 10.0984 23.5809C10.61 23.3815 11.2405 23.6851 11.7128 23.8748C11.9142 23.9839 12.138 24.1419 12.3715 24.1529C12.3084 24.2592 12.2446 24.357 12.2701 24.4873C12.2986 24.6332 12.4256 24.7738 12.5118 24.89C11.5707 24.7131 10.5766 24.4441 9.61875 24.6156C9.59236 24.845 9.58598 25.1054 9.48237 25.3132L9.41401 25.3175C9.36247 25.2544 9.36929 25.208 9.35742 25.129L9.37345 25.1005Z" fill="#232C3B"/>
<path d="M2.2002 25.2362C2.23695 25.0766 2.28689 24.9288 2.34365 24.7754C2.94148 25.038 4.04912 25.1888 4.73603 25.3406C6.39306 25.7067 8.04167 26.1001 9.70489 26.4386L9.62369 26.4576C9.52681 26.5081 9.47846 26.526 9.43498 26.6344C9.42054 26.6704 9.40948 26.7362 9.40177 26.7757L9.39549 26.7917C6.98628 26.3213 4.5986 25.7562 2.2002 25.2362Z" fill="#8196AD"/>
<path d="M6.1169 11.0095C6.63387 10.9529 7.10038 11.0254 7.54448 11.3115C7.57219 11.3294 7.59938 11.3479 7.62612 11.3671C7.65296 11.3863 7.67926 11.4062 7.70502 11.4268C7.73079 11.4473 7.75603 11.4685 7.78074 11.4903C7.80545 11.512 7.82971 11.5344 7.85335 11.5574C7.877 11.5803 7.90002 11.6039 7.92243 11.628C7.94492 11.6521 7.96679 11.6767 7.98796 11.702C8.00921 11.7272 8.02984 11.7529 8.04977 11.7792C8.06969 11.8054 8.08899 11.8322 8.10768 11.8593C8.12628 11.8865 8.14425 11.9142 8.16152 11.9422C8.17879 11.9703 8.19535 11.9987 8.2112 12.0277C8.22705 12.0566 8.2421 12.0858 8.25654 12.1154C8.27097 12.1451 8.28461 12.1751 8.29745 12.2054C8.31038 12.2358 8.32251 12.2664 8.33394 12.2973C8.34536 12.3282 8.35599 12.3595 8.36582 12.3909C8.37565 12.4224 8.38477 12.454 8.393 12.486C8.40124 12.5178 8.40876 12.5499 8.41541 12.5822C8.53814 13.1654 8.40815 13.8667 8.0797 14.3664C7.72885 14.9004 7.20505 15.1536 6.60173 15.2891C6.13496 15.336 5.66881 15.2843 5.2581 15.0416C4.7614 14.7482 4.43649 14.2382 4.30826 13.6829C4.17189 13.0919 4.26204 12.4728 4.59288 11.9604C4.95772 11.3953 5.4879 11.1574 6.1169 11.0095Z" fill="#232C3B"/>
<path d="M32.7076 15.9182C33.0161 15.9213 33.7156 16.2023 33.9567 16.1005C34.7008 16.2737 36.0278 16.4118 36.4919 17.0585L36.5317 17.113C36.5396 17.124 36.5473 17.1352 36.555 17.1463L36.5629 17.2289L36.598 17.2804C36.6736 17.3929 36.7566 17.5075 36.7946 17.6394C36.859 17.8635 36.8059 18.1514 37.0894 18.2226C37.205 18.2516 37.3904 18.228 37.5116 18.2263C38.901 18.218 40.3744 18.3389 41.4108 19.3718C41.9277 19.887 42.3576 20.634 42.3677 21.3786C42.3761 21.9991 42.0228 22.5243 41.6885 23.0174C40.7327 24.1448 39.4044 24.736 37.9903 25.0815C37.67 25.1597 37.1961 25.1797 36.9179 25.3357C36.5456 25.3972 36.0485 25.3151 35.6616 25.3146C35.1706 25.314 34.6739 25.3561 34.1842 25.3433C34.08 25.3406 33.9842 25.3144 33.8886 25.2749C32.6773 25.5315 31.4847 25.8524 30.2778 26.1189C29.8619 26.3213 29.3624 26.5298 28.9182 26.655C28.498 26.5428 27.8336 26.9241 27.4054 26.935C26.803 26.9503 26.148 26.6692 25.5652 26.8727L25.0911 26.85C25.0938 26.6068 25.0544 26.3603 25.0449 26.1163C25.1225 26.3308 25.1616 26.616 25.2918 26.7988C25.3534 26.7664 25.3544 26.7246 25.374 26.6614C25.3972 26.5863 25.396 26.5139 25.3977 26.4359L25.4439 26.4609L25.5054 26.4303C25.7193 26.0339 25.8833 25.599 26.0625 25.1853C26.4745 24.2347 26.8666 23.2686 27.3144 22.3344C27.5012 21.9445 28.2757 20.5369 28.3208 20.2368C28.3305 20.1722 28.3412 20.1092 28.3535 20.0449L28.3728 20.0833L28.4201 20.098C29.1159 18.8855 29.8464 17.7435 30.8778 16.7777C31.3787 16.3087 31.9977 15.8913 32.7076 15.9182Z" fill="#F8A446"/>
<path d="M32.0352 19.1722C32.4762 18.7619 33.0026 18.4911 33.5254 18.2012C33.4611 18.5979 33.3719 18.9816 33.2892 19.3738C32.9093 19.2273 32.4372 19.2047 32.0352 19.1722Z" fill="#E37B2F"/>
<path d="M30.1709 20.9751C30.7484 20.36 31.3421 19.6573 32.035 19.1724C32.4371 19.2049 32.9092 19.2275 33.2891 19.374C33.1816 19.6534 33.0826 19.9415 32.9481 20.2089C32.7544 20.5239 32.5835 20.8618 32.3505 21.1498C31.6234 21.1116 30.8964 21.0373 30.1709 20.9751Z" fill="#CC612F"/>
<path d="M30.1715 20.9746C30.8971 21.0368 31.624 21.1111 32.3511 21.1492C31.1196 22.9174 28.777 24.9504 26.9941 26.1417C27.4094 24.8555 29.2814 22.0489 30.1715 20.9746Z" fill="#232C3B"/>
<path d="M32.707 15.9189C33.0156 15.922 33.715 16.203 33.9561 16.1012C34.7002 16.2744 36.0273 16.4125 36.4913 17.0592L36.5312 17.1137C36.539 17.1247 36.5467 17.1359 36.5544 17.147L36.5623 17.2296L36.5974 17.2811C36.673 17.3936 36.7561 17.5082 36.794 17.6401C36.8585 17.8642 36.8053 18.1521 37.0889 18.2233C37.2044 18.2523 37.3899 18.2287 37.511 18.227C37.2871 18.2466 37.0908 18.253 36.8853 18.3521L36.866 18.3863L36.8799 18.4279L36.8532 18.4193L36.8283 18.4737C36.871 18.5502 36.8759 18.5802 36.9521 18.628C36.7029 18.8982 36.6558 20.3666 36.2055 20.8461C36.1279 20.7973 36.1531 20.7993 36.0786 20.7919C35.4168 20.7263 34.7734 20.5418 34.1217 20.4139C33.7339 20.3378 33.3285 20.3142 32.9479 20.2103C33.0823 19.9429 33.1814 19.6548 33.2888 19.3754C33.3715 18.9832 33.4608 18.5995 33.5251 18.2028C33.5719 17.9321 33.5411 17.6496 33.5755 17.3748C33.5501 17.2135 33.5177 17.0536 33.4783 16.8952C33.3581 16.4199 33.1104 16.1635 32.707 15.9189Z" fill="#F9D690"/>
<path d="M32.707 15.9189C33.0156 15.922 33.715 16.203 33.9561 16.1012C34.7002 16.2744 36.0273 16.4125 36.4913 17.0592L36.5312 17.1137C36.539 17.1247 36.5467 17.1359 36.5544 17.147L36.5623 17.2296C36.5479 17.2193 36.5327 17.2098 36.5191 17.1984C36.4506 17.1411 36.4095 17.0812 36.3563 17.0109C36.2597 16.8835 36.1372 16.7353 35.9674 16.7069C35.724 16.6662 33.8473 16.8652 33.5802 16.9531C33.5768 17.0283 33.5789 17.0917 33.5875 17.1666C33.5967 17.2459 33.5912 17.2976 33.5755 17.3748C33.5501 17.2135 33.5177 17.0536 33.4783 16.8952C33.3581 16.4199 33.1104 16.1635 32.707 15.9189Z" fill="#FDE594"/>
<path d="M37.5112 18.225C38.9006 18.2167 40.374 18.3376 41.4104 19.3705C41.9273 19.8857 42.3572 20.6327 42.3673 21.3773C42.3757 21.9977 42.0224 22.523 41.6881 23.0161C40.7323 24.1435 39.404 24.7347 37.9899 25.0801C37.6696 25.1584 37.1956 25.1783 36.9175 25.3344C36.5452 25.3959 36.0481 25.3137 35.6612 25.3133C35.1702 25.3127 34.6735 25.3548 34.1838 25.342C34.0796 25.3392 33.9838 25.3131 33.8881 25.2735C32.6769 25.5302 31.4842 25.8511 30.2773 26.1176C30.6783 25.7795 31.2292 25.5358 31.6835 25.2627C32.4207 24.8195 33.1597 24.3237 33.8323 23.7874C34.047 23.6133 34.2515 23.4279 34.4457 23.2311C34.6399 23.0345 34.8226 22.8276 34.9939 22.6106C35.1692 22.3841 35.3319 22.1072 35.5333 21.9063C35.5475 21.8921 35.5619 21.8783 35.5762 21.8643C35.8277 21.5537 36.0189 21.1956 36.2056 20.8441C36.656 20.3645 36.7031 18.8961 36.9522 18.626C36.876 18.5781 36.8712 18.5482 36.8285 18.4717L36.8534 18.4172L36.88 18.4259L36.8661 18.3843L36.8854 18.35C37.091 18.2509 37.2872 18.2446 37.5112 18.225Z" fill="url(#paint0_linear_467_24990)"/>
<path d="M36.2065 20.8455C36.6569 20.366 36.704 18.8976 36.9531 18.6274C38.1427 19.1072 39.5196 19.7123 40.0644 20.9654C40.2868 21.4768 40.3925 22.1438 40.1756 22.6706C40.1549 22.7209 40.1275 22.7619 40.0969 22.8065C39.671 22.7416 39.2421 22.6224 38.8202 22.5298C37.7461 22.2942 36.6634 22.0365 35.5771 21.8658C35.8286 21.5551 36.0198 21.1971 36.2065 20.8455Z" fill="#FEFEFE"/>
<path d="M35.5762 21.8667C36.6625 22.0374 37.7452 22.2951 38.8193 22.5308C39.2411 22.6233 39.6701 22.7425 40.096 22.8074C39.9083 23.3384 39.1409 23.7675 38.6594 23.9956C37.5497 24.5216 36.3479 24.7544 35.1561 25.011C34.7416 25.1003 34.308 25.2246 33.8881 25.2759C32.6769 25.5326 31.4842 25.8535 30.2773 26.12C30.6783 25.7819 31.2292 25.5382 31.6835 25.2651C32.4207 24.8219 33.1597 24.3261 33.8323 23.7898C34.047 23.6157 34.2515 23.4303 34.4457 23.2335C34.6399 23.0369 34.8226 22.83 34.9939 22.613C35.1692 22.3865 35.3319 22.1096 35.5333 21.9087C35.5475 21.8945 35.5619 21.8807 35.5762 21.8667Z" fill="#324052"/>
<path d="M10.5273 33.6758C11.242 33.8758 11.9584 34.0692 12.6766 34.2559C13.079 34.3609 13.5131 34.4435 13.9021 34.5874C14.237 34.684 14.6163 34.8365 14.9612 34.8691C15.3152 34.9399 15.707 35.0299 16.0447 35.1569C16.197 35.1909 16.3511 35.2327 16.5049 35.2573C16.5283 35.8635 16.5484 36.4852 16.6259 37.0868L16.6469 37.1405C16.6721 38.6061 16.8696 40.1132 16.991 41.5762C17.173 43.7918 17.3374 46.0085 17.4844 48.2266C17.5371 48.973 17.6253 49.7178 17.6688 50.4644L17.7001 50.4579C17.7694 52.0863 17.9491 53.724 18.0984 55.347C17.9053 55.3163 17.7152 55.2685 17.5247 55.2247C15.7618 54.7959 14.0063 54.2783 12.2595 53.7854C12.1837 52.1238 11.9828 50.446 11.8178 48.7902L11.8042 48.7446C11.5407 45.9919 11.3038 43.2368 11.0935 40.4795C10.9615 38.8132 10.7965 37.1461 10.6916 35.4783L10.665 35.2844C10.6365 34.7479 10.555 34.2137 10.5273 33.6758Z" fill="#F9D690"/>
<path d="M10.5273 33.6758C11.242 33.8758 11.9584 34.0692 12.6766 34.2559C13.079 34.3609 13.5131 34.4435 13.9021 34.5874C14.237 34.684 14.6163 34.8365 14.9612 34.8691C15.3152 34.9399 15.707 35.0299 16.0447 35.1569C16.197 35.1909 16.3511 35.2327 16.5049 35.2573C16.5283 35.8635 16.5484 36.4852 16.6259 37.0868C15.9594 36.8779 10.9743 35.3373 10.7204 35.3704L10.6916 35.4783L10.665 35.2844C10.6365 34.7479 10.555 34.2137 10.5273 33.6758Z" fill="#CC9B63"/>
<path d="M11.8184 48.7866C13.1388 49.167 14.456 49.558 15.7701 49.9596C16.3564 50.1386 16.9889 50.405 17.5851 50.5152L17.6694 50.4608L17.7007 50.4543C17.77 52.0827 17.9497 53.7204 18.099 55.3434C17.9059 55.3127 17.7158 55.2649 17.5253 55.2211C15.7624 54.7923 14.0069 54.2747 12.2601 53.7818C12.1843 52.1202 11.9834 50.4424 11.8184 48.7866Z" fill="#F8A446"/>
<path d="M7.18762 17.7153C7.21304 17.6344 7.24084 17.5545 7.27095 17.4752C7.30106 17.3959 7.33347 17.3178 7.36818 17.2404C7.4029 17.1631 7.43982 17.0869 7.47905 17.0118C7.51828 16.9366 7.55964 16.8628 7.60321 16.7901C7.64678 16.7174 7.69238 16.646 7.74011 16.5759C7.78784 16.5059 7.83761 16.4373 7.88941 16.3702C7.94122 16.3032 7.99488 16.2377 8.05049 16.1737C8.10611 16.1098 8.16358 16.0475 8.22282 15.987C9.12687 15.0566 10.2315 14.759 11.496 14.7476L11.9532 14.7877C12.354 14.8409 12.7359 14.9123 13.1239 15.0262C13.595 15.1646 14.0856 15.3619 14.5749 15.4136C14.8926 15.4471 15.2222 15.3952 15.54 15.3751C16.1035 15.3397 16.6755 15.3595 17.2297 15.4774C17.8917 15.5767 18.4591 15.7758 19.0723 16.0358L19.2432 16.0912C19.6977 16.2749 20.1047 16.442 20.4908 16.7472C21.0174 17.0814 21.4834 17.4561 21.9165 17.9071L21.9278 17.6395C22.0141 17.6905 22.0664 17.7264 22.1685 17.7255C22.3528 17.9285 22.4543 18.2543 22.5472 18.5106L22.5028 18.5941C22.6702 18.8187 23.5461 20.1379 23.7114 20.2054C23.7545 20.3117 23.782 20.4589 23.881 20.5173L23.9115 20.4516C24.0882 20.7183 24.0358 21.0863 24.1981 21.3709L24.2623 21.3595C24.5811 21.9485 24.7522 22.5442 24.9295 23.1853C24.9946 23.4206 25.0501 23.8139 25.1728 24.0174C25.2859 24.803 25.4223 25.6418 25.398 26.4366C25.3963 26.5146 25.3974 26.5871 25.3742 26.6622C25.3547 26.7253 25.3537 26.7671 25.2921 26.7995C25.1619 26.6167 25.1228 26.3315 25.0452 26.117C25.0547 26.3611 25.0941 26.6075 25.0913 26.8507L24.9448 26.8257C24.0925 26.8181 23.2063 26.9065 22.36 26.8462C21.9707 26.8879 21.581 26.9276 21.1912 26.9654C21.0177 26.7514 19.8095 26.5207 19.4726 26.407C18.802 26.181 18.0801 25.9427 17.4518 25.6164C16.978 25.3702 16.5427 25.0592 16.0745 24.805C15.1041 24.0958 14.1999 23.3594 13.4277 22.4309L13.409 22.3965C12.5127 22.4003 11.5967 21.9949 10.7103 22.0914C10.7893 22.2207 10.9084 22.3716 10.9564 22.5134C10.9126 22.8646 11.2005 23.1957 11.4046 23.458C11.508 23.591 11.6379 23.7248 11.7123 23.8749C11.24 23.6852 10.6095 23.3817 10.098 23.581C9.84008 23.6814 9.68804 23.9059 9.59063 24.1548C9.47409 24.4526 9.42831 24.787 9.37296 25.1007C8.97332 24.5911 8.62034 24.0782 8.3011 23.5155C7.97531 22.9099 7.66723 22.2954 7.37686 21.672C7.11253 20.7866 6.92045 20.0194 6.93648 19.0926L6.97279 18.6612C7.01857 18.3358 7.09127 18.0291 7.18762 17.7153Z" fill="#E37B2F"/>
<path d="M21.9273 17.6377C22.0136 17.6887 22.0659 17.7247 22.168 17.7238C22.3523 17.9267 22.4538 18.2525 22.5468 18.5088L22.5023 18.5923C22.321 18.3519 22.116 18.1303 21.916 17.9053L21.9273 17.6377Z" fill="#45566E"/>
<path d="M24.1982 21.3679L24.2624 21.3564C24.5812 21.9455 24.7523 22.5412 24.9297 23.1823C24.9948 23.4176 25.0502 23.8109 25.173 24.0144C25.286 24.8 25.4225 25.6388 25.3982 26.4336C25.3965 26.5116 25.3976 26.5841 25.3744 26.6592C25.3548 26.7223 25.3539 26.7641 25.2922 26.7965C25.1621 26.6137 25.1229 26.3285 25.0454 26.114C24.814 24.4843 24.7127 22.9527 24.1982 21.3679Z" fill="#F5B049"/>
<path d="M18.9573 19.2866C20.7231 21.1748 23.0214 24.0859 24.1151 26.4403C23.7738 26.3665 22.3235 25.6612 21.9132 25.4647C21.344 24.1642 18.8941 20.4938 18.9573 19.2866Z" fill="#161C27"/>
<path d="M17.0634 17.3398C17.6856 17.9951 18.3529 18.6187 18.9576 19.2885C18.8945 20.4956 21.3443 24.166 21.9135 25.4665C20.4742 24.8631 19.0453 24.0452 17.9261 22.9506C17.4734 22.5079 17.0805 21.7486 16.5293 21.4521C16.4862 21.387 16.4676 21.3235 16.4467 21.2483C16.08 19.9296 16.4195 18.5071 17.0634 17.3398Z" fill="#324052"/>
<path d="M16.528 21.4521C17.0792 21.7486 17.4721 22.5079 17.9248 22.9507C19.044 24.0452 20.4729 24.8632 21.9123 25.4666C22.3225 25.6631 23.7729 26.3684 24.1141 26.4422C24.3867 26.5144 24.7277 26.6438 24.9432 26.826C24.0909 26.8183 23.2047 26.9067 22.3585 26.8464C21.9691 26.8881 21.5795 26.9278 21.1896 26.9656C21.0162 26.7517 19.8079 26.5209 19.4711 26.4073C18.8005 26.1812 18.0786 25.943 17.4503 25.6167C16.9764 25.3705 16.5412 25.0595 16.0729 24.8052C15.1025 24.096 14.1983 23.3596 13.4261 22.4311L13.4074 22.3968C13.2223 22.1032 13.0468 21.8113 12.8896 21.5019C13.7963 21.8658 15.0024 22.0483 15.9322 21.6624C16.0302 21.6216 16.1253 21.5726 16.2196 21.5242C16.3781 21.9397 16.5439 22.4035 16.8312 22.7498L16.9182 22.7865L16.8888 22.5554C16.7257 22.1931 16.6153 21.8397 16.528 21.4521Z" fill="#F5B049"/>
<path d="M16.5283 21.4521C17.0796 21.7486 17.4724 22.5079 17.9252 22.9507C19.0443 24.0452 20.4732 24.8632 21.9126 25.4666C22.3229 25.6631 23.7732 26.3684 24.1145 26.4422C24.3871 26.5144 24.728 26.6438 24.9435 26.826C24.0913 26.8183 23.205 26.9067 22.3588 26.8464C21.9538 26.5718 21.325 26.5008 20.8615 26.3163C19.0487 25.5948 17.8069 24.2335 16.8892 22.5554C16.7261 22.1931 16.6156 21.8397 16.5283 21.4521Z" fill="#E37B2F"/>
<path d="M7.18762 17.7153C7.21304 17.6344 7.24084 17.5545 7.27095 17.4752C7.30106 17.3959 7.33347 17.3178 7.36818 17.2404C7.4029 17.1631 7.43982 17.0869 7.47905 17.0118C7.51828 16.9366 7.55964 16.8628 7.60321 16.7901C7.64678 16.7174 7.69238 16.646 7.74011 16.5759C7.78784 16.5059 7.83761 16.4373 7.88941 16.3702C7.94122 16.3032 7.99488 16.2377 8.05049 16.1737C8.1061 16.1098 8.16358 16.0475 8.22282 15.987C9.12687 15.0566 10.2315 14.759 11.496 14.7476L11.9532 14.7877C12.354 14.8409 12.7359 14.9123 13.1239 15.0262C13.595 15.1646 14.0856 15.3619 14.5749 15.4136C14.8926 15.4471 15.2222 15.3952 15.54 15.3751C16.1035 15.3397 16.6755 15.3595 17.2297 15.4774C17.8917 15.5767 18.4591 15.7758 19.0723 16.0358L19.2432 16.0912C19.6977 16.2749 20.1047 16.442 20.4908 16.7472C20.4635 16.7491 20.4363 16.7515 20.409 16.7527C20.1295 16.7655 19.7773 16.6295 19.4974 16.5762C18.7106 16.4263 17.7418 16.5763 17.1757 17.1839C17.1311 17.2319 17.0984 17.2844 17.0637 17.3396C16.4197 18.5069 16.0802 19.9294 16.4469 21.2481C16.4678 21.3232 16.4865 21.3868 16.5295 21.4519C16.6169 21.8394 16.7273 22.1928 16.8904 22.5552L16.9197 22.7862L16.8328 22.7496C16.5455 22.4032 16.3796 21.9395 16.2212 21.524C16.1269 21.5723 16.0318 21.6214 15.9338 21.6621C15.0039 22.048 13.7978 21.8655 12.8912 21.5017C13.0484 21.8111 13.2238 22.103 13.409 22.3965C12.5127 22.4003 11.5967 21.9949 10.7103 22.0914C10.7893 22.2207 10.9084 22.3716 10.9564 22.5134C10.9126 22.8646 11.2005 23.1957 11.4046 23.458C11.508 23.591 11.6379 23.7248 11.7123 23.8749C11.24 23.6852 10.6095 23.3817 10.098 23.581C9.84008 23.6814 9.68804 23.9059 9.59063 24.1548C9.47409 24.4526 9.42831 24.787 9.37296 25.1007C8.97331 24.5911 8.62034 24.0782 8.3011 23.5155C7.97531 22.9099 7.66723 22.2954 7.37686 21.672C7.11253 20.7866 6.92045 20.0194 6.93648 19.0926L6.97279 18.6612C7.01857 18.3358 7.09127 18.0291 7.18762 17.7153Z" fill="#FDE594"/>
<path d="M19.0722 16.0356L19.2431 16.0911C19.6975 16.2747 20.1046 16.4418 20.4906 16.7471C20.4634 16.7489 20.4362 16.7513 20.4089 16.7526C20.1293 16.7654 19.7771 16.6294 19.4972 16.5761C18.7104 16.4262 17.7416 16.5762 17.1756 17.1838C17.131 17.2318 17.0983 17.2843 17.0636 17.3395C16.4196 18.5067 16.0801 19.9293 16.4468 21.2479C16.4677 21.3231 16.4864 21.3867 16.5294 21.4518C16.6167 21.8393 16.7272 22.1927 16.8903 22.5551L16.9196 22.7861L16.8326 22.7495C16.5454 22.4031 16.3795 21.9394 16.2211 21.5239L16.2259 21.4108C16.1738 21.3607 16.1241 21.3101 16.0846 21.2491C15.8584 20.8991 16.0161 19.4936 16.0799 19.0812C16.1004 18.6876 16.2343 18.2483 16.3933 17.8888C16.7539 17.0739 17.4262 16.4366 18.2909 16.1861C18.5175 16.1204 18.8097 16.1477 19.0175 16.0602C19.0359 16.0525 19.0539 16.0439 19.0722 16.0356Z" fill="#F8C266"/>
<path d="M12.3906 19.475C12.7796 19.2624 13.0613 18.9584 13.4935 18.8082C14.3362 18.5152 15.3075 18.6837 16.0809 19.0807C16.017 19.4931 15.8594 20.8987 16.0855 21.2486C16.125 21.3096 16.1747 21.3602 16.2268 21.4103L16.222 21.5234C16.1277 21.5718 16.0326 21.6208 15.9346 21.6616C15.0047 22.0475 13.7986 21.865 12.892 21.5011C12.48 21.0061 12.3934 20.0887 12.3906 19.475Z" fill="#F8C266"/>
<path d="M10.4056 17.8237C10.9634 17.0215 11.6428 16.2856 12.6513 16.1117C12.9959 16.0523 13.3258 16.0761 13.6717 16.1079C12.8581 17.0959 12.3923 18.1799 12.3893 19.4748C12.3921 20.0885 12.4787 21.0059 12.8907 21.5009C13.0479 21.8103 13.2234 22.1022 13.4085 22.3958C12.5123 22.3996 11.5963 21.9942 10.7098 22.0906C10.3406 21.6729 10.1556 20.8495 10.0229 20.3116L9.95801 19.6248C9.98537 18.9559 10.1204 18.4279 10.4056 17.8237Z" fill="#324052"/>
<path d="M6.97279 18.6627C7.01857 18.3373 7.09127 18.0306 7.18762 17.7168C7.26829 17.7982 7.34702 17.8915 7.44098 17.9568C8.05767 17.8854 8.75733 17.8691 9.37535 17.944C9.72222 17.8394 10.0468 17.8206 10.4061 17.826C10.1209 18.4302 9.98584 18.9581 9.95848 19.6271L10.0234 20.3139C10.156 20.8518 10.341 21.6752 10.7103 22.0929C10.7893 22.2223 10.9084 22.3732 10.9564 22.5149C10.9126 22.8661 11.2005 23.1972 11.4046 23.4595C11.508 23.5925 11.6379 23.7263 11.7123 23.8764C11.24 23.6868 10.6095 23.3832 10.098 23.5825C9.84008 23.683 9.68804 23.9074 9.59063 24.1563C9.47409 24.4542 9.42831 24.7886 9.37296 25.1022C8.97332 24.5927 8.62034 24.0798 8.3011 23.517C7.97531 22.9114 7.66723 22.2969 7.37686 21.6736C7.11253 20.7881 6.92045 20.0209 6.93648 19.0941L6.97279 18.6627Z" fill="#CC612F"/>
<path d="M6.97185 18.6602L6.99692 18.8938C7.27861 19.0037 7.61671 18.7462 7.93842 18.8217C8.63109 18.9842 9.25097 19.4437 9.95755 19.6245L10.0225 20.3113L9.97074 20.3887C9.732 20.3387 9.46828 20.1681 9.24787 20.0613C8.56264 19.7293 7.68888 19.2228 6.93555 19.0915L6.97185 18.6602Z" fill="#E8903F"/>
<path d="M6.97266 18.6627C7.01844 18.3373 7.09114 18.0306 7.18749 17.7168C7.26816 17.7982 7.34689 17.8915 7.44084 17.9568C8.05753 17.8854 8.7572 17.8691 9.37522 17.944C9.72209 17.8394 10.0466 17.8206 10.406 17.826C10.1208 18.4302 9.98571 18.9581 9.95835 19.6271C9.25177 19.4463 8.6319 18.9868 7.93923 18.8243C7.61751 18.7488 7.27941 19.0063 6.99772 18.8963L6.97266 18.6627Z" fill="#F8A446"/>
<path d="M7.44043 17.9534C8.05712 17.882 8.75679 17.8657 9.37481 17.9406C8.95001 18.0999 8.17454 18.5096 7.74452 18.2993C7.63206 18.2443 7.51535 18.0533 7.44043 17.9534Z" fill="#F8C266"/>
<path d="M43.2231 33.0251C43.6905 32.8571 46.898 31.9453 47.2039 31.9336L47.2606 32.0266C47.2171 32.6074 47.1775 33.1886 47.1418 33.7699L46.9553 35.8568L46.866 36.672L46.7377 38.1274C46.6886 38.625 46.4215 42.4421 46.3636 42.5589C46.3547 42.4548 46.3441 42.3518 46.3303 42.2482C45.8966 42.4714 45.2144 43.2014 44.7899 43.5364C43.5104 44.5373 42.1894 45.48 40.8268 46.3644C40.3343 46.6865 39.8203 47.0626 39.2907 47.3204L39.2676 47.4258C38.6848 47.5467 38.0867 48.0677 37.5715 48.3617C36.8262 48.7872 34.4466 49.9688 33.6768 50.1323L33.7434 49.4811C34.0532 45.3967 34.5429 41.3202 34.8082 37.2337L34.843 37.1532C34.8272 36.5992 34.9408 35.994 34.9901 35.4384C35.1253 35.2415 36.1728 35.0232 36.4351 34.9384C36.8194 34.8738 37.2144 34.7342 37.5909 34.6302C38.5736 34.359 39.545 34.0582 40.5218 33.767L40.77 33.7009C41.5755 33.4657 42.3984 33.1805 43.2231 33.0251Z" fill="#232C3B"/>
<path d="M43.2228 33.0251C43.6902 32.8571 46.8977 31.9453 47.2037 31.9336L47.2604 32.0266C47.2169 32.6074 47.1773 33.1886 47.1415 33.7699C46.4057 33.8804 45.6788 34.1405 44.9642 34.3439C43.4547 34.7737 41.9057 35.2603 40.3779 35.6063C40.4047 34.9929 40.4691 34.3788 40.5216 33.767L40.7698 33.7009C41.5753 33.4657 42.3981 33.1805 43.2228 33.0251Z" fill="#161C27"/>
<path d="M36.4351 34.938C36.8194 34.8734 37.2144 34.7338 37.5909 34.6298C38.5736 34.3586 39.545 34.0578 40.5218 33.7666C40.4694 34.3784 40.4049 34.9925 40.3782 35.6059L40.3482 35.7035C39.9812 39.5695 39.5297 43.4445 39.2907 47.32L39.2676 47.4254C38.6848 47.5462 38.0867 48.0673 37.5715 48.3613C36.8262 48.7868 34.4466 49.9684 33.6768 50.1318L33.7434 49.4807C34.0532 45.3962 34.5429 41.3198 34.8082 37.2333L34.843 37.1527C34.8272 36.5987 34.9408 35.9936 34.9901 35.438C35.1253 35.2411 36.1728 35.0228 36.4351 34.938Z" fill="#CBB289"/>
<path d="M36.4364 34.938C36.8206 34.8734 37.2157 34.7338 37.5921 34.6298C38.5749 34.3586 39.5462 34.0578 40.5231 33.7666C40.4707 34.3784 40.4062 34.9925 40.3794 35.6059L40.3494 35.7035L40.3364 35.7204L40.3085 35.6548C39.7821 35.6092 35.7839 36.9587 34.8443 37.1527C34.8284 36.5987 34.942 35.9936 34.9914 35.438C35.1266 35.2411 36.1741 35.0228 36.4364 34.938Z" fill="#CC9B63"/>
<path d="M17.8225 13.2598C18.4451 13.6155 19.1585 13.892 19.7197 14.336C19.5235 14.9174 19.3539 15.4859 19.2421 16.0905L19.0711 16.0351C18.458 15.7751 17.8905 15.576 17.2285 15.4767C17.3079 14.7011 17.4943 13.9664 17.8225 13.2598Z" fill="#E8903F"/>
<path d="M20.5408 11.0938C21.673 11.183 22.5652 11.4389 23.5344 12.0475C23.822 12.228 24.1307 12.4272 24.3721 12.6669C24.3521 12.6655 24.332 12.6643 24.312 12.6625C24.1343 12.646 23.9534 12.5641 23.7767 12.526C22.9465 12.3471 22.19 12.3575 21.4532 12.8326C21.1658 12.9939 20.9177 13.1854 20.6692 13.4011C20.3641 13.6676 20.0481 13.9406 19.7906 14.2548L19.7194 14.3383C19.1582 13.8943 18.4448 13.6178 17.8223 13.2621C18.1997 12.4632 18.7395 11.8776 19.5 11.432C19.8348 11.2817 20.1883 11.1916 20.5408 11.0938Z" fill="url(#paint1_linear_467_24990)"/>
<path d="M13.3432 7.52326C13.7962 7.4804 14.3214 7.66478 14.6708 7.94948C15.1404 8.33203 15.4455 8.94527 15.5037 9.54469C15.5073 9.58179 15.51 9.6189 15.5118 9.65618C15.5135 9.69337 15.5143 9.73057 15.5141 9.76785C15.5139 9.80513 15.5127 9.84232 15.5107 9.87951C15.5087 9.91679 15.5057 9.9539 15.5017 9.99091C15.4977 10.028 15.4928 10.0649 15.487 10.1017C15.4812 10.1384 15.4744 10.1751 15.4667 10.2116C15.459 10.248 15.4504 10.2842 15.4408 10.3202C15.4313 10.3563 15.4208 10.392 15.4095 10.4275C15.3981 10.463 15.3858 10.4982 15.3727 10.533C15.3595 10.5678 15.3455 10.6024 15.3306 10.6366C15.3156 10.6707 15.2999 10.7044 15.2832 10.7378C15.2666 10.7711 15.2491 10.8039 15.2308 10.8364C15.2125 10.8689 15.1933 10.9009 15.1734 10.9323C15.1535 10.9638 15.1328 10.9948 15.1112 11.0251C15.0897 11.0555 15.0674 11.0854 15.0444 11.1147C15.0214 11.144 14.9976 11.1727 14.9731 11.2007C14.5613 11.6763 14.0138 11.9001 13.3987 11.9511C12.8793 11.9174 12.4172 11.8077 11.9944 11.4831C11.5186 11.1179 11.1947 10.5216 11.1268 9.92653C11.0622 9.36121 11.2516 8.76665 11.6072 8.32539C12.0514 7.77432 12.6686 7.58215 13.3432 7.52326Z" fill="#232C3B"/>
<path d="M21.4536 12.83C22.1904 12.3549 22.9469 12.3445 23.7771 12.5234C23.9538 12.5615 24.1347 12.6434 24.3124 12.6599C24.3324 12.6617 24.3525 12.6629 24.3725 12.6643C24.8106 13.0268 25.1108 13.4603 25.4114 13.9385L25.4105 13.9864C25.096 14.7741 24.8418 15.574 24.6851 16.409C24.5972 16.8771 24.5587 17.3721 24.4419 17.8324C24.367 18.223 24.2254 18.5736 24.0683 18.9372C23.9073 19.3315 23.7125 19.7715 23.7104 20.2044C23.5451 20.137 22.6691 18.8177 22.5018 18.5931L22.5462 18.5096C22.4532 18.2533 22.3518 17.9275 22.1675 17.7246C22.0654 17.7255 22.013 17.6895 21.9268 17.6385L21.9155 17.9061C21.4823 17.4551 21.0164 17.0804 20.4897 16.7462C20.1037 16.441 19.6966 16.2739 19.2422 16.0902C19.354 15.4857 19.5236 14.9171 19.7198 14.3357L19.791 14.2522C20.0485 13.938 20.3645 13.665 20.6696 13.3985C20.9181 13.1828 21.1662 12.9913 21.4536 12.83Z" fill="#FEFEFE"/>
<path d="M19.791 14.2531C20.0485 13.9389 20.3645 13.6659 20.6696 13.3994C21.0977 14.3144 21.4014 15.3062 21.8895 16.188C22.2764 16.8869 22.8124 17.4871 23.2201 18.1689C22.9953 18.2818 22.7679 18.3916 22.5462 18.5105C22.4532 18.2542 22.3518 17.9284 22.1675 17.7255C22.0654 17.7263 22.013 17.6904 21.9268 17.6394L21.9155 17.907C21.4823 17.456 21.0164 17.0813 20.4897 16.7471C20.1037 16.4419 19.6966 16.2748 19.2422 16.0911C19.354 15.4865 19.5236 14.918 19.7198 14.3366L19.791 14.2531Z" fill="#161C27"/>
<path d="M21.9279 17.6388C21.3769 17.0772 20.1875 15.6202 19.9887 14.8758C19.9516 14.7367 19.9472 14.6743 20.0134 14.5474C20.7603 15.5475 21.6347 16.5917 22.1686 17.7249C22.0665 17.7257 22.0142 17.6898 21.9279 17.6388Z" fill="#62748A"/>
<path d="M19.7198 14.3355L19.791 14.252C19.862 14.3426 19.9608 14.4454 20.0123 14.5468C19.9461 14.6738 19.9504 14.7362 19.9875 14.8753C20.1864 15.6197 21.3758 17.0767 21.9268 17.6383L21.9155 17.9059C21.4823 17.4549 21.0164 17.0802 20.4897 16.746C20.1037 16.4407 19.6966 16.2736 19.2422 16.09C19.354 15.4854 19.5236 14.9169 19.7198 14.3355Z" fill="#45566E"/>
<path d="M21.4541 12.83C22.191 12.3549 22.9475 12.3445 23.7777 12.5234C23.9543 12.5615 24.1353 12.6434 24.313 12.6599C24.3329 12.6617 24.353 12.6629 24.373 12.6643C24.8111 13.0268 25.1113 13.4603 25.4119 13.9385L25.4111 13.9864C25.0965 14.7741 24.8424 15.574 24.6856 16.409C24.5978 16.8771 24.5593 17.3721 24.4424 17.8324C24.1007 17.2705 23.8397 16.6346 23.522 16.0551C22.9019 14.9239 22.2159 13.8699 21.4541 12.83Z" fill="#E37B2F"/>
<path d="M16.6475 37.1387C16.8247 37.1491 16.9609 37.1489 17.1141 37.2447L17.1485 37.3063L17.2049 37.2238C17.2667 37.2243 25.884 39.5002 26.0866 39.6004C26.1816 39.6198 26.2635 39.6316 26.36 39.6198C27.102 39.5295 27.9727 39.2071 28.6998 39.0067C30.7461 38.4425 32.7716 37.8317 34.8081 37.2348C34.5428 41.3213 34.0531 45.3978 33.7434 49.4822L33.6767 50.1334C33.5102 51.8663 33.4287 53.615 33.2345 55.3434C32.7405 55.5248 32.2041 55.6354 31.6947 55.7694L28.8315 56.5233C28.1258 56.712 27.4211 56.9042 26.7174 57.1001C26.3355 57.2057 25.9378 57.3438 25.5464 57.4007C24.9738 57.133 24.2122 57.017 23.5934 56.8568L19.8854 55.8688C19.3175 55.7126 18.7258 55.5837 18.1715 55.3871L18.099 55.3452C17.9496 53.7222 17.77 52.0845 17.7007 50.4561L17.6694 50.4626C17.6259 49.716 17.5377 48.9712 17.485 48.2248C17.338 46.0067 17.1736 43.79 16.9916 41.5744C16.8702 40.1114 16.6727 38.6043 16.6475 37.1387Z" fill="#232C3B"/>
<path d="M17.7012 50.4556L17.7365 50.3447L17.7918 50.3169C17.8863 50.4773 17.9356 50.6086 17.965 50.7925C18.0859 51.55 18.0637 52.3474 18.1147 53.1137C18.1589 53.7787 18.3408 54.6941 18.2616 55.3261C18.2335 55.3467 18.2042 55.3737 18.1719 55.3866L18.0994 55.3447C17.9501 53.7217 17.7704 52.084 17.7012 50.4556Z" fill="#161C27"/>
<path d="M25.6742 53.0296C26.3567 52.7312 27.0893 52.5203 27.785 52.2493C29.8181 51.4573 31.8627 50.5945 33.7441 49.4805L33.6774 50.1316C33.5109 51.8645 33.4295 53.6133 33.2353 55.3416C32.7412 55.523 32.2049 55.6337 31.6954 55.7676L28.8323 56.5215C28.1266 56.7102 27.4219 56.9025 26.7181 57.0983C26.3362 57.2039 25.9385 57.342 25.5471 57.399C25.4725 56.5883 25.5582 55.7201 25.5962 54.9072C25.6254 54.2817 25.6233 53.6538 25.6742 53.0296Z" fill="#161C27"/>
<path d="M17.1494 37.3071L17.2058 37.2246C17.2676 37.2251 25.8849 39.5011 26.0875 39.6012C25.9741 41.4097 25.9922 43.2412 25.9312 45.0535C25.8441 47.6354 25.7076 50.2156 25.6585 52.7989C25.0266 52.5628 24.3419 52.4076 23.6937 52.2158C22.6531 51.9005 21.61 51.5938 20.5642 51.2957C19.7614 51.0739 18.951 50.8816 18.1508 50.6499C17.9454 47.6121 17.7139 44.5763 17.4562 41.5425C17.3455 40.1313 17.2846 38.7163 17.1494 37.3071Z" fill="#45566E"/>
<path d="M16.0728 24.8032C16.5411 25.0575 16.9764 25.3685 17.4502 25.6146C18.0785 25.941 18.8004 26.1792 19.471 26.4053C19.8079 26.5189 21.0161 26.7496 21.1896 26.9636C21.5794 26.9258 21.969 26.8861 22.3584 26.8444C23.2046 26.9047 24.0909 26.8163 24.9431 26.8239L25.0897 26.8489L25.5638 26.8717C26.1467 26.6682 26.8016 26.9492 27.404 26.9339C27.8322 26.923 28.4966 26.5417 28.9168 26.6539C29.361 26.5288 29.8605 26.3202 30.2764 26.1178C31.4833 25.8513 32.6759 25.5304 33.8872 25.2738C33.9828 25.3134 34.0786 25.3395 34.1829 25.3422C34.6726 25.3551 35.1693 25.3129 35.6602 25.3136C36.0471 25.314 36.5442 25.3962 36.9165 25.3346C38.3132 25.5058 39.7078 25.7714 41.0911 26.0292L41.3804 26.0557C41.4183 26.1615 41.4594 26.267 41.4926 26.3743C41.8153 27.8072 42.2603 29.2199 42.5438 30.6601C42.7648 31.4428 42.9519 32.2587 43.2219 33.0249C42.3971 33.1804 41.5743 33.4655 40.7688 33.7007L40.5206 33.7668C39.5438 34.058 38.5724 34.3588 37.5896 34.6301C37.2132 34.734 36.8181 34.8736 36.4339 34.9382C36.1716 35.0231 35.1241 35.2414 34.9889 35.4382C34.9396 35.9938 34.8259 36.599 34.8418 37.153L34.807 37.2336C32.7704 37.8304 30.7449 38.4413 28.6986 39.0054C27.9716 39.2058 27.1008 39.5282 26.3588 39.6185C26.2623 39.6303 26.1805 39.6185 26.0855 39.5991C25.8829 39.499 17.2656 37.223 17.2038 37.2225L17.1474 37.305L17.113 37.2434C16.9597 37.1476 16.8236 37.1478 16.6463 37.1374L16.6253 37.0837C16.5478 36.4822 16.5277 35.8604 16.5044 35.2542C16.3505 35.2296 16.1965 35.1878 16.0441 35.1539C15.7064 35.0268 15.3146 34.9368 14.9607 34.8661C14.6158 34.8335 14.2364 34.6809 13.9016 34.5844C13.5126 34.4404 13.0785 34.3579 12.6761 34.2528C11.9578 34.0662 11.2414 33.8728 10.5268 33.6727L8.48145 33.1415C8.63057 32.3731 8.68999 31.5692 8.79608 30.7924C8.98363 29.4566 9.18288 28.1225 9.39373 26.7902L9.40002 26.7743C9.40772 26.7347 9.41879 26.669 9.43322 26.6329C9.4767 26.5245 9.52506 26.5066 9.62193 26.4561L9.70314 26.4371L10.4041 26.237C11.7185 25.8721 13.0232 25.4591 14.3489 25.1358C14.9098 24.9991 15.5305 24.988 16.0728 24.8032Z" fill="#45566E"/>
<path d="M24.9445 26.8271L25.091 26.8521L25.5651 26.8749C27.5069 26.9915 29.4342 27.2548 31.358 27.5358C32.1939 27.658 33.0556 27.7457 33.8829 27.9125C33.3614 28.1632 32.7101 28.2827 32.1522 28.4361C30.7226 28.8159 29.2883 29.1767 27.8492 29.5186C27.1608 29.6876 26.4362 29.8274 25.7651 30.0504C25.8365 30.1287 25.916 30.1988 25.9449 30.3035C25.8499 30.4165 25.7995 30.4644 25.6559 30.504C25.5891 30.4924 25.522 30.4919 25.4655 30.4527C23.9412 30.1032 22.3994 29.832 20.8741 29.4876C19.499 29.177 18.1187 28.7627 16.7231 28.5701L16.6762 28.5425C16.6744 28.4445 16.6682 28.3547 16.7038 28.2611C16.7323 28.1863 16.7908 28.1838 16.8592 28.1525L16.5498 28.1131L16.7858 28.0177C17.2542 27.9386 17.7478 27.7528 18.2081 27.6254C19.201 27.3507 20.1691 27.1089 21.1909 26.9668C21.5807 26.929 21.9704 26.8893 22.3598 26.8476C23.206 26.9079 24.0922 26.8195 24.9445 26.8271Z" fill="#45566E"/>
<path d="M16.8584 28.1494C19.0516 28.5768 21.231 29.1079 23.4191 29.5663C24.1943 29.7287 24.9814 29.9339 25.7643 30.0473C25.8357 30.1256 25.9152 30.1957 25.9441 30.3004C25.8491 30.4134 25.7988 30.4613 25.6551 30.5009C25.5883 30.4893 25.5212 30.4887 25.4647 30.4496C23.9404 30.1001 22.3986 29.8289 20.8733 29.4845C19.4982 29.1739 18.1179 28.7596 16.7223 28.567L16.6754 28.5394C16.6736 28.4414 16.6674 28.3516 16.703 28.258C16.7315 28.1831 16.79 28.1807 16.8584 28.1494Z" fill="#8196AD"/>
<path d="M25.944 30.3019L26.113 30.2852C26.5922 31.072 26.8701 32.1949 27.1662 33.0761C27.6261 34.4445 28.1168 35.8291 28.4958 37.2214C29.2797 37.0643 34.7307 35.3712 34.9894 35.4398C34.9401 35.9954 34.8265 36.6006 34.8423 37.1546L34.8075 37.2352C32.7709 37.832 30.7454 38.4429 28.6991 39.007C27.9721 39.2074 27.1014 39.5298 26.3594 39.6201C26.2628 39.6319 26.181 39.6201 26.086 39.6007C25.8834 39.5005 17.2661 37.2246 17.2043 37.2241L17.1479 37.3066L17.1135 37.245C16.9602 37.1492 16.8241 37.1494 16.6468 37.139L16.6258 37.0853C16.5484 36.4838 16.5283 35.862 16.5049 35.2558L16.9483 35.3567C18.4145 35.7736 19.8895 36.1433 21.3646 36.5258C22.0508 36.7038 22.733 36.9171 23.4229 37.0779C23.5857 36.349 23.9062 35.6291 24.1225 34.9099C24.5339 33.5416 24.8703 32.1467 25.356 30.8019L25.4647 30.4511C25.5212 30.4902 25.5882 30.4908 25.6551 30.5024C25.7987 30.4628 25.8491 30.4149 25.944 30.3019Z" fill="url(#paint2_linear_467_24990)"/>
<path d="M16.5049 35.2544L16.9483 35.3553C17.0153 35.901 17.2009 36.7235 17.1135 37.2436C16.9602 37.1478 16.8241 37.148 16.6468 37.1376L16.6258 37.0839C16.5484 36.4824 16.5283 35.8606 16.5049 35.2544Z" fill="#161C27"/>
<path d="M25.945 30.3019L26.1139 30.2852C26.5931 31.072 26.871 32.1949 27.1671 33.0761C27.6271 34.4445 28.1177 35.8291 28.4967 37.2214C28.3901 37.2349 28.2832 37.2431 28.1761 37.252C28.1496 37.2378 28.1191 37.2293 28.0966 37.2095C28.0609 37.1781 26.2885 31.4588 25.8586 30.6908C25.7546 31.033 25.6439 31.373 25.5267 31.7109C25.4334 32.1655 25.2739 32.6177 25.1381 33.0617C24.7254 34.4116 24.1857 35.8315 23.9072 37.2094L23.4238 37.0779C23.5866 36.349 23.9072 35.6291 24.1234 34.9099C24.5348 33.5416 24.8712 32.1467 25.357 30.8019L25.4656 30.4511C25.5221 30.4902 25.5892 30.4908 25.656 30.5024C25.7996 30.4628 25.85 30.4149 25.945 30.3019Z" fill="#62748A"/>
<path d="M33.8824 27.9097C34.1461 27.9374 34.3273 27.9655 34.5335 28.138C35.0939 30.4216 35.8232 32.6671 36.4348 34.9387C36.1725 35.0235 35.125 35.2418 34.9898 35.4386C34.7311 35.37 29.2801 37.0631 28.4962 37.2202C28.1172 35.8279 27.6265 34.4434 27.1665 33.0749C26.8704 32.1937 26.5925 31.0708 26.1134 30.284L25.9444 30.3007C25.9155 30.196 25.836 30.1259 25.7646 30.0476C26.4357 29.8247 27.1603 29.6848 27.8488 29.5159C29.2879 29.174 30.7222 28.8131 32.1517 28.4333C32.7097 28.2799 33.3609 28.1605 33.8824 27.9097Z" fill="#232C3B"/>
<path d="M33.8824 27.9097C34.1461 27.9374 34.3273 27.9655 34.5335 28.138C33.0239 28.6541 31.4334 28.996 29.8875 29.3929C29.0735 29.606 28.2566 29.8079 27.4371 29.9986C27.0034 30.1008 26.5552 30.2307 26.1134 30.284L25.9444 30.3007C25.9155 30.196 25.836 30.1259 25.7646 30.0476C26.4357 29.8247 27.1603 29.6848 27.8488 29.5159C29.2879 29.174 30.7222 28.8131 32.1517 28.4333C32.7097 28.2799 33.3609 28.1605 33.8824 27.9097Z" fill="#62748A"/>
<path d="M16.0728 24.8032C16.5411 25.0575 16.9764 25.3685 17.4502 25.6146C18.0785 25.941 18.8004 26.1792 19.471 26.4053C19.8079 26.5189 21.0161 26.7496 21.1896 26.9636C20.1678 27.1057 19.1997 27.3475 18.2067 27.6223C17.7464 27.7496 17.2528 27.9354 16.7845 28.0145L16.5485 28.1099L16.8579 28.1493C16.7894 28.1806 16.731 28.1831 16.7025 28.2579C16.6669 28.3515 16.6731 28.4413 16.6748 28.5393L16.7218 28.567C16.6431 29.3544 16.5995 30.1434 16.5075 30.9299C16.3431 32.3371 16.1292 33.7382 16.0441 35.1539C15.7064 35.0268 15.3146 34.9368 14.9607 34.8661C14.6158 34.8335 14.2364 34.6809 13.9016 34.5844C13.5126 34.4404 13.0785 34.3579 12.6761 34.2528C11.9578 34.0662 11.2414 33.8728 10.5268 33.6727L8.48145 33.1415C8.63057 32.3731 8.68999 31.5692 8.79608 30.7924C8.98363 29.4566 9.18288 28.1225 9.39373 26.7902L9.40002 26.7743C9.40772 26.7347 9.41879 26.669 9.43322 26.6329C9.4767 26.5245 9.52506 26.5066 9.62193 26.4561L9.70314 26.4371L10.4041 26.237C11.7185 25.8721 13.0232 25.4591 14.3489 25.1358C14.9098 24.9991 15.5305 24.988 16.0728 24.8032Z" fill="#F9D690"/>
<path d="M9.40137 26.7747C9.40907 26.7351 9.42014 26.6694 9.43457 26.6334C9.47806 26.525 9.52641 26.5071 9.62328 26.4565C9.95784 26.8318 11.6481 27.1793 11.6674 27.308C11.2266 27.2535 9.72725 27.0027 9.40137 26.7747Z" fill="#FDE594"/>
<path d="M14.5238 27.9806C14.8864 27.9405 15.6407 28.1295 15.984 28.254C16.1736 28.2153 16.3624 28.1603 16.5502 28.113L16.8596 28.1524C16.7912 28.1837 16.7327 28.1862 16.7042 28.261C16.6686 28.3546 16.6748 28.4444 16.6766 28.5424L16.7235 28.5701C16.6449 29.3575 16.6012 30.1465 16.5093 30.933C16.3448 32.3403 16.1309 33.7413 16.0459 35.157C15.7081 35.0299 15.3164 34.9399 14.9624 34.8692C14.6175 34.8366 14.2381 34.684 13.9033 34.5875C14.0417 33.8508 14.0033 33.0393 14.0665 32.2895C14.2014 30.8513 14.3539 29.415 14.5238 27.9806Z" fill="#F5B049"/>
<path d="M15.9844 28.2533C16.174 28.2146 16.3628 28.1596 16.5507 28.1123L16.8601 28.1517C16.7916 28.183 16.7332 28.1854 16.7047 28.2603C16.6691 28.3539 16.6753 28.4437 16.677 28.5417L16.724 28.5693C16.6453 29.3568 16.6017 30.1458 16.5098 30.9323C16.3453 32.3395 16.1314 33.7405 16.0463 35.1563C15.7086 35.0292 15.3168 34.9392 14.9629 34.8685C15.0718 33.9584 15.6706 28.7548 15.9048 28.3242L15.9844 28.2533Z" fill="#324052"/>
<path d="M15.984 28.2533C16.1736 28.2146 16.3624 28.1596 16.5502 28.1123L16.8596 28.1517C16.7912 28.183 16.7327 28.1854 16.7042 28.2603C16.6686 28.3539 16.6748 28.4437 16.6766 28.5417C16.415 28.4794 16.1605 28.406 15.9043 28.3242L15.984 28.2533Z" fill="#62748A"/>
<path d="M16.075 24.8032C16.5432 25.0575 16.9785 25.3685 17.4523 25.6146C18.0806 25.941 18.8025 26.1792 19.4731 26.4053C19.81 26.5189 21.0182 26.7496 21.1917 26.9636C20.1699 27.1057 19.2018 27.3475 18.2088 27.6223C17.7485 27.7496 17.2549 27.9354 16.7866 28.0145C16.4659 27.8268 15.9365 27.7587 15.5736 27.6589L12.2143 26.7373C11.6404 26.5855 10.9418 26.4817 10.4062 26.237C11.7206 25.8721 13.0253 25.4591 14.351 25.1358C14.9119 24.9991 15.5326 24.988 16.075 24.8032Z" fill="#F8A446"/>
<path d="M30.278 26.1199C31.4849 25.8534 32.6776 25.5325 33.8888 25.2759C33.9844 25.3155 34.0803 25.3416 34.1845 25.3443C34.6742 25.3572 35.1709 25.315 35.6618 25.3156C36.0487 25.3161 36.5459 25.3983 36.9182 25.3367C38.3148 25.5079 39.7095 25.7735 41.0927 26.0312L41.382 26.0578C41.4199 26.1635 41.4611 26.2691 41.4943 26.3763C41.817 27.8092 42.262 29.222 42.5454 30.6622C42.7664 31.4449 42.9535 32.2608 43.2235 33.027C42.3988 33.1824 41.5759 33.4676 40.7704 33.7028L40.5222 33.7689C39.5454 34.0601 38.574 34.3609 37.5913 34.6322C37.2148 34.7361 36.8198 34.8757 36.4355 34.9403C35.824 32.6688 35.0946 30.4233 34.5343 28.1397C34.328 27.9671 34.1469 27.9391 33.8831 27.9113C33.0559 27.7446 32.1941 27.6569 31.3583 27.5347C29.4344 27.2537 27.5072 26.9904 25.5654 26.8738C26.1483 26.6703 26.8032 26.9513 27.4057 26.936C27.8338 26.9251 28.4983 26.5438 28.9184 26.656C29.3626 26.5309 29.8622 26.3223 30.278 26.1199Z" fill="#F8A446"/>
<path d="M42.5445 30.6602C42.7655 31.4429 42.9526 32.2587 43.2226 33.025C42.3979 33.1804 41.575 33.4656 40.7695 33.7008C41.3666 32.9539 41.7647 32.7074 42.1669 31.7455C42.3042 31.4173 42.3605 31.044 42.5121 30.7263C42.5226 30.7042 42.5337 30.6822 42.5445 30.6602Z" fill="#E37B2F"/>
<path d="M30.2788 26.1199C31.4857 25.8534 32.6783 25.5325 33.8896 25.2759C33.9852 25.3155 34.081 25.3416 34.1853 25.3443C34.675 25.3572 35.1717 25.315 35.6626 25.3156C36.0495 25.3161 36.5467 25.3983 36.9189 25.3367C38.3156 25.5079 39.7102 25.7735 41.0935 26.0312C40.9573 26.1652 40.8426 26.2628 40.6639 26.3338C39.9922 26.6004 35.555 27.5526 34.8752 27.5503C34.2744 27.5484 28.734 26.8769 28.6406 26.7834L28.9192 26.656C29.3634 26.5309 29.8629 26.3223 30.2788 26.1199Z" fill="url(#paint3_linear_467_24990)"/>
<defs>
<linearGradient id="paint0_linear_467_24990" x1="39.4877" y1="18.2484" x2="35.3587" y2="25.7444" gradientUnits="userSpaceOnUse">
<stop stop-color="#DF7D24"/>
<stop offset="1" stop-color="#FF9F3A"/>
</linearGradient>
<linearGradient id="paint1_linear_467_24990" x1="20.8" y1="14.3967" x2="21.4529" y2="11.25" gradientUnits="userSpaceOnUse">
<stop stop-color="#F79933"/>
<stop offset="1" stop-color="#FFCF50"/>
</linearGradient>
<linearGradient id="paint2_linear_467_24990" x1="29.9075" y1="31.2281" x2="21.698" y2="40.9169" gradientUnits="userSpaceOnUse">
<stop stop-color="#0F141A"/>
<stop offset="1" stop-color="#28364A"/>
</linearGradient>
<linearGradient id="paint3_linear_467_24990" x1="35.5564" y1="24.3044" x2="34.1738" y2="28.5221" gradientUnits="userSpaceOnUse">
<stop stop-color="#FFB853"/>
<stop offset="1" stop-color="#FFDB90"/>
</linearGradient>
</defs>
</svg>
