<svg width="21" height="20" viewBox="0 0 21 20" fill="none" xmlns="http://www.w3.org/2000/svg">
<path fill-rule="evenodd" clip-rule="evenodd" d="M15.9548 5C15.9548 2.23857 13.6656 0 10.8418 0C8.01799 0 5.72883 2.23857 5.72883 5H3.39866C1.86094 5 0.671184 6.31796 0.861915 7.81008L2.14016 17.8101C2.30007 19.0612 3.38761 20 4.6769 20H17.0067C18.296 20 19.3835 19.0612 19.5435 17.8101L20.8217 7.81008C21.0124 6.31795 19.8226 5 18.285 5H15.9548ZM15.9548 8.33333C15.9548 8.79358 15.5732 9.16667 15.1026 9.16667C14.632 9.16667 14.2505 8.79358 14.2505 8.33333V6.66667H3.39866C2.88608 6.66667 2.4895 7.10598 2.55307 7.60336L3.83131 17.6033C3.88462 18.0204 4.24713 18.3333 4.6769 18.3333H17.0067C17.4365 18.3333 17.799 18.0204 17.8523 17.6033L19.1305 7.60336C19.1941 7.10598 18.7975 6.66667 18.285 6.66667H15.9548V8.33333ZM7.43316 5H14.2505C14.2505 3.15905 12.7244 1.66667 10.8418 1.66667C8.95926 1.66667 7.43316 3.15905 7.43316 5Z" fill="black"/>
</svg>
