<svg width="23" height="16" viewBox="0 0 23 16" fill="none" xmlns="http://www.w3.org/2000/svg">
<g clip-path="url(#clip0_403_8970)">
<mask id="mask0_403_8970" style="mask-type:luminance" maskUnits="userSpaceOnUse" x="0" y="0" width="23" height="16">
<path d="M1.8 0.5H20.7C21.6972 0.5 22.5 1.3028 22.5 2.3V13.7C22.5 14.6972 21.6972 15.5 20.7 15.5H1.8C0.8028 15.5 0 14.6972 0 13.7V2.3C0 1.3028 0.8028 0.5 1.8 0.5Z" fill="white"/>
</mask>
<g mask="url(#mask0_403_8970)">
<path d="M0 15.5L0 10.5H22.5V15.5L0 15.5Z" fill="#27AE60"/>
<path d="M0 10.5L0 5.5L22.5 5.5V10.5L0 10.5Z" fill="white"/>
<path d="M0 5.5L0 0.5L22.5 0.5V5.5L0 5.5Z" fill="#F39C12"/>
<path d="M11.2526 10.1868C12.461 10.1868 13.4407 9.20714 13.4407 7.99867C13.4407 6.7902 12.461 5.81055 11.2526 5.81055C10.0441 5.81055 9.06445 6.7902 9.06445 7.99867C9.06445 9.20714 10.0441 10.1868 11.2526 10.1868Z" fill="#0566EA"/>
<path d="M11.2525 9.9132C12.3099 9.9132 13.1671 9.056 13.1671 7.99859C13.1671 6.94118 12.3099 6.08398 11.2525 6.08398C10.1951 6.08398 9.33789 6.94118 9.33789 7.99859C9.33789 9.056 10.1951 9.9132 11.2525 9.9132Z" fill="white"/>
<path d="M11.2521 8.38157C11.4635 8.38157 11.635 8.21013 11.635 7.99864C11.635 7.78716 11.4635 7.61572 11.2521 7.61572C11.0406 7.61572 10.8691 7.78716 10.8691 7.99864C10.8691 8.21013 11.0406 8.38157 11.2521 8.38157Z" fill="#0566EA"/>
<path d="M13.1362 8.34298C13.1886 8.34991 13.2367 8.31304 13.2437 8.26062C13.2506 8.20821 13.2137 8.1601 13.1613 8.15317C13.1089 8.14624 13.0608 8.18312 13.0539 8.23553C13.0469 8.28794 13.0838 8.33605 13.1362 8.34298Z" fill="#0566EA"/>
<path d="M11.2512 9.91259L11.3168 8.76383L11.2512 8.2168L11.1855 8.76383L11.2512 9.91259Z" fill="#0566EA"/>
<path d="M12.9838 8.81949C13.0326 8.83975 13.0886 8.8166 13.1089 8.76777C13.1292 8.71893 13.106 8.66292 13.0572 8.64265C13.0083 8.62239 12.9523 8.64554 12.9321 8.69438C12.9118 8.74321 12.9349 8.79922 12.9838 8.81949Z" fill="#0566EA"/>
<path d="M10.7551 9.84752L11.116 8.75482L11.1943 8.20938L10.9892 8.72081L10.7551 9.84752Z" fill="#0566EA"/>
<path d="M12.7112 9.23993C12.7532 9.27214 12.8133 9.26426 12.8455 9.22233C12.8777 9.18041 12.8698 9.12031 12.8279 9.0881C12.7859 9.05589 12.7258 9.06377 12.6936 9.1057C12.6614 9.14763 12.6693 9.20772 12.7112 9.23993Z" fill="#0566EA"/>
<path d="M10.2929 9.65666L10.9242 8.69465L11.1408 8.1881L10.8105 8.629L10.2929 9.65666Z" fill="#0566EA"/>
<path d="M12.3398 9.57573C12.372 9.6177 12.4321 9.62565 12.4741 9.5935C12.516 9.56134 12.524 9.50125 12.4918 9.45929C12.4597 9.41732 12.3996 9.40937 12.3576 9.44152C12.3156 9.47368 12.3077 9.53377 12.3398 9.57573Z" fill="#0566EA"/>
<path d="M9.89582 9.3519L10.7547 8.58609L11.0952 8.15287L10.6619 8.49323L9.89582 9.3519Z" fill="#0566EA"/>
<path d="M11.8987 9.80373C11.9189 9.85258 11.9749 9.87581 12.0238 9.8556C12.0726 9.83539 12.0959 9.77941 12.0757 9.73055C12.0554 9.68169 11.9995 9.65847 11.9506 9.67868C11.9017 9.69888 11.8785 9.75487 11.8987 9.80373Z" fill="#0566EA"/>
<path d="M9.59551 8.95553L10.6232 8.43799L11.0641 8.10763L10.5575 8.3243L9.59551 8.95553Z" fill="#0566EA"/>
<path d="M11.4085 9.90933C11.4154 9.96175 11.4635 9.99868 11.5159 9.99182C11.5683 9.98495 11.6052 9.93689 11.5984 9.88447C11.5915 9.83205 11.5434 9.79512 11.491 9.80198C11.4386 9.80885 11.4017 9.85691 11.4085 9.90933Z" fill="#0566EA"/>
<path d="M9.40414 8.49334L10.5309 8.25956L11.0424 8.05463L10.4969 8.13273L9.40414 8.49334Z" fill="#0566EA"/>
<path d="M10.907 9.88378C10.9001 9.93619 10.937 9.98429 10.9894 9.99122C11.0418 9.99815 11.0899 9.96128 11.0968 9.90887C11.1038 9.85645 11.0669 9.80835 11.0145 9.80142C10.9621 9.79449 10.914 9.83136 10.907 9.88378Z" fill="#0566EA"/>
<path d="M9.33748 7.99826L10.4862 8.0639L11.0332 7.99826L10.4862 7.93262L9.33748 7.99826Z" fill="#0566EA"/>
<path d="M10.4291 9.73085C10.4088 9.77968 10.4319 9.83569 10.4808 9.85596C10.5296 9.87622 10.5856 9.85306 10.6059 9.80423C10.6261 9.7554 10.603 9.69939 10.5542 9.67913C10.5053 9.65886 10.4493 9.68202 10.4291 9.73085Z" fill="#0566EA"/>
<path d="M9.40157 7.50264L10.4942 7.86356L11.0396 7.94183L10.5282 7.73674L9.40157 7.50264Z" fill="#0566EA"/>
<path d="M10.0086 9.4588C9.97637 9.50074 9.98425 9.56084 10.0262 9.59305C10.0681 9.62526 10.1282 9.61737 10.1604 9.57544C10.1926 9.53351 10.1848 9.4734 10.1428 9.44119C10.1009 9.40898 10.0408 9.41687 10.0086 9.4588Z" fill="#0566EA"/>
<path d="M9.59214 7.0405L10.5543 7.67174L11.0609 7.8884L10.6199 7.55803L9.59214 7.0405Z" fill="#0566EA"/>
<path d="M9.67277 9.0874C9.6308 9.11957 9.62285 9.17966 9.65502 9.22163C9.68718 9.2636 9.74727 9.27155 9.78924 9.23939C9.83121 9.20722 9.83916 9.14713 9.807 9.10516C9.77484 9.06319 9.71474 9.05524 9.67277 9.0874Z" fill="#0566EA"/>
<path d="M9.8969 6.64381L10.6629 7.50279L11.0961 7.8433L10.7557 7.40994L9.8969 6.64381Z" fill="#0566EA"/>
<path d="M9.44577 8.64286C9.39691 8.66307 9.37368 8.71906 9.39389 8.76792C9.4141 8.81678 9.4701 8.84001 9.51895 8.8198C9.56781 8.79959 9.59104 8.74359 9.57083 8.69474C9.55062 8.64588 9.49463 8.62265 9.44577 8.64286Z" fill="#0566EA"/>
<path d="M10.2943 6.34003L10.812 7.36777L11.1424 7.80871L10.9257 7.30211L10.2943 6.34003Z" fill="#0566EA"/>
<path d="M9.34114 8.15315C9.28871 8.16002 9.25178 8.20808 9.25865 8.26051C9.26552 8.31294 9.31358 8.34987 9.36601 8.343C9.41844 8.33613 9.45537 8.28807 9.4485 8.23564C9.44163 8.18321 9.39357 8.14628 9.34114 8.15315Z" fill="#0566EA"/>
<path d="M10.7575 6.14814L10.9914 7.27499L11.1963 7.78652L11.1182 7.24102L10.7575 6.14814Z" fill="#0566EA"/>
<path d="M9.36571 7.65359C9.3133 7.64667 9.26519 7.68355 9.25826 7.73596C9.25134 7.78838 9.28822 7.83649 9.34063 7.84342C9.39305 7.85034 9.44116 7.81346 9.44809 7.76104C9.45501 7.70863 9.41813 7.66052 9.36571 7.65359Z" fill="#0566EA"/>
<path d="M11.2506 6.08387L11.1851 7.23272L11.2508 7.77979L11.3164 7.23271L11.2506 6.08387Z" fill="#0566EA"/>
<path d="M9.51816 7.17708C9.46932 7.15681 9.4133 7.17998 9.39304 7.22881C9.37278 7.27765 9.39594 7.33367 9.44478 7.35393C9.49361 7.3742 9.54963 7.35103 9.56989 7.3022C9.59016 7.25336 9.567 7.19734 9.51816 7.17708Z" fill="#0566EA"/>
<path d="M11.7468 6.14891L11.3859 7.24172L11.3077 7.7872L11.5127 7.27572L11.7468 6.14891Z" fill="#0566EA"/>
<path d="M9.79071 6.75663C9.74878 6.72443 9.68867 6.73231 9.65647 6.77424C9.62426 6.81617 9.63214 6.87627 9.67408 6.90848C9.71601 6.94069 9.77611 6.9328 9.80832 6.89087C9.84052 6.84894 9.83264 6.78884 9.79071 6.75663Z" fill="#0566EA"/>
<path d="M12.209 6.33977L11.5778 7.30189L11.3611 7.80849L11.6915 7.36753L12.209 6.33977Z" fill="#0566EA"/>
<path d="M10.1621 6.42083C10.1299 6.37886 10.0699 6.37091 10.0279 6.40307C9.98592 6.43523 9.97797 6.49533 10.0101 6.53729C10.0423 6.57926 10.1024 6.58721 10.1443 6.55505C10.1863 6.52289 10.1943 6.4628 10.1621 6.42083Z" fill="#0566EA"/>
<path d="M12.6061 6.64452L11.7472 7.41044L11.4067 7.84371L11.84 7.5033L12.6061 6.64452Z" fill="#0566EA"/>
<path d="M10.6072 6.19285C10.587 6.14398 10.531 6.12075 10.4821 6.14096C10.4332 6.16117 10.41 6.21716 10.4302 6.26602C10.4504 6.31488 10.5064 6.33811 10.5553 6.31791C10.6041 6.2977 10.6274 6.24171 10.6072 6.19285Z" fill="#0566EA"/>
<path d="M12.9106 7.04105L11.8828 7.55857L11.4418 7.88894L11.9484 7.67229L12.9106 7.04105Z" fill="#0566EA"/>
<path d="M11.0974 6.08725C11.0905 6.03482 11.0424 5.99788 10.99 6.00475C10.9376 6.01161 10.9006 6.05967 10.9075 6.1121C10.9144 6.16453 10.9624 6.20147 11.0149 6.1946C11.0673 6.18774 11.1042 6.13968 11.0974 6.08725Z" fill="#0566EA"/>
<path d="M13.1019 7.50329L11.975 7.73702L11.4635 7.94195L12.009 7.86387L13.1019 7.50329Z" fill="#0566EA"/>
<path d="M11.5969 6.11232C11.6038 6.05991 11.567 6.01179 11.5145 6.00486C11.4621 5.99793 11.414 6.0348 11.4071 6.08722C11.4002 6.13964 11.437 6.18775 11.4894 6.19468C11.5419 6.20161 11.59 6.16474 11.5969 6.11232Z" fill="#0566EA"/>
<path d="M13.1666 7.99843L12.0178 7.9327L11.4707 7.99832L12.0178 8.064L13.1666 7.99843Z" fill="#0566EA"/>
<path d="M12.0749 6.26575C12.0951 6.21691 12.072 6.16089 12.0232 6.14062C11.9743 6.12035 11.9183 6.14351 11.898 6.19234C11.8778 6.24117 11.9009 6.29719 11.9498 6.31747C11.9986 6.33774 12.0546 6.31458 12.0749 6.26575Z" fill="#0566EA"/>
<path d="M13.1025 8.4941L12.0097 8.13306L11.4643 8.05475L11.9757 8.25989L13.1025 8.4941Z" fill="#0566EA"/>
<path d="M12.4934 6.53731C12.5256 6.49538 12.5177 6.43528 12.4758 6.40307C12.4338 6.37085 12.3737 6.37873 12.3415 6.42066C12.3093 6.46259 12.3172 6.52269 12.3591 6.55491C12.4011 6.58712 12.4612 6.57924 12.4934 6.53731Z" fill="#0566EA"/>
<path d="M12.9097 8.95572L11.9476 8.3244L11.441 8.1077L11.882 8.43811L12.9097 8.95572Z" fill="#0566EA"/>
<path d="M12.8292 6.90871C12.8711 6.87655 12.8791 6.81646 12.8469 6.77448C12.8148 6.73251 12.7547 6.72456 12.7127 6.75672C12.6707 6.78887 12.6628 6.84897 12.6949 6.89094C12.7271 6.93291 12.7872 6.94086 12.8292 6.90871Z" fill="#0566EA"/>
<path d="M12.6049 9.35238L11.8391 8.49334L11.4058 8.1528L11.7462 8.58618L12.6049 9.35238Z" fill="#0566EA"/>
<path d="M13.0562 7.35422C13.105 7.33402 13.1283 7.27803 13.1081 7.22917C13.0878 7.18031 13.0319 7.15708 12.983 7.17728C12.9341 7.19749 12.9109 7.25348 12.9311 7.30234C12.9513 7.3512 13.0073 7.37443 13.0562 7.35422Z" fill="#0566EA"/>
<path d="M12.2074 9.6566L11.6899 8.62884L11.3596 8.18788L11.5762 8.69448L12.2074 9.6566Z" fill="#0566EA"/>
<path d="M13.1608 7.84344C13.2132 7.83658 13.2502 7.78851 13.2433 7.73609C13.2364 7.68366 13.1884 7.64673 13.1359 7.65359C13.0835 7.66045 13.0466 7.70852 13.0534 7.76094C13.0603 7.81337 13.1084 7.8503 13.1608 7.84344Z" fill="#0566EA"/>
<path d="M11.7442 9.84796L11.5105 8.72111L11.3056 8.20958L11.3837 8.75507L11.7442 9.84796Z" fill="#0566EA"/>
</g>
</g>
<defs>
<clipPath id="clip0_403_8970">
<rect width="22.5" height="15" fill="white" transform="translate(0 0.5)"/>
</clipPath>
</defs>
</svg>
