<svg width="33" height="33" viewBox="0 0 33 33" fill="none" xmlns="http://www.w3.org/2000/svg">
<path d="M29.6053 0.0405273H3.39466C1.796 0.0405273 0.5 1.33653 0.5 2.93519V29.1458C0.5 30.7445 1.796 32.0405 3.39466 32.0405H29.6053C31.204 32.0405 32.5 30.7445 32.5 29.1458V2.93519C32.5 1.33653 31.204 0.0405273 29.6053 0.0405273ZM10.4022 27.6714C10.4022 28.1367 10.025 28.5138 9.55977 28.5138H5.97393C5.50867 28.5138 5.13154 28.1367 5.13154 27.6714V12.6397C5.13154 12.1745 5.50867 11.7973 5.97393 11.7973H9.55977C10.025 11.7973 10.4022 12.1745 10.4022 12.6397V27.6714ZM7.76685 10.3804C5.88547 10.3804 4.36027 8.85519 4.36027 6.9738C4.36027 5.09242 5.88547 3.56723 7.76685 3.56723C9.64823 3.56723 11.1734 5.09242 11.1734 6.9738C11.1734 8.85519 9.64831 10.3804 7.76685 10.3804ZM29.1417 27.7393C29.1417 28.167 28.7949 28.5138 28.3671 28.5138H24.5193C24.0915 28.5138 23.7447 28.167 23.7447 27.7393V20.6886C23.7447 19.6368 24.0533 16.0795 20.996 16.0795C18.6246 16.0795 18.1436 18.5143 18.047 19.607V27.7393C18.047 28.167 17.7003 28.5138 17.2724 28.5138H13.5509C13.1232 28.5138 12.7764 28.167 12.7764 27.7393V12.5719C12.7764 12.1442 13.1232 11.7973 13.5509 11.7973H17.2724C17.7002 11.7973 18.047 12.1442 18.047 12.5719V13.8833C18.9263 12.5637 20.2331 11.5451 23.0155 11.5451C29.1769 11.5451 29.1417 17.3014 29.1417 20.4642V27.7393Z" fill="#0077B7"/>
</svg>
