<svg width="363" height="276" viewBox="0 0 363 276" fill="none" xmlns="http://www.w3.org/2000/svg">
<rect x="53.002" width="321.62" height="196.546" rx="18.7612" transform="rotate(15.5868 53.002 0)" fill="url(#paint0_linear_403_8829)"/>
<mask id="mask0_403_8829" style="mask-type:alpha" maskUnits="userSpaceOnUse" x="4" y="4" width="355" height="268">
<rect x="53.002" y="0.000488281" width="321.62" height="196.546" rx="18.7612" transform="rotate(15.5868 53.002 0.000488281)" fill="url(#paint1_linear_403_8829)"/>
</mask>
<g mask="url(#mask0_403_8829)">
<path d="M170.488 94.1963C130.322 20.8494 69.5203 20.5834 34.3198 23.749L-12.0101 189.832L303.127 287.016L328.939 254.334C214.329 236.276 219.646 183.964 170.488 94.1963Z" fill="url(#paint2_linear_403_8829)" fill-opacity="0.15"/>
</g>
<path d="M80.6503 54.9173C79.5029 54.5973 78.6817 54.0121 78.1868 53.1617C77.6945 52.3021 77.6263 51.2344 77.9822 49.9585L78.5968 47.7556C78.9527 46.4797 79.5624 45.606 80.426 45.1346C81.2922 44.654 82.299 44.5738 83.4464 44.8938C84.5846 45.2113 85.3682 45.7713 85.7974 46.5736C86.2357 47.3785 86.3012 48.3317 85.994 49.4332L85.9748 49.5021L84.832 49.1833L84.8627 49.0731C85.065 48.348 85.0328 47.7009 84.7661 47.1318C84.5112 46.5562 83.9752 46.1544 83.1583 45.9265C82.3414 45.6986 81.633 45.7731 81.0332 46.1499C80.436 46.5175 80.0119 47.1511 79.761 48.0507L79.1311 50.3087C78.8802 51.2082 78.9138 51.9745 79.2319 52.6073C79.5526 53.231 80.1214 53.6568 80.9383 53.8847C81.7552 54.1126 82.4205 54.0508 82.934 53.6994C83.4593 53.3414 83.8231 52.7998 84.0254 52.0747L84.0868 51.8544L85.2296 52.1732L85.1797 52.3522C84.8724 53.4536 84.323 54.2353 83.5313 54.6971C82.7488 55.1614 81.7885 55.2349 80.6503 54.9173ZM86.0958 56.2287L87.974 49.4958L89.0342 49.7916L88.8037 50.6177L88.9965 50.6715C89.1977 50.411 89.4415 50.2465 89.7277 50.178C90.014 50.1094 90.359 50.1315 90.7629 50.2441L91.5615 50.4669L91.2849 51.4582L90.4175 51.2163C89.931 51.0806 89.4979 51.1082 89.1182 51.299C88.7502 51.4833 88.4868 51.86 88.3281 52.4291L87.1835 56.5321L86.0958 56.2287ZM94.0743 58.6621C93.395 58.4726 92.8381 58.1639 92.4034 57.7359C91.9713 57.2988 91.686 56.779 91.5474 56.1764C91.4088 55.5738 91.4355 54.9283 91.6276 54.2399L91.6736 54.0746C91.8682 53.377 92.1808 52.8063 92.6113 52.3625C93.0418 51.9187 93.5492 51.6249 94.1334 51.4812C94.7202 51.3283 95.3394 51.3427 95.9911 51.5245C96.6245 51.7012 97.146 51.9951 97.5557 52.4061C97.9679 52.8081 98.2413 53.2998 98.3758 53.8815C98.5104 54.4632 98.4829 55.0936 98.2934 55.7729L98.1552 56.2685L92.6615 54.736C92.4868 55.4689 92.5621 56.1033 92.8874 56.6392C93.2154 57.166 93.7098 57.5216 94.3707 57.7059C94.9489 57.8673 95.4313 57.8583 95.8176 57.6792C96.2039 57.5001 96.5309 57.25 96.7986 56.9289L97.6081 57.6444C97.391 57.8906 97.1189 58.1214 96.7917 58.3368C96.4737 58.5548 96.0904 58.7051 95.6419 58.7877C95.2026 58.8729 94.6801 58.8311 94.0743 58.6621ZM92.9249 53.8449L97.3033 55.0663C97.4407 54.4319 97.3607 53.8852 97.0633 53.4263C96.7751 52.97 96.3281 52.6573 95.7223 52.4883C95.1073 52.3168 94.5538 52.3503 94.0618 52.589C93.5698 52.8277 93.1908 53.2464 92.9249 53.8449ZM101.988 60.8698C101.41 60.7084 100.916 60.4222 100.506 60.0112C100.097 59.6001 99.8227 59.0932 99.6841 58.4907C99.5455 57.8881 99.576 57.2288 99.7757 56.5128L99.8257 56.3339C100.025 55.6179 100.339 55.0426 100.767 54.6079C101.198 54.1641 101.69 53.8711 102.244 53.7289C102.81 53.58 103.387 53.5875 103.974 53.7514C104.442 53.882 104.819 54.0564 105.104 54.2745C105.402 54.486 105.624 54.7163 105.772 54.9654C105.923 55.2053 106.024 55.4462 106.075 55.688L106.268 55.7418L107.374 51.7764L108.462 52.0799L105.773 61.7179L104.713 61.4221L105.024 60.3069L104.832 60.2531C104.553 60.5415 104.184 60.765 103.724 60.9237C103.265 61.0823 102.686 61.0644 101.988 60.8698ZM102.546 59.9866C103.244 60.1812 103.87 60.1184 104.424 59.7981C104.99 59.4713 105.385 58.9086 105.608 58.11L105.642 57.9861C105.865 57.1875 105.817 56.5064 105.5 55.9429C105.194 55.3728 104.692 54.9905 103.994 54.7959C103.306 54.6038 102.674 54.67 102.099 54.9943C101.535 55.312 101.142 55.8701 100.919 56.6687L100.885 56.7926C100.662 57.5912 100.708 58.2768 101.023 58.8495C101.35 59.4155 101.858 59.7946 102.546 59.9866ZM108.053 62.3537L109.931 55.6209L111.019 55.9243L109.141 62.6571L108.053 62.3537ZM110.774 54.7281C110.535 54.6615 110.355 54.5272 110.233 54.3251C110.121 54.1255 110.098 53.9064 110.164 53.6677C110.233 53.4199 110.368 53.2397 110.567 53.1272C110.776 53.0172 111 52.9956 111.238 53.0621C111.477 53.1287 111.653 53.2618 111.765 53.4613C111.878 53.6609 111.899 53.8846 111.83 54.1325C111.764 54.3711 111.631 54.5467 111.431 54.6592C111.231 54.7717 111.012 54.7947 110.774 54.7281ZM113.906 63.9865C113.521 63.879 113.252 63.6902 113.1 63.4202C112.956 63.1527 112.936 62.8354 113.039 62.4683L114.321 57.8696L112.297 57.305L112.562 56.3549L114.586 56.9195L115.255 54.5238L116.342 54.8272L115.674 57.223L117.877 57.8375L117.612 58.7875L115.409 58.173L114.172 62.6065C114.096 62.8818 114.19 63.0567 114.456 63.1309L115.957 63.5496L115.696 64.4858L113.906 63.9865Z" fill="white"/>
<path d="M287.764 98.2976L275.566 113.732L270.788 112.399L271.076 97.4444C271.097 96.5254 270.996 96.1579 270.43 95.6106C269.508 94.7178 267.868 93.6646 266.386 92.8794L266.635 92.4034L274.326 94.5489C274.828 94.6886 275.265 95.0034 275.556 95.4367C275.847 95.8699 275.973 96.3929 275.912 96.9113L274.995 107.556L283.017 96.9732L287.764 98.2976ZM303.202 115.292C304.508 110.683 298.183 108.645 298.803 106.596C298.992 105.973 299.774 105.473 301.127 105.666C302.697 105.948 304.162 106.648 305.367 107.694L307.193 104.208C305.983 103.322 304.625 102.66 303.182 102.252C298.714 101.005 294.907 102.507 293.93 105.9C293.2 108.408 295.082 110.443 296.561 111.76C298.084 113.108 298.523 113.823 298.3 114.585C297.96 115.757 296.425 115.884 295.119 115.542C292.837 114.943 291.701 113.928 290.784 113.144L288.898 116.744C289.819 117.524 291.649 118.492 293.664 119.074C298.411 120.398 302.172 118.92 303.202 115.292ZM313.406 124.287L317.587 125.454L318.815 106.959L314.955 105.883C314.544 105.764 314.106 105.771 313.699 105.904C313.292 106.037 312.935 106.289 312.672 106.628L301.375 120.931L306.12 122.255L307.793 119.907L313.591 121.524L313.406 124.287ZM310.092 116.689L314.3 110.789L313.84 117.734L310.092 116.689ZM294.222 100.099L285.611 116.534L281.09 115.272L289.705 98.8391L294.222 100.099Z" fill="white"/>
<path d="M58.9557 138.731L59.5736 136.516L53.9199 134.939L54.3347 133.452L60.8806 127.582L63.235 128.239L61.1437 135.736L63.0024 136.254L62.687 137.385L60.8282 136.866L60.2104 139.081L58.9557 138.731ZM55.49 134.159L59.889 135.386L61.7686 128.648L61.5518 128.587L55.5418 133.973L55.49 134.159ZM68.0186 141.493C67.1821 141.26 66.4887 140.933 65.9383 140.512C65.401 140.084 65.0254 139.595 64.8114 139.046C64.6105 138.489 64.5965 137.901 64.7694 137.281L64.8169 137.111C64.9667 136.574 65.2042 136.162 65.5293 135.874C65.8544 135.586 66.2029 135.394 66.5749 135.297C66.9601 135.193 67.2993 135.155 67.5925 135.181L67.6487 134.979C67.3929 134.819 67.1412 134.604 66.8936 134.335C66.6563 134.068 66.4842 133.747 66.3773 133.373C66.2807 133.001 66.2973 132.582 66.4269 132.118L66.4744 131.947C66.6386 131.359 66.9436 130.904 67.3892 130.583C67.8481 130.255 68.4035 130.059 69.0555 129.996C69.7075 129.933 70.4104 130.007 71.1642 130.217C71.9284 130.43 72.5679 130.731 73.0828 131.119C73.608 131.511 73.9768 131.964 74.1892 132.48C74.4147 132.988 74.4454 133.536 74.2812 134.125L74.2337 134.295C74.104 134.76 73.9016 135.126 73.6265 135.395C73.3513 135.663 73.0432 135.85 72.7022 135.955C72.3612 136.06 72.0346 136.114 71.7225 136.116L71.6663 136.317C71.941 136.449 72.2111 136.658 72.4765 136.944C72.7447 137.219 72.9383 137.562 73.0572 137.974C73.1865 138.388 73.1762 138.864 73.0264 139.401L72.9789 139.571C72.806 140.191 72.4896 140.687 72.0295 141.06C71.5723 141.422 70.9979 141.646 70.3063 141.731C69.6279 141.809 68.8654 141.73 68.0186 141.493ZM68.334 140.363C69.2118 140.607 69.9512 140.63 70.5522 140.43C71.1636 140.234 71.56 139.81 71.7415 139.16L71.7761 139.036C71.9576 138.385 71.8428 137.819 71.4319 137.337C71.021 136.855 70.3715 136.49 69.4834 136.242C68.6056 135.998 67.8662 135.975 67.2652 136.175C66.6641 136.374 66.2729 136.799 66.0914 137.45L66.0568 137.574C65.8753 138.224 65.9901 138.791 66.401 139.272C66.8223 139.757 67.4666 140.121 68.334 140.363ZM69.7988 135.112C70.6249 135.342 71.3135 135.367 71.8646 135.187C72.429 134.999 72.7918 134.617 72.9531 134.038L72.9876 133.914C73.1518 133.326 73.0396 132.81 72.651 132.368C72.2653 131.915 71.6646 131.575 70.8488 131.348C70.033 131.12 69.343 131.1 68.7786 131.288C68.2172 131.465 67.8544 131.848 67.6902 132.437L67.6556 132.56C67.4943 133.139 67.6065 133.654 67.9922 134.107C68.3808 134.549 68.983 134.884 69.7988 135.112ZM78.5832 144.44C77.3544 144.098 76.4742 143.463 75.9427 142.535C75.4243 141.6 75.3683 140.405 75.7744 138.949L76.4831 136.409C76.8864 134.963 77.5517 133.974 78.4791 133.443C79.4168 132.914 80.5 132.821 81.7289 133.164C82.968 133.51 83.8468 134.15 84.3651 135.085C84.8938 136.022 84.9564 137.214 84.5532 138.66L83.8445 141.2C83.4384 142.656 82.7664 143.648 81.8287 144.177C80.9042 144.698 79.8224 144.786 78.5832 144.44ZM78.8987 143.31C79.828 143.569 80.6029 143.485 81.2231 143.057C81.8433 142.629 82.2932 141.914 82.5726 140.912L83.3201 138.232C83.5995 137.231 83.5781 136.39 83.2557 135.71C82.9363 135.02 82.3222 134.548 81.4134 134.295C80.5047 134.041 79.7351 134.127 79.1045 134.552C78.4843 134.98 78.0359 135.69 77.7593 136.681L77.0118 139.361C76.7295 140.373 76.7429 141.222 77.0521 141.91C77.3641 142.587 77.9796 143.053 78.8987 143.31ZM85.2055 146.054L85.5209 144.923C85.737 144.149 86.0441 143.567 86.4422 143.177C86.8506 142.79 87.3364 142.525 87.8995 142.381C88.4759 142.231 89.1336 142.147 89.8728 142.13L90.7981 142.105C91.3032 142.09 91.76 142.028 92.1687 141.92C92.5803 141.801 92.9289 141.608 93.2144 141.343C93.5027 141.067 93.7132 140.692 93.8457 140.217L93.863 140.155C94.0531 139.473 93.9654 138.87 93.5998 138.345C93.2372 137.81 92.6841 137.439 91.9406 137.231C91.1558 137.012 90.4565 137.046 89.8427 137.331C89.2318 137.605 88.8083 138.166 88.5721 139.013L88.5116 139.23L87.2724 138.884L87.3286 138.683C87.5475 137.898 87.9037 137.279 88.3971 136.827C88.8906 136.375 89.4705 136.092 90.1369 135.977C90.8061 135.852 91.5125 135.893 92.256 136.101C92.9995 136.308 93.6163 136.63 94.1065 137.068C94.607 137.508 94.9482 138.02 95.1301 138.605C95.3119 139.19 95.3106 139.813 95.1263 140.474L95.0874 140.613C94.8915 141.316 94.5894 141.86 94.1809 142.247C93.7754 142.624 93.2844 142.887 92.7081 143.038C92.1421 143.192 91.4998 143.28 90.7813 143.302L89.8714 143.332C89.2987 143.35 88.8109 143.404 88.4079 143.492C88.0182 143.572 87.6966 143.727 87.4433 143.957C87.19 144.187 86.9971 144.539 86.8646 145.014L86.7911 145.278L93.1883 147.062L92.8729 148.193L85.2055 146.054ZM109.571 152.851L109.887 151.72C110.103 150.946 110.41 150.364 110.808 149.974C111.217 149.587 111.702 149.322 112.265 149.178C112.842 149.028 113.5 148.944 114.239 148.927L115.164 148.902C115.669 148.887 116.126 148.825 116.535 148.717C116.946 148.598 117.295 148.405 117.58 148.14C117.869 147.864 118.079 147.489 118.212 147.014L118.229 146.952C118.419 146.27 118.331 145.667 117.966 145.142C117.603 144.607 117.05 144.236 116.306 144.028C115.522 143.809 114.822 143.843 114.209 144.128C113.598 144.402 113.174 144.963 112.938 145.81L112.877 146.027L111.638 145.681L111.694 145.48C111.913 144.695 112.27 144.076 112.763 143.624C113.256 143.172 113.836 142.889 114.503 142.774C115.172 142.649 115.878 142.69 116.622 142.898C117.365 143.105 117.982 143.427 118.472 143.865C118.973 144.305 119.314 144.817 119.496 145.402C119.678 145.987 119.677 146.61 119.492 147.271L119.453 147.41C119.257 148.113 118.955 148.657 118.547 149.044C118.141 149.421 117.65 149.684 117.074 149.835C116.508 149.989 115.866 150.077 115.147 150.099L114.237 150.129C113.665 150.147 113.177 150.201 112.774 150.289C112.384 150.369 112.063 150.524 111.809 150.754C111.556 150.984 111.363 151.336 111.23 151.811L111.157 152.075L117.554 153.859L117.239 154.99L109.571 152.851ZM119.679 155.671L119.994 154.54C120.21 153.765 120.518 153.183 120.916 152.793C121.324 152.407 121.81 152.141 122.373 151.998C122.949 151.847 123.607 151.763 124.346 151.747L125.272 151.721C125.777 151.706 126.234 151.645 126.642 151.536C127.054 151.417 127.402 151.225 127.688 150.96C127.976 150.684 128.187 150.309 128.319 149.834L128.336 149.772C128.527 149.09 128.439 148.487 128.073 147.962C127.711 147.427 127.158 147.055 126.414 146.848C125.629 146.629 124.93 146.662 124.316 146.947C123.705 147.222 123.282 147.783 123.046 148.63L122.985 148.846L121.746 148.501L121.802 148.299C122.021 147.515 122.377 146.896 122.871 146.444C123.364 145.992 123.944 145.708 124.61 145.594C125.28 145.469 125.986 145.51 126.729 145.717C127.473 145.925 128.09 146.247 128.58 146.684C129.081 147.124 129.422 147.637 129.604 148.222C129.785 148.807 129.784 149.43 129.6 150.091L129.561 150.23C129.365 150.932 129.063 151.477 128.654 151.864C128.249 152.24 127.758 152.504 127.182 152.655C126.616 152.809 125.973 152.897 125.255 152.919L124.345 152.949C123.772 152.967 123.284 153.02 122.881 153.108C122.492 153.189 122.17 153.344 121.917 153.574C121.663 153.803 121.471 154.156 121.338 154.631L121.265 154.894L127.662 156.679L127.346 157.809L119.679 155.671ZM132.946 159.372L135.738 149.365L135.505 149.301L132.323 152.57L130.96 152.19L134.856 148.218L137.226 148.879L134.201 159.722L132.946 159.372ZM140.832 161.805C140.037 161.583 139.392 161.242 138.897 160.781C138.405 160.31 138.074 159.761 137.904 159.135C137.736 158.498 137.752 157.824 137.951 157.111L138.002 156.926L139.257 157.276L139.218 157.415C138.991 158.231 139.054 158.922 139.408 159.488C139.762 160.054 140.331 160.447 141.116 160.666C141.942 160.896 142.652 160.844 143.247 160.509C143.841 160.174 144.251 159.603 144.475 158.798L144.514 158.659C144.73 157.884 144.674 157.206 144.347 156.625C144.032 156.037 143.519 155.643 142.806 155.444C142.393 155.329 142.034 155.301 141.728 155.36C141.425 155.409 141.169 155.51 140.959 155.663C140.752 155.806 140.573 155.951 140.42 156.097L138.717 155.622L140.354 149.752L147.479 151.739L147.164 152.87L141.293 151.232L140.248 154.981L140.465 155.041C140.636 154.867 140.847 154.708 141.098 154.567C141.359 154.428 141.679 154.339 142.057 154.3C142.435 154.261 142.877 154.312 143.383 154.453C144.013 154.629 144.541 154.932 144.966 155.362C145.402 155.795 145.695 156.322 145.844 156.943C146.004 157.566 145.981 158.25 145.773 158.993L145.726 159.163C145.521 159.897 145.186 160.499 144.721 160.97C144.255 161.441 143.689 161.756 143.021 161.915C142.357 162.064 141.627 162.027 140.832 161.805ZM164.501 168.174L167.292 158.168L167.06 158.103L163.877 161.372L162.514 160.992L166.41 157.02L168.78 157.681L165.755 168.524L164.501 168.174ZM171.749 170.196L174.541 160.19L174.308 160.125L171.126 163.394L169.763 163.014L173.659 159.042L176.029 159.703L173.004 170.546L171.749 170.196ZM179.774 172.668C178.937 172.435 178.244 172.108 177.693 171.687C177.156 171.259 176.781 170.77 176.567 170.221C176.366 169.664 176.352 169.076 176.525 168.456L176.572 168.286C176.722 167.749 176.959 167.336 177.284 167.049C177.61 166.761 177.958 166.569 178.33 166.472C178.715 166.368 179.055 166.329 179.348 166.355L179.404 166.154C179.148 165.994 178.896 165.779 178.649 165.509C178.412 165.243 178.239 164.922 178.133 164.547C178.036 164.175 178.052 163.757 178.182 163.292L178.23 163.122C178.394 162.533 178.699 162.079 179.144 161.758C179.603 161.429 180.159 161.234 180.811 161.171C181.463 161.108 182.166 161.181 182.919 161.392C183.684 161.605 184.323 161.906 184.838 162.294C185.363 162.686 185.732 163.139 185.944 163.655C186.17 164.163 186.201 164.711 186.036 165.3L185.989 165.47C185.859 165.935 185.657 166.301 185.382 166.57C185.107 166.838 184.798 167.025 184.457 167.13C184.116 167.235 183.79 167.289 183.478 167.291L183.421 167.492C183.696 167.624 183.966 167.833 184.232 168.119C184.5 168.394 184.694 168.737 184.812 169.149C184.942 169.563 184.931 170.039 184.782 170.576L184.734 170.746C184.561 171.366 184.245 171.862 183.785 172.234C183.328 172.597 182.753 172.82 182.062 172.906C181.383 172.984 180.621 172.904 179.774 172.668ZM180.089 171.537C180.967 171.782 181.706 171.805 182.307 171.605C182.919 171.409 183.315 170.985 183.497 170.334L183.531 170.21C183.713 169.56 183.598 168.994 183.187 168.512C182.776 168.03 182.127 167.665 181.239 167.417C180.361 167.172 179.621 167.15 179.02 167.349C178.419 167.549 178.028 167.974 177.847 168.625L177.812 168.749C177.631 169.399 177.745 169.965 178.156 170.447C178.577 170.932 179.222 171.295 180.089 171.537ZM181.554 166.286C182.38 166.517 183.069 166.542 183.62 166.362C184.184 166.174 184.547 165.791 184.708 165.213L184.743 165.089C184.907 164.501 184.795 163.985 184.406 163.543C184.021 163.09 183.42 162.75 182.604 162.522C181.788 162.295 181.098 162.275 180.534 162.463C179.972 162.64 179.61 163.023 179.445 163.611L179.411 163.735C179.25 164.314 179.362 164.829 179.747 165.282C180.136 165.724 180.738 166.059 181.554 166.286ZM190.075 175.542C189.311 175.329 188.665 174.992 188.136 174.533C187.618 174.077 187.259 173.526 187.061 172.881C186.873 172.239 186.887 171.53 187.103 170.756L187.185 170.462L188.44 170.812L188.362 171.09C188.14 171.886 188.219 172.581 188.598 173.176C188.977 173.772 189.575 174.183 190.391 174.411C191.217 174.642 191.916 174.608 192.488 174.312C193.074 174.008 193.458 173.53 193.639 172.88L193.674 172.756C193.806 172.281 193.799 171.867 193.653 171.515C193.509 171.152 193.26 170.848 192.905 170.605C192.563 170.354 192.16 170.163 191.695 170.034L189.929 169.541L190.366 167.977L195.24 166.482L195.292 166.296L189.112 164.572L189.427 163.441L196.94 165.537L196.451 167.287L191.683 168.761L191.631 168.947L192.405 169.163C193.015 169.333 193.541 169.602 193.983 169.971C194.439 170.332 194.755 170.776 194.93 171.303C195.119 171.824 195.121 172.414 194.937 173.075L194.889 173.245C194.699 173.927 194.374 174.476 193.912 174.893C193.451 175.309 192.892 175.576 192.236 175.694C191.58 175.811 190.86 175.761 190.075 175.542ZM215.973 182.532L216.591 180.317L210.937 178.74L211.352 177.253L217.898 171.383L220.252 172.04L218.161 179.537L220.019 180.055L219.704 181.186L217.845 180.667L217.227 182.882L215.973 182.532ZM212.507 177.959L216.906 179.187L218.786 172.449L218.569 172.388L212.559 177.774L212.507 177.959ZM221.1 183.963L221.415 182.832C221.631 182.057 221.938 181.475 222.336 181.085C222.745 180.699 223.231 180.433 223.794 180.29C224.37 180.139 225.028 180.055 225.767 180.039L226.692 180.013C227.197 179.998 227.654 179.937 228.063 179.828C228.475 179.709 228.823 179.517 229.109 179.252C229.397 178.976 229.607 178.6 229.74 178.125L229.757 178.064C229.947 177.382 229.86 176.779 229.494 176.254C229.131 175.719 228.578 175.347 227.835 175.14C227.05 174.921 226.351 174.954 225.737 175.239C225.126 175.514 224.702 176.075 224.466 176.921L224.406 177.138L223.167 176.793L223.223 176.591C223.442 175.806 223.798 175.188 224.291 174.736C224.785 174.283 225.365 174 226.031 173.885C226.7 173.761 227.407 173.802 228.15 174.009C228.894 174.217 229.511 174.539 230.001 174.976C230.501 175.416 230.842 175.929 231.024 176.514C231.206 177.099 231.205 177.722 231.021 178.383L230.982 178.522C230.786 179.224 230.484 179.769 230.075 180.156C229.67 180.532 229.179 180.796 228.602 180.947C228.036 181.101 227.394 181.189 226.676 181.211L225.766 181.241C225.193 181.259 224.705 181.312 224.302 181.4C223.912 181.481 223.591 181.636 223.338 181.866C223.084 182.095 222.891 182.448 222.759 182.923L222.685 183.186L229.083 184.971L228.767 186.101L221.1 183.963ZM235.143 188.114C234.307 187.88 233.613 187.553 233.063 187.133C232.526 186.705 232.15 186.216 231.936 185.666C231.735 185.11 231.721 184.521 231.894 183.902L231.941 183.731C232.091 183.194 232.329 182.782 232.654 182.494C232.979 182.207 233.328 182.014 233.699 181.918C234.085 181.814 234.424 181.775 234.717 181.801L234.773 181.6C234.517 181.439 234.266 181.224 234.018 180.955C233.781 180.689 233.609 180.368 233.502 179.993C233.405 179.621 233.422 179.203 233.551 178.738L233.599 178.568C233.763 177.979 234.068 177.524 234.514 177.203C234.973 176.875 235.528 176.679 236.18 176.616C236.832 176.553 237.535 176.627 238.289 176.837C239.053 177.051 239.692 177.351 240.207 177.74C240.733 178.131 241.101 178.585 241.314 179.1C241.539 179.608 241.57 180.157 241.406 180.745L241.358 180.916C241.229 181.38 241.026 181.747 240.751 182.015C240.476 182.283 240.168 182.47 239.827 182.575C239.486 182.681 239.159 182.734 238.847 182.736L238.791 182.938C239.066 183.07 239.336 183.279 239.601 183.564C239.869 183.839 240.063 184.183 240.182 184.594C240.311 185.009 240.301 185.485 240.151 186.022L240.103 186.192C239.931 186.811 239.614 187.308 239.154 187.68C238.697 188.042 238.122 188.266 237.431 188.351C236.753 188.429 235.99 188.35 235.143 188.114ZM235.459 186.983C236.336 187.228 237.076 187.251 237.677 187.051C238.288 186.854 238.685 186.431 238.866 185.78L238.901 185.656C239.082 185.005 238.967 184.439 238.556 183.957C238.146 183.475 237.496 183.111 236.608 182.863C235.73 182.618 234.991 182.595 234.39 182.795C233.789 182.995 233.397 183.42 233.216 184.07L233.181 184.194C233 184.845 233.115 185.411 233.526 185.893C233.947 186.378 234.591 186.741 235.459 186.983ZM236.923 181.732C237.749 181.963 238.438 181.988 238.989 181.807C239.554 181.62 239.916 181.237 240.078 180.659L240.112 180.535C240.276 179.946 240.164 179.431 239.776 178.988C239.39 178.536 238.789 178.196 237.973 177.968C237.158 177.741 236.468 177.721 235.903 177.908C235.342 178.085 234.979 178.468 234.815 179.057L234.78 179.181C234.619 179.759 234.731 180.275 235.117 180.727C235.505 181.17 236.108 181.505 236.923 181.732ZM245.383 190.97C244.587 190.748 243.945 190.419 243.455 189.982C242.978 189.537 242.664 189.026 242.513 188.45C242.362 187.874 242.374 187.271 242.55 186.641L243.805 186.991C243.626 187.631 243.692 188.211 244.003 188.732C244.317 189.243 244.882 189.612 245.698 189.839C246.555 190.078 247.274 190.034 247.855 189.707C248.45 189.372 248.859 188.801 249.084 187.996L249.503 186.493L249.302 186.437C249.019 186.692 248.623 186.893 248.115 187.041C247.619 187.181 246.984 187.143 246.21 186.927C245.559 186.746 245.001 186.434 244.534 185.992C244.078 185.553 243.763 185.026 243.59 184.41C243.417 183.794 243.431 183.124 243.632 182.402L243.684 182.216C243.892 181.472 244.239 180.885 244.727 180.453C245.217 180.011 245.792 179.726 246.451 179.598C247.123 179.463 247.831 179.499 248.575 179.707C249.328 179.917 249.953 180.252 250.447 180.713C250.955 181.167 251.298 181.713 251.476 182.352C251.657 182.982 251.64 183.678 251.427 184.442L250.373 188.222C250.148 189.027 249.795 189.675 249.314 190.164C248.846 190.645 248.274 190.959 247.599 191.104C246.927 191.24 246.188 191.195 245.383 190.97ZM246.829 185.964C247.345 186.108 247.828 186.132 248.278 186.035C248.731 185.928 249.118 185.718 249.439 185.407C249.772 185.088 250.01 184.676 250.151 184.17L250.186 184.046C250.402 183.271 250.327 182.6 249.963 182.031C249.612 181.454 249.044 181.056 248.259 180.837C247.474 180.618 246.777 180.663 246.168 180.972C245.562 181.27 245.151 181.807 244.935 182.581L244.9 182.705C244.759 183.211 244.743 183.685 244.854 184.128C244.977 184.563 245.205 184.944 245.537 185.27C245.882 185.589 246.313 185.82 246.829 185.964Z" fill="white"/>
<path d="M45.0031 168.714L47.3556 160.281L49.2832 160.819L49.3497 169.239L49.5063 169.282L53.9215 162.113L55.8491 162.65L53.4966 171.084L52.5207 170.811L54.6884 163.041L54.5197 162.994L50.1233 170.143L48.3764 169.655L48.3153 161.263L48.1466 161.216L45.9789 168.986L45.0031 168.714ZM56.3908 171.891L58.7433 163.458L63.9358 164.906L63.6804 165.822L59.4999 164.656L58.7135 167.475L62.5566 168.547L62.3012 169.462L58.4581 168.39L57.6582 171.258L61.8989 172.441L61.6435 173.356L56.3908 171.891ZM64.1431 174.053L66.4956 165.62L67.5076 165.903L65.4105 173.42L69.6753 174.61L69.4199 175.525L64.1431 174.053ZM71.6836 176.157L74.0361 167.724L75.0481 168.006L72.951 175.524L77.2158 176.713L76.9604 177.629L71.6836 176.157ZM79.2241 178.26L81.5766 169.827L82.5886 170.109L80.2361 178.543L79.2241 178.26ZM85.8892 180.301C85.2788 180.131 84.7629 179.87 84.3415 179.519C83.92 179.168 83.6293 178.736 83.4692 178.224C83.3193 177.706 83.3362 177.118 83.52 176.459L83.5905 176.206L84.5905 176.485L84.5199 176.738C84.325 177.437 84.3842 178.016 84.6974 178.476C85.013 178.927 85.492 179.243 86.1345 179.422C86.7931 179.606 87.3365 179.597 87.7648 179.396C88.193 179.196 88.4699 178.87 88.5954 178.42C88.6828 178.107 88.6719 177.836 88.5628 177.606C88.4617 177.379 88.2863 177.17 88.0366 176.979C87.7891 176.78 87.4889 176.584 87.1361 176.39L86.5533 176.059C86.0992 175.794 85.7092 175.516 85.3832 175.226C85.0573 174.936 84.8273 174.612 84.6933 174.255C84.5697 173.891 84.5739 173.472 84.7061 172.999C84.8383 172.525 85.069 172.148 85.3983 171.867C85.7356 171.589 86.1428 171.417 86.62 171.351C87.1053 171.287 87.629 171.334 88.1912 171.491C88.7615 171.65 89.2435 171.892 89.6372 172.219C90.0413 172.539 90.318 172.928 90.4675 173.385C90.6272 173.837 90.6264 174.351 90.4651 174.93L90.324 175.436L89.324 175.157L89.4652 174.651C89.5794 174.241 89.583 173.887 89.4757 173.589C89.3765 173.293 89.1911 173.042 88.9195 172.836C88.6559 172.633 88.3314 172.478 87.9459 172.37C87.3917 172.215 86.9112 172.216 86.5044 172.37C86.0999 172.517 85.8349 172.816 85.7094 173.265C85.6265 173.563 85.6316 173.824 85.7246 174.049C85.8177 174.274 85.9799 174.484 86.2113 174.678C86.445 174.864 86.7343 175.053 87.0791 175.245L87.6618 175.576C88.1227 175.817 88.52 176.084 88.854 176.376C89.1983 176.663 89.4432 176.995 89.5887 177.373C89.7365 177.743 89.741 178.177 89.602 178.675C89.4631 179.173 89.2177 179.572 88.8656 179.872C88.5136 180.172 88.0795 180.363 87.5635 180.444C87.0577 180.519 86.4996 180.472 85.8892 180.301ZM94.2415 182.631C93.6311 182.461 93.1152 182.2 92.6937 181.849C92.2723 181.498 91.9816 181.066 91.8215 180.554C91.6716 180.036 91.6885 179.448 91.8723 178.789L91.9428 178.536L92.9428 178.815L92.8722 179.068C92.6773 179.767 92.7365 180.346 93.0497 180.806C93.3652 181.257 93.8443 181.573 94.4868 181.752C95.1454 181.936 95.6888 181.927 96.1171 181.726C96.5453 181.525 96.8222 181.2 96.9477 180.75C97.0351 180.437 97.0242 180.166 96.9151 179.936C96.814 179.709 96.6386 179.5 96.3889 179.309C96.1414 179.11 95.8412 178.914 95.4884 178.72L94.9056 178.389C94.4515 178.124 94.0615 177.846 93.7355 177.556C93.4096 177.266 93.1796 176.942 93.0456 176.584C92.922 176.221 92.9262 175.802 93.0584 175.328C93.1906 174.855 93.4213 174.477 93.7506 174.197C94.0879 173.919 94.4951 173.747 94.9723 173.681C95.4576 173.617 95.9813 173.664 96.5435 173.821C97.1138 173.98 97.5958 174.222 97.9895 174.549C98.3935 174.869 98.6703 175.258 98.8198 175.715C98.9795 176.166 98.9787 176.681 98.8174 177.26L98.6763 177.766L97.6763 177.487L97.8175 176.981C97.9317 176.571 97.9352 176.217 97.828 175.919C97.7288 175.623 97.5434 175.372 97.2718 175.166C97.0082 174.963 96.6837 174.808 96.2982 174.7C95.744 174.545 95.2635 174.546 94.8567 174.7C94.4522 174.847 94.1872 175.146 94.0617 175.595C93.9788 175.893 93.9839 176.154 94.0769 176.379C94.17 176.604 94.3322 176.813 94.5636 177.008C94.7973 177.194 95.0865 177.383 95.4314 177.575L96.0141 177.906C96.4749 178.147 96.8723 178.414 97.2063 178.706C97.5506 178.992 97.7955 179.325 97.941 179.703C98.0888 180.073 98.0932 180.507 97.9543 181.005C97.8154 181.503 97.5699 181.902 97.2179 182.202C96.8659 182.502 96.4318 182.693 95.9158 182.774C95.41 182.849 94.8519 182.802 94.2415 182.631ZM99.1358 183.815L104.091 176.108L105.874 176.605L106.123 185.764L105.075 185.472L105.02 183.158L101.429 182.156L100.184 184.107L99.1358 183.815ZM101.938 181.311L105.01 182.168L104.895 176.994L104.726 176.947L101.938 181.311ZM112.256 187.475L114.608 179.042L116.536 179.579L116.602 187.999L116.759 188.043L121.174 180.873L123.102 181.411L120.749 189.844L119.773 189.572L121.941 181.801L121.772 181.754L117.376 188.903L115.629 188.416L115.568 180.023L115.399 179.976L113.232 187.747L112.256 187.475ZM126.645 191.67C125.641 191.39 124.922 190.878 124.489 190.134C124.058 189.382 123.999 188.448 124.31 187.331L124.848 185.404C125.159 184.287 125.693 183.523 126.448 183.111C127.206 182.69 128.087 182.62 129.091 182.9C130.087 183.178 130.773 183.668 131.148 184.37C131.532 185.074 131.589 185.908 131.32 186.872L131.303 186.932L130.304 186.653L130.33 186.557C130.507 185.922 130.479 185.356 130.246 184.858C130.023 184.354 129.554 184.003 128.839 183.803C128.124 183.604 127.504 183.669 126.98 183.999C126.457 184.321 126.086 184.875 125.866 185.662L125.315 187.638C125.096 188.425 125.125 189.095 125.403 189.649C125.684 190.195 126.182 190.567 126.897 190.767C127.611 190.966 128.193 190.912 128.643 190.605C129.102 190.291 129.421 189.818 129.598 189.183L129.652 188.99L130.651 189.269L130.608 189.426C130.339 190.39 129.858 191.074 129.165 191.478C128.481 191.884 127.64 191.948 126.645 191.67ZM135.338 194.096C134.334 193.815 133.616 193.303 133.183 192.559C132.752 191.807 132.692 190.873 133.003 189.757L133.541 187.829C133.853 186.713 134.386 185.948 135.142 185.536C135.9 185.115 136.781 185.045 137.785 185.325C138.781 185.603 139.466 186.093 139.842 186.795C140.225 187.499 140.283 188.333 140.014 189.297L139.997 189.357L138.997 189.078L139.024 188.982C139.201 188.347 139.173 187.781 138.939 187.283C138.716 186.779 138.247 186.428 137.533 186.229C136.818 186.029 136.198 186.094 135.673 186.424C135.151 186.746 134.779 187.3 134.56 188.087L134.009 190.063C133.789 190.85 133.819 191.521 134.097 192.074C134.378 192.62 134.875 192.993 135.59 193.192C136.305 193.391 136.887 193.337 137.336 193.03C137.796 192.717 138.114 192.243 138.291 191.608L138.345 191.415L139.345 191.694L139.301 191.851C139.032 192.815 138.552 193.499 137.859 193.903C137.174 194.309 136.334 194.373 135.338 194.096ZM140.286 195.294L145.24 187.587L147.023 188.084L147.273 197.243L146.225 196.951L146.169 194.637L142.579 193.635L141.334 195.586L140.286 195.294ZM143.087 192.79L146.16 193.647L146.045 188.473L145.876 188.426L143.087 192.79ZM149.5 197.864L151.853 189.431L155.262 190.382C155.784 190.528 156.216 190.748 156.559 191.043C156.911 191.331 157.152 191.676 157.283 192.076C157.416 192.468 157.418 192.897 157.288 193.362L157.251 193.495C157.096 194.049 156.842 194.45 156.487 194.697C156.132 194.945 155.759 195.074 155.366 195.086L155.319 195.254C155.606 195.343 155.816 195.506 155.949 195.742C156.092 195.972 156.114 196.268 156.013 196.63L155.223 199.461L154.223 199.182L154.979 196.471C155.046 196.23 155.03 196.026 154.929 195.86C154.836 195.695 154.658 195.576 154.392 195.502L151.477 194.689L150.512 198.147L149.5 197.864ZM151.732 193.774L154.033 194.415C154.588 194.57 155.05 194.556 155.421 194.374C155.803 194.186 156.061 193.851 156.195 193.369L156.219 193.285C156.353 192.803 156.309 192.388 156.085 192.04C155.864 191.684 155.473 191.428 154.911 191.271L152.61 190.629L151.732 193.774ZM160.007 200.795L162.104 193.278L159.394 192.522L159.649 191.606L166.082 193.401L165.827 194.316L163.116 193.56L161.019 201.078L160.007 200.795ZM165.982 202.462L168.334 194.029L169.346 194.311L168.301 198.058L172.252 199.16L173.298 195.413L174.31 195.696L171.957 204.129L170.945 203.847L171.997 200.076L168.045 198.973L166.993 202.744L165.982 202.462ZM177.056 205.551L177.953 202.335L176.409 196.281L177.565 196.604L178.701 201.284L178.87 201.331L182.264 197.915L183.42 198.237L178.965 202.617L178.068 205.834L177.056 205.551Z" fill="white"/>
<defs>
<linearGradient id="paint0_linear_403_8829" x1="438.946" y1="-9.82728" x2="34.2408" y2="205.48" gradientUnits="userSpaceOnUse">
<stop stop-color="#E4C628"/>
<stop offset="1" stop-color="#9E0F0F"/>
</linearGradient>
<linearGradient id="paint1_linear_403_8829" x1="438.946" y1="-9.8268" x2="34.2408" y2="205.48" gradientUnits="userSpaceOnUse">
<stop stop-color="#00AA58"/>
<stop offset="1" stop-color="#008989"/>
</linearGradient>
<linearGradient id="paint2_linear_403_8829" x1="265.006" y1="117.78" x2="24.1506" y2="183.224" gradientUnits="userSpaceOnUse">
<stop stop-color="#D9D9D9"/>
<stop offset="1" stop-color="#D9D9D9" stop-opacity="0"/>
</linearGradient>
</defs>
</svg>
