<svg width="25" height="24" viewBox="0 0 25 24" fill="none" xmlns="http://www.w3.org/2000/svg">
<path d="M9.37012 7C9.38222 4.82497 9.47868 3.64706 10.2471 2.87868C11.1257 2 12.54 2 15.3684 2L16.3684 2C19.1968 2 20.611 2 21.4897 2.87868C22.3684 3.75736 22.3684 5.17157 22.3684 8L22.3684 16C22.3684 18.8284 22.3684 20.2426 21.4897 21.1213C20.611 22 19.1968 22 16.3684 22H15.3684C12.54 22 11.1257 22 10.2471 21.1213C9.47868 20.3529 9.38222 19.175 9.37012 17" stroke="#555555" stroke-width="1.5" stroke-linecap="round"/>
<path d="M15.3682 12L2.36816 12M2.36816 12L5.86816 9M2.36816 12L5.86816 15" stroke="#555555" stroke-width="1.5" stroke-linecap="round" stroke-linejoin="round"/>
</svg>
