<svg width="282" height="96" viewBox="0 0 282 96" fill="none" xmlns="http://www.w3.org/2000/svg">
<path d="M252.598 63.3329C252.598 63.3329 253.087 65.8296 255.494 68.4115C256.898 69.9167 261.955 68.8412 264.325 72.9034C266.407 76.4708 266.054 81.7251 266.054 81.7251L277.789 74.8743C277.789 74.8743 278.031 69.93 274.906 66.6246C272.789 64.386 267.947 65.5107 265.229 62.8168C263.998 61.5957 262.328 59.1797 262.328 59.1797L252.598 63.3329Z" fill="#BDE377"/>
<path d="M253.461 63.77C253.461 63.77 254.068 65.8402 256.228 67.8945C257.496 69.1 263.164 68.3439 265.189 71.7791C266.967 74.7958 267.025 79.9228 267.025 79.9228L277.049 74.1852C277.049 74.1852 276.742 69.5537 274.068 66.7612C272.257 64.87 267.153 65.6908 264.828 63.4152C263.774 62.3838 262.264 59.8848 262.264 59.8848L253.461 63.77Z" fill="#6BA638"/>
<path d="M254.286 64.1554C254.286 64.1554 254.718 65.6263 256.777 67.441C258.64 69.084 263.788 67.7373 265.662 71.202C267.308 74.2448 267.629 78.5943 267.629 78.5943L276.203 73.6882C276.203 73.6882 276.142 70.1029 273.706 67.2639C272.055 65.3413 266.197 65.8866 264.179 63.4845C263.202 62.3219 262.195 60.5605 262.195 60.5605L254.286 64.1554Z" fill="#BDE377"/>
<path d="M263.074 69.4623C262.1 69.0483 261.139 68.0486 262.94 66.8672C265.008 65.5115 267.615 65.1447 269.521 65.4627C271.427 65.7806 272.564 67.171 270.202 68.642C267.84 70.113 265.709 70.5593 264.834 70.3563C263.959 70.1533 263.074 69.4623 263.074 69.4623Z" fill="#6BA638"/>
<path d="M261.682 64.2266C261.804 64.5849 261.562 64.9918 261.14 65.1352C260.719 65.2786 260.279 65.1044 260.157 64.746C260.035 64.3876 260.277 63.9808 260.698 63.8373C261.12 63.6939 261.56 63.8682 261.682 64.2266Z" fill="#6BA638"/>
<path d="M272.583 72.1286C272.731 72.5638 272.51 73.0328 272.089 73.1762C271.667 73.3197 271.206 73.0832 271.058 72.6481C270.91 72.213 271.131 71.744 271.552 71.6005C271.973 71.4571 272.435 71.6935 272.583 72.1286Z" fill="#6BA638"/>
<path d="M14.9377 75.7188C15.423 75.6227 18.345 77.3761 24.6691 75.9345C27.514 75.2861 31.4117 71.2716 31.4117 71.2716L45.6319 77.41C45.6319 77.41 43.9524 79.7346 40.9902 81.7462C34.0969 86.4271 29.9652 85.9214 29.9652 85.9214L27.1711 85.376L14.9377 75.7188Z" fill="#A8C469"/>
<path d="M19.968 77.1934C19.968 77.1934 24.0117 77.2884 26.2795 76.1477C28.1382 75.2129 31.6301 72.1642 31.6301 72.1642L43.9842 77.6381C43.9842 77.6381 39.6428 82.0079 36.9072 83.1337C28.3563 86.6529 27.0814 85.1554 27.0814 85.1554L26.3006 84.6736C26.3006 84.6736 31.1752 84.9968 36.2089 82.5185C40.1232 80.5914 42.4289 77.8405 42.4289 77.8405L31.7674 73.031C31.7674 73.031 28.8384 75.6729 26.7868 76.6987C24.7351 77.7244 20.4459 77.9636 20.4459 77.9636L19.968 77.1934Z" fill="#639334"/>
<path d="M18.5935 78.3887C19.984 78.3333 22.5416 78.0468 24.4375 78.6848C25.7329 79.1208 28.6155 80.889 29.0684 82.0666C29.3769 82.8689 29.2218 84.1255 27.3688 84.3095C25.5158 84.4937 23.5717 84.3761 23.5717 84.3761L18.5935 78.3887Z" fill="#639334"/>
<path d="M3.15814 66.6521L18.8752 70.2812C18.8752 70.2812 20.2143 76.206 22.0268 78.7706C26.4851 85.079 29.9865 85.9227 29.9865 85.9227C29.9865 85.9227 26.6248 86.0376 21.4471 83.8453C13.5597 80.5058 8.08353 76.8788 8.08353 76.8788C8.08353 76.8788 6.28558 75.259 5.22948 73.1304C4.17339 71.0018 3.15814 66.6521 3.15814 66.6521Z" fill="#BDE377"/>
<path d="M28.1625 85.7795C28.1625 85.7795 24.7898 84.4719 21.8803 80.5725C20.1813 78.2955 18.1342 71.3501 18.1342 71.3501L4.33043 67.8117C4.33043 67.8117 5.15106 70.9633 5.87777 72.7742C6.97599 75.5109 8.91425 77.4305 8.91425 77.4305L10.3199 78.274C10.3199 78.274 8.85374 76.923 7.19358 73.4813C6.5563 72.1601 5.77192 69.1104 5.83276 69.1583C5.89363 69.2062 17.4433 72.1861 17.4433 72.1861C17.4433 72.1861 19.7524 78.6235 20.9727 80.5152C23.3402 84.1851 26.665 85.5535 26.665 85.5535L28.1625 85.7795Z" fill="#6BA638"/>
<path d="M24.0438 84.8154C24.0438 84.8154 23.2251 84.0433 20.547 82.2867C18.4813 80.9317 15.8138 80.2461 15.3033 80.4357C14.97 80.5594 14.929 80.703 14.9407 80.788C16.8311 81.7619 19.0444 82.8247 21.4895 83.86C22.4 84.2455 23.2541 84.5594 24.0438 84.8154Z" fill="#6BA638"/>
<path d="M34.7859 78.6539C34.5641 79.1499 33.8141 79.297 33.1106 78.9825C32.4072 78.668 32.0168 78.0109 32.2385 77.5149C32.4603 77.0188 33.2104 76.8717 33.9138 77.1863C34.6172 77.5008 35.0076 78.1579 34.7859 78.6539Z" fill="#639334"/>
<path d="M14.5352 75.8405C14.353 76.4048 13.6108 76.6703 12.8776 76.4335C12.1443 76.1968 11.6976 75.5474 11.8797 74.9831C12.0619 74.4188 12.8041 74.1533 13.5374 74.3901C14.2707 74.6268 14.7174 75.2762 14.5352 75.8405Z" fill="#6BA638"/>
<path d="M269.584 9.38229C269.584 9.38229 266.046 10.9987 264.22 13.9747C262.394 16.9507 260.694 24.3996 258.771 26.4274C256.848 28.4553 254.74 30.2497 254.74 30.2497L264.931 40.6455C264.931 40.6455 269.354 35.9163 270.518 33.4545C272.14 30.027 272.229 24.8333 273.878 22.7915C275.835 20.3686 280.625 16.5016 280.625 16.5016L269.584 9.38229Z" fill="#BDE377"/>
<path d="M269.653 10.3299C269.653 10.3299 266.684 12.2306 265.007 14.9875C263.331 17.7445 261.535 24.501 259.825 26.4137C258.115 28.3263 256.262 30.0391 256.262 30.0391L264.787 38.8844C264.787 38.8844 267.617 36.1493 269.54 32.9872C271.095 30.4305 271.546 24.3221 272.972 22.3653C274.398 20.4085 278.72 16.5063 278.72 16.5063L269.653 10.3299Z" fill="#6BA638"/>
<path d="M272.163 21.8596C273.687 19.5245 277.298 16.5602 277.298 16.5602L269.879 11.3722C269.879 11.3722 267.613 12.5661 265.646 15.5094C263.938 18.0649 262.149 24.8743 260.58 26.7306C259.011 28.5869 257.33 30.2671 257.33 30.2671L264.745 37.2859C264.745 37.2859 266.98 35.2133 268.767 32.502C270.82 29.3872 270.904 23.7882 272.163 21.8596Z" fill="#BDE377"/>
<path d="M263.063 20.868C263.706 18.9869 265.147 18.3867 267.746 19.9536C270.736 21.7556 271.891 24.4242 271.392 25.7179C270.893 27.0115 269.683 29.7173 266.08 27.5653C263.684 26.1339 262.038 23.2492 262.368 22.3369C262.697 21.4247 263.063 20.868 263.063 20.868Z" fill="#6BA638"/>
<path d="M271.839 17.1005C271.53 17.4212 271.005 17.4169 270.668 17.091C270.33 16.765 270.308 16.2408 270.618 15.9202C270.927 15.5995 271.452 15.6037 271.789 15.9297C272.127 16.2556 272.149 16.7798 271.839 17.1005Z" fill="#6BA638"/>
<path d="M263.219 32.1395C262.909 32.4602 262.385 32.4559 262.047 32.13C261.71 31.8041 261.688 31.2799 261.998 30.9592C262.307 30.6386 262.832 30.6428 263.169 30.9687C263.507 31.2947 263.529 31.8188 263.219 32.1395Z" fill="#6BA638"/>
<path d="M207.507 4.74862L220.784 0C220.784 0 221.792 1.52508 222.577 1.98665C224.224 2.95572 231.546 5.38543 234.4 7.1229C239.972 10.5148 245.157 15.4572 245.157 15.4572L237.453 19.3821L226.211 19.0914C226.211 19.0914 222.528 13.9552 219.476 11.8231C215.316 8.91796 210.33 8.28848 209.494 7.65595C207.701 6.29916 207.507 4.74862 207.507 4.74862Z" fill="#BDE377"/>
<path d="M233.14 7.46139C230.602 5.95413 224.227 3.66889 222.674 3.00351C221.656 2.56741 220.639 0.919922 220.639 0.919922L209.107 5.18396C209.107 5.18396 209.01 6.29848 211.406 7.46449C212.237 7.86877 216.584 8.55931 220.283 11.0795C222.998 12.929 227.665 18.7514 227.665 18.7514L235.999 18.9452L243.558 15.1657C243.558 15.1658 238.096 10.4039 233.14 7.46139ZM234.982 18.3639L228.828 18.5092C228.828 18.5092 224.565 13.2843 221.85 11.4347C218.151 8.91449 214.562 7.66618 213.661 7.46139C210.463 6.73455 210.172 5.47474 210.172 5.47474L220.445 1.79213C220.445 1.79213 221.705 3.48809 224.273 4.40873C226.379 5.16375 230.698 6.64055 233.334 8.3336C238.616 11.7255 242.008 14.972 242.008 14.972L234.982 18.3639Z" fill="#6BA638"/>
<path d="M226.211 19.0914C226.211 19.0914 228.537 18.4615 229.506 17.8801C230.475 17.2986 233.043 15.748 233.043 15.748C233.043 15.748 234.296 17.5097 234.981 17.977C236.047 18.7038 237.453 19.3822 237.453 19.3822L226.211 19.0914Z" fill="#9EAF61"/>
<path d="M227.933 19.1127C227.933 19.1127 229.052 18.951 230.371 18.304C231.725 17.6396 232.813 16.7773 232.813 16.7773C232.813 16.7773 233.27 17.8064 234.004 18.3165C235.03 19.0296 236.43 19.3491 236.43 19.3491L234.427 19.2869C234.427 19.2869 233.757 19.0462 233.382 18.7519C233.034 18.4782 232.586 17.881 232.586 17.881C232.586 17.881 231.672 18.4355 231.263 18.651C230.433 19.0878 229.936 19.1873 229.936 19.1873L227.933 19.1127Z" fill="#639334"/>
<path d="M230.621 6.59165L229.409 6.01021C227.907 5.42878 225.484 5.33184 222.916 6.73706C220.911 7.83419 219.04 9.25675 220.736 11.0011C222.718 13.0403 225.179 13.189 228.101 11.728C231.687 9.93505 232.365 7.17312 230.621 6.59165Z" fill="#6BA638"/>
<path d="M235.101 13.6374C235.366 14.1338 235.072 14.8084 234.444 15.1442C233.816 15.4801 233.092 15.3498 232.826 14.8535C232.561 14.3571 232.855 13.6825 233.483 13.3466C234.111 13.0108 234.836 13.141 235.101 13.6374Z" fill="#6BA638"/>
<path d="M219.929 4.85259C220.086 5.21554 219.772 5.70125 219.227 5.93748C218.683 6.17366 218.113 6.07088 217.956 5.70793C217.799 5.34497 218.113 4.8593 218.658 4.62307C219.203 4.38689 219.772 4.48968 219.929 4.85259Z" fill="#6BA638"/>
<path d="M38.7959 15.5706L28.848 14.7539L27.8248 14.9132C26.0507 15.2492 24.6464 15.7548 22.6347 18.1165C20.6777 20.4138 20.0981 26.0566 20.0981 26.0566C20.0981 26.0566 22.4867 24.6667 26.2721 24.5565C30.0574 24.4463 31.4666 25.0353 31.4666 25.0353C31.4666 25.0353 31.2969 21.2528 32.8171 19.2859C34.7111 16.8353 38.7959 15.5706 38.7959 15.5706Z" fill="#9EAF61"/>
<path d="M21.074 24.8656L21.1331 24.415C21.1379 24.3788 21.2531 23.5157 21.5613 22.3491C21.977 20.776 22.5219 19.4682 23.1807 18.4618C24.5105 16.4305 26.9544 15.1613 30.4445 14.6895L30.5302 15.0894C27.2321 15.5353 24.9393 16.9429 23.7156 18.812C22.5525 20.5887 22.0192 23.047 21.8402 24.0476C22.6902 23.8721 24.5217 23.5119 25.6821 23.4152C27.3608 23.2753 29.4488 23.5415 30.2585 23.6607C30.3305 23.0036 30.5379 21.5307 31.0454 20.2538C31.6222 18.8026 32.5729 17.9019 33.2688 17.4019C34.0264 16.8576 34.6498 16.6572 34.676 16.649L34.8686 17.2587C34.8636 17.2603 34.2997 17.4443 33.6217 17.9358C32.7204 18.5892 32.0536 19.4485 31.6397 20.4899C31.0143 22.0633 30.865 24.0322 30.8635 24.0519L30.838 24.4024L30.4915 24.344C30.4642 24.3394 27.7389 23.8855 25.7352 24.0524C24.2578 24.1755 21.5453 24.7631 21.5181 24.7691L21.074 24.8656Z" fill="#639334"/>
<path d="M29.5114 15.0176C28.5094 15.1835 27.1083 17.0485 29.4799 17.5074C32.0523 18.005 33.5867 17.4768 34.4047 17.09C35.2226 16.7032 31.9123 15.1827 31.9123 15.1827L29.5114 15.0176Z" fill="#639334"/>
<path d="M27.8247 14.9131C27.8247 14.9131 30.1205 14.4659 33.9653 17.4303C36.421 19.3236 40.7588 25.2952 40.7588 25.2952C40.7588 25.2952 41.78 23.5864 43.7338 22.2871C46.9083 20.1761 48.7629 19.5879 48.7629 19.5879C48.7629 19.5879 46.5321 16.5716 43.3347 15.4926C35.6239 12.8905 27.8247 14.9131 27.8247 14.9131Z" fill="#BDE377"/>
<path d="M47.5161 19.4779L48.0135 19.3387L47.6437 18.9781C47.55 18.8868 45.3194 16.7264 42.6958 15.4694C42.3133 15.2861 41.9083 15.1127 41.4952 14.9501C40.0695 14.5916 38.6618 14.3751 37.3223 14.2578C38.6605 14.4898 40.3834 14.531 42.6673 15.9318C44.4915 17.0507 46.1248 18.4063 46.8617 19.0663C46.1514 19.3202 44.7757 19.8903 43.3742 20.9023C42.2542 21.7111 41.1579 22.7313 40.6807 23.1901C39.8294 22.0441 36.5937 17.753 34.9845 16.539C33.5604 15.4645 31.9772 14.7734 30.8998 14.3829C30.882 14.3764 30.885 14.3809 30.8673 14.3746C30.3581 14.4337 29.9574 14.5101 29.5601 14.574C30.6656 14.8871 32.7632 15.6088 34.626 17.0142C36.3796 18.3372 40.364 23.7629 40.404 23.8175L40.6091 24.0974L40.8545 23.8522C40.8688 23.8379 42.3004 22.4121 43.7227 21.385C45.6086 20.0232 47.4973 19.4831 47.5161 19.4779Z" fill="#6BA638"/>
<path d="M30.8672 14.3751C31.3961 14.6234 34.4828 15.54 36.5709 15.2349C38.659 14.9298 39.1426 14.5751 38.2967 14.3974C37.4507 14.2197 36.5913 14.0841 34.6669 14.0943C32.7424 14.1044 30.8672 14.3751 30.8672 14.3751Z" fill="#6BA638"/>
<path d="M41.854 18.3868C41.4415 18.6386 40.9703 18.6185 40.8015 18.342C40.6328 18.0654 40.8303 17.6371 41.2427 17.3854C41.6552 17.1337 42.1264 17.1537 42.2952 17.4303C42.464 17.7069 42.2665 18.1352 41.854 18.3868Z" fill="#6BA638"/>
<path d="M27.5072 21.0841C27.0263 21.0361 26.6627 20.7358 26.6949 20.4134C26.7271 20.091 27.143 19.8686 27.6238 19.9167C28.1046 19.9647 28.4683 20.265 28.4361 20.5874C28.4039 20.9098 27.988 21.1322 27.5072 21.0841Z" fill="#639334"/>
<path d="M25.8306 52.0514C24.2794 51.3242 22.7044 50.593 21.4412 49.9189L19.3696 48.8238L12.6997 46.4805L18.2648 51.6742C18.2648 51.6742 21.1865 52.968 25.2537 53.4068C28.0499 53.7085 29.7759 53.4284 29.7759 53.4284C29.7759 53.4284 27.3064 52.7433 25.8306 52.0514Z" fill="#9EAF61"/>
<path d="M24.1662 53.0529C23.3931 52.9483 22.5362 52.7961 21.7048 52.5749C19.879 52.0891 18.4972 51.5928 18.4972 51.5928C18.4972 51.5928 17.5382 50.7994 17.0505 50.3604C16.6113 49.9651 15.5282 48.8813 15.4919 48.8347L15.7689 48.6348C15.7775 48.6459 16.925 49.6728 17.3362 50.0429C17.7688 50.4323 18.5519 51.0833 18.7118 51.216C18.9316 51.2936 20.1705 51.7248 21.8146 52.1622C23.2488 52.5438 25.4514 52.8521 26.456 52.929C25.4209 52.639 23.5797 51.8245 22.91 51.5051C21.3447 50.7586 18.6592 49.0856 18.6323 49.0687L18.8584 48.7064C18.8851 48.7231 21.5504 50.3835 23.0939 51.1196C24.2032 51.6487 26.9818 52.8594 27.0097 52.8716L27.984 53.2959L26.9215 53.2809C26.9035 53.2806 25.6999 53.2604 24.1662 53.0529Z" fill="#639334"/>
<path d="M15.7168 48.8276C15.9495 49.0716 16.7177 49.4811 17.552 49.501C18.3863 49.5209 19.4367 49.3176 18.9893 48.9913C18.5419 48.6651 15.7168 48.8276 15.7168 48.8276Z" fill="#639334"/>
<path d="M0.37085 47.0329C0.37085 47.0329 3.59155 45.5876 5.00889 45.3461C9.1795 44.6356 12.7636 45.6458 13.1316 45.6956C14.3197 45.8563 21.475 49.9383 21.475 49.9383C21.475 49.9383 18.08 47.9017 13.1699 49.6145C10.7068 50.4737 8.46501 51.5026 8.46501 51.5026L0.37085 47.0329Z" fill="#BDE377"/>
<path d="M19.0587 48.5905C18.6767 48.3805 18.5503 48.3047 18.1329 48.0796C17.1994 48.035 15.5144 47.9382 13.7902 48.3574C12.0686 48.776 9.19433 49.9733 8.58166 50.2322L2.29523 47.0154C2.64801 46.8612 3.17664 46.6464 3.8121 46.439C4.88894 46.0874 6.59356 45.6336 8.16694 45.5915C10.6331 45.5254 12.9094 45.8778 14.6408 46.3193C14.5885 46.2679 14.4689 46.1914 13.9907 45.9832C12.2102 45.576 10.0666 45.2268 8.10112 45.2469C6.44419 45.2639 4.76254 45.5811 3.64145 45.9477C2.4305 46.3438 1.61768 46.7546 1.58367 46.7718L1.12939 47.0028L8.56154 50.806L8.67365 50.758C8.70731 50.7436 12.0609 49.3129 13.913 48.8626C15.7109 48.4255 17.1416 48.4044 18.0252 48.4636C18.4594 48.4927 18.8073 48.5435 19.0587 48.5905Z" fill="#6BA638"/>
<path d="M14.2875 46.1354C13.6109 46.0306 12.7653 45.9959 13.4799 46.7037C14.6006 47.8136 17.236 48.3012 17.9197 48.3539C18.6034 48.4065 18.8999 48.4732 18.8477 48.4662C18.7956 48.4591 17.8179 47.9283 16.7037 47.3258C15.5896 46.7234 14.2875 46.1354 14.2875 46.1354Z" fill="#6BA638"/>
<path d="M8.76467 47.025C9.14528 47.2577 9.36303 47.5948 9.25108 47.7778C9.13916 47.9609 8.73988 47.9207 8.3593 47.688C7.9787 47.4553 7.76094 47.1182 7.87289 46.9351C7.98481 46.752 8.3841 46.7923 8.76467 47.025Z" fill="#6BA638"/>
<path d="M20.4299 50.8801C20.8519 51.0249 21.1611 51.238 21.1206 51.3563C21.08 51.4745 20.7051 51.453 20.2831 51.3083C19.8611 51.1636 19.5519 50.9505 19.5924 50.8322C19.633 50.714 20.008 50.7354 20.4299 50.8801Z" fill="#639334"/>
<path d="M199.052 85.9206C199.052 85.9206 200.318 84.0948 202.587 82.9981C204.427 82.1083 209.97 80.1298 211.407 79.3652C214.035 77.9675 215.756 76.0938 215.756 76.0938L222.946 80.5045C222.946 80.5045 221.481 82.2988 219.51 83.7372C217.514 85.1939 212.201 85.934 209.575 88.0462C207.875 89.4137 205.927 93.0028 205.927 93.0028L199.052 85.9206Z" fill="#BDE377"/>
<path d="M205.652 92.037L199.93 85.9114L200.012 85.7731C200.048 85.7133 200.919 84.2937 203.784 82.9603C204.68 82.5431 205.98 82.0161 207.356 81.4581C209.17 80.7221 211.046 79.9611 212.069 79.4192C213.523 78.6487 215.684 76.739 215.705 76.7198L215.823 76.6152L222.373 80.5688L222.218 80.7599C222.203 80.7778 221.853 81.2068 221.175 81.8181C220.553 82.3796 219.522 83.2074 218.151 83.9621C216.93 84.6346 215.633 85.0195 214.26 85.4271C212.339 85.9971 210.353 86.5865 208.605 88.0331C207.292 89.12 205.81 91.7546 205.795 91.7811L205.652 92.037ZM200.471 85.8635L205.567 91.3188C205.98 90.6155 207.191 88.6478 208.332 87.7031C210.147 86.2007 212.176 85.5987 214.138 85.0164C215.488 84.6156 216.764 84.237 217.945 83.5869C219.998 82.4566 221.288 81.1525 221.722 80.6763L215.871 77.1443C215.39 77.5623 213.586 79.1 212.27 79.7977C211.228 80.3498 209.341 81.115 207.517 81.855C206.146 82.4109 204.851 82.936 203.965 83.3487C202.537 84.0132 201.638 84.6973 201.135 85.1542C200.79 85.468 200.579 85.7203 200.471 85.8635Z" fill="#6BA638"/>
<path d="M208.613 81.1737C207.706 81.6185 207.115 82.7378 208.378 84.2275C209.642 85.7172 212.056 86.022 213.112 85.6556C214.168 85.2893 214.473 83.39 213.444 82.3619C212.414 81.3339 210.671 80.1646 208.613 81.1737Z" fill="#6BA638"/>
<path d="M205.887 85.8552C206.107 86.1333 206.126 86.4854 205.929 86.6416C205.732 86.7979 205.394 86.6991 205.173 86.4211C204.953 86.143 204.934 85.791 205.131 85.6347C205.328 85.4784 205.667 85.5772 205.887 85.8552Z" fill="#6BA638"/>
<path d="M217.251 79.9142C217.511 80.156 217.583 80.5013 217.411 80.6853C217.24 80.8694 216.89 80.8227 216.631 80.5809C216.371 80.3391 216.299 79.9938 216.471 79.8097C216.642 79.6257 216.992 79.6724 217.251 79.9142Z" fill="#6BA638"/>
<path d="M97.5981 11.3099C97.5981 11.3099 98.864 13.1357 101.133 14.2324C102.973 15.1222 108.516 17.1006 109.953 17.8652C112.58 19.263 114.301 21.1367 114.301 21.1367L121.491 16.726C121.491 16.726 120.027 14.9316 118.056 13.4933C116.06 12.0366 110.746 11.2965 108.121 9.18428C106.421 7.81676 104.473 4.22763 104.473 4.22763L97.5981 11.3099Z" fill="#BDE377"/>
<path d="M104.197 5.19154L98.4753 11.3171L98.5579 11.4554C98.5936 11.5152 99.4651 12.9349 102.33 14.2682C103.226 14.6854 104.525 15.2124 105.901 15.7704C107.716 16.5064 109.592 17.2674 110.615 17.8093C112.069 18.5798 114.229 20.4895 114.251 20.5087L114.369 20.6133L120.918 16.6597L120.763 16.4686C120.749 16.4507 120.399 16.0217 119.721 15.4104C119.098 14.8489 118.068 14.0212 116.697 13.2664C115.475 12.594 114.178 12.209 112.805 11.8014C110.885 11.2314 108.899 10.642 107.151 9.1954C105.838 8.10856 104.355 5.47395 104.341 5.44746L104.197 5.19154ZM99.0167 11.365L104.113 5.90972C104.526 6.61299 105.737 8.58075 106.878 9.52539C108.693 11.0278 110.722 11.6298 112.683 12.2121C114.034 12.6129 115.309 12.9915 116.49 13.6417C118.543 14.7719 119.834 16.076 120.267 16.5522L114.417 20.0842C113.936 19.6662 112.132 18.1285 110.815 17.4309C109.773 16.8787 107.887 16.1135 106.062 15.3735C104.692 14.8176 103.397 14.2925 102.51 13.8799C101.083 13.2153 100.184 12.5312 99.6809 12.0743C99.3356 11.7605 99.125 11.5082 99.0167 11.365Z" fill="#6BA638"/>
<path d="M107.159 16.0548C106.252 15.61 105.66 14.4907 106.924 13.001C108.188 11.5113 110.601 11.2065 111.658 11.5729C112.714 11.9393 113.019 13.8385 111.989 14.8666C110.96 15.8946 109.217 17.0639 107.159 16.0548Z" fill="#6BA638"/>
<path d="M104.433 11.3752C104.653 11.0972 104.672 10.7451 104.475 10.5888C104.278 10.4326 103.939 10.5313 103.719 10.8094C103.498 11.0874 103.479 11.4395 103.677 11.5958C103.874 11.752 104.212 11.6533 104.433 11.3752Z" fill="#6BA638"/>
<path d="M115.797 17.3143C116.057 17.0725 116.128 16.7273 115.957 16.5432C115.785 16.3591 115.436 16.4059 115.176 16.6477C114.917 16.8894 114.845 17.2347 115.016 17.4188C115.188 17.6029 115.537 17.5561 115.797 17.3143Z" fill="#6BA638"/>
</svg>
