<svg width="24" height="24" viewBox="0 0 24 24" fill="none" xmlns="http://www.w3.org/2000/svg">
<g clip-path="url(#clip0_1025_18894)">
<path d="M7.84766 8.71776C8.05473 8.71776 8.22266 8.55002 8.22266 8.34276V5.05273C8.22266 4.84547 8.05473 4.67773 7.84766 4.67773C7.64058 4.67773 7.47266 4.84547 7.47266 5.05273V8.34276C7.47266 8.55006 7.64054 8.71776 7.84766 8.71776Z" fill="#555555"/>
<path d="M4.36621 8.7178H5.19841C6.10846 8.7178 6.58452 8.1154 6.58452 7.52027C6.58452 7.2226 6.4652 6.92308 6.23199 6.69808C6.4652 6.47297 6.58452 6.17327 6.58452 5.87526C6.58452 5.28017 6.10846 4.67773 5.19841 4.67773H4.36621C4.15914 4.67773 3.99121 4.84547 3.99121 5.05273V8.34276C3.99121 8.5501 4.15914 8.7178 4.36621 8.7178ZM5.83456 7.52031C5.83456 7.74332 5.63791 7.96783 5.19845 7.96783H4.74125V7.0732H5.19845C5.63787 7.07316 5.83456 7.29763 5.83456 7.52031ZM5.19845 5.42777C5.63791 5.42777 5.83456 5.65262 5.83456 5.8753C5.83456 6.09831 5.63791 6.32316 5.19845 6.32316H4.74125V5.42777H5.19845Z" fill="#555555"/>
<path d="M9.89648 8.71776H11.4401C11.6471 8.71776 11.8151 8.55002 11.8151 8.34276C11.8151 8.1355 11.6471 7.96776 11.4401 7.96776H10.2715V5.05273C10.2715 4.84547 10.1036 4.67773 9.89648 4.67773C9.68941 4.67773 9.52148 4.84547 9.52148 5.05273V8.34276C9.52148 8.55006 9.68937 8.71776 9.89648 8.71776Z" fill="#555555"/>
<path d="M15.0583 7.96776H13.8896V5.05273C13.8896 4.84547 13.7217 4.67773 13.5146 4.67773C13.3076 4.67773 13.1396 4.84547 13.1396 5.05273V8.34276C13.1396 8.55002 13.3076 8.71776 13.5146 8.71776H15.0582C15.2653 8.71776 15.4332 8.55002 15.4332 8.34276C15.4332 8.1355 15.2653 7.96776 15.0583 7.96776Z" fill="#555555"/>
<path d="M13.8788 11.2607H4.0459C3.83882 11.2607 3.6709 11.4285 3.6709 11.6357C3.6709 11.843 3.83882 12.0107 4.0459 12.0107H13.8788C14.0859 12.0107 14.2538 11.843 14.2538 11.6357C14.2538 11.4285 14.086 11.2607 13.8788 11.2607Z" fill="#555555"/>
<path d="M13.8788 13.6807H4.0459C3.83882 13.6807 3.6709 13.8484 3.6709 14.0557C3.6709 14.2629 3.83882 14.4307 4.0459 14.4307H13.8788C14.0859 14.4307 14.2538 14.2629 14.2538 14.0557C14.2538 13.8484 14.086 13.6807 13.8788 13.6807Z" fill="#555555"/>
<path d="M13.8788 16.1006H4.0459C3.83882 16.1006 3.6709 16.2683 3.6709 16.4756C3.6709 16.6828 3.83882 16.8506 4.0459 16.8506H13.8788C14.0859 16.8506 14.2538 16.6828 14.2538 16.4756C14.2538 16.2683 14.086 16.1006 13.8788 16.1006Z" fill="#555555"/>
<path d="M9.37064 18.5205H4.0459C3.83882 18.5205 3.6709 18.6882 3.6709 18.8955C3.6709 19.1028 3.83882 19.2705 4.0459 19.2705H9.3706C9.57767 19.2705 9.7456 19.1028 9.7456 18.8955C9.7456 18.6882 9.57771 18.5205 9.37064 18.5205Z" fill="#555555"/>
<path d="M19.9259 0H4.07284C2.57873 0 1.36328 1.2129 1.36328 2.70375V23.625C1.36328 23.938 1.74792 24.114 1.98421 23.9081L3.05884 22.9776C3.41772 23.2874 3.77607 23.5972 4.13404 23.9081C4.27542 24.0304 4.48433 24.0308 4.62533 23.9088L5.70143 22.9779L6.77644 23.9085C6.91707 24.0308 7.12617 24.0304 7.26717 23.9088L8.34327 22.9779L9.41937 23.9088C9.56037 24.0304 9.76947 24.0308 9.91009 23.9085L10.9851 22.9779L12.0612 23.9088C12.2026 24.0304 12.4115 24.0304 12.5525 23.9081L13.6271 22.9776C13.986 23.2874 14.3444 23.5972 14.7023 23.9081C14.8433 24.03 15.0522 24.0304 15.1936 23.9088L16.2695 22.9779L17.3445 23.9085C17.4553 24.0051 17.6128 24.0279 17.7457 23.966C17.8792 23.9052 17.9649 23.7719 17.9649 23.625V5.52907L18.7636 4.75489L19.6676 5.64184C19.8134 5.78539 20.0468 5.78468 20.1926 5.64184L21.0958 4.75635L21.9966 5.63917C22.2182 5.86084 22.5952 5.71875 22.6287 5.41463C22.6302 5.40067 22.6368 5.38853 22.6368 5.37413V2.70375C22.6368 1.2129 21.4208 0 19.9259 0ZM17.2149 2.70375V22.8043L16.515 22.1986C16.3744 22.0763 16.1653 22.0767 16.0243 22.1982L14.9486 23.1288C14.59 22.8182 14.2311 22.508 13.8715 22.1979C13.7309 22.077 13.5222 22.0767 13.3815 22.1982L12.3063 23.1291L11.2302 22.1982C11.0892 22.0767 10.8801 22.0763 10.7395 22.1986L9.66451 23.1291L8.58859 22.1982C8.44759 22.0767 8.23887 22.0767 8.09787 22.1982L7.02196 23.1291L5.94694 22.1986C5.80632 22.0763 5.59722 22.0767 5.45622 22.1982L4.38031 23.1288C4.02177 22.8182 3.66308 22.508 3.30327 22.1979C3.16264 22.077 2.95407 22.077 2.81311 22.1982L2.11328 22.8042V2.70375C2.11328 1.62638 2.99236 0.75 4.07288 0.75H18.057C17.5394 1.24267 17.2149 1.93549 17.2149 2.70375ZM21.8868 4.48147L21.3584 3.96349C21.2123 3.82065 20.979 3.82065 20.8332 3.96349L19.9301 4.84898L19.0278 3.96349C18.8826 3.8214 18.6502 3.81994 18.5043 3.96203L17.9648 4.48489V2.70375C17.9648 1.62638 18.8445 0.75 19.9259 0.75C21.0071 0.75 21.8868 1.62634 21.8868 2.70375L21.8868 4.48147Z" fill="#555555"/>
</g>
<defs>
<clipPath id="clip0_1025_18894">
<rect width="24" height="24" fill="white"/>
</clipPath>
</defs>
</svg>
