<svg width="33" height="31" viewBox="0 0 33 31" fill="none" xmlns="http://www.w3.org/2000/svg">
<path d="M8.20312 13.6758H11.098V21.9709H8.20312V13.6758Z" fill="#44394A"/>
<path d="M7.41406 11.5898H11.8819V13.67H7.41406V11.5898Z" fill="#F07F68"/>
<path d="M6.37109 21.9629H26.6197V24.0431H6.37109V21.9629Z" fill="#F07F68"/>
<path d="M25.7692 21.9629V23.1926H6.37109V24.0482H26.6248V21.9629H25.7692Z" fill="#E46751"/>
<path d="M5 24.0469H28V26.1271H5V24.0469Z" fill="#44394A"/>
<path d="M27.1187 24.0469V25.2458H5V26.1271H28V24.0469H27.1187Z" fill="#D0C8D4"/>
<path d="M21.9023 13.6758H24.7972V21.9709H21.9023V13.6758Z" fill="#44394A"/>
<path d="M21.1172 11.5898H25.585V13.67H21.1172V11.5898Z" fill="#F07F68"/>
<path d="M16.5048 20.2675C18.4319 20.2675 19.994 18.7053 19.994 16.7783C19.994 14.8512 18.4319 13.2891 16.5048 13.2891C14.5778 13.2891 13.0156 14.8512 13.0156 16.7783C13.0156 18.7053 14.5778 20.2675 16.5048 20.2675Z" fill="#FED714"/>
<path d="M18.2545 13.7617C18.5568 14.2792 18.731 14.8735 18.731 15.514C18.731 17.4405 17.1683 19.0032 15.2367 19.0032C14.5962 19.0032 14.0019 18.829 13.4844 18.5267C14.089 19.5668 15.211 20.2636 16.5022 20.2636C18.4287 20.2636 19.9965 18.7009 19.9965 16.7693C19.9914 15.4884 19.2895 14.3663 18.2545 13.7617Z" fill="#FEC310"/>
<path d="M10.8367 11.5898V12.6299H7.41406V13.6752H11.8767V11.5898H10.8367Z" fill="#E46751"/>
<path d="M24.5398 11.5898V12.6299H21.1172V13.6752H25.5799V11.5898H24.5398Z" fill="#E46751"/>
<path d="M27.5605 11.5881H5.62109V8.46781L16.5908 4L27.5605 8.46781V11.5881Z" fill="#44394A"/>
<path d="M26.0695 7.86523V10.0991H5.62109V11.5901H27.5605V8.46982L26.0695 7.86523Z" fill="#D0C8D4"/>
<path d="M16.5029 9.46087C17.3631 9.46087 18.0605 8.76352 18.0605 7.90329C18.0605 7.04306 17.3631 6.3457 16.5029 6.3457C15.6427 6.3457 14.9453 7.04306 14.9453 7.90329C14.9453 8.76352 15.6427 9.46087 16.5029 9.46087Z" fill="#F07F68"/>
<path d="M16.9472 6.41602C16.9882 6.55948 17.019 6.70806 17.019 6.86177C17.019 7.72254 16.3222 8.41936 15.4614 8.41936C15.3077 8.41936 15.1591 8.38861 15.0156 8.34763C15.2103 8.98808 15.7995 9.45945 16.5015 9.45945C17.3623 9.45945 18.0591 8.76264 18.0591 7.90187C18.0591 7.19481 17.5877 6.61071 16.9472 6.41602Z" fill="#E46751"/>
<path d="M9.62237 13.6758V20.4902H8.20312V21.9658H11.098V13.6758H9.62237Z" fill="#D0C8D4"/>
<path d="M23.3216 13.6758V20.4902H21.9023V21.9658H24.7972V13.6758H23.3216Z" fill="#D0C8D4"/>
<path d="M16.4245 19.0391L15.2832 17.0481V16.5789H15.6637C15.8158 16.5789 15.949 16.5578 16.0631 16.5155C16.1815 16.469 16.2787 16.4035 16.3548 16.319C16.4351 16.2344 16.49 16.133 16.5196 16.0146H15.2832V15.5454H16.5133C16.4879 15.4355 16.4435 15.3383 16.3801 15.2538C16.321 15.1692 16.2406 15.1037 16.1392 15.0572C16.042 15.0065 15.9236 14.9811 15.7841 14.9811H15.2832V14.5119H18.1428V14.9811H17.1473C17.2192 15.0615 17.2784 15.1481 17.3249 15.2411C17.3756 15.3341 17.4094 15.4355 17.4263 15.5454H18.1428V16.0146H17.439C17.3967 16.3274 17.2763 16.5726 17.0776 16.7501C16.8789 16.9234 16.6232 17.0418 16.3104 17.1052L17.5531 19.0391H16.4245Z" fill="white"/>
</svg>
