<svg width="21" height="22" viewBox="0 0 21 22" fill="none" xmlns="http://www.w3.org/2000/svg">
<path fill-rule="evenodd" clip-rule="evenodd" d="M10.1316 0.25C5.85142 0.25 2.38163 3.71979 2.38163 8V8.7041C2.38163 9.40102 2.17534 10.0824 1.78876 10.6622L0.640156 12.3851C-0.69294 14.3848 0.324767 17.1028 2.64336 17.7351C3.39897 17.9412 4.16096 18.1155 4.92737 18.2581L4.92927 18.2632C5.69826 20.3151 7.75357 21.75 10.1316 21.75C12.5096 21.75 14.5649 20.3151 15.3339 18.2632L15.3358 18.2581C16.1022 18.1155 16.8642 17.9412 17.6199 17.7351C19.9385 17.1028 20.9562 14.3848 19.6231 12.3851L18.4745 10.6622C18.0879 10.0824 17.8816 9.40102 17.8816 8.7041V8C17.8816 3.71979 14.4118 0.25 10.1316 0.25ZM13.508 18.537C11.2651 18.805 8.99803 18.8049 6.75508 18.5369C7.46604 19.5585 8.70261 20.25 10.1316 20.25C11.5605 20.25 12.7971 19.5585 13.508 18.537ZM3.88163 8C3.88163 4.54822 6.67985 1.75 10.1316 1.75C13.5834 1.75 16.3816 4.54822 16.3816 8V8.7041C16.3816 9.69716 16.6756 10.668 17.2264 11.4943L18.375 13.2172C19.1402 14.3649 18.5561 15.925 17.2252 16.288C12.581 17.5546 7.68229 17.5546 3.03803 16.288C1.7072 15.925 1.12306 14.3649 1.88823 13.2172L3.03683 11.4943C3.58769 10.668 3.88163 9.69716 3.88163 8.7041V8Z" fill="#555555"/>
</svg>
