<svg width="309" height="283" viewBox="0 0 309 283" fill="none" xmlns="http://www.w3.org/2000/svg">
<path d="M308.232 141.324C308.232 158.39 305.207 174.75 299.664 189.898C298.908 191.963 298.106 194.003 297.256 196.02C287.341 219.621 271.204 239.961 250.895 254.99C249.291 256.175 247.664 257.328 246.01 258.446H246.007C223.436 273.724 196.215 282.64 166.913 282.64C123.836 282.64 85.2599 263.37 59.3425 232.976L59.3401 232.973C56.7594 229.948 54.3035 226.811 51.9821 223.572C47.1256 216.8 42.8525 209.581 39.2395 201.988C37.9767 199.338 36.7932 196.639 35.6937 193.898C32.6833 186.389 30.2995 178.562 28.607 170.482C28.595 170.432 28.583 170.379 28.5734 170.328C27.9588 167.383 27.4355 164.406 27.0082 161.395C27.001 161.364 26.9962 161.331 26.9938 161.299C26.0695 154.774 25.5918 148.105 25.5918 141.324C25.5918 136.09 25.8775 130.924 26.4296 125.837C26.7561 122.848 27.1738 119.886 27.6852 116.955C30.914 98.3713 37.7751 81.0338 47.5073 65.7009C49.435 62.6593 51.478 59.6969 53.629 56.8185C59.9307 48.385 67.1494 40.6814 75.1412 33.8539C75.1436 33.8515 75.1436 33.8539 75.1436 33.8539C76.704 32.5192 78.2932 31.2204 79.9112 29.9529C79.9136 29.9505 79.916 29.9505 79.9184 29.9481C94.8409 18.2713 112.169 9.53297 131.033 4.59484C136.437 3.18086 141.966 2.07896 147.602 1.31075C153.916 0.448923 160.362 0 166.913 0C244.96 0 308.232 63.2738 308.232 141.324Z" fill="#DEEDFF"/>
<g filter="url(#filter0_d_1220_3233)">
<path d="M201.729 29.8088C196.68 27.0192 191.092 25.0891 185.16 24.2105C182.785 23.86 180.356 23.6799 177.886 23.6799H177.485C170.921 23.6799 164.653 24.9595 158.925 27.2833C158.889 27.2977 158.856 27.3145 158.82 27.3289C157.706 27.785 156.611 28.2796 155.538 28.8125C155.288 28.9349 155.039 29.0646 154.792 29.1894C154.679 29.2494 154.566 29.3094 154.455 29.3695C154.283 29.4583 154.11 29.5519 153.937 29.6455C153.697 29.7752 153.457 29.9096 153.219 30.044C153.205 30.0512 153.193 30.0585 153.181 30.0657C152.921 30.2121 152.667 30.3585 152.412 30.5098C151.988 30.7618 151.565 31.0187 151.15 31.2828C150.977 31.3908 150.806 31.5012 150.636 31.6117C150.494 31.7029 150.355 31.7941 150.216 31.8877C150.067 31.9838 149.921 32.0822 149.777 32.183C149.604 32.2982 149.433 32.4159 149.263 32.5359C149.107 32.6439 148.951 32.7544 148.795 32.8672C148.065 33.3881 147.35 33.9283 146.649 34.49C146.516 34.5957 146.382 34.7037 146.25 34.8141C145.89 35.107 145.535 35.4047 145.182 35.712C144.958 35.904 144.735 36.1009 144.514 36.3001C144.512 36.3025 144.507 36.3049 144.505 36.3097C144.291 36.4994 144.08 36.6938 143.871 36.8883C143.717 37.0299 143.564 37.174 143.412 37.318C143.41 37.318 143.41 37.3204 143.408 37.3204C143.283 37.438 143.16 37.5581 143.036 37.6805C142.911 37.8029 142.786 37.9254 142.661 38.0526C142.575 38.1366 142.491 38.2206 142.407 38.3071C141.703 39.0153 141.021 39.7451 140.366 40.4941C140.328 40.5373 140.289 40.5829 140.248 40.6261C140.102 40.7941 139.958 40.9622 139.814 41.1326C139.795 41.1542 139.778 41.1734 139.761 41.1926C139.67 41.3007 139.581 41.4087 139.492 41.5167C139.439 41.5767 139.389 41.6392 139.341 41.6992C139.202 41.8672 139.065 42.0377 138.928 42.2081C138.839 42.3186 138.75 42.4314 138.664 42.5394C138.64 42.5706 138.614 42.6018 138.592 42.633C138.484 42.7699 138.378 42.9067 138.273 43.0435C138.21 43.1228 138.15 43.2044 138.09 43.2836C138.03 43.3604 137.973 43.4397 137.915 43.5165C137.797 43.6749 137.68 43.8334 137.562 43.9942C137.248 44.4239 136.94 44.8608 136.638 45.3026C136.604 45.353 136.571 45.4034 136.537 45.4538C136.427 45.617 136.316 45.7827 136.208 45.9483C136.112 46.0924 136.016 46.2412 135.922 46.3852C135.589 46.9038 135.262 47.4319 134.948 47.9673C134.847 48.1377 134.746 48.3106 134.648 48.4834C134.547 48.6539 134.448 48.8267 134.352 49.0019C134.249 49.1892 134.146 49.374 134.045 49.5637C134.004 49.6333 133.966 49.7053 133.927 49.775C133.925 49.7822 133.918 49.7918 133.915 49.8014C133.776 50.0606 133.639 50.3199 133.507 50.5816C133.433 50.7208 133.361 50.8624 133.291 51.0041C133.203 51.1817 133.114 51.3594 133.03 51.537C133.01 51.5754 132.991 51.6115 132.974 51.6499C132.931 51.7411 132.888 51.8323 132.845 51.9235C132.698 52.2308 132.554 52.5429 132.415 52.855C132.343 53.0134 132.273 53.1695 132.204 53.3279C132.129 53.4984 132.057 53.6688 131.985 53.8417C131.916 54.0049 131.846 54.1705 131.779 54.3338C131.275 55.5605 130.819 56.8137 130.415 58.0884C130.384 58.1844 130.355 58.2805 130.324 58.3765C130.283 58.5061 130.245 58.6357 130.206 58.763C130.096 59.1255 129.99 59.488 129.892 59.8529C129.866 59.9441 129.839 60.0377 129.815 60.1289C129.714 60.501 129.618 60.8755 129.527 61.2501C129.436 61.6125 129.349 61.9774 129.27 62.3447C129.27 62.3471 129.268 62.3471 129.27 62.3519C129.265 62.3615 129.265 62.3712 129.263 62.3808C129.222 62.5536 129.186 62.7265 129.15 62.9017C129.121 63.0457 129.093 63.1874 129.064 63.3314C129.054 63.3698 129.045 63.4106 129.04 63.449C129.009 63.5955 128.98 63.7419 128.956 63.8884C128.946 63.9244 128.941 63.9604 128.934 63.9964C128.896 64.2004 128.857 64.4069 128.824 64.6134C128.776 64.8846 128.732 65.1583 128.689 65.4296C128.653 65.672 128.617 65.9121 128.584 66.1546C128.562 66.2962 128.545 66.4378 128.526 66.5747C128.466 67.0236 128.413 67.4725 128.368 67.9238C128.346 68.1255 128.327 68.3296 128.308 68.5336C128.269 68.9681 128.236 69.4026 128.207 69.8396C128.192 70.0676 128.178 70.2981 128.168 70.5261C128.154 70.7758 128.144 71.0279 128.137 71.2775C128.125 71.5392 128.118 71.8009 128.116 72.065C128.113 72.1418 128.111 72.2186 128.111 72.2954C128.106 72.5499 128.104 72.8044 128.104 73.0588V107.266H227.26V73.0612C227.26 54.437 216.954 38.2206 201.729 29.8088ZM207.978 95.793H147.395V74.8881C147.395 58.2276 160.899 44.724 177.559 44.724H177.804C194.472 44.724 207.978 58.2276 207.978 74.8881V95.793Z" fill="#6397FF"/>
</g>
<path d="M128.104 105.332C127.905 105.332 127.744 105.171 127.744 104.972V73.0598C127.744 64.2509 130.077 55.5956 134.491 48.0299C138.775 40.6875 144.909 34.5215 152.229 30.1989C152.4 30.0976 152.621 30.1545 152.722 30.3259C152.823 30.497 152.767 30.7179 152.595 30.819C137.711 39.6087 128.464 55.7946 128.464 73.06V104.972C128.464 105.171 128.303 105.332 128.104 105.332Z" fill="#404040"/>
<path d="M152.412 30.869C152.289 30.869 152.169 30.8059 152.102 30.6921C152.001 30.5209 152.057 30.3001 152.229 30.199C154.328 28.9593 156.536 27.8668 158.791 26.9516C158.974 26.8767 159.185 26.9655 159.26 27.1499C159.334 27.334 159.246 27.5441 159.061 27.619C156.84 28.5209 154.664 29.5976 152.595 30.8193C152.538 30.8529 152.474 30.869 152.412 30.869Z" fill="#404040"/>
<path d="M227.259 84.9338V97.9222L226.612 98.6597L147.369 97.4795L128.104 97.1926V79.8528C132.693 80.0002 139.445 80.2952 147.394 80.6805V95.7914H207.977V83.8599C215.451 84.2784 222.121 84.6469 227.259 84.9338Z" fill="#404040"/>
<g filter="url(#filter1_d_1220_3233)">
<path d="M230.88 205.6H124.489C114.72 205.6 106.801 197.681 106.801 187.912V106.925C106.801 97.1556 114.72 89.2363 124.489 89.2363H230.88C240.649 89.2363 248.569 97.1556 248.569 106.925V187.912C248.569 197.681 240.649 205.6 230.88 205.6Z" fill="#6397FF"/>
</g>
<path d="M230.879 205.961H124.488C114.536 205.961 106.439 197.864 106.439 187.912V106.925C106.439 96.9726 114.536 88.876 124.488 88.876H230.879C240.831 88.876 248.928 96.9726 248.928 106.925V187.912C248.928 197.864 240.831 205.961 230.879 205.961ZM124.488 89.5962C114.933 89.5962 107.16 97.3695 107.16 106.925V187.912C107.16 197.467 114.933 205.24 124.488 205.24H230.879C240.434 205.24 248.207 197.467 248.207 187.912V106.925C248.207 97.3697 240.434 89.5962 230.879 89.5962H124.488Z" fill="#404040"/>
<path d="M177.684 181.016C174.29 181.016 171.538 178.265 171.538 174.871V155.613H183.83V174.871C183.83 178.265 181.079 181.016 177.684 181.016Z" fill="#404040"/>
<path d="M186.262 157.252H169.106C166.376 157.252 164.163 155.039 164.163 152.309V137.611C164.163 134.881 166.376 132.668 169.106 132.668H186.262C188.993 132.668 191.205 134.881 191.205 137.611V152.309C191.205 155.039 188.993 157.252 186.262 157.252Z" fill="#404040"/>
<path d="M119.131 145.452H30.4275C13.8212 145.452 0.359375 131.99 0.359375 115.384C0.359375 98.7773 13.8212 85.3154 30.4275 85.3154H119.131C135.738 85.3154 149.199 98.7773 149.199 115.384C149.199 131.99 135.737 145.452 119.131 145.452Z" fill="white"/>
<path d="M119.132 145.812H30.4282C13.6501 145.812 0 132.162 0 115.384C0 98.6054 13.6498 84.9553 30.4282 84.9553H119.132C135.91 84.9553 149.56 98.6052 149.56 115.384C149.56 132.162 135.91 145.812 119.132 145.812ZM30.428 85.6755C14.0469 85.6755 0.719952 99.0025 0.719952 115.384C0.719952 131.765 14.0469 145.092 30.428 145.092H119.132C135.513 145.092 148.84 131.765 148.84 115.384C148.84 99.0025 135.513 85.6755 119.132 85.6755H30.428Z" fill="#404040"/>
<path d="M41.4106 129.667C40.2172 129.667 39.25 128.7 39.25 127.507V103.26C39.25 102.067 40.2172 101.1 41.4106 101.1C42.6039 101.1 43.5712 102.067 43.5712 103.26V127.507C43.5712 128.7 42.6037 129.667 41.4106 129.667Z" fill="#6397FF"/>
<path d="M53.5341 117.544H29.2875C28.0942 117.544 27.127 116.577 27.127 115.383C27.127 114.19 28.0942 113.223 29.2875 113.223H53.5341C54.7274 113.223 55.6946 114.19 55.6946 115.383C55.6946 116.577 54.7272 117.544 53.5341 117.544Z" fill="#6397FF"/>
<path d="M49.9833 126.117C49.4304 126.117 48.8773 125.906 48.4555 125.484L31.3106 108.339C30.4668 107.495 30.4668 106.127 31.3106 105.283C32.1544 104.439 33.5223 104.439 34.3661 105.283L51.5111 122.428C52.3549 123.272 52.3549 124.64 51.5111 125.484C51.0891 125.906 50.5362 126.117 49.9833 126.117Z" fill="#6397FF"/>
<path d="M32.8384 126.117C32.2855 126.117 31.7326 125.906 31.3106 125.484C30.4668 124.64 30.4668 123.272 31.3106 122.428L48.4555 105.284C49.2994 104.44 50.6673 104.44 51.5111 105.284C52.3549 106.127 52.3549 107.495 51.5111 108.339L34.3661 125.484C33.9441 125.906 33.3912 126.117 32.8384 126.117Z" fill="#6397FF"/>
<path d="M74.7787 129.667C73.5854 129.667 72.6182 128.7 72.6182 127.507V103.26C72.6182 102.067 73.5854 101.1 74.7787 101.1C75.9721 101.1 76.9393 102.067 76.9393 103.26V127.507C76.9393 128.7 75.9719 129.667 74.7787 129.667Z" fill="#6397FF"/>
<path d="M86.9022 117.544H62.6557C61.4623 117.544 60.4951 116.577 60.4951 115.383C60.4951 114.19 61.4623 113.223 62.6557 113.223H86.9022C88.0956 113.223 89.0628 114.19 89.0628 115.383C89.0628 116.577 88.0954 117.544 86.9022 117.544Z" fill="#6397FF"/>
<path d="M83.3515 126.117C82.7986 126.117 82.2455 125.906 81.8237 125.484L64.6788 108.339C63.8349 107.495 63.8349 106.127 64.6788 105.283C65.5226 104.439 66.8905 104.439 67.7343 105.283L84.8793 122.428C85.7231 123.272 85.7231 124.64 84.8793 125.484C84.4572 125.906 83.9043 126.117 83.3515 126.117Z" fill="#6397FF"/>
<path d="M66.2065 126.117C65.6537 126.117 65.1008 125.906 64.6788 125.484C63.8349 124.64 63.8349 123.272 64.6788 122.428L81.8237 105.284C82.6675 104.44 84.0354 104.44 84.8793 105.284C85.7231 106.127 85.7231 107.495 84.8793 108.339L67.7343 125.484C67.3123 125.906 66.7594 126.117 66.2065 126.117Z" fill="#6397FF"/>
<path d="M108.149 129.667C106.956 129.667 105.988 128.7 105.988 127.507V103.26C105.988 102.067 106.956 101.1 108.149 101.1C109.342 101.1 110.309 102.067 110.309 103.26V127.507C110.309 128.7 109.342 129.667 108.149 129.667Z" fill="#6397FF"/>
<path d="M120.271 117.544H96.0248C94.8315 117.544 93.8643 116.577 93.8643 115.383C93.8643 114.19 94.8315 113.223 96.0248 113.223H120.271C121.465 113.223 122.432 114.19 122.432 115.383C122.432 116.577 121.464 117.544 120.271 117.544Z" fill="#6397FF"/>
<path d="M116.721 126.117C116.168 126.117 115.615 125.906 115.193 125.484L98.0479 108.339C97.2041 107.495 97.2041 106.127 98.0479 105.283C98.8917 104.439 100.26 104.439 101.103 105.283L118.248 122.428C119.092 123.272 119.092 124.64 118.248 125.484C117.826 125.906 117.273 126.117 116.721 126.117Z" fill="#6397FF"/>
<path d="M99.5757 126.117C99.0228 126.117 98.4699 125.906 98.0479 125.484C97.2041 124.64 97.2041 123.272 98.0479 122.428L115.193 105.284C116.037 104.44 117.405 104.44 118.248 105.284C119.092 106.127 119.092 107.495 118.248 108.339L101.103 125.484C100.681 125.906 100.129 126.117 99.5757 126.117Z" fill="#6397FF"/>
<path d="M249.045 31.4304C246.927 31.4304 245.204 29.7072 245.204 27.5893C245.204 25.4715 246.927 23.7483 249.045 23.7483C251.163 23.7483 252.886 25.4715 252.886 27.5893C252.886 29.7072 251.163 31.4304 249.045 31.4304ZM249.045 24.4685C247.324 24.4685 245.924 25.8685 245.924 27.5893C245.924 29.3101 247.324 30.7102 249.045 30.7102C250.766 30.7102 252.166 29.3101 252.166 27.5893C252.166 25.8685 250.766 24.4685 249.045 24.4685Z" fill="#404040"/>
<path d="M101.886 269.815C99.7681 269.815 98.0449 268.091 98.0449 265.974C98.0449 263.856 99.7681 262.133 101.886 262.133C104.004 262.133 105.727 263.856 105.727 265.974C105.727 268.091 104.004 269.815 101.886 269.815ZM101.886 262.853C100.165 262.853 98.7651 264.253 98.7651 265.974C98.7651 267.694 100.165 269.094 101.886 269.094C103.607 269.094 105.007 267.694 105.007 265.974C105.007 264.253 103.607 262.853 101.886 262.853Z" fill="#404040"/>
<defs>
<filter id="filter0_d_1220_3233" x="128.104" y="23.6799" width="110.156" height="96.5857" filterUnits="userSpaceOnUse" color-interpolation-filters="sRGB">
<feFlood flood-opacity="0" result="BackgroundImageFix"/>
<feColorMatrix in="SourceAlpha" type="matrix" values="0 0 0 0 0 0 0 0 0 0 0 0 0 0 0 0 0 0 127 0" result="hardAlpha"/>
<feOffset dx="9" dy="11"/>
<feGaussianBlur stdDeviation="1"/>
<feComposite in2="hardAlpha" operator="out"/>
<feColorMatrix type="matrix" values="0 0 0 0 0 0 0 0 0 0 0 0 0 0 0 0 0 0 0.25 0"/>
<feBlend mode="normal" in2="BackgroundImageFix" result="effect1_dropShadow_1220_3233"/>
<feBlend mode="normal" in="SourceGraphic" in2="effect1_dropShadow_1220_3233" result="shape"/>
</filter>
<filter id="filter1_d_1220_3233" x="106.801" y="89.2363" width="152.568" height="129.164" filterUnits="userSpaceOnUse" color-interpolation-filters="sRGB">
<feFlood flood-opacity="0" result="BackgroundImageFix"/>
<feColorMatrix in="SourceAlpha" type="matrix" values="0 0 0 0 0 0 0 0 0 0 0 0 0 0 0 0 0 0 127 0" result="hardAlpha"/>
<feOffset dx="9" dy="11"/>
<feGaussianBlur stdDeviation="0.9"/>
<feComposite in2="hardAlpha" operator="out"/>
<feColorMatrix type="matrix" values="0 0 0 0 0 0 0 0 0 0 0 0 0 0 0 0 0 0 0.25 0"/>
<feBlend mode="normal" in2="BackgroundImageFix" result="effect1_dropShadow_1220_3233"/>
<feBlend mode="normal" in="SourceGraphic" in2="effect1_dropShadow_1220_3233" result="shape"/>
</filter>
</defs>
</svg>
