<svg width="24" height="24" viewBox="0 0 24 24" fill="none" xmlns="http://www.w3.org/2000/svg">
<path d="M23.6096 11.0569L21.8993 9.34756L22.5251 7.01156C22.7162 6.30044 22.2931 5.56889 21.5829 5.37867L19.2469 4.75289L18.6211 2.41689C18.43 1.70578 17.6984 1.28356 16.9882 1.47467L14.6522 2.10044L12.9429 0.390222C12.6824 0.129778 12.3411 0 11.9998 0C11.6584 0 11.3171 0.129778 11.0567 0.390222L9.34733 2.10044L7.01133 1.47467C6.30022 1.28356 5.56956 1.70578 5.37844 2.41689L4.75267 4.75289L2.41667 5.37867C1.70556 5.56978 1.28333 6.30044 1.47444 7.01156L2.10022 9.34756L0.39 11.0569C-0.13 11.5778 -0.13 12.4222 0.39 12.9431L2.10022 14.6524L1.47444 16.9884C1.28333 17.6996 1.70556 18.4302 2.41667 18.6213L4.75267 19.2471L5.37844 21.5831C5.56867 22.2942 6.30022 22.7164 7.01133 22.5253L9.34733 21.8996L11.0567 23.6098C11.3171 23.8702 11.6584 24 11.9998 24C12.3411 24 12.6824 23.8702 12.9429 23.6098L14.6522 21.8996L16.9882 22.5253C17.6993 22.7164 18.4309 22.2933 18.6211 21.5831L19.2469 19.2471L21.5829 18.6213C22.294 18.4311 22.7162 17.6996 22.5251 16.9884L21.8993 14.6524L23.6096 12.9431C24.1296 12.4222 24.1296 11.5778 23.6096 11.0569Z" fill="#0566EA"/>
<path d="M23.6088 12.9431L21.8986 14.6524L22.5244 16.9884C22.7155 17.6996 22.2932 18.4311 21.5821 18.6213L19.2461 19.2471L18.6204 21.5831C18.4301 22.2933 17.6986 22.7164 16.9875 22.5253L14.6515 21.8996L12.9421 23.6098C12.6817 23.8702 12.3404 24 11.999 24V0C12.3404 0 12.6817 0.129778 12.9421 0.390222L14.6515 2.10044L16.9875 1.47467C17.6977 1.28356 18.4292 1.70578 18.6204 2.41689L19.2461 4.75289L21.5821 5.37867C22.2924 5.56889 22.7155 6.30044 22.5244 7.01156L21.8986 9.34756L23.6088 11.0569C24.1288 11.5778 24.1288 12.4222 23.6088 12.9431Z" fill="#0566EA"/>
<path d="M14.6663 15.9997C15.4027 15.9997 15.9997 15.4027 15.9997 14.6663C15.9997 13.93 15.4027 13.333 14.6663 13.333C13.93 13.333 13.333 13.93 13.333 14.6663C13.333 15.4027 13.93 15.9997 14.6663 15.9997Z" fill="white"/>
<path d="M15.6086 10.2772L10.2752 15.6105C9.75791 16.1279 8.91169 16.1332 8.38902 15.6105C7.86902 15.0896 7.86902 14.2452 8.38902 13.7243L11.9988 10.1145L13.7224 8.39098C14.2432 7.87098 15.0877 7.87098 15.6086 8.39098C16.1286 8.91187 16.1286 9.75631 15.6086 10.2772Z" fill="white"/>
<path d="M15.6088 10.2772L11.999 13.887V10.1145L13.7226 8.39098C14.2435 7.87098 15.0879 7.87098 15.6088 8.39098C16.1288 8.91187 16.1288 9.75631 15.6088 10.2772Z" fill="white"/>
<path d="M9.33236 10.6676C10.0687 10.6676 10.6657 10.0707 10.6657 9.33431C10.6657 8.59793 10.0687 8.00098 9.33236 8.00098C8.59598 8.00098 7.99902 8.59793 7.99902 9.33431C7.99902 10.0707 8.59598 10.6676 9.33236 10.6676Z" fill="#F2F2FC"/>
</svg>
