<svg width="58" height="16" viewBox="0 0 58 16" fill="none" xmlns="http://www.w3.org/2000/svg">
<path d="M13.7444 4.68086C13.7444 4.86394 13.739 5.13855 13.7282 5.5047C13.7282 5.87085 13.7175 6.28546 13.6959 6.74853C13.6744 7.20083 13.6421 7.67467 13.599 8.17005C13.5667 8.65466 13.5182 9.11235 13.4536 9.54311C13.389 9.97388 13.3082 10.3508 13.2113 10.6739C13.1252 10.9969 13.0175 11.2123 12.8882 11.32C12.7913 11.4062 12.6621 11.4923 12.5006 11.5785C12.3498 11.6646 12.1883 11.7454 12.0159 11.8208C11.8544 11.8962 11.6929 11.9662 11.5313 12.0308C11.3698 12.0846 11.2244 12.1277 11.0952 12.16C11.2998 12.6446 11.499 13.1185 11.6929 13.5815C11.8867 14.0554 12.0806 14.5346 12.2744 15.0192L9.88366 15.5846C9.57136 15.1323 9.27521 14.68 8.99521 14.2277C8.72598 13.7754 8.43522 13.3285 8.12291 12.8869C8.03676 12.8977 7.95061 12.9031 7.86445 12.9031C7.7783 12.9031 7.69215 12.9031 7.60599 12.9031C7.42292 12.9031 7.14831 12.8923 6.78216 12.8708C6.42678 12.8492 6.02293 12.8169 5.57063 12.7738C5.1291 12.7308 4.66603 12.6769 4.18142 12.6123C3.69681 12.5477 3.2445 12.4777 2.82451 12.4023C2.41528 12.3269 2.0599 12.2408 1.75837 12.1439C1.45683 12.0469 1.26299 11.9446 1.17683 11.8369C1.02607 11.6539 0.896837 11.3523 0.789145 10.9323C0.692223 10.5016 0.611455 10.0439 0.54684 9.55927C0.482226 9.06389 0.433765 8.59005 0.401457 8.13775C0.36915 7.67467 0.352996 7.32468 0.352996 7.08776C0.342227 6.81853 0.336843 6.55469 0.336843 6.29623C0.336843 6.027 0.336843 5.75239 0.336843 5.47239C0.336843 5.26778 0.336843 5.00393 0.336843 4.68086C0.347612 4.35779 0.36915 4.02394 0.401457 3.67933C0.433765 3.33472 0.48761 3.01165 0.562994 2.71011C0.638378 2.40858 0.751454 2.17704 0.902221 2.01551C0.988374 1.91858 1.17683 1.82705 1.4676 1.74089C1.76913 1.64397 2.12452 1.55782 2.53374 1.48243C2.94297 1.39628 3.3845 1.3209 3.85834 1.25628C4.33218 1.19167 4.79526 1.13244 5.24756 1.07859C5.69986 1.02475 6.11447 0.987055 6.49139 0.965517C6.87908 0.933209 7.18061 0.911671 7.396 0.900902C7.7083 0.890133 8.0206 0.884748 8.33291 0.884748C8.64521 0.873979 8.95752 0.868595 9.26982 0.868595C9.67905 0.868595 10.1098 0.879364 10.5621 0.900902C11.0252 0.911671 11.4613 0.98167 11.8706 1.1109C12.2906 1.22936 12.6567 1.4232 12.969 1.69243C13.2921 1.96166 13.5182 2.34396 13.6475 2.83934C13.669 2.93626 13.6852 3.06549 13.6959 3.22703C13.7175 3.38857 13.7282 3.56087 13.7282 3.74395C13.739 3.92702 13.7444 4.10471 13.7444 4.27702C13.7444 4.44932 13.7444 4.58394 13.7444 4.68086ZM10.2552 5.61777C10.2552 5.56393 10.2552 5.49393 10.2552 5.40778C10.2552 5.32162 10.2498 5.23547 10.239 5.14932C10.2283 5.06316 10.2067 4.9824 10.1744 4.90701C10.1529 4.83163 10.1206 4.7724 10.0775 4.72932C10.0237 4.68625 9.94828 4.64855 9.85135 4.61625C9.75443 4.58394 9.64674 4.5624 9.52828 4.55163C9.42059 4.54086 9.30751 4.53548 9.18905 4.53548C9.08136 4.52471 8.99521 4.51932 8.93059 4.51932C8.77983 4.51932 8.54291 4.53009 8.21983 4.55163C7.90753 4.57317 7.55215 4.60548 7.15369 4.64855C6.766 4.69163 6.35678 4.74548 5.92601 4.81009C5.49525 4.86394 5.09679 4.92855 4.73064 5.00393C4.36449 5.07932 4.0468 5.16009 3.77757 5.24624C3.51912 5.33239 3.35758 5.42393 3.29296 5.52085C3.24989 5.58547 3.22296 5.67162 3.2122 5.77931C3.2122 5.887 3.2122 5.98392 3.2122 6.07008C3.2122 6.28546 3.22835 6.55469 3.26066 6.87776C3.29296 7.20083 3.33604 7.53468 3.38989 7.87929C3.44373 8.2239 3.49758 8.55774 3.55142 8.88081C3.61604 9.20389 3.67527 9.46773 3.72911 9.67234C3.98757 9.76927 4.21911 9.85003 4.42372 9.91465C4.62833 9.96849 4.82756 10.0116 5.02141 10.0439C5.21525 10.0762 5.41448 10.1031 5.61909 10.1246C5.83447 10.1354 6.08216 10.1462 6.36216 10.157L5.36063 8.54159C5.64063 8.40159 5.90447 8.26697 6.15216 8.13775C6.39985 8.00852 6.64754 7.89006 6.89523 7.78236C7.14292 7.67467 7.396 7.57775 7.65445 7.4916C7.92368 7.40545 8.21445 7.32468 8.52675 7.24929L9.60905 9.46235C9.8352 8.84851 9.99674 8.21851 10.0937 7.57237C10.2013 6.91545 10.2552 6.26392 10.2552 5.61777ZM27.8788 4.89086C27.8788 5.12778 27.8627 5.41316 27.8304 5.747C27.8088 6.08085 27.7658 6.42007 27.7012 6.76468C27.6473 7.1093 27.5665 7.43237 27.4589 7.7339C27.3512 8.03544 27.2165 8.27236 27.055 8.44467C26.9904 8.52005 26.7804 8.59543 26.425 8.67082C26.0804 8.73543 25.6604 8.80543 25.165 8.88081C24.6804 8.94543 24.1581 9.01004 23.5981 9.07466C23.0381 9.13927 22.5051 9.1985 21.9989 9.25235C21.5035 9.29543 21.0728 9.33312 20.7066 9.36542C20.3405 9.39773 20.1089 9.41389 20.012 9.41389L19.8828 12.7738C19.5489 12.7954 19.2205 12.8008 18.8974 12.79C18.5743 12.7685 18.2459 12.7577 17.912 12.7577C17.6967 12.7577 17.4813 12.7631 17.2659 12.7738C17.0505 12.7846 16.8351 12.8008 16.6197 12.8223C16.6197 11.81 16.6197 10.8085 16.6197 9.81773C16.6197 8.82697 16.5982 7.82544 16.5551 6.81314C16.5228 5.89777 16.4905 4.98778 16.4582 4.08317C16.4367 3.17857 16.4151 2.26858 16.3936 1.3532C17.5028 1.27782 18.6174 1.18628 19.7374 1.07859C20.8682 0.960132 21.9935 0.900902 23.1135 0.900902C23.3074 0.900902 23.6143 0.92244 24.0343 0.965517C24.4543 0.997824 24.8958 1.05705 25.3589 1.14321C25.8219 1.21859 26.2473 1.31551 26.635 1.43397C27.0335 1.55243 27.2973 1.68705 27.4265 1.83781C27.5127 1.93474 27.5827 2.1232 27.6365 2.40319C27.7012 2.68319 27.7496 2.98473 27.7819 3.3078C27.8142 3.6201 27.8358 3.92702 27.8465 4.22856C27.8681 4.53009 27.8788 4.75086 27.8788 4.89086ZM23.3558 4.77778C23.3558 4.68086 23.3504 4.55702 23.3397 4.40625C23.3289 4.25548 23.3074 4.1101 23.2751 3.9701C23.2535 3.81933 23.2158 3.68472 23.162 3.56626C23.1081 3.43703 23.0381 3.34549 22.952 3.29164C22.8981 3.25934 22.812 3.23241 22.6935 3.21088C22.5751 3.18934 22.4512 3.17318 22.322 3.16242C22.1928 3.15165 22.0689 3.14626 21.9505 3.14626C21.832 3.13549 21.7458 3.13011 21.692 3.13011C21.2935 3.13011 20.8951 3.15165 20.4966 3.19472C20.0982 3.2378 19.6943 3.29164 19.2851 3.35626C19.3174 3.67933 19.3336 3.99702 19.3336 4.30933C19.3443 4.62163 19.3497 4.93393 19.3497 5.24624C19.3497 5.75239 19.3659 6.26392 19.3982 6.78084C19.5382 6.78084 19.7805 6.77545 20.1251 6.76468C20.4697 6.74315 20.8305 6.71622 21.2074 6.68392C21.5843 6.64084 21.9397 6.58699 22.2735 6.52238C22.6074 6.44699 22.8335 6.35007 22.952 6.23161C23.1458 6.04854 23.2589 5.82777 23.2912 5.56931C23.3343 5.30008 23.3558 5.03624 23.3558 4.77778ZM32.3534 2.1932C32.3534 2.40858 32.305 2.61319 32.208 2.80703C32.1219 2.99011 31.998 3.15165 31.8365 3.29164C31.6857 3.43164 31.5134 3.54472 31.3196 3.63087C31.1257 3.70626 30.9319 3.74395 30.738 3.74395C30.5227 3.74395 30.3181 3.69549 30.1242 3.59856C29.9411 3.50164 29.7796 3.3778 29.6396 3.22703C29.4996 3.07626 29.3919 2.90396 29.3165 2.71011C29.2411 2.5055 29.2035 2.30089 29.2035 2.09627C29.2035 1.89166 29.2411 1.7032 29.3165 1.5309C29.4027 1.34782 29.5104 1.19167 29.6396 1.06244C29.7796 0.933209 29.9357 0.830903 30.1081 0.755519C30.2911 0.680135 30.485 0.642443 30.6896 0.642443C30.8942 0.642443 31.0934 0.68552 31.2873 0.771673C31.4919 0.847056 31.6696 0.960132 31.8203 1.1109C31.9819 1.2509 32.1111 1.41782 32.208 1.61166C32.305 1.79474 32.3534 1.98858 32.3534 2.1932ZM33.0157 4.93932C32.9619 5.51008 32.9188 6.07546 32.8865 6.63545C32.8542 7.19545 32.8219 7.75544 32.7896 8.31544C32.7465 8.97235 32.6711 9.62388 32.5634 10.27C32.4665 10.9162 32.3534 11.5623 32.2242 12.2085L29.7527 12.4669C29.7527 12.1223 29.7527 11.7831 29.7527 11.4492C29.7634 11.1154 29.7688 10.7762 29.7688 10.4316C29.7688 9.5485 29.7527 8.66543 29.7204 7.78236C29.6881 6.8993 29.6558 6.01623 29.6234 5.13316C30.1942 5.11162 30.7542 5.07932 31.3034 5.03624C31.8634 4.99316 32.4342 4.96086 33.0157 4.93932ZM45.2602 4.48702C45.2602 4.9824 45.1956 5.46162 45.0664 5.92469C44.991 5.93546 44.7648 5.95162 44.3879 5.97315C44.0217 5.98392 43.5802 6.00546 43.0633 6.03777C42.5571 6.05931 42.0079 6.09161 41.4156 6.13469C40.8341 6.167 40.2903 6.20469 39.7841 6.24777C39.2887 6.29084 38.8633 6.3393 38.508 6.39315C38.1634 6.43623 37.9695 6.4793 37.9264 6.52238C37.7541 6.67315 37.6249 6.85622 37.5387 7.0716C37.4526 7.28699 37.4095 7.50237 37.4095 7.71775C37.4095 7.84698 37.4203 7.94929 37.4418 8.02467C37.4741 8.08928 37.5226 8.16467 37.5872 8.25082C37.6195 8.28313 37.7326 8.31005 37.9264 8.33159C38.1203 8.35313 38.3357 8.36928 38.5726 8.38005C38.8095 8.39082 39.0303 8.40159 39.2349 8.41236C39.4395 8.41236 39.558 8.41236 39.5903 8.41236C40.3656 8.41236 41.141 8.3962 41.9164 8.3639C42.6918 8.33159 43.4671 8.28851 44.2425 8.23467L44.3717 11.0131C43.2948 11.0993 42.2125 11.1854 41.1249 11.2716C40.0479 11.3469 38.9656 11.3846 37.878 11.3846C37.8241 11.3846 37.7434 11.3846 37.6357 11.3846C37.5387 11.3846 37.4311 11.3846 37.3126 11.3846C37.1941 11.3739 37.0811 11.3631 36.9734 11.3523C36.8657 11.3416 36.7903 11.3308 36.7472 11.32C36.5211 11.2554 36.2949 11.1854 36.0688 11.11C35.8534 11.0239 35.6488 10.9216 35.4549 10.8031C35.2611 10.6739 35.0888 10.5231 34.938 10.3508C34.798 10.1785 34.6957 9.96849 34.6311 9.72081C34.588 9.55927 34.5503 9.34927 34.518 9.09081C34.4965 8.82158 34.4803 8.54697 34.4695 8.26697C34.4588 7.98698 34.448 7.71237 34.4372 7.44314C34.4372 7.17391 34.4372 6.94776 34.4372 6.76468C34.4372 6.34469 34.4426 5.95162 34.4534 5.58547C34.4642 5.21932 34.5234 4.88547 34.6311 4.58394C34.7388 4.27163 34.9111 3.99702 35.148 3.7601C35.3957 3.51241 35.7457 3.29703 36.198 3.11395C36.4026 3.0278 36.7095 2.96319 37.1187 2.92011C37.528 2.86626 37.9534 2.82857 38.3949 2.80703C38.8472 2.77473 39.278 2.75319 39.6872 2.74242C40.0964 2.73165 40.4141 2.72627 40.6402 2.72627C41.3941 2.72627 42.1425 2.74242 42.8856 2.77473C43.6394 2.80703 44.3933 2.85011 45.1471 2.90396C45.1794 3.17318 45.2064 3.44241 45.2279 3.71164C45.2494 3.9701 45.2602 4.22856 45.2602 4.48702ZM57.4078 4.09933L53.2563 7.10391C53.2886 7.23314 53.3532 7.44314 53.4501 7.7339C53.547 8.0139 53.6547 8.31005 53.7732 8.62236C53.8916 8.92389 54.0155 9.20927 54.1447 9.4785C54.2847 9.73696 54.4139 9.90388 54.5324 9.97926C54.6078 10.0331 54.7047 10.0762 54.8232 10.1085C54.9416 10.1408 55.0601 10.1677 55.1785 10.1893C55.3078 10.2108 55.4316 10.227 55.5501 10.2377C55.6793 10.2377 55.787 10.2377 55.8732 10.2377C56.0239 10.2377 56.1801 10.2323 56.3416 10.2216C56.5031 10.2108 56.6593 10.1946 56.8101 10.1731C56.7885 10.3131 56.7724 10.4585 56.7616 10.6093C56.7508 10.7493 56.7455 10.8946 56.7455 11.0454C56.7455 11.3039 56.7508 11.5623 56.7616 11.8208C56.7724 12.0792 56.7778 12.3323 56.7778 12.58C56.7024 12.5908 56.5678 12.6069 56.3739 12.6285C56.1908 12.6392 55.9755 12.6554 55.7278 12.6769C55.4909 12.6877 55.2378 12.7038 54.9686 12.7254C54.6993 12.7469 54.4462 12.7685 54.2093 12.79C53.9832 12.8008 53.7839 12.8062 53.6116 12.8062C53.4501 12.8062 53.3478 12.7954 53.3047 12.7738C53.1216 12.6877 52.944 12.5962 52.7717 12.4992C52.5993 12.4023 52.454 12.2677 52.3355 12.0954C52.2817 12.02 52.1901 11.8154 52.0609 11.4816C51.9424 11.1477 51.8132 10.7816 51.6732 10.3831C51.544 9.98465 51.4201 9.61311 51.3017 9.2685C51.194 8.92389 51.124 8.70312 51.0917 8.6062L49.5409 9.60773V12.4185L46.3425 12.6931C46.4071 11.1854 46.4771 9.6885 46.5525 8.20236C46.6279 6.70545 46.6656 5.19778 46.6656 3.67933C46.6656 3.21626 46.6602 2.75857 46.6494 2.30627C46.6494 1.85397 46.644 1.3909 46.6333 0.917056C47.0748 1.00321 47.5109 1.05705 47.9417 1.07859C48.3832 1.10013 48.8248 1.13244 49.2663 1.17551V7.21699C50.1063 6.70007 50.9247 6.17238 51.7217 5.63393C52.5293 5.09547 53.3101 4.50317 54.0639 3.85702C54.6347 3.92164 55.1893 3.9701 55.7278 4.00241C56.277 4.03471 56.837 4.06702 57.4078 4.09933Z" fill="#DA1DE7"/>
</svg>
