<svg width="196" height="31" viewBox="0 0 196 31" fill="none" xmlns="http://www.w3.org/2000/svg">
<path d="M26.9707 8.41895C26.9707 8.78418 26.96 9.33203 26.9385 10.0625C26.9385 10.793 26.917 11.6201 26.874 12.5439C26.8311 13.4463 26.7666 14.3916 26.6807 15.3799C26.6162 16.3467 26.5195 17.2598 26.3906 18.1191C26.2617 18.9785 26.1006 19.7305 25.9072 20.375C25.7354 21.0195 25.5205 21.4492 25.2627 21.6641C25.0693 21.8359 24.8115 22.0078 24.4893 22.1797C24.1885 22.3516 23.8662 22.5127 23.5225 22.6631C23.2002 22.8135 22.8779 22.9531 22.5557 23.082C22.2334 23.1895 21.9434 23.2754 21.6855 23.3398C22.0938 24.3066 22.4912 25.252 22.8779 26.1758C23.2646 27.1211 23.6514 28.0771 24.0381 29.0439L19.2686 30.1719C18.6455 29.2695 18.0547 28.3672 17.4961 27.4648C16.959 26.5625 16.3789 25.6709 15.7559 24.79C15.584 24.8115 15.4121 24.8223 15.2402 24.8223C15.0684 24.8223 14.8965 24.8223 14.7246 24.8223C14.3594 24.8223 13.8115 24.8008 13.0811 24.7578C12.3721 24.7148 11.5664 24.6504 10.6641 24.5645C9.7832 24.4785 8.85938 24.3711 7.89258 24.2422C6.92578 24.1133 6.02344 23.9736 5.18555 23.8232C4.36914 23.6729 3.66016 23.501 3.05859 23.3076C2.45703 23.1143 2.07031 22.9102 1.89844 22.6953C1.59766 22.3301 1.33984 21.7285 1.125 20.8906C0.931641 20.0312 0.770508 19.1182 0.641602 18.1514C0.512695 17.1631 0.416016 16.2178 0.351562 15.3154C0.287109 14.3916 0.254883 13.6934 0.254883 13.2207C0.233398 12.6836 0.222656 12.1572 0.222656 11.6416C0.222656 11.1045 0.222656 10.5566 0.222656 9.99805C0.222656 9.58984 0.222656 9.06348 0.222656 8.41895C0.244141 7.77441 0.287109 7.1084 0.351562 6.4209C0.416016 5.7334 0.523438 5.08887 0.673828 4.4873C0.824219 3.88574 1.0498 3.42383 1.35059 3.10156C1.52246 2.9082 1.89844 2.72559 2.47852 2.55371C3.08008 2.36035 3.78906 2.18848 4.60547 2.03809C5.42188 1.86621 6.30273 1.71582 7.24805 1.58691C8.19336 1.45801 9.11719 1.33984 10.0195 1.23242C10.9219 1.125 11.749 1.0498 12.501 1.00684C13.2744 0.942383 13.876 0.899414 14.3057 0.87793C14.9287 0.856445 15.5518 0.845703 16.1748 0.845703C16.7979 0.824219 17.4209 0.813477 18.0439 0.813477C18.8604 0.813477 19.7197 0.834961 20.6221 0.87793C21.5459 0.899414 22.416 1.03906 23.2324 1.29688C24.0703 1.5332 24.8008 1.91992 25.4238 2.45703C26.0684 2.99414 26.5195 3.75684 26.7773 4.74512C26.8203 4.93848 26.8525 5.19629 26.874 5.51855C26.917 5.84082 26.9385 6.18457 26.9385 6.5498C26.96 6.91504 26.9707 7.26953 26.9707 7.61328C26.9707 7.95703 26.9707 8.22559 26.9707 8.41895ZM20.0098 10.2881C20.0098 10.1807 20.0098 10.041 20.0098 9.86914C20.0098 9.69727 19.999 9.52539 19.9775 9.35352C19.9561 9.18164 19.9131 9.02051 19.8486 8.87012C19.8057 8.71973 19.7412 8.60156 19.6553 8.51562C19.5479 8.42969 19.3975 8.35449 19.2041 8.29004C19.0107 8.22559 18.7959 8.18262 18.5596 8.16113C18.3447 8.13965 18.1191 8.12891 17.8828 8.12891C17.668 8.10742 17.4961 8.09668 17.3672 8.09668C17.0664 8.09668 16.5938 8.11816 15.9492 8.16113C15.3262 8.2041 14.6172 8.26855 13.8223 8.35449C13.0488 8.44043 12.2324 8.54785 11.373 8.67676C10.5137 8.78418 9.71875 8.91309 8.98828 9.06348C8.25781 9.21387 7.62402 9.375 7.08691 9.54688C6.57129 9.71875 6.24902 9.90137 6.12012 10.0947C6.03418 10.2236 5.98047 10.3955 5.95898 10.6104C5.95898 10.8252 5.95898 11.0186 5.95898 11.1904C5.95898 11.6201 5.99121 12.1572 6.05566 12.8018C6.12012 13.4463 6.20605 14.1123 6.31348 14.7998C6.4209 15.4873 6.52832 16.1533 6.63574 16.7979C6.76465 17.4424 6.88281 17.9688 6.99023 18.377C7.50586 18.5703 7.96777 18.7314 8.37598 18.8604C8.78418 18.9678 9.18164 19.0537 9.56836 19.1182C9.95508 19.1826 10.3525 19.2363 10.7607 19.2793C11.1904 19.3008 11.6846 19.3223 12.2432 19.3438L10.2451 16.1211C10.8037 15.8418 11.3301 15.5732 11.8242 15.3154C12.3184 15.0576 12.8125 14.8213 13.3066 14.6064C13.8008 14.3916 14.3057 14.1982 14.8213 14.0264C15.3584 13.8545 15.9385 13.6934 16.5615 13.543L18.7207 17.958C19.1719 16.7334 19.4941 15.4766 19.6875 14.1875C19.9023 12.877 20.0098 11.5771 20.0098 10.2881ZM52.6875 23.3721L47.2412 23.5977L46.8545 20.3428C46.4463 20.9014 45.9521 21.374 45.3721 21.7607C44.8135 22.1475 44.2012 22.459 43.5352 22.6953C42.8906 22.9316 42.2139 23.1035 41.5049 23.2109C40.8174 23.2969 40.1406 23.3398 39.4746 23.3398C38.959 23.3398 38.3145 23.2969 37.541 23.2109C36.7891 23.125 36.0156 23.0068 35.2207 22.8564C34.4473 22.6846 33.7275 22.4697 33.0615 22.2119C32.3955 21.9541 31.9121 21.6533 31.6113 21.3096C31.375 21.0518 31.1924 20.6436 31.0635 20.085C30.9561 19.5049 30.8809 18.8926 30.8379 18.248C30.7949 17.6035 30.7734 16.9805 30.7734 16.3789C30.7734 15.7773 30.7734 15.2939 30.7734 14.9287C30.7734 13.3174 30.8379 11.7275 30.9668 10.1592C31.0957 8.59082 31.2783 7.0332 31.5146 5.48633C32.1162 5.42188 32.7607 5.38965 33.4482 5.38965C34.0068 5.38965 34.5654 5.43262 35.124 5.51855C35.6826 5.58301 36.2412 5.66895 36.7998 5.77637C36.7998 5.88379 36.8105 6.19531 36.832 6.71094C36.8535 7.22656 36.875 7.83887 36.8965 8.54785C36.9395 9.25684 36.9824 10.0195 37.0254 10.8359C37.0684 11.6309 37.1113 12.3721 37.1543 13.0596C37.2188 13.7471 37.2832 14.3379 37.3477 14.832C37.4336 15.3047 37.5195 15.5625 37.6055 15.6055C37.9277 15.7988 38.2822 15.9062 38.6689 15.9277C39.0557 15.9492 39.4316 15.96 39.7969 15.96C40.0547 15.96 40.4521 15.9492 40.9893 15.9277C41.5479 15.8848 42.1172 15.8311 42.6973 15.7666C43.2773 15.6807 43.8145 15.584 44.3086 15.4766C44.8027 15.3477 45.1357 15.1973 45.3076 15.0254C45.3721 14.9609 45.415 14.7568 45.4365 14.4131C45.4795 14.0693 45.501 13.6934 45.501 13.2852C45.5225 12.877 45.5332 12.501 45.5332 12.1572C45.5547 11.792 45.5654 11.5771 45.5654 11.5127C45.5654 10.5459 45.5439 9.58984 45.501 8.64453C45.458 7.69922 45.415 6.74316 45.3721 5.77637L51.624 5.48633C51.7529 6.99023 51.8711 8.49414 51.9785 9.99805C52.0859 11.4805 52.2256 12.9736 52.3975 14.4775C52.4619 14.9717 52.4941 15.4766 52.4941 15.9922C52.5156 16.5078 52.5371 17.0234 52.5586 17.5391C52.6016 18.5059 52.623 19.4727 52.623 20.4395C52.6445 21.4062 52.666 22.3838 52.6875 23.3721ZM61.6465 3.45605C61.6465 3.88574 61.5498 4.29395 61.3564 4.68066C61.1846 5.0459 60.9375 5.36816 60.6152 5.64746C60.3145 5.92676 59.9707 6.15234 59.584 6.32422C59.1973 6.47461 58.8105 6.5498 58.4238 6.5498C57.9941 6.5498 57.5859 6.45312 57.1992 6.25977C56.834 6.06641 56.5117 5.81934 56.2324 5.51855C55.9531 5.21777 55.7383 4.87402 55.5879 4.4873C55.4375 4.0791 55.3623 3.6709 55.3623 3.2627C55.3623 2.85449 55.4375 2.47852 55.5879 2.13477C55.7598 1.76953 55.9746 1.45801 56.2324 1.2002C56.5117 0.942383 56.8232 0.738281 57.167 0.587891C57.5322 0.4375 57.9189 0.362305 58.3271 0.362305C58.7354 0.362305 59.1328 0.448242 59.5195 0.620117C59.9277 0.770508 60.2822 0.996094 60.583 1.29688C60.9053 1.57617 61.1631 1.90918 61.3564 2.2959C61.5498 2.66113 61.6465 3.04785 61.6465 3.45605ZM62.9678 8.93457C62.8604 10.0732 62.7744 11.2012 62.71 12.3184C62.6455 13.4355 62.5811 14.5527 62.5166 15.6699C62.4307 16.9805 62.2803 18.2803 62.0654 19.5693C61.8721 20.8584 61.6465 22.1475 61.3887 23.4365L56.458 23.9521C56.458 23.2646 56.458 22.5879 56.458 21.9219C56.4795 21.2559 56.4902 20.5791 56.4902 19.8916C56.4902 18.1299 56.458 16.3682 56.3936 14.6064C56.3291 12.8447 56.2646 11.083 56.2002 9.32129C57.3389 9.27832 58.4561 9.21387 59.5518 9.12793C60.6689 9.04199 61.8076 8.97754 62.9678 8.93457ZM87.3955 8.03223C87.3955 9.02051 87.2666 9.97656 87.0088 10.9004C86.8584 10.9219 86.4072 10.9541 85.6553 10.9971C84.9248 11.0186 84.0439 11.0615 83.0127 11.126C82.0029 11.1689 80.9072 11.2334 79.7256 11.3193C78.5654 11.3838 77.4805 11.459 76.4707 11.5449C75.4824 11.6309 74.6338 11.7275 73.9248 11.835C73.2373 11.9209 72.8506 12.0068 72.7646 12.0928C72.4209 12.3936 72.1631 12.7588 71.9912 13.1885C71.8193 13.6182 71.7334 14.0479 71.7334 14.4775C71.7334 14.7354 71.7549 14.9395 71.7979 15.0898C71.8623 15.2188 71.959 15.3691 72.0879 15.541C72.1523 15.6055 72.3779 15.6592 72.7646 15.7021C73.1514 15.7451 73.5811 15.7773 74.0537 15.7988C74.5264 15.8203 74.9668 15.8418 75.375 15.8633C75.7832 15.8633 76.0195 15.8633 76.084 15.8633C77.6309 15.8633 79.1777 15.8311 80.7246 15.7666C82.2715 15.7021 83.8184 15.6162 85.3652 15.5088L85.623 21.0518C83.4746 21.2236 81.3154 21.3955 79.1455 21.5674C76.9971 21.7178 74.8379 21.793 72.668 21.793C72.5605 21.793 72.3994 21.793 72.1846 21.793C71.9912 21.793 71.7764 21.793 71.54 21.793C71.3037 21.7715 71.0781 21.75 70.8633 21.7285C70.6484 21.707 70.498 21.6855 70.4121 21.6641C69.9609 21.5352 69.5098 21.3955 69.0586 21.2451C68.6289 21.0732 68.2207 20.8691 67.834 20.6328C67.4473 20.375 67.1035 20.0742 66.8027 19.7305C66.5234 19.3867 66.3193 18.9678 66.1904 18.4736C66.1045 18.1514 66.0293 17.7324 65.9648 17.2168C65.9219 16.6797 65.8896 16.1318 65.8682 15.5732C65.8467 15.0146 65.8252 14.4668 65.8037 13.9297C65.8037 13.3926 65.8037 12.9414 65.8037 12.5762C65.8037 11.7383 65.8145 10.9541 65.8359 10.2236C65.8574 9.49316 65.9756 8.82715 66.1904 8.22559C66.4053 7.60254 66.749 7.05469 67.2217 6.58203C67.7158 6.08789 68.4141 5.6582 69.3164 5.29297C69.7246 5.12109 70.3369 4.99219 71.1533 4.90625C71.9697 4.79883 72.8184 4.72363 73.6992 4.68066C74.6016 4.61621 75.4609 4.57324 76.2773 4.55176C77.0938 4.53027 77.7275 4.51953 78.1787 4.51953C79.6826 4.51953 81.1758 4.55176 82.6582 4.61621C84.1621 4.68066 85.666 4.7666 87.1699 4.87402C87.2344 5.41113 87.2881 5.94824 87.3311 6.48535C87.374 7.00098 87.3955 7.5166 87.3955 8.03223ZM111.63 7.25879L103.348 13.2529C103.412 13.5107 103.541 13.9297 103.734 14.5098C103.928 15.0684 104.143 15.6592 104.379 16.2822C104.615 16.8838 104.862 17.4531 105.12 17.9902C105.399 18.5059 105.657 18.8389 105.894 18.9893C106.044 19.0967 106.237 19.1826 106.474 19.2471C106.71 19.3115 106.946 19.3652 107.183 19.4082C107.44 19.4512 107.688 19.4834 107.924 19.5049C108.182 19.5049 108.396 19.5049 108.568 19.5049C108.869 19.5049 109.181 19.4941 109.503 19.4727C109.825 19.4512 110.137 19.4189 110.438 19.376C110.395 19.6553 110.362 19.9453 110.341 20.2461C110.319 20.5254 110.309 20.8154 110.309 21.1162C110.309 21.6318 110.319 22.1475 110.341 22.6631C110.362 23.1787 110.373 23.6836 110.373 24.1777C110.223 24.1992 109.954 24.2314 109.567 24.2744C109.202 24.2959 108.772 24.3281 108.278 24.3711C107.806 24.3926 107.301 24.4248 106.764 24.4678C106.227 24.5107 105.722 24.5537 105.249 24.5967C104.798 24.6182 104.4 24.6289 104.057 24.6289C103.734 24.6289 103.53 24.6074 103.444 24.5645C103.079 24.3926 102.725 24.21 102.381 24.0166C102.037 23.8232 101.747 23.5547 101.511 23.2109C101.403 23.0605 101.221 22.6523 100.963 21.9863C100.727 21.3203 100.469 20.5898 100.189 19.7949C99.9316 19 99.6846 18.2588 99.4482 17.5713C99.2334 16.8838 99.0938 16.4434 99.0293 16.25L95.9355 18.248V23.8555L89.5547 24.4033C89.6836 21.3955 89.8232 18.4092 89.9736 15.4443C90.124 12.458 90.1992 9.4502 90.1992 6.4209C90.1992 5.49707 90.1885 4.58398 90.167 3.68164C90.167 2.7793 90.1562 1.85547 90.1348 0.910156C91.0156 1.08203 91.8857 1.18945 92.7451 1.23242C93.626 1.27539 94.5068 1.33984 95.3877 1.42578V13.4785C97.0635 12.4473 98.6963 11.3945 100.286 10.3203C101.897 9.24609 103.455 8.06445 104.959 6.77539C106.098 6.9043 107.204 7.00098 108.278 7.06543C109.374 7.12988 110.491 7.19434 111.63 7.25879ZM136.348 8.83789C136.348 9.31055 136.315 9.87988 136.251 10.5459C136.208 11.2119 136.122 11.8887 135.993 12.5762C135.886 13.2637 135.725 13.9082 135.51 14.5098C135.295 15.1113 135.026 15.584 134.704 15.9277C134.575 16.0781 134.156 16.2285 133.447 16.3789C132.76 16.5078 131.922 16.6475 130.934 16.7979C129.967 16.9268 128.925 17.0557 127.808 17.1846C126.69 17.3135 125.627 17.4316 124.617 17.5391C123.629 17.625 122.77 17.7002 122.039 17.7646C121.309 17.8291 120.847 17.8613 120.653 17.8613L120.396 24.5645C119.729 24.6074 119.074 24.6182 118.43 24.5967C117.785 24.5537 117.13 24.5322 116.464 24.5322C116.034 24.5322 115.604 24.543 115.175 24.5645C114.745 24.5859 114.315 24.6182 113.886 24.6611C113.886 22.6416 113.886 20.6436 113.886 18.667C113.886 16.6904 113.843 14.6924 113.757 12.6729C113.692 10.8467 113.628 9.03125 113.563 7.22656C113.521 5.42188 113.478 3.60645 113.435 1.78027C115.647 1.62988 117.871 1.44727 120.105 1.23242C122.361 0.996094 124.606 0.87793 126.841 0.87793C127.228 0.87793 127.84 0.920898 128.678 1.00684C129.516 1.07129 130.396 1.18945 131.32 1.36133C132.244 1.51172 133.093 1.70508 133.866 1.94141C134.661 2.17773 135.188 2.44629 135.445 2.74707C135.617 2.94043 135.757 3.31641 135.864 3.875C135.993 4.43359 136.09 5.03516 136.154 5.67969C136.219 6.30273 136.262 6.91504 136.283 7.5166C136.326 8.11816 136.348 8.55859 136.348 8.83789ZM127.324 8.6123C127.324 8.41895 127.313 8.17188 127.292 7.87109C127.271 7.57031 127.228 7.28027 127.163 7.00098C127.12 6.7002 127.045 6.43164 126.938 6.19531C126.83 5.9375 126.69 5.75488 126.519 5.64746C126.411 5.58301 126.239 5.5293 126.003 5.48633C125.767 5.44336 125.52 5.41113 125.262 5.38965C125.004 5.36816 124.757 5.35742 124.521 5.35742C124.284 5.33594 124.112 5.3252 124.005 5.3252C123.21 5.3252 122.415 5.36816 121.62 5.4541C120.825 5.54004 120.02 5.64746 119.203 5.77637C119.268 6.4209 119.3 7.05469 119.3 7.67773C119.321 8.30078 119.332 8.92383 119.332 9.54688C119.332 10.5566 119.364 11.5771 119.429 12.6084C119.708 12.6084 120.191 12.5977 120.879 12.5762C121.566 12.5332 122.286 12.4795 123.038 12.415C123.79 12.3291 124.499 12.2217 125.165 12.0928C125.831 11.9424 126.282 11.749 126.519 11.5127C126.905 11.1475 127.131 10.707 127.195 10.1914C127.281 9.6543 127.324 9.12793 127.324 8.6123ZM145.274 3.45605C145.274 3.88574 145.178 4.29395 144.984 4.68066C144.812 5.0459 144.565 5.36816 144.243 5.64746C143.942 5.92676 143.599 6.15234 143.212 6.32422C142.825 6.47461 142.438 6.5498 142.052 6.5498C141.622 6.5498 141.214 6.45312 140.827 6.25977C140.462 6.06641 140.14 5.81934 139.86 5.51855C139.581 5.21777 139.366 4.87402 139.216 4.4873C139.065 4.0791 138.99 3.6709 138.99 3.2627C138.99 2.85449 139.065 2.47852 139.216 2.13477C139.388 1.76953 139.603 1.45801 139.86 1.2002C140.14 0.942383 140.451 0.738281 140.795 0.587891C141.16 0.4375 141.547 0.362305 141.955 0.362305C142.363 0.362305 142.761 0.448242 143.147 0.620117C143.556 0.770508 143.91 0.996094 144.211 1.29688C144.533 1.57617 144.791 1.90918 144.984 2.2959C145.178 2.66113 145.274 3.04785 145.274 3.45605ZM146.596 8.93457C146.488 10.0732 146.402 11.2012 146.338 12.3184C146.273 13.4355 146.209 14.5527 146.145 15.6699C146.059 16.9805 145.908 18.2803 145.693 19.5693C145.5 20.8584 145.274 22.1475 145.017 23.4365L140.086 23.9521C140.086 23.2646 140.086 22.5879 140.086 21.9219C140.107 21.2559 140.118 20.5791 140.118 19.8916C140.118 18.1299 140.086 16.3682 140.021 14.6064C139.957 12.8447 139.893 11.083 139.828 9.32129C140.967 9.27832 142.084 9.21387 143.18 9.12793C144.297 9.04199 145.436 8.97754 146.596 8.93457ZM171.023 8.03223C171.023 9.02051 170.895 9.97656 170.637 10.9004C170.486 10.9219 170.035 10.9541 169.283 10.9971C168.553 11.0186 167.672 11.0615 166.641 11.126C165.631 11.1689 164.535 11.2334 163.354 11.3193C162.193 11.3838 161.108 11.459 160.099 11.5449C159.11 11.6309 158.262 11.7275 157.553 11.835C156.865 11.9209 156.479 12.0068 156.393 12.0928C156.049 12.3936 155.791 12.7588 155.619 13.1885C155.447 13.6182 155.361 14.0479 155.361 14.4775C155.361 14.7354 155.383 14.9395 155.426 15.0898C155.49 15.2188 155.587 15.3691 155.716 15.541C155.78 15.6055 156.006 15.6592 156.393 15.7021C156.779 15.7451 157.209 15.7773 157.682 15.7988C158.154 15.8203 158.595 15.8418 159.003 15.8633C159.411 15.8633 159.647 15.8633 159.712 15.8633C161.259 15.8633 162.806 15.8311 164.353 15.7666C165.899 15.7021 167.446 15.6162 168.993 15.5088L169.251 21.0518C167.103 21.2236 164.943 21.3955 162.773 21.5674C160.625 21.7178 158.466 21.793 156.296 21.793C156.188 21.793 156.027 21.793 155.812 21.793C155.619 21.793 155.404 21.793 155.168 21.793C154.932 21.7715 154.706 21.75 154.491 21.7285C154.276 21.707 154.126 21.6855 154.04 21.6641C153.589 21.5352 153.138 21.3955 152.687 21.2451C152.257 21.0732 151.849 20.8691 151.462 20.6328C151.075 20.375 150.731 20.0742 150.431 19.7305C150.151 19.3867 149.947 18.9678 149.818 18.4736C149.732 18.1514 149.657 17.7324 149.593 17.2168C149.55 16.6797 149.518 16.1318 149.496 15.5732C149.475 15.0146 149.453 14.4668 149.432 13.9297C149.432 13.3926 149.432 12.9414 149.432 12.5762C149.432 11.7383 149.442 10.9541 149.464 10.2236C149.485 9.49316 149.604 8.82715 149.818 8.22559C150.033 7.60254 150.377 7.05469 150.85 6.58203C151.344 6.08789 152.042 5.6582 152.944 5.29297C153.353 5.12109 153.965 4.99219 154.781 4.90625C155.598 4.79883 156.446 4.72363 157.327 4.68066C158.229 4.61621 159.089 4.57324 159.905 4.55176C160.722 4.53027 161.355 4.51953 161.807 4.51953C163.311 4.51953 164.804 4.55176 166.286 4.61621C167.79 4.68066 169.294 4.7666 170.798 4.87402C170.862 5.41113 170.916 5.94824 170.959 6.48535C171.002 7.00098 171.023 7.5166 171.023 8.03223ZM195.258 7.25879L186.976 13.2529C187.04 13.5107 187.169 13.9297 187.362 14.5098C187.556 15.0684 187.771 15.6592 188.007 16.2822C188.243 16.8838 188.49 17.4531 188.748 17.9902C189.027 18.5059 189.285 18.8389 189.521 18.9893C189.672 19.0967 189.865 19.1826 190.102 19.2471C190.338 19.3115 190.574 19.3652 190.811 19.4082C191.068 19.4512 191.315 19.4834 191.552 19.5049C191.81 19.5049 192.024 19.5049 192.196 19.5049C192.497 19.5049 192.809 19.4941 193.131 19.4727C193.453 19.4512 193.765 19.4189 194.065 19.376C194.022 19.6553 193.99 19.9453 193.969 20.2461C193.947 20.5254 193.937 20.8154 193.937 21.1162C193.937 21.6318 193.947 22.1475 193.969 22.6631C193.99 23.1787 194.001 23.6836 194.001 24.1777C193.851 24.1992 193.582 24.2314 193.195 24.2744C192.83 24.2959 192.4 24.3281 191.906 24.3711C191.434 24.3926 190.929 24.4248 190.392 24.4678C189.854 24.5107 189.35 24.5537 188.877 24.5967C188.426 24.6182 188.028 24.6289 187.685 24.6289C187.362 24.6289 187.158 24.6074 187.072 24.5645C186.707 24.3926 186.353 24.21 186.009 24.0166C185.665 23.8232 185.375 23.5547 185.139 23.2109C185.031 23.0605 184.849 22.6523 184.591 21.9863C184.354 21.3203 184.097 20.5898 183.817 19.7949C183.56 19 183.312 18.2588 183.076 17.5713C182.861 16.8838 182.722 16.4434 182.657 16.25L179.563 18.248V23.8555L173.183 24.4033C173.312 21.3955 173.451 18.4092 173.602 15.4443C173.752 12.458 173.827 9.4502 173.827 6.4209C173.827 5.49707 173.816 4.58398 173.795 3.68164C173.795 2.7793 173.784 1.85547 173.763 0.910156C174.644 1.08203 175.514 1.18945 176.373 1.23242C177.254 1.27539 178.135 1.33984 179.016 1.42578V13.4785C180.691 12.4473 182.324 11.3945 183.914 10.3203C185.525 9.24609 187.083 8.06445 188.587 6.77539C189.726 6.9043 190.832 7.00098 191.906 7.06543C193.002 7.12988 194.119 7.19434 195.258 7.25879Z" fill="white"/>
</svg>
