<svg width="45" height="13" viewBox="0 0 45 13" fill="none" xmlns="http://www.w3.org/2000/svg">
<path d="M0.556 12V0.799999H5.42C6.124 0.799999 6.73733 0.922666 7.26 1.168C7.78267 1.41333 8.188 1.76 8.476 2.208C8.764 2.656 8.908 3.184 8.908 3.792V3.984C8.908 4.656 8.748 5.2 8.428 5.616C8.108 6.032 7.71333 6.336 7.244 6.528V6.816C7.67067 6.83733 8.00133 6.98667 8.236 7.264C8.47067 7.53067 8.588 7.888 8.588 8.336V12H6.476V8.64C6.476 8.384 6.40667 8.176 6.268 8.016C6.14 7.856 5.92133 7.776 5.612 7.776H2.668V12H0.556ZM2.668 5.856H5.196C5.69733 5.856 6.08667 5.72267 6.364 5.456C6.652 5.17867 6.796 4.816 6.796 4.368V4.208C6.796 3.76 6.65733 3.40267 6.38 3.136C6.10267 2.85867 5.708 2.72 5.196 2.72H2.668V5.856ZM13.1934 12.224C12.628 12.224 12.1214 12.128 11.6734 11.936C11.2254 11.7333 10.868 11.4453 10.6014 11.072C10.3454 10.688 10.2174 10.224 10.2174 9.68C10.2174 9.136 10.3454 8.68267 10.6014 8.32C10.868 7.94667 11.2307 7.66933 11.6894 7.488C12.1587 7.296 12.692 7.2 13.2894 7.2H15.4654V6.752C15.4654 6.37867 15.348 6.07467 15.1134 5.84C14.8787 5.59467 14.5054 5.472 13.9934 5.472C13.492 5.472 13.1187 5.58933 12.8734 5.824C12.628 6.048 12.468 6.34133 12.3934 6.704L10.5374 6.08C10.6654 5.67467 10.868 5.30667 11.1454 4.976C11.4334 4.63467 11.812 4.36267 12.2814 4.16C12.7614 3.94667 13.3427 3.84 14.0254 3.84C15.0707 3.84 15.8974 4.10133 16.5054 4.624C17.1134 5.14667 17.4174 5.904 17.4174 6.896V9.856C17.4174 10.176 17.5667 10.336 17.8654 10.336H18.5054V12H17.1614C16.7667 12 16.4414 11.904 16.1854 11.712C15.9294 11.52 15.8014 11.264 15.8014 10.944V10.928H15.4974C15.4547 11.056 15.3587 11.2267 15.2094 11.44C15.06 11.6427 14.8254 11.824 14.5054 11.984C14.1854 12.144 13.748 12.224 13.1934 12.224ZM13.5454 10.592C14.1107 10.592 14.5694 10.4373 14.9214 10.128C15.284 9.808 15.4654 9.38667 15.4654 8.864V8.704H13.4334C13.06 8.704 12.7667 8.784 12.5534 8.944C12.34 9.104 12.2334 9.328 12.2334 9.616C12.2334 9.904 12.3454 10.1387 12.5694 10.32C12.7934 10.5013 13.1187 10.592 13.5454 10.592ZM23.0231 12.224C22.3938 12.224 21.8018 12.0693 21.2471 11.76C20.7031 11.44 20.2658 10.976 19.9351 10.368C19.6045 9.76 19.4391 9.024 19.4391 8.16V7.904C19.4391 7.04 19.6045 6.304 19.9351 5.696C20.2658 5.088 20.7031 4.62933 21.2471 4.32C21.7911 4 22.3831 3.84 23.0231 3.84C23.5031 3.84 23.9031 3.89867 24.2231 4.016C24.5538 4.12267 24.8205 4.26133 25.0231 4.432C25.2258 4.60267 25.3805 4.784 25.4871 4.976H25.7751V0.799999H27.7911V12H25.8071V11.04H25.5191C25.3378 11.3387 25.0551 11.6107 24.6711 11.856C24.2978 12.1013 23.7485 12.224 23.0231 12.224ZM23.6311 10.464C24.2498 10.464 24.7671 10.2667 25.1831 9.872C25.5991 9.46667 25.8071 8.88 25.8071 8.112V7.952C25.8071 7.184 25.5991 6.60267 25.1831 6.208C24.7778 5.80267 24.2605 5.6 23.6311 5.6C23.0125 5.6 22.4951 5.80267 22.0791 6.208C21.6631 6.60267 21.4551 7.184 21.4551 7.952V8.112C21.4551 8.88 21.6631 9.46667 22.0791 9.872C22.4951 10.2667 23.0125 10.464 23.6311 10.464ZM32.4903 12.224C31.9249 12.224 31.4183 12.128 30.9703 11.936C30.5223 11.7333 30.1649 11.4453 29.8983 11.072C29.6423 10.688 29.5143 10.224 29.5143 9.68C29.5143 9.136 29.6423 8.68267 29.8983 8.32C30.1649 7.94667 30.5276 7.66933 30.9863 7.488C31.4556 7.296 31.9889 7.2 32.5863 7.2H34.7623V6.752C34.7623 6.37867 34.6449 6.07467 34.4103 5.84C34.1756 5.59467 33.8023 5.472 33.2903 5.472C32.7889 5.472 32.4156 5.58933 32.1703 5.824C31.9249 6.048 31.7649 6.34133 31.6903 6.704L29.8343 6.08C29.9623 5.67467 30.1649 5.30667 30.4423 4.976C30.7303 4.63467 31.1089 4.36267 31.5783 4.16C32.0583 3.94667 32.6396 3.84 33.3223 3.84C34.3676 3.84 35.1943 4.10133 35.8023 4.624C36.4103 5.14667 36.7143 5.904 36.7143 6.896V9.856C36.7143 10.176 36.8636 10.336 37.1623 10.336H37.8023V12H36.4583C36.0636 12 35.7383 11.904 35.4823 11.712C35.2263 11.52 35.0983 11.264 35.0983 10.944V10.928H34.7943C34.7516 11.056 34.6556 11.2267 34.5063 11.44C34.3569 11.6427 34.1223 11.824 33.8023 11.984C33.4823 12.144 33.0449 12.224 32.4903 12.224ZM32.8423 10.592C33.4076 10.592 33.8663 10.4373 34.2183 10.128C34.5809 9.808 34.7623 9.38667 34.7623 8.864V8.704H32.7303C32.3569 8.704 32.0636 8.784 31.8503 8.944C31.6369 9.104 31.5303 9.328 31.5303 9.616C31.5303 9.904 31.6423 10.1387 31.8663 10.32C32.0903 10.5013 32.4156 10.592 32.8423 10.592ZM39.2763 12V4.064H41.2603V4.96H41.5483C41.6656 4.64 41.8576 4.40533 42.1243 4.256C42.4016 4.10667 42.7216 4.032 43.0843 4.032H44.0443V5.824H43.0523C42.5403 5.824 42.1189 5.96267 41.7883 6.24C41.4576 6.50667 41.2923 6.92267 41.2923 7.488V12H39.2763Z" fill="#0566EA"/>
</svg>
