<svg width="49" height="48" viewBox="0 0 49 48" fill="none" xmlns="http://www.w3.org/2000/svg">
<path d="M47.7191 22.1138L44.2987 18.6951L45.5502 14.0231C45.9324 12.6009 45.0862 11.1378 43.6658 10.7573L38.9938 9.50578L37.7422 4.83378C37.36 3.41156 35.8969 2.56711 34.4764 2.94933L29.8044 4.20089L26.3858 0.780444C25.8649 0.259556 25.1822 0 24.4996 0C23.8169 0 23.1342 0.259556 22.6133 0.780444L19.1947 4.20089L14.5227 2.94933C13.1004 2.56711 11.6391 3.41156 11.2569 4.83378L10.0053 9.50578L5.33333 10.7573C3.91111 11.1396 3.06667 12.6009 3.44889 14.0231L4.70045 18.6951L1.28 22.1138C0.24 23.1556 0.24 24.8444 1.28 25.8862L4.70045 29.3049L3.44889 33.9769C3.06667 35.3991 3.91111 36.8604 5.33333 37.2427L10.0053 38.4942L11.2569 43.1662C11.6373 44.5884 13.1004 45.4329 14.5227 45.0507L19.1947 43.7991L22.6133 47.2196C23.1342 47.7404 23.8169 48 24.4996 48C25.1822 48 25.8649 47.7404 26.3858 47.2196L29.8044 43.7991L34.4764 45.0507C35.8987 45.4329 37.3618 44.5867 37.7422 43.1662L38.9938 38.4942L43.6658 37.2427C45.088 36.8622 45.9324 35.3991 45.5502 33.9769L44.2987 29.3049L47.7191 25.8862C48.7591 24.8444 48.7591 23.1556 47.7191 22.1138Z" fill="#E37B2F"/>
<path d="M47.7196 25.8862L44.2991 29.3049L45.5507 33.9769C45.9329 35.3991 45.0884 36.8622 43.6662 37.2427L38.9942 38.4942L37.7427 43.1662C37.3622 44.5867 35.8991 45.4329 34.4769 45.0507L29.8049 43.7991L26.3862 47.2196C25.8653 47.7404 25.1827 48 24.5 48V0C25.1827 0 25.8653 0.259556 26.3862 0.780444L29.8049 4.20089L34.4769 2.94933C35.8973 2.56711 37.3604 3.41156 37.7427 4.83378L38.9942 9.50578L43.6662 10.7573C45.0867 11.1378 45.9329 12.6009 45.5507 14.0231L44.2991 18.6951L47.7196 22.1138C48.7596 23.1556 48.7596 24.8444 47.7196 25.8862Z" fill="#4CAF50"/>
<path d="M29.8346 31.9998C31.3074 31.9998 32.5013 30.8059 32.5013 29.3332C32.5013 27.8604 31.3074 26.6665 29.8346 26.6665C28.3619 26.6665 27.168 27.8604 27.168 29.3332C27.168 30.8059 28.3619 31.9998 29.8346 31.9998Z" fill="white"/>
<path d="M31.7191 20.5529L21.0524 31.2196C20.0178 32.2543 18.3253 32.2649 17.28 31.2196C16.24 30.1778 16.24 28.4889 17.28 27.4472L24.4996 20.2276L27.9467 16.7805C28.9884 15.7405 30.6773 15.7405 31.7191 16.7805C32.7591 17.8223 32.7591 19.5112 31.7191 20.5529Z" fill="white"/>
<path d="M19.1667 21.3333C20.6394 21.3333 21.8333 20.1394 21.8333 18.6667C21.8333 17.1939 20.6394 16 19.1667 16C17.6939 16 16.5 17.1939 16.5 18.6667C16.5 20.1394 17.6939 21.3333 19.1667 21.3333Z" fill="white"/>
</svg>
