<svg width="25" height="24" viewBox="0 0 25 24" fill="none" xmlns="http://www.w3.org/2000/svg">
<path d="M22.8878 1.61097C22.8868 1.60997 22.8857 1.60909 22.8847 1.60809C22.7082 1.43322 22.465 1.33301 22.2168 1.33301H22.2156C22.001 1.33301 21.791 1.40676 21.6244 1.54047C19.3557 3.35255 17.0786 5.22297 14.8561 7.09963C14.3157 7.55592 13.7748 8.0158 13.2345 8.47822L7.06454 2.30838C6.45529 1.69922 5.46404 1.6993 4.85483 2.30838L1.92454 5.23872C1.8025 5.3608 1.8025 5.55863 1.92454 5.68067C2.04658 5.80267 2.24446 5.80267 2.36646 5.68067L4.41291 3.63426L4.86012 4.08147L2.81371 6.12788C2.69166 6.24997 2.69166 6.4478 2.81371 6.56984C2.87471 6.63084 2.95471 6.66134 3.03466 6.66134C3.11462 6.66134 3.19462 6.63084 3.25562 6.56984L5.30208 4.52342L5.74929 4.97063L3.70283 7.01705C3.58079 7.13913 3.58079 7.33697 3.70283 7.45901C3.76383 7.52001 3.84383 7.55051 3.92379 7.55051C4.00375 7.55051 4.08375 7.52001 4.14475 7.45901L6.19121 5.41255L6.63841 5.85976L4.592 7.90617C4.46996 8.02826 4.46996 8.22609 4.592 8.34813C4.653 8.40913 4.733 8.43963 4.81296 8.43963C4.89291 8.43963 4.97291 8.40913 5.03391 8.34813L7.08033 6.30172L7.52754 6.74892L5.48112 8.79534C5.35908 8.91742 5.35908 9.11526 5.48112 9.2373C5.54212 9.2983 5.62212 9.3288 5.70208 9.3288C5.78204 9.3288 5.86204 9.2983 5.92304 9.2373L7.96946 7.19088L8.41666 7.63809L6.37025 9.68451C6.24821 9.80659 6.24821 10.0044 6.37025 10.1265C6.43125 10.1875 6.51125 10.218 6.59121 10.218C6.67116 10.218 6.75116 10.1875 6.81216 10.1265L8.85858 8.08005L9.30579 8.52726L7.25937 10.5737C7.13733 10.6958 7.13733 10.8936 7.25937 11.0156C7.32037 11.0766 7.40037 11.1071 7.48033 11.1071C7.56029 11.1071 7.64029 11.0766 7.70129 11.0156L9.74771 8.96922L10.195 9.41647L8.14854 11.4629C8.0265 11.585 8.0265 11.7828 8.14854 11.9048C8.20954 11.9658 8.28954 11.9963 8.3695 11.9963C8.44946 11.9963 8.52946 11.9658 8.59046 11.9048L10.6369 9.85838L11.0999 10.3213C10.1403 11.157 9.18575 11.9976 8.24191 12.8392C8.2415 12.8392 8.2415 12.8392 8.2415 12.8396C7.96112 13.089 7.65529 13.3763 7.35358 13.6483C7.16875 13.782 7.20396 14.0171 7.29566 14.1088C7.29566 14.1088 7.29566 14.1092 7.29608 14.1092C7.59691 14.4734 7.76316 14.9384 7.76316 15.4192C7.76316 15.9813 7.54691 16.5071 7.15404 16.8996C7.15008 16.9035 6.21562 17.838 6.21154 17.8421C4.85258 19.2327 2.45937 18.2838 2.458 16.3143C2.45883 15.1185 3.42454 14.131 4.64462 14.1301C5.30916 14.1305 5.92958 14.4263 6.34666 14.9409C6.45979 15.0803 6.6675 15.0954 6.79916 14.9759C6.80083 14.9747 6.80208 14.9734 6.80375 14.9718L6.80666 14.9692C6.95304 14.8376 6.94271 14.6005 6.77916 14.4834C6.245 13.8617 5.46791 13.5051 4.64671 13.5051H4.64254C3.08012 13.5051 1.83121 14.7774 1.83304 16.3143C1.83166 17.4723 2.53937 18.4953 3.58633 18.9205C4.208 19.1723 4.889 19.1896 5.50416 18.9924C4.91783 20.8164 6.28246 22.6663 8.17912 22.6663H8.18246C9.73229 22.6663 10.9954 21.4117 10.9937 19.8555C10.9945 19.1159 10.7095 18.418 10.1924 17.8896C10.1927 17.8893 10.8305 17.1643 10.8305 17.1643C11.9563 15.9115 13.07 14.653 14.1701 13.3914L14.6409 13.8623L12.5945 15.9087C12.4725 16.0308 12.4725 16.2286 12.5945 16.3506C12.6555 16.4116 12.7355 16.4421 12.8155 16.4421C12.8955 16.4421 12.9755 16.4116 13.0365 16.3506L15.0829 14.3042L15.5301 14.7514L13.4837 16.7978C13.3617 16.9199 13.3617 17.1178 13.4837 17.2398C13.5447 17.3008 13.6247 17.3313 13.7047 17.3313C13.7847 17.3313 13.8647 17.3008 13.9257 17.2398L15.9721 15.1934L16.4193 15.6406L14.3729 17.687C14.2508 17.809 14.2508 18.0069 14.3729 18.1289C14.4339 18.1899 14.5139 18.2204 14.5939 18.2204C14.6738 18.2204 14.7538 18.1899 14.8149 18.1289L16.8613 16.0825L17.3085 16.5297L15.262 18.5761C15.14 18.6982 15.14 18.896 15.262 19.0181C15.3231 19.0791 15.4031 19.1096 15.483 19.1096C15.563 19.1096 15.643 19.0791 15.704 19.0181L17.7505 16.9716L18.1977 17.4188L16.1512 19.4653C16.0292 19.5873 16.0292 19.7852 16.1512 19.9072C16.2123 19.9682 16.2923 19.9987 16.3722 19.9987C16.4522 19.9987 16.5322 19.9682 16.5932 19.9072L18.6397 17.8608L19.0868 18.308L17.0404 20.3544C16.9184 20.4765 16.9184 20.6743 17.0404 20.7963C17.1015 20.8573 17.1815 20.8878 17.2614 20.8878C17.3414 20.8878 17.4214 20.8573 17.4824 20.7963L19.5288 18.7499L19.976 19.1971L17.9296 21.2435C17.8075 21.3656 17.8075 21.5634 17.9296 21.6855C17.9906 21.7465 18.0706 21.777 18.1506 21.777C18.2305 21.777 18.3105 21.7465 18.3716 21.6855L20.418 19.639L20.8652 20.0862L18.8187 22.1326C18.6967 22.2547 18.6967 22.4526 18.8187 22.5746C18.8798 22.6356 18.9598 22.6661 19.0397 22.6661C19.1197 22.6661 19.1997 22.6356 19.2607 22.5746L21.5278 20.3075C21.5279 20.3074 21.528 20.3073 21.5282 20.3072C21.5283 20.3071 21.5284 20.307 21.5285 20.3068L22.191 19.6443C22.4862 19.3491 22.6487 18.9568 22.6487 18.5394C22.6487 18.122 22.4862 17.7296 22.1911 17.4345L16.0143 11.2582C18.4103 8.46313 20.7331 5.65959 22.9586 2.87426C23.2606 2.4963 23.2301 1.95322 22.8878 1.61097ZM4.85487 3.1923L5.29679 2.75038C5.66229 2.38488 6.25708 2.38488 6.62262 2.75038L12.7588 8.88659C12.3629 9.22667 11.9674 9.56767 11.5726 9.91013L4.85487 3.1923ZM21.749 17.8768C21.9261 18.0538 22.0236 18.2892 22.0236 18.5396C22.0236 18.7901 21.9261 19.0255 21.749 19.2025L21.3071 19.6444C21.1006 19.438 15.0248 13.3622 14.5814 12.9188C14.9243 12.5241 15.2661 12.1292 15.6062 11.734L21.749 17.8768ZM10.5395 16.5523C10.388 16.4364 9.98421 16.2356 9.91704 15.6655C9.89829 15.508 9.76537 15.3896 9.60746 15.3896C9.41866 15.3896 9.27479 15.5536 9.29621 15.7388C9.29662 15.7388 9.29662 15.7388 9.29662 15.7388C9.35621 16.2484 9.63287 16.6988 10.0554 16.9742C10.0775 16.9888 10.0995 17.0038 10.1225 17.0205C9.90571 17.2678 9.72679 17.476 9.52162 17.7025C9.46454 17.7659 9.43537 17.8513 9.44204 17.9363C9.44829 18.0213 9.49037 18.1013 9.55662 18.155C10.0811 18.5831 10.3682 19.1993 10.3687 19.8555C10.3678 21.0598 9.39762 22.0405 8.18125 22.0413C6.979 22.0397 5.99379 21.0708 5.99379 19.8555C5.99521 18.8664 6.62075 18.3368 6.66879 18.2688L7.59587 17.3417C8.10662 16.831 8.38833 16.14 8.38833 15.4192C8.38875 14.8925 8.23791 14.3838 7.95296 13.9488C8.19762 13.725 8.41041 13.5265 8.65754 13.3063L8.65879 13.3046C15.4344 7.26326 21.9347 2.07005 22.0568 2.00009C21.973 2.08388 9.78037 14.2713 9.72412 14.3347C9.60954 14.4638 9.62162 14.6618 9.75037 14.7759C9.87979 14.8912 10.078 14.8777 10.1916 14.7497C10.229 14.7071 22.4095 2.53105 22.4988 2.44176C22.4732 2.48672 17.4405 8.8613 10.5395 16.5523Z" fill="#555555"/>
<path d="M4.90719 15.6139C3.79826 14.505 1.90616 15.3041 1.90625 16.8566C1.90625 17.3259 2.0892 17.7672 2.42141 18.0994C2.76411 18.442 3.21411 18.6133 3.6643 18.6133C4.11434 18.6133 4.56453 18.4419 4.90719 18.0994C5.5933 17.4134 5.59339 16.2999 4.90719 15.6139ZM4.41008 17.6021C3.99884 18.0132 3.32975 18.0133 2.91852 17.6021C2.25992 16.9436 2.72108 15.8027 3.6643 15.8027C4.61023 15.8028 5.06567 16.9466 4.41008 17.6021Z" fill="#555555"/>
<path d="M7.64166 19.082C6.9188 19.082 6.29785 19.4971 6.0211 20.1652C5.74299 20.8367 5.88774 21.5712 6.39882 22.0822C6.73828 22.4216 7.17558 22.5995 7.62717 22.5995C7.85532 22.5995 8.08716 22.5541 8.31169 22.4611C8.98261 22.1831 9.39942 21.5617 9.39942 20.8394C9.39938 19.8704 8.61089 19.082 7.64166 19.082ZM8.04253 21.8115C7.728 21.9417 7.26164 21.9507 6.89588 21.585C6.52993 21.2191 6.53963 20.7507 6.67064 20.4343C6.80063 20.1205 7.12397 19.7851 7.64161 19.7851C8.22314 19.7851 8.69625 20.2581 8.69625 20.8394C8.69625 21.3565 8.35856 21.6806 8.04253 21.8115Z" fill="#555555"/>
</svg>
