<svg width="25" height="24" viewBox="0 0 25 24" fill="none" xmlns="http://www.w3.org/2000/svg">
<g clip-path="url(#clip0_1025_18849)">
<path d="M20.0548 22.6676H4.94369C4.20857 22.6676 3.61035 22.0694 3.61035 21.3343V12.4454C3.61035 12.2001 3.80946 12.001 4.0548 12.001H20.9437C21.189 12.001 21.3881 12.2001 21.3881 12.4454V21.3343C21.3881 22.0694 20.7899 22.6676 20.0548 22.6676ZM4.49924 12.8899V21.3343C4.49924 21.5788 4.69924 21.7788 4.94369 21.7788H20.0548C20.2992 21.7788 20.4992 21.5788 20.4992 21.3343V12.8899H4.49924Z" fill="#555555"/>
<path d="M21.833 12.89H3.16634C2.43123 12.89 1.83301 12.2918 1.83301 11.5566V8.88997C1.83301 8.15486 2.43123 7.55664 3.16634 7.55664H21.833C22.5681 7.55664 23.1663 8.15486 23.1663 8.88997V11.5566C23.1663 12.2918 22.5681 12.89 21.833 12.89ZM3.16634 8.44553C2.9219 8.44553 2.7219 8.64553 2.7219 8.88997V11.5566C2.7219 11.8011 2.9219 12.0011 3.16634 12.0011H21.833C22.0775 12.0011 22.2775 11.8011 22.2775 11.5566V8.88997C22.2775 8.64553 22.0775 8.44553 21.833 8.44553H3.16634Z" fill="#555555"/>
<path d="M12.4993 8.4451C12.3704 8.4451 12.2478 8.38998 12.1633 8.29132C12.0789 8.19443 12.0407 8.06554 12.0593 7.93843C12.0691 7.87176 13.0629 1.33398 18.2771 1.33398C20.574 1.33398 21.3891 2.57487 21.3891 3.6371C21.3891 5.63354 18.6309 8.4451 12.4993 8.4451ZM18.2771 2.22287C14.622 2.22287 13.3758 6.12065 13.0424 7.54732C17.9127 7.39621 20.5002 5.22198 20.5002 3.6371C20.5002 3.24243 20.334 2.9171 20.0078 2.67265C19.6167 2.37843 19.0176 2.22287 18.2771 2.22287Z" fill="#555555"/>
<path d="M12.5001 8.4451C6.36857 8.4451 3.61035 5.63354 3.61035 3.6371C3.61035 2.96687 3.91168 2.37132 4.45746 1.96154C5.00413 1.55087 5.78724 1.33398 6.72235 1.33398C11.9366 1.33398 12.9304 7.87176 12.9401 7.93843C12.9588 8.06643 12.9206 8.19443 12.8361 8.29132C12.7517 8.38998 12.629 8.4451 12.5001 8.4451ZM6.72235 2.22287C5.3508 2.22287 4.49924 2.76421 4.49924 3.6371C4.49924 5.22287 7.08857 7.3971 11.9615 7.54821C11.6388 6.11265 10.4237 2.22287 6.72235 2.22287Z" fill="#555555"/>
<path d="M12.4991 22.6678C12.2538 22.6678 12.0547 22.4686 12.0547 22.2233V8.00109C12.0547 7.75575 12.2538 7.55664 12.4991 7.55664C12.7445 7.55664 12.9436 7.75575 12.9436 8.00109V22.2233C12.9436 22.4686 12.7445 22.6678 12.4991 22.6678Z" fill="#555555"/>
</g>
<defs>
<clipPath id="clip0_1025_18849">
<rect width="21.3333" height="21.3333" fill="white" transform="translate(1.83301 1.33301)"/>
</clipPath>
</defs>
</svg>
