<svg width="32" height="32" viewBox="0 0 32 32" fill="none" xmlns="http://www.w3.org/2000/svg">
<g clip-path="url(#clip0_1125_6092)">
<path fill-rule="evenodd" clip-rule="evenodd" d="M2.33333 0C1.72967 0 1.15067 0.239667 0.723999 0.666667C0.704666 0.685667 0.685667 0.704666 0.666667 0.723999C0.239667 1.15067 0 1.72967 0 2.33333C0 2.594 0.02267 2.85399 0.0680033 3.11066C0.39667 4.97199 2.01 14.116 2.01 14.116C2.06 14.398 2.28433 14.6167 2.56767 14.6593L11.506 16L2.56767 17.3407C2.28433 17.3833 2.06 17.602 2.01 17.884C2.01 17.884 0.39667 27.028 0.0680033 28.8893C0.02267 29.146 0 29.406 0 29.6667C0 30.2703 0.239667 30.8493 0.666667 31.276C0.685667 31.2953 0.704666 31.3143 0.723999 31.3333C1.15067 31.7603 1.72967 32 2.33333 32C2.654 32 2.97067 31.927 3.25867 31.786C5.909 30.492 25.371 20.987 30.428 18.5173C31.39 18.0477 32 17.0703 32 16C32 14.9297 31.39 13.9523 30.428 13.4827C25.371 11.013 5.909 1.50801 3.25867 0.21401C2.97067 0.0730096 2.654 0 2.33333 0Z" fill="#999999"/>
</g>
<defs>
<clipPath id="clip0_1125_6092">
<rect width="32" height="32" fill="white"/>
</clipPath>
</defs>
</svg>
