<svg width="25" height="24" viewBox="0 0 25 24" fill="none" xmlns="http://www.w3.org/2000/svg">
<g clip-path="url(#clip0_1025_18828)">
<path d="M24.0997 18.9977H23.6553C24.7602 17.9225 24.7842 16.1551 23.709 15.0502C23.5384 14.8749 23.3455 14.7228 23.1353 14.5978C23.9803 14.0932 24.4983 13.182 24.4997 12.1978C24.4977 10.6523 23.2453 9.39985 21.6997 9.39785H18.0998V6.59789C18.0997 6.37699 17.9205 6.19794 17.6996 6.19804C17.6793 6.19804 17.659 6.19959 17.639 6.20269L12.8998 6.93148V6.55789C13.8304 6.36654 14.4986 5.54795 14.4998 4.59791C14.4998 2.85234 12.853 1.18516 12.7826 1.11516C12.6264 0.95901 12.3733 0.95901 12.2171 1.11516C12.1467 1.18516 10.4999 2.85234 10.4999 4.59791C10.5011 5.54795 11.1693 6.36654 12.0999 6.55789V7.05508L7.23912 7.80307C7.04417 7.83307 6.90017 8.00062 6.89992 8.19787V12.6542C6.60777 12.3391 6.27083 12.0687 5.89993 11.8518C5.77618 11.7804 5.62369 11.7804 5.49994 11.8518C4.31875 12.5382 3.52136 13.7322 3.33996 15.0862C3.06352 15.0295 2.78217 14.9999 2.49997 14.9978C2.32343 14.9986 2.14713 15.01 1.97198 15.0322C1.83008 15.0493 1.70813 15.1408 1.65199 15.2722C0.836896 17.1842 1.47214 19.4057 3.17477 20.5977H0.5V21.3977H1.45279L2.14198 22.7765C2.20973 22.9121 2.34838 22.9977 2.49997 22.9977H17.6998C17.9207 22.9977 18.0998 22.8186 18.0998 22.5977V21.3977H20.6525L21.3417 22.7765C21.4095 22.9121 21.5481 22.9977 21.6997 22.9977H23.2997C23.5206 22.9977 23.6997 22.8186 23.6997 22.5977V21.3977H24.0997C24.3206 21.3977 24.4997 21.2186 24.4997 20.9977V19.3977C24.4997 19.1768 24.3206 18.9977 24.0997 18.9977ZM23.6997 16.9978C23.6984 18.1017 22.8037 18.9964 21.6997 18.9977H14.4998C13.3953 18.9977 12.4998 18.1023 12.4998 16.9978C12.4998 15.8932 13.3953 14.9978 14.4998 14.9978H19.6998C20.3625 14.9978 20.8997 15.535 20.8997 16.1978C20.8997 16.8605 20.3625 17.3978 19.6998 17.3978H15.6998C15.4789 17.3978 15.2998 17.2187 15.2998 16.9978C15.2998 16.7769 15.4789 16.5978 15.6998 16.5978H18.4998V15.7978H15.6998C15.0371 15.7978 14.4998 16.335 14.4998 16.9978C14.4998 17.6605 15.0371 18.1977 15.6998 18.1977H19.6998C20.8037 18.1964 21.6984 17.3018 21.6997 16.1978C21.6983 15.7636 21.554 15.3419 21.2893 14.9978H21.6997C22.8037 14.9991 23.6984 15.8938 23.6997 16.9978ZM20.4997 10.1978C21.1625 10.1978 21.6997 10.7351 21.6997 11.3978C21.6997 12.0606 21.1625 12.5978 20.4997 12.5978H16.4998C16.2789 12.5978 16.0998 12.4187 16.0998 12.1978C16.0998 11.9769 16.2789 11.7978 16.4998 11.7978H19.2998V10.9978H16.4998C15.8371 10.9978 15.2998 11.5351 15.2998 12.1978C15.2998 12.8606 15.8371 13.3978 16.4998 13.3978H20.4997C21.6037 13.3965 22.4984 12.5018 22.4997 11.3978C22.4993 10.9852 22.3701 10.5831 22.1301 10.2474C23.2073 10.4918 23.8825 11.5632 23.6381 12.6404C23.4324 13.5469 22.6293 14.1922 21.6997 14.1978H19.6998H16.0998C14.9953 14.1978 14.0998 13.3024 14.0998 12.1978C14.0998 11.0933 14.9953 10.1978 16.0998 10.1978H20.4997ZM11.2999 4.59791C11.2999 3.57513 12.0699 2.51154 12.4998 1.99795C12.9302 2.51114 13.6998 3.57273 13.6998 4.59791C13.6977 5.10461 13.3776 5.5554 12.8998 5.7243V4.99791H12.0999V5.7243C11.6221 5.5554 11.302 5.10461 11.2999 4.59791ZM5.69993 12.669C6.59357 13.2705 7.17222 14.2394 7.27791 15.3114C6.68132 15.5496 6.14403 15.9154 5.70353 16.383C5.25984 15.9172 4.72 15.5537 4.12155 15.3178C4.2254 14.2433 4.8044 13.2717 5.69993 12.669ZM7.70641 16.0013C8.0899 15.8666 8.4934 15.7978 8.89989 15.7978C8.96269 15.7978 9.02829 15.8002 9.09669 15.8046C9.75568 17.6804 8.76925 19.7352 6.89342 20.3942C6.50992 20.5289 6.10638 20.5977 5.69993 20.5977C5.63714 20.5977 5.57154 20.5953 5.50314 20.5909C4.84415 18.7151 5.83058 16.6603 7.70641 16.0013ZM2.09998 16.9978C2.09948 16.5914 2.16818 16.1879 2.30318 15.8046C2.37158 15.8002 2.43718 15.7978 2.49997 15.7978C3.53576 15.7947 4.5216 16.2425 5.20074 17.0246C4.5448 18.0327 4.3376 19.2683 4.62875 20.4353C3.12432 19.9664 2.09968 18.5736 2.09998 16.9978ZM8.6527 22.1977H2.74717L2.34718 21.3977H9.05269L8.6527 22.1977ZM12.4998 22.1977H9.54709L9.94708 21.3977H10.8999V20.5977H8.2219C9.92643 19.4073 10.5633 17.1851 9.74788 15.2726C9.69173 15.1412 9.56979 15.0497 9.42789 15.0326C8.97274 14.9741 8.51105 14.9903 8.0611 15.0806C7.99871 14.6357 7.86826 14.203 7.67431 13.7978H7.69991V8.54106L17.2998 7.06428V9.39785H16.0998C14.5554 9.3958 13.3018 10.6461 13.2997 12.1905C13.2987 12.9572 13.6125 13.6907 14.1678 14.2194C12.6345 14.4003 11.5382 15.79 11.7191 17.3233C11.7942 17.9595 12.0855 18.5506 12.5442 18.9977H12.0999C11.879 18.9977 11.6999 19.1768 11.6999 19.3977V20.9977C11.6999 21.2186 11.879 21.3977 12.0999 21.3977H12.4998V22.1977ZM14.2526 22.1977H13.2998V21.3977H14.6526L14.2526 22.1977ZM17.2998 22.1977H15.147L15.547 21.3977H17.2998V22.1977ZM22.8997 22.1977H21.9469L21.5469 21.3977H22.8997V22.1977ZM23.6997 20.5977H12.4998V19.7977H23.6997V20.5977Z" fill="#555555"/>
<path d="M9.29999 9.40039H8.5V12.6004H9.29999V9.40039Z" fill="#555555"/>
<path d="M9.29999 13.4004H8.5V14.2004H9.29999V13.4004Z" fill="#555555"/>
</g>
<defs>
<clipPath id="clip0_1025_18828">
<rect width="24" height="24" fill="white" transform="translate(0.5)"/>
</clipPath>
</defs>
</svg>
