<svg width="25" height="24" viewBox="0 0 25 24" fill="none" xmlns="http://www.w3.org/2000/svg">
<path d="M7.99966 15.3744H4.62485C4.52543 15.3743 4.43011 15.3348 4.35981 15.2645C4.28951 15.1942 4.24997 15.0989 4.24987 14.9994V9.74973C4.24672 9.45345 4.1268 9.17038 3.91618 8.96199C3.70555 8.7536 3.42122 8.63672 3.12493 8.63672C2.82863 8.63672 2.5443 8.75361 2.33368 8.96201C2.12306 9.1704 2.00315 9.45348 2 9.74975V14.9994C2.00023 15.4254 2.10418 15.8449 2.30289 16.2217C2.5016 16.5985 2.78908 16.9212 3.14048 17.162C3.11848 17.1828 2.39013 22.0388 2.37935 22.0671C2.36617 22.1645 2.39177 22.2632 2.45062 22.3419C2.50948 22.4207 2.59689 22.4731 2.69405 22.4881C2.7912 22.503 2.89033 22.4792 2.97009 22.4217C3.04986 22.3643 3.10388 22.2778 3.12054 22.181L3.84006 17.5042C4.09402 17.5839 4.35867 17.6244 4.62485 17.6243H6.92805L7.62908 22.181C7.6458 22.2778 7.69986 22.3642 7.77961 22.4215C7.85937 22.4789 7.95846 22.5027 8.05557 22.4878C8.15267 22.4729 8.24005 22.4204 8.29889 22.3417C8.35774 22.2631 8.38336 22.1644 8.37024 22.0671L7.68673 17.6243H7.99966C8.29594 17.6211 8.57901 17.5012 8.7874 17.2906C8.99579 17.08 9.11268 16.7956 9.11268 16.4993C9.11268 16.2031 8.99579 15.9187 8.7874 15.7081C8.57901 15.4975 8.29594 15.3776 7.99966 15.3744ZM7.99966 16.8743H4.62485C4.12778 16.8737 3.65123 16.676 3.29975 16.3245C2.94826 15.9731 2.75054 15.4965 2.74996 14.9994V9.74973C2.74996 9.65028 2.78947 9.5549 2.85979 9.48458C2.93011 9.41426 3.02549 9.37475 3.12494 9.37475C3.22439 9.37475 3.31976 9.41426 3.39009 9.48458C3.46041 9.5549 3.49991 9.65028 3.49991 9.74973V14.9994C3.50024 15.2977 3.61886 15.5836 3.82976 15.7945C4.04066 16.0054 4.3266 16.124 4.62485 16.1244H7.99966C8.09812 16.1259 8.19205 16.166 8.26116 16.2362C8.33026 16.3063 8.36899 16.4009 8.36899 16.4993C8.36899 16.5978 8.33026 16.6923 8.26116 16.7625C8.19205 16.8327 8.09812 16.8728 7.99966 16.8743Z" fill="#555555"/>
<path d="M22.9984 14.9994V9.74973C22.9952 9.45345 22.8753 9.17038 22.6647 8.96199C22.4541 8.7536 22.1698 8.63672 21.8735 8.63672C21.5772 8.63672 21.2928 8.75361 21.0822 8.96201C20.8716 9.1704 20.7517 9.45348 20.7485 9.74975V14.9994C20.7484 15.0989 20.7089 15.1942 20.6386 15.2645C20.5683 15.3348 20.473 15.3743 20.3736 15.3744H16.9987C16.7025 15.3776 16.4194 15.4975 16.211 15.7081C16.0026 15.9187 15.8857 16.2031 15.8857 16.4994C15.8857 16.7957 16.0026 17.08 16.211 17.2906C16.4194 17.5012 16.7025 17.6211 16.9988 17.6243H17.3117L16.6282 22.0671C16.615 22.1645 16.6406 22.2632 16.6994 22.3419C16.7583 22.4206 16.8457 22.4731 16.9428 22.488C17.04 22.5029 17.1391 22.4791 17.2189 22.4217C17.2986 22.3643 17.3527 22.2778 17.3693 22.181L18.0704 17.6243H20.3736C20.6398 17.6244 20.9044 17.5839 21.1584 17.5042L21.8779 22.181C21.8854 22.2296 21.9023 22.2764 21.9279 22.3185C21.9534 22.3606 21.987 22.3972 22.0267 22.4263C22.0664 22.4555 22.1114 22.4765 22.1593 22.4882C22.2071 22.4999 22.2567 22.5021 22.3054 22.4946C22.3541 22.4871 22.4008 22.4701 22.4429 22.4446C22.485 22.4191 22.5216 22.3855 22.5508 22.3458C22.5799 22.3061 22.6009 22.2611 22.6126 22.2132C22.6243 22.1654 22.6265 22.1158 22.619 22.0671L21.8691 17.1924C22.2101 16.9353 22.4888 16.6047 22.6844 16.225C22.8799 15.8453 22.9872 15.4264 22.9984 14.9994ZM20.3736 16.8743H16.9987C16.9006 16.8724 16.8071 16.832 16.7383 16.7619C16.6696 16.6918 16.6311 16.5975 16.6311 16.4993C16.6311 16.4011 16.6696 16.3069 16.7384 16.2368C16.8071 16.1667 16.9006 16.1263 16.9988 16.1244H20.3736C20.6718 16.124 20.9577 16.0054 21.1686 15.7945C21.3795 15.5836 21.4982 15.2977 21.4985 14.9994V9.74973C21.4983 9.70039 21.5079 9.6515 21.5267 9.60587C21.5455 9.56024 21.5731 9.51876 21.6079 9.48381C21.6427 9.44887 21.6841 9.42114 21.7297 9.40222C21.7753 9.3833 21.8241 9.37356 21.8735 9.37356C21.9228 9.37356 21.9717 9.3833 22.0172 9.40222C22.0628 9.42114 22.1042 9.44887 22.139 9.48381C22.1739 9.51876 22.2015 9.56024 22.2202 9.60587C22.239 9.6515 22.2486 9.70039 22.2484 9.74973V14.9994C22.2479 15.4965 22.0501 15.9731 21.6987 16.3245C21.3472 16.676 20.8706 16.8737 20.3736 16.8743Z" fill="#555555"/>
<path d="M14.3746 21.7494H12.8747V14.2499H16.9994C17.2978 14.2499 17.5839 14.1314 17.7949 13.9204C18.0058 13.7094 18.1244 13.4233 18.1244 13.1249C18.1244 12.8266 18.0058 12.5405 17.7949 12.3295C17.5839 12.1185 17.2978 12 16.9994 12H7.99994C7.70158 12 7.41545 12.1185 7.20449 12.3295C6.99352 12.5405 6.875 12.8266 6.875 13.1249C6.875 13.4233 6.99352 13.7094 7.20449 13.9204C7.41545 14.1314 7.70158 14.2499 7.99994 14.2499H12.1247V21.7494H10.6248C10.5754 21.7493 10.5266 21.7589 10.4809 21.7776C10.4353 21.7964 10.3938 21.824 10.3589 21.8589C10.3239 21.8937 10.2962 21.9351 10.2773 21.9807C10.2584 22.0262 10.2486 22.0751 10.2486 22.1244C10.2486 22.1738 10.2584 22.2226 10.2773 22.2682C10.2962 22.3138 10.3239 22.3552 10.3589 22.39C10.3938 22.4248 10.4353 22.4524 10.4809 22.4712C10.5266 22.49 10.5754 22.4996 10.6248 22.4994H14.3746C14.4738 22.4991 14.5689 22.4594 14.639 22.3892C14.709 22.3189 14.7484 22.2237 14.7484 22.1244C14.7484 22.0252 14.709 21.93 14.639 21.8597C14.5689 21.7894 14.4738 21.7498 14.3746 21.7494ZM7.99995 13.4999C7.90071 13.4996 7.80563 13.46 7.73557 13.3897C7.6655 13.3194 7.62616 13.2242 7.62616 13.1249C7.62616 13.0257 7.6655 12.9305 7.73557 12.8602C7.80563 12.7899 7.90071 12.7503 7.99995 12.75H16.9994C17.0488 12.7498 17.0977 12.7594 17.1433 12.7782C17.1889 12.7969 17.2304 12.8245 17.2653 12.8594C17.3003 12.8942 17.328 12.9356 17.3469 12.9812C17.3659 13.0267 17.3756 13.0756 17.3756 13.1249C17.3756 13.1743 17.3659 13.2231 17.3469 13.2687C17.328 13.3143 17.3003 13.3557 17.2653 13.3905C17.2304 13.4253 17.1889 13.4529 17.1433 13.4717C17.0977 13.4905 17.0488 13.5001 16.9994 13.4999H7.99995Z" fill="#555555"/>
<path d="M9.49997 7.87583H15.4996C15.5489 7.87584 15.5977 7.86615 15.6432 7.84731C15.6887 7.82847 15.73 7.80085 15.7648 7.76603C15.7996 7.7312 15.8273 7.68986 15.8461 7.64436C15.8649 7.59886 15.8746 7.55009 15.8746 7.50085V7.12587C15.8735 6.29619 15.5671 5.49595 15.0138 4.87765C14.4606 4.25934 13.6992 3.86621 12.8748 3.77317V1.87617C12.8749 1.82682 12.8654 1.77794 12.8466 1.7323C12.8278 1.68667 12.8002 1.64519 12.7654 1.61025C12.7305 1.5753 12.6892 1.54758 12.6436 1.52866C12.598 1.50974 12.5492 1.5 12.4998 1.5C12.4505 1.5 12.4016 1.50974 12.356 1.52866C12.3105 1.54758 12.2691 1.5753 12.2342 1.61025C12.1994 1.64519 12.1718 1.68667 12.153 1.7323C12.1343 1.77794 12.1247 1.82682 12.1248 1.87617V3.77317C11.3004 3.86621 10.539 4.25934 9.98577 4.87765C9.43255 5.49595 9.12616 6.29619 9.125 7.12587V7.50085C9.12499 7.55009 9.13468 7.59886 9.15352 7.64436C9.17235 7.68986 9.19997 7.7312 9.2348 7.76602C9.26962 7.80084 9.31096 7.82846 9.35646 7.84731C9.40196 7.86615 9.45072 7.87584 9.49997 7.87583ZM12.4998 4.50102C13.1957 4.50183 13.8629 4.77863 14.3549 5.27071C14.847 5.76279 15.1238 6.42996 15.1246 7.12587H9.87494C9.87576 6.42996 10.1526 5.76279 10.6446 5.27071C11.1367 4.77864 11.8039 4.50183 12.4998 4.50102Z" fill="#555555"/>
</svg>
