<svg width="25" height="24" viewBox="0 0 25 24" fill="none" xmlns="http://www.w3.org/2000/svg">
<g clip-path="url(#clip0_1025_18923)">
<path d="M18.952 14.9098C19.3594 13.9939 19.569 13.0023 19.567 11.9998C19.567 10.0902 18.8084 8.2589 17.4582 6.90864C16.1079 5.55837 14.2766 4.7998 12.367 4.7998C10.4575 4.7998 8.62611 5.55837 7.27584 6.90864C5.92558 8.2589 5.16701 10.0902 5.16701 11.9998C5.16457 13.0023 5.37415 13.994 5.78201 14.9098C5.82366 15.0084 5.8846 15.0977 5.96125 15.1724C6.03791 15.247 6.12873 15.3056 6.22838 15.3447C6.32802 15.3838 6.43447 15.4025 6.54146 15.3998C6.64845 15.3971 6.75382 15.3731 6.85138 15.329C6.94893 15.285 7.03669 15.2219 7.10949 15.1435C7.1823 15.065 7.23868 14.9728 7.27531 14.8722C7.31194 14.7717 7.32809 14.6648 7.3228 14.5579C7.31751 14.451 7.29089 14.3463 7.24451 14.2498C6.93105 13.5412 6.77007 12.7746 6.77201 11.9998C6.82507 10.5504 7.43816 9.17803 8.48233 8.17138C9.5265 7.16473 10.9204 6.60226 12.3708 6.60226C13.8212 6.60226 15.215 7.16473 16.2592 8.17138C17.3034 9.17803 17.9165 10.5504 17.9695 11.9998C17.9712 12.7746 17.8103 13.5411 17.497 14.2498C17.4105 14.4487 17.4065 14.6739 17.486 14.8757C17.5655 15.0775 17.7219 15.2395 17.9208 15.3261C18.1197 15.4126 18.3448 15.4165 18.5466 15.3371C18.7485 15.2576 18.9105 15.1012 18.997 14.9023L18.952 14.9098Z" fill="#555555"/>
<path d="M16.3724 16.1846H8.36986C8.23712 16.1832 8.10608 16.2147 7.98851 16.2763C7.87093 16.3379 7.77047 16.4278 7.69615 16.5378C7.62183 16.6478 7.57595 16.7745 7.56264 16.9066C7.54933 17.0387 7.56899 17.172 7.61986 17.2946L8.81236 20.1221C9.03488 20.6547 9.44242 21.0889 9.95986 21.3446V22.3946C9.95986 22.606 10.0016 22.8153 10.0828 23.0106C10.1639 23.2058 10.2828 23.383 10.4326 23.5322C10.5824 23.6813 10.7603 23.7994 10.9559 23.8796C11.1514 23.9598 11.361 24.0006 11.5724 23.9996H13.1699C13.5929 23.9976 13.9981 23.8287 14.2973 23.5295C14.5965 23.2304 14.7654 22.8252 14.7674 22.4021V21.3521C15.2848 21.0964 15.6924 20.6622 15.9149 20.1296L17.1074 17.3021C17.1582 17.1795 17.1779 17.0462 17.1646 16.9141C17.1513 16.782 17.1054 16.6553 17.0311 16.5453C16.9568 16.4353 16.8563 16.3454 16.7387 16.2838C16.6211 16.2222 16.4901 16.1907 16.3574 16.1921L16.3724 16.1846ZM11.5724 22.3946V21.5996H13.1699V22.4021L11.5724 22.3946Z" fill="#555555"/>
<path d="M12.3673 3.20216C12.5801 3.20216 12.7842 3.11761 12.9347 2.96711C13.0852 2.81661 13.1698 2.61249 13.1698 2.39966V0.802159C13.1505 0.60367 13.058 0.419461 12.9104 0.28543C12.7627 0.151399 12.5704 0.0771484 12.371 0.0771484C12.1716 0.0771484 11.9793 0.151399 11.8317 0.28543C11.684 0.419461 11.5915 0.60367 11.5723 0.802159V2.39966C11.5723 2.6112 11.6558 2.81419 11.8047 2.96448C11.9535 3.11476 12.1557 3.20018 12.3673 3.20216Z" fill="#555555"/>
<path d="M19.7174 3.51732L18.8249 4.40982C18.7424 4.48224 18.6756 4.57081 18.6287 4.67007C18.5818 4.76932 18.5558 4.87715 18.5522 4.98688C18.5486 5.09661 18.5676 5.2059 18.6079 5.308C18.6483 5.4101 18.7092 5.50283 18.7868 5.58046C18.8644 5.65809 18.9572 5.71897 19.0593 5.75932C19.1614 5.79968 19.2707 5.81866 19.3804 5.81508C19.4901 5.81151 19.5979 5.78546 19.6972 5.73854C19.7965 5.69162 19.885 5.62484 19.9574 5.54232L20.8499 4.64982C20.9325 4.57741 20.9992 4.48884 21.0462 4.38958C21.0931 4.29032 21.1191 4.1825 21.1227 4.07277C21.1263 3.96304 21.1073 3.85375 21.0669 3.75165C21.0266 3.64955 20.9657 3.55682 20.8881 3.47919C20.8104 3.40156 20.7177 3.34068 20.6156 3.30033C20.5135 3.25997 20.4042 3.24099 20.2945 3.24457C20.1848 3.24814 20.0769 3.27419 19.9777 3.32111C19.8784 3.36802 19.7899 3.43481 19.7174 3.51732Z" fill="#555555"/>
<path d="M4.77701 18.4568L3.88451 19.3493C3.80199 19.4217 3.73521 19.5103 3.68829 19.6095C3.64138 19.7088 3.61533 19.8166 3.61175 19.9263C3.60818 20.0361 3.62716 20.1454 3.66751 20.2475C3.70787 20.3496 3.76874 20.4423 3.84638 20.5199C3.92401 20.5975 4.01674 20.6584 4.11884 20.6988C4.22094 20.7391 4.33023 20.7581 4.43996 20.7545C4.54968 20.751 4.65751 20.7249 4.75677 20.678C4.85602 20.6311 4.9446 20.5643 5.01701 20.4818L5.90951 19.5893C5.99203 19.5169 6.05881 19.4283 6.10573 19.329C6.15264 19.2298 6.17869 19.122 6.18227 19.0122C6.18584 18.9025 6.16687 18.7932 6.12651 18.6911C6.08615 18.589 6.02528 18.4963 5.94765 18.4186C5.87002 18.341 5.77728 18.2801 5.67519 18.2398C5.57309 18.1994 5.46379 18.1804 5.35407 18.184C5.24434 18.1876 5.13651 18.2136 5.03725 18.2606C4.938 18.3075 4.84942 18.3743 4.77701 18.4568Z" fill="#555555"/>
<path d="M23.5654 11.1971H21.9679C21.8565 11.1863 21.7441 11.1989 21.6378 11.2341C21.5316 11.2694 21.4339 11.3264 21.351 11.4016C21.2682 11.4769 21.2019 11.5686 21.1566 11.6709C21.1113 11.7733 21.0879 11.8839 21.0879 11.9959C21.0879 12.1078 21.1113 12.2185 21.1566 12.3208C21.2019 12.4231 21.2682 12.5149 21.351 12.5901C21.4339 12.6653 21.5316 12.7224 21.6378 12.7576C21.7441 12.7928 21.8565 12.8054 21.9679 12.7946H23.5654C23.7639 12.7754 23.9481 12.6829 24.0821 12.5352C24.2161 12.3876 24.2904 12.1953 24.2904 11.9959C24.2904 11.7964 24.2161 11.6042 24.0821 11.4565C23.9481 11.3088 23.7639 11.2164 23.5654 11.1971Z" fill="#555555"/>
<path d="M2.76753 11.1971H1.17003C1.05863 11.1863 0.946206 11.1989 0.839973 11.2341C0.733741 11.2694 0.63605 11.3264 0.553178 11.4016C0.470306 11.4769 0.404084 11.5686 0.358767 11.6709C0.31345 11.7733 0.290039 11.8839 0.290039 11.9959C0.290039 12.1078 0.31345 12.2185 0.358767 12.3208C0.404084 12.4231 0.470306 12.5149 0.553178 12.5901C0.63605 12.6653 0.733741 12.7224 0.839973 12.7576C0.946206 12.7928 1.05863 12.8054 1.17003 12.7946H2.76753C2.87893 12.8054 2.99135 12.7928 3.09758 12.7576C3.20382 12.7224 3.30151 12.6653 3.38438 12.5901C3.46725 12.5149 3.53347 12.4231 3.57879 12.3208C3.62411 12.2185 3.64752 12.1078 3.64752 11.9959C3.64752 11.8839 3.62411 11.7733 3.57879 11.6709C3.53347 11.5686 3.46725 11.4769 3.38438 11.4016C3.30151 11.3264 3.20382 11.2694 3.09758 11.2341C2.99135 11.1989 2.87893 11.1863 2.76753 11.1971Z" fill="#555555"/>
<path d="M19.9578 18.4571C19.8046 18.3227 19.606 18.2516 19.4023 18.2582C19.1987 18.2649 19.0051 18.3488 18.861 18.4929C18.7169 18.637 18.633 18.8305 18.6264 19.0342C18.6198 19.2379 18.6909 19.4365 18.8253 19.5896L19.7178 20.4821C19.7902 20.5646 19.8788 20.6314 19.978 20.6783C20.0773 20.7253 20.1851 20.7513 20.2948 20.7549C20.4046 20.7585 20.5139 20.7395 20.616 20.6991C20.7181 20.6588 20.8108 20.5979 20.8884 20.5203C20.9661 20.4426 21.0269 20.3499 21.0673 20.2478C21.1076 20.1457 21.1266 20.0364 21.1231 19.9267C21.1195 19.817 21.0934 19.7091 21.0465 19.6099C20.9996 19.5106 20.9328 19.422 20.8503 19.3496L19.9578 18.4571Z" fill="#555555"/>
<path d="M4.77739 5.54196C4.84981 5.62448 4.93838 5.69127 5.03764 5.73818C5.13689 5.7851 5.24472 5.81115 5.35445 5.81472C5.46417 5.8183 5.57347 5.79932 5.67557 5.75896C5.77767 5.71861 5.8704 5.65773 5.94803 5.5801C6.02566 5.50247 6.08654 5.40974 6.12689 5.30764C6.16725 5.20554 6.18623 5.09625 6.18265 4.98652C6.17908 4.87679 6.15302 4.76896 6.10611 4.66971C6.05919 4.57045 5.99241 4.48188 5.90989 4.40946L5.01739 3.51696C4.94688 3.4294 4.85876 3.35763 4.75874 3.3063C4.65872 3.25497 4.54903 3.22523 4.43678 3.219C4.32453 3.21278 4.21222 3.23021 4.10714 3.27016C4.00205 3.31012 3.90654 3.37171 3.82678 3.45094C3.74702 3.53017 3.6848 3.62527 3.64415 3.73009C3.60349 3.83491 3.58532 3.94709 3.5908 4.05938C3.59628 4.17167 3.62529 4.28156 3.67595 4.38192C3.72661 4.48228 3.7978 4.57088 3.88489 4.64196L4.77739 5.54196Z" fill="#555555"/>
</g>
<defs>
<clipPath id="clip0_1025_18923">
<rect width="24" height="24" fill="white" transform="translate(0.368164)"/>
</clipPath>
</defs>
</svg>
