<svg width="24" height="24" viewBox="0 0 24 24" fill="none" xmlns="http://www.w3.org/2000/svg">
<path fill-rule="evenodd" clip-rule="evenodd" d="M5.1168 7.7517C5.5301 7.72415 5.88748 8.03685 5.91503 8.45015L6.37497 15.3493C6.46483 16.6971 6.52885 17.6349 6.66942 18.3406C6.80577 19.025 6.99611 19.3873 7.26952 19.6431C7.54293 19.8989 7.91709 20.0647 8.60909 20.1552C9.32249 20.2485 10.2625 20.25 11.6133 20.25H12.3867C13.7375 20.25 14.6776 20.2485 15.391 20.1552C16.083 20.0647 16.4571 19.8989 16.7305 19.6431C17.0039 19.3873 17.1943 19.025 17.3306 18.3406C17.4712 17.6349 17.5352 16.6971 17.6251 15.3493L18.085 8.45015C18.1126 8.03685 18.4699 7.72415 18.8832 7.7517C19.2965 7.77925 19.6092 8.13663 19.5817 8.54993L19.1182 15.5017C19.0327 16.7844 18.9637 17.8206 18.8017 18.6336C18.6333 19.4789 18.3469 20.185 17.7553 20.7385C17.1637 21.2919 16.4402 21.5308 15.5855 21.6425C14.7635 21.7501 13.725 21.7501 12.4394 21.75H11.5606C10.275 21.7501 9.23658 21.7501 8.41454 21.6425C7.55988 21.5308 6.83634 21.2919 6.24474 20.7385C5.65315 20.185 5.36673 19.4789 5.19833 18.6336C5.03636 17.8205 4.9673 16.7844 4.8818 15.5017L4.41835 8.54993C4.3908 8.13663 4.7035 7.77925 5.1168 7.7517Z" fill="#555555"/>
<path fill-rule="evenodd" clip-rule="evenodd" d="M10.3553 2.25004L10.3093 2.25002C10.0929 2.24988 9.90439 2.24976 9.72637 2.27819C9.02307 2.39049 8.41447 2.82915 8.08552 3.46084C8.00226 3.62074 7.94276 3.79964 7.87446 4.00496L7.85994 4.04858L7.76285 4.33984C7.74386 4.39681 7.73857 4.41251 7.73396 4.42524C7.55884 4.90936 7.10482 5.23659 6.59017 5.24964C6.57664 5.24998 6.56007 5.25004 6.50002 5.25004H3.49994C3.08573 5.25004 2.74994 5.58582 2.74994 6.00004C2.74994 6.41425 3.08573 6.75004 3.49994 6.75004L6.50859 6.75004L6.52533 6.75004H17.4747L17.4915 6.75004L20.5 6.75004C20.9142 6.75004 21.25 6.41425 21.25 6.00004C21.25 5.58582 20.9142 5.25004 20.5 5.25004H17.5C17.44 5.25004 17.4234 5.24998 17.4099 5.24964C16.8952 5.23659 16.4412 4.90933 16.2661 4.42522C16.2615 4.41258 16.2561 4.39653 16.2372 4.33984L16.1401 4.04858L16.1256 4.00494C16.0573 3.79961 15.9978 3.62073 15.9145 3.46084C15.5856 2.82915 14.977 2.39049 14.2737 2.27819C14.0957 2.24976 13.9071 2.24988 13.6907 2.25002L13.6448 2.25004H10.3553ZM9.14452 4.93548C9.10525 5.04404 9.0596 5.14902 9.00809 5.25004H14.992C14.9404 5.14902 14.8948 5.04405 14.8555 4.9355L14.8168 4.82216L14.7171 4.52292C14.6259 4.2494 14.6049 4.19363 14.5841 4.15364C14.4744 3.94307 14.2716 3.79686 14.0371 3.75942C13.9926 3.75231 13.9331 3.75004 13.6448 3.75004H10.3553C10.067 3.75004 10.0074 3.75231 9.9629 3.75942C9.72846 3.79686 9.5256 3.94307 9.41595 4.15364C9.39513 4.19363 9.37413 4.24942 9.28296 4.52292L9.18316 4.82234C9.16813 4.86742 9.15644 4.90251 9.14452 4.93548Z" fill="#555555"/>
</svg>
