<svg width="25" height="24" viewBox="0 0 25 24" fill="none" xmlns="http://www.w3.org/2000/svg">
<path d="M14.7475 7.53033C15.0404 7.82322 15.5153 7.82322 15.8082 7.53033C16.1011 7.23744 16.1011 6.76256 15.8082 6.46967L12.8082 3.46967C12.5153 3.17678 12.0404 3.17678 11.7475 3.46967L8.7475 6.46967C8.45461 6.76256 8.45461 7.23744 8.7475 7.53033C9.0404 7.82322 9.51527 7.82322 9.80816 7.53033L11.5278 5.81066V14C11.5278 14.4142 11.8636 14.75 12.2778 14.75C12.692 14.75 13.0278 14.4142 13.0278 14V5.81066L14.7475 7.53033Z" fill="#999999"/>
<path d="M21.0278 12C21.0278 11.5858 20.692 11.25 20.2778 11.25C19.8636 11.25 19.5278 11.5858 19.5278 12C19.5278 16.0041 16.2819 19.25 12.2778 19.25C8.27377 19.25 5.02783 16.0041 5.02783 12C5.02783 11.5858 4.69205 11.25 4.27783 11.25C3.86362 11.25 3.52783 11.5858 3.52783 12C3.52783 16.8325 7.44534 20.75 12.2778 20.75C17.1103 20.75 21.0278 16.8325 21.0278 12Z" fill="#999999"/>
</svg>
