<svg width="203" height="202" viewBox="0 0 203 202" fill="none" xmlns="http://www.w3.org/2000/svg">
<g clip-path="url(#clip0_750_8545)">
<path fill-rule="evenodd" clip-rule="evenodd" d="M181.395 47.3043C181.395 56.6602 178.62 65.8061 173.422 73.5852C168.225 81.3644 160.837 87.4275 152.193 91.0078C143.549 94.5882 134.038 95.5249 124.862 93.6996C115.685 91.8743 107.257 87.3689 100.641 80.7532C94.0254 74.1375 89.5202 65.7086 87.695 56.5324C85.8698 47.3562 86.8067 37.8449 90.3872 29.2012C93.9677 20.5575 100.031 13.1696 107.81 7.97183C115.589 2.77406 124.735 -0.000156056 134.091 6.58406e-09C146.637 6.58406e-09 158.669 4.98383 167.54 13.8551C176.412 22.7264 181.396 34.7584 181.396 47.3043H181.395Z" fill="#57A3FF"/>
<path fill-rule="evenodd" clip-rule="evenodd" d="M169.449 47.3042C169.448 54.2971 167.375 61.133 163.489 66.9473C159.604 72.7617 154.082 77.2933 147.622 79.9693C141.161 82.6453 134.052 83.3454 127.193 81.981C120.335 80.6167 114.035 77.2492 109.09 72.3044C104.145 67.3595 100.778 61.0595 99.4137 54.2009C98.0495 47.3423 98.7497 40.2333 101.426 33.7726C104.102 27.312 108.634 21.79 114.448 17.905C120.263 14.0199 127.099 11.9463 134.091 11.9463C143.469 11.9473 152.461 15.6729 159.092 22.3036C165.722 28.9343 169.448 37.9271 169.449 47.3042Z" fill="#E0EEFF"/>
<path d="M131.251 24.0203C131.251 23.6473 131.325 23.2779 131.468 22.9333C131.61 22.5886 131.82 22.2755 132.083 22.0117C132.347 21.7479 132.66 21.5387 133.005 21.3959C133.35 21.2532 133.719 21.1797 134.092 21.1797C134.465 21.1797 134.835 21.2532 135.179 21.3959C135.524 21.5387 135.837 21.7479 136.101 22.0117C136.364 22.2755 136.574 22.5886 136.716 22.9333C136.859 23.2779 136.933 23.6473 136.933 24.0203V45.671L148.224 52.1906C148.875 52.5673 149.35 53.1872 149.544 53.914C149.738 54.6407 149.635 55.4148 149.258 56.0659C148.882 56.717 148.262 57.1918 147.535 57.3858C146.808 57.5799 146.034 57.4773 145.383 57.1006L132.85 49.8566C132.371 49.6239 131.967 49.2612 131.684 48.8098C131.402 48.3584 131.252 47.8366 131.252 47.304L131.251 24.0203Z" fill="#3A6584"/>
<path fill-rule="evenodd" clip-rule="evenodd" d="M35.713 68.874H111.635C116.58 90.7666 110.037 110.704 93.4223 127.285C110.037 143.865 116.581 163.803 111.635 185.684H35.713C30.7687 163.803 37.2998 143.864 53.9147 127.285C37.2998 110.705 30.7687 90.7666 35.713 68.874Z" fill="#F7E8D7"/>
<path fill-rule="evenodd" clip-rule="evenodd" d="M49.3843 103.253C54.202 113.268 61.3082 119.661 68.9428 127.284C54.8229 141.369 43.3133 153.075 44.831 175.082H102.506C104.024 153.075 92.5141 141.369 78.4057 127.284C86.0406 119.661 93.1465 113.268 97.9641 103.253H49.3843Z" fill="#FFBA57"/>
<path fill-rule="evenodd" clip-rule="evenodd" d="M29.7686 185.684H117.58C119.742 185.692 121.812 186.556 123.339 188.085C124.866 189.614 125.727 191.686 125.732 193.847C125.726 196.007 124.865 198.077 123.338 199.605C121.81 201.132 119.74 201.993 117.58 201.999H29.7686C27.6072 201.994 25.5358 201.133 24.0064 199.606C22.477 198.079 21.6137 196.009 21.605 193.847C21.6133 191.685 22.4761 189.613 24.0052 188.084C25.5344 186.555 27.606 185.692 29.7686 185.684Z" fill="#E2AA73"/>
<path fill-rule="evenodd" clip-rule="evenodd" d="M29.7686 52.5576H117.58C119.742 52.5664 121.812 53.4296 123.339 54.959C124.866 56.4885 125.727 58.5599 125.732 60.7213C125.726 62.8815 124.865 64.9514 123.338 66.4789C121.81 68.0065 119.74 68.8673 117.58 68.8735H29.7686C27.6072 68.8677 25.5358 68.0074 24.0064 66.4801C22.477 64.9528 21.6137 62.8826 21.605 60.7213C21.6133 58.5587 22.4761 56.4871 24.0052 54.9579C25.5344 53.4287 27.606 52.5659 29.7686 52.5576Z" fill="#E2AA73"/>
<path fill-rule="evenodd" clip-rule="evenodd" d="M99.2291 53.2705C99.9293 58.4401 100.152 63.663 99.8959 68.8735H117.58C119.734 68.8585 121.795 67.9924 123.312 66.4641C124.83 64.9358 125.682 62.8694 125.682 60.7155C125.682 58.5617 124.83 56.4952 123.312 54.967C121.795 53.4387 119.734 52.5726 117.58 52.5576H99.1372C99.1715 52.7991 99.2063 53.0291 99.2291 53.2705Z" fill="#B78A5E"/>
<path fill-rule="evenodd" clip-rule="evenodd" d="M106.071 68.874H99.8959C99.7244 72.1941 99.3481 75.5003 98.7691 78.774C97.2418 87.3396 94.3496 95.6045 90.203 103.253H97.9643C93.1466 113.268 86.0407 119.661 78.4058 127.285C92.5142 141.37 104.024 153.075 102.506 175.083H98.6428C99.2986 178.584 99.7172 182.126 99.8959 185.684H111.636C116.58 163.803 110.037 143.864 93.4224 127.285C104.633 116.097 111.255 103.392 112.855 89.5936C113.394 84.9203 113.371 80.1991 112.786 75.5313C112.516 73.2941 112.132 71.0721 111.636 68.874H106.071Z" fill="#DED1C2"/>
<path fill-rule="evenodd" clip-rule="evenodd" d="M102.506 175.082C104.024 153.075 92.5143 141.369 78.4058 127.284C86.0408 119.661 93.1467 113.268 97.9643 103.253H90.2031C85.6727 111.716 79.5902 119.742 72.0361 127.284C86.3742 141.588 95.4003 157.674 98.6429 175.082H102.506Z" fill="#EB9C2C"/>
<path fill-rule="evenodd" clip-rule="evenodd" d="M111.636 185.684H99.8959C100.161 191.134 99.9073 196.597 99.1372 201.999H117.58C119.734 201.984 121.795 201.118 123.312 199.59C124.83 198.062 125.682 195.995 125.682 193.842C125.682 191.688 124.83 189.621 123.312 188.093C121.795 186.565 119.734 185.699 117.58 185.684H111.636Z" fill="#B78A5E"/>
<path fill-rule="evenodd" clip-rule="evenodd" d="M148.108 14.8439C154.445 17.5816 159.843 22.1145 163.635 27.8834C167.427 33.6524 169.448 40.4051 169.448 47.3088C169.448 54.2125 167.427 60.9653 163.635 66.7343C159.843 72.5032 154.445 77.0361 148.108 79.7738C141.597 86.6788 133.16 91.4662 123.893 93.5142C127.243 94.2407 130.662 94.6069 134.091 94.6066C140.733 94.6017 147.299 93.1981 153.363 90.4873C159.426 87.7764 164.851 83.8191 169.284 78.8729C173.716 73.9267 177.058 68.1025 179.09 61.7793C181.123 55.4562 181.801 48.7759 181.081 42.1732C180.361 35.5705 178.259 29.1935 174.911 23.4573C171.563 17.721 167.044 12.7541 161.649 8.87975C156.255 5.00545 150.104 2.31062 143.599 0.970686C137.094 -0.36925 130.379 -0.324263 123.893 1.10272C133.163 3.1413 141.603 7.93019 148.108 14.8431V14.8439Z" fill="#3282E3"/>
<path fill-rule="evenodd" clip-rule="evenodd" d="M169.449 47.304C169.449 40.4008 167.429 33.6485 163.636 27.8803C159.844 22.1121 154.446 17.5805 148.108 14.8447C156.393 23.6237 161.009 35.2383 161.009 47.3097C161.009 59.3811 156.393 70.9957 148.108 79.7747C154.446 77.0363 159.844 72.5026 163.636 66.7327C167.429 60.9629 169.449 54.2093 169.449 47.3048V47.304Z" fill="#CAD6E6"/>
</g>
<defs>
<clipPath id="clip0_750_8545">
<rect width="202" height="202" fill="white" transform="translate(0.5)"/>
</clipPath>
</defs>
</svg>
