<svg width="20" height="21" viewBox="0 0 20 21" fill="none" xmlns="http://www.w3.org/2000/svg">
<path d="M19.6746 9.71407L18.2494 8.28963L18.7709 6.34296C18.9302 5.75037 18.5776 5.14074 17.9857 4.98222L16.0391 4.46074L15.5176 2.51407C15.3583 1.92148 14.7487 1.56963 14.1569 1.72889L12.2102 2.25037L10.7857 0.825185C10.5687 0.608148 10.2843 0.5 9.99981 0.5C9.71537 0.5 9.43093 0.608148 9.21389 0.825185L7.78944 2.25037L5.84278 1.72889C5.25019 1.56963 4.6413 1.92148 4.48204 2.51407L3.96056 4.46074L2.01389 4.98222C1.4213 5.14148 1.06944 5.75037 1.2287 6.34296L1.75019 8.28963L0.325 9.71407C-0.108333 10.1481 -0.108333 10.8519 0.325 11.2859L1.75019 12.7104L1.2287 14.657C1.06944 15.2496 1.4213 15.8585 2.01389 16.0178L3.96056 16.5393L4.48204 18.4859C4.64056 19.0785 5.25019 19.4304 5.84278 19.2711L7.78944 18.7496L9.21389 20.1748C9.43093 20.3919 9.71537 20.5 9.99981 20.5C10.2843 20.5 10.5687 20.3919 10.7857 20.1748L12.2102 18.7496L14.1569 19.2711C14.7494 19.4304 15.3591 19.0778 15.5176 18.4859L16.0391 16.5393L17.9857 16.0178C18.5783 15.8593 18.9302 15.2496 18.7709 14.657L18.2494 12.7104L19.6746 11.2859C20.108 10.8519 20.108 10.1481 19.6746 9.71407Z" fill="#0566EA"/>
<path d="M19.6738 11.2859L18.2487 12.7104L18.7701 14.657C18.9294 15.2496 18.5775 15.8593 17.9849 16.0178L16.0383 16.5393L15.5168 18.4859C15.3583 19.0778 14.7487 19.4304 14.1561 19.2711L12.2094 18.7496L10.7849 20.1748C10.5679 20.3919 10.2835 20.5 9.99902 20.5V0.5C10.2835 0.5 10.5679 0.608148 10.7849 0.825185L12.2094 2.25037L14.1561 1.72889C14.7479 1.56963 15.3575 1.92148 15.5168 2.51407L16.0383 4.46074L17.9849 4.98222C18.5768 5.14074 18.9294 5.75037 18.7701 6.34296L18.2487 8.28963L19.6738 9.71407C20.1072 10.1481 20.1072 10.8519 19.6738 11.2859Z" fill="#0566EA"/>
<path d="M12.2215 13.8326C12.8351 13.8326 13.3326 13.3351 13.3326 12.7215C13.3326 12.1078 12.8351 11.6104 12.2215 11.6104C11.6078 11.6104 11.1104 12.1078 11.1104 12.7215C11.1104 13.3351 11.6078 13.8326 12.2215 13.8326Z" fill="white"/>
<path d="M13.0073 9.06384L8.56287 13.5083C8.13175 13.9394 7.42657 13.9438 6.99102 13.5083C6.55768 13.0742 6.55768 12.3705 6.99102 11.9364L9.99916 8.92829L11.4355 7.49199C11.8695 7.05866 12.5732 7.05866 13.0073 7.49199C13.4406 7.92607 13.4406 8.62977 13.0073 9.06384Z" fill="white"/>
<path d="M13.0072 9.06384L9.99902 12.072V8.92829L11.4353 7.49199C11.8694 7.05866 12.5731 7.05866 13.0072 7.49199C13.4405 7.92607 13.4405 8.62977 13.0072 9.06384Z" fill="white"/>
<path d="M7.77713 9.38921C8.39078 9.38921 8.88824 8.89175 8.88824 8.2781C8.88824 7.66445 8.39078 7.16699 7.77713 7.16699C7.16348 7.16699 6.66602 7.66445 6.66602 8.2781C6.66602 8.89175 7.16348 9.38921 7.77713 9.38921Z" fill="#F2F2FC"/>
</svg>
