<svg width="56" height="59" viewBox="0 0 56 59" fill="none" xmlns="http://www.w3.org/2000/svg">
<path d="M42.6932 19.4591C46.0138 19.4591 48.7057 16.7672 48.7057 13.4466C48.7057 10.126 46.0138 7.43408 42.6932 7.43408C39.3726 7.43408 36.6807 10.126 36.6807 13.4466C36.6807 16.7672 39.3726 19.4591 42.6932 19.4591Z" fill="#FFD02C"/>
<path d="M45.9215 16.6737C47.705 14.8902 47.705 11.9985 45.9215 10.215C44.1379 8.43146 41.2463 8.43146 39.4628 10.215C37.6792 11.9985 37.6792 14.8902 39.4628 16.6737C41.2463 18.4572 44.1379 18.4572 45.9215 16.6737Z" fill="#EEC226"/>
<path d="M44.1608 11.2377C43.9285 11.2377 43.7402 11.0494 43.7402 10.8171C43.7402 10.5848 43.9285 10.3965 44.1608 10.3965C44.3931 10.3965 44.5814 10.5848 44.5814 10.8171C44.5814 11.0494 44.3931 11.2377 44.1608 11.2377Z" fill="#FFE178"/>
<path d="M43.5246 11.5179C43.6433 11.5179 43.7396 11.4217 43.7396 11.3029C43.7396 11.1842 43.6433 11.0879 43.5246 11.0879C43.4058 11.0879 43.3096 11.1842 43.3096 11.3029C43.3096 11.4217 43.4058 11.5179 43.5246 11.5179Z" fill="#FFE178"/>
<path d="M38.9951 12.2175C38.2176 14.0167 39.1596 15.6617 39.6266 16.2621L38.713 15.2898L38.207 13.8249L38.5112 12.0607L39.5436 10.5236L41.0663 9.28054L43.1405 9.104L44.5794 9.46361C44.0928 9.4246 43.01 9.37454 42.5695 9.4864C42.019 9.62621 39.9668 9.96837 38.9951 12.2175Z" fill="#B6910F"/>
<path d="M45.3658 16.2963C44.0788 17.7745 42.1882 17.6358 41.4453 17.4742L42.7167 17.8781L44.2565 17.7012L45.7162 16.665L46.6565 15.0698L47.1196 13.1595L46.3829 11.2126L45.4367 10.0703C45.6822 10.4921 46.1952 11.4471 46.2846 11.8927C46.3964 12.4496 46.9745 14.4483 45.3658 16.2963Z" fill="#FFE178"/>
<path fill-rule="evenodd" clip-rule="evenodd" d="M47.26 13.4474C47.26 15.9697 45.2155 18.0146 42.6931 18.0146C40.1708 18.0146 38.126 15.9697 38.126 13.4474C38.126 10.9251 40.1708 8.88037 42.6931 8.88037C45.2155 8.88037 47.26 10.9251 47.26 13.4474ZM46.891 13.4474C46.891 15.7659 45.0116 17.6453 42.6931 17.6453C40.3747 17.6453 38.4952 15.7659 38.4952 13.4474C38.4952 11.1289 40.3747 9.24942 42.6931 9.24942C45.0116 9.24942 46.891 11.1289 46.891 13.4474Z" fill="#141942"/>
<path fill-rule="evenodd" clip-rule="evenodd" d="M48.7057 13.4466C48.7057 16.7673 46.0138 19.4591 42.6932 19.4591C39.3725 19.4591 36.6807 16.7673 36.6807 13.4466C36.6807 10.126 39.3725 7.43408 42.6932 7.43408C46.0138 7.43408 48.7057 10.126 48.7057 13.4466ZM48.3367 13.4466C48.3367 16.5634 45.81 19.0901 42.6932 19.0901C39.5763 19.0901 37.0496 16.5634 37.0496 13.4466C37.0496 10.3298 39.5763 7.80313 42.6932 7.80313C45.81 7.80313 48.3367 10.3298 48.3367 13.4466Z" fill="#141942"/>
<path d="M34.1004 18.2853C37.421 18.2853 40.1129 15.5934 40.1129 12.2728C40.1129 8.95214 37.421 6.26025 34.1004 6.26025C30.7798 6.26025 28.0879 8.95214 28.0879 12.2728C28.0879 15.5934 30.7798 18.2853 34.1004 18.2853Z" fill="#FFD02C"/>
<path d="M37.3287 15.5004C39.1122 13.7168 39.1122 10.8252 37.3287 9.04164C35.5452 7.25812 32.6535 7.25812 30.87 9.04164C29.0865 10.8252 29.0865 13.7168 30.87 15.5004C32.6535 17.2839 35.5452 17.2839 37.3287 15.5004Z" fill="#EEC226"/>
<path d="M35.568 10.0639C35.3358 10.0639 35.1475 9.87553 35.1475 9.64324C35.1475 9.41095 35.3358 9.22266 35.568 9.22266C35.8003 9.22266 35.9886 9.41095 35.9886 9.64324C35.9886 9.87553 35.8003 10.0639 35.568 10.0639Z" fill="#FFE178"/>
<path d="M34.9318 10.3441C35.0506 10.3441 35.1468 10.2478 35.1468 10.1291C35.1468 10.0103 35.0506 9.91406 34.9318 9.91406C34.8131 9.91406 34.7168 10.0103 34.7168 10.1291C34.7168 10.2478 34.8131 10.3441 34.9318 10.3441Z" fill="#FFE178"/>
<path d="M30.4023 11.0436C29.6248 12.8429 30.5669 14.4879 31.0338 15.0882L30.1202 14.116L29.6143 12.651L29.9184 10.8869L30.9508 9.34977L32.4736 8.10671L34.5477 7.93018L35.9866 8.28978C35.5001 8.25077 34.4172 8.20071 33.9767 8.31257C33.4262 8.45238 31.374 8.79454 30.4023 11.0436Z" fill="#B6910F"/>
<path d="M36.773 15.1274C35.486 16.6056 33.5955 16.4669 32.8525 16.3053L34.124 16.7091L35.6638 16.5323L37.1235 15.4961L38.0638 13.9008L38.5269 11.9905L37.7901 10.0436L36.844 8.90137C37.0894 9.32318 37.6024 10.2782 37.6919 10.7237C37.8036 11.2807 38.3817 13.2793 36.773 15.1274Z" fill="#FFE178"/>
<path fill-rule="evenodd" clip-rule="evenodd" d="M38.6663 12.2736C38.6663 14.7959 36.6217 16.8407 34.0994 16.8407C31.5771 16.8407 29.5322 14.7959 29.5322 12.2736C29.5322 9.75126 31.5771 7.70654 34.0994 7.70654C36.6217 7.70654 38.6663 9.75126 38.6663 12.2736ZM38.2973 12.2736C38.2973 14.5921 36.4179 16.4715 34.0994 16.4715C31.7809 16.4715 29.9015 14.5921 29.9015 12.2736C29.9015 9.9551 31.7809 8.07559 34.0994 8.07559C36.4179 8.07559 38.2973 9.9551 38.2973 12.2736Z" fill="#141942"/>
<path fill-rule="evenodd" clip-rule="evenodd" d="M40.1129 12.2728C40.1129 15.5934 37.4211 18.2853 34.1004 18.2853C30.7797 18.2853 28.0879 15.5934 28.0879 12.2728C28.0879 8.95216 30.7797 6.26025 34.1004 6.26025C37.4211 6.26025 40.1129 8.95216 40.1129 12.2728ZM39.7439 12.2728C39.7439 15.3896 37.2172 17.9163 34.1004 17.9163C30.9836 17.9163 28.4569 15.3896 28.4569 12.2728C28.4569 9.15596 30.9836 6.6293 34.1004 6.6293C37.2172 6.6293 39.7439 9.15596 39.7439 12.2728Z" fill="#141942"/>
<path d="M26.7926 6.18118C27.6455 6.33721 28.1858 5.98769 28.7976 6.45482C29.4478 6.95142 30.2805 8.3318 30.5914 9.06782C30.8536 9.68908 31.046 11.0278 30.5679 12.5033C29.6171 15.4397 26.3914 17.3494 23.3552 16.7939C22.0542 16.556 21.0658 15.8498 20.8042 15.5532C19.9328 14.5654 18.8784 13.2699 18.7244 11.3215C18.6731 10.6714 19.35 11.1822 19.5735 10.4922C20.5244 7.55596 23.7565 5.62582 26.7926 6.18118Z" fill="#AF8B09"/>
<path d="M27.1491 14.9666C29.9685 13.2831 31.0589 9.9167 29.5845 7.44766C28.1102 4.97861 24.6294 4.34183 21.81 6.02539C18.9906 7.70894 17.9003 11.0753 19.3746 13.5443C20.849 16.0134 24.3298 16.6502 27.1491 14.9666Z" fill="#FFD02C"/>
<path d="M21.4057 15.2096L22.8068 15.6633C23.1394 15.6985 23.9154 15.7534 24.3592 15.6909C22.0815 15.466 20.468 14.6192 19.4879 12.5788C18.9687 11.4982 19.4119 9.2637 19.6765 8.34912L19.2653 8.98988L18.8057 10.6605L18.9969 12.5012L19.8601 14.0707L21.4057 15.2096Z" fill="#FFE178"/>
<path d="M27.671 6.3778C27.07 5.89672 26.1588 5.7039 25.5625 5.51074C28.0455 5.82712 28.9157 7.07962 29.2304 7.73622C29.4821 8.26148 29.7953 9.01753 29.8783 9.83461C28.9729 7.65281 28.8662 7.3342 27.671 6.3778Z" fill="#FFE178"/>
<path d="M26.5151 13.8002C28.6416 12.5303 29.464 9.99129 28.3519 8.12902C27.2399 6.26675 24.6146 5.78647 22.4881 7.05628C20.3616 8.32609 19.5392 10.8651 20.6512 12.7274C21.7632 14.5897 24.3886 15.07 26.5151 13.8002Z" fill="#EEC226"/>
<path d="M25.5378 12.9585C25.6093 12.7375 25.4882 12.5004 25.2673 12.4288C25.0462 12.3572 24.8089 12.4783 24.7374 12.6993C24.6658 12.9203 24.7869 13.1575 25.0081 13.229C25.2289 13.3006 25.4662 13.1795 25.5378 12.9585Z" fill="#FFE178"/>
<path d="M26.0027 12.4405C26.0394 12.3275 25.9772 12.2063 25.8643 12.1697C25.7514 12.1331 25.6302 12.195 25.5936 12.308C25.5569 12.421 25.6188 12.5422 25.7317 12.5788C25.8449 12.6154 25.966 12.5534 26.0027 12.4405Z" fill="#FFE178"/>
<path d="M21.0427 9.54854C20.2654 11.3478 21.2075 12.9928 21.6741 13.5931L20.7605 12.621L20.2549 11.156L20.5587 9.39178L21.5914 7.85466L23.3086 6.73533L25.1881 6.43506L26.627 6.79467C26.1407 6.75566 25.0578 6.70562 24.6173 6.81745C24.0668 6.9573 22.0143 7.29942 21.0427 9.54854Z" fill="#B6910F"/>
<path fill-rule="evenodd" clip-rule="evenodd" d="M25.7983 6.41851C28.0881 6.83739 29.363 8.97229 28.6456 11.1869C27.9285 13.4016 25.4907 14.8574 23.2006 14.4385C20.9109 14.0197 19.6359 11.8848 20.353 9.6701C21.0704 7.45544 23.5083 5.99966 25.7983 6.41851ZM25.7141 6.67813C27.8558 7.06988 29.048 9.06656 28.3772 11.1379C27.7065 13.2091 25.4264 14.5708 23.2848 14.1789C21.1432 13.7872 19.9506 11.7905 20.6217 9.7192C21.2925 7.6479 23.5725 6.28638 25.7141 6.67813Z" fill="#141942"/>
<path fill-rule="evenodd" clip-rule="evenodd" d="M28.7972 6.45368C28.7972 6.45368 28.7133 6.37393 28.559 6.25345C27.9211 5.72511 27.1228 5.34608 26.1998 5.17726C25.1648 4.98791 24.1066 5.08752 23.124 5.41744C21.1109 6.08674 19.4344 7.7124 18.9 9.76061C18.7194 10.4311 18.6751 11.0926 18.7519 11.7189C18.9396 13.4394 19.9685 14.6053 20.7753 15.5198L20.8038 15.5521C21.0654 15.8486 22.0538 16.5549 23.3548 16.7927C26.391 17.3482 29.6167 15.4386 30.5675 12.5022C31.0456 11.0267 30.8532 9.68796 30.591 9.06671C30.2801 8.33069 29.4474 6.95031 28.7972 6.45368ZM29.9753 11.4994C30.2871 10.5365 30.315 9.58487 30.1044 8.72121C30.1947 8.89376 30.2707 9.0529 30.3276 9.18796C30.5687 9.75832 30.7576 11.0373 30.2991 12.4531C29.3949 15.2447 26.3283 17.0617 23.439 16.5332C22.8225 16.4205 22.2761 16.1959 21.8517 15.9624C21.4232 15.7266 21.1358 15.4914 21.0287 15.37L21.0129 15.3521C20.8903 15.213 20.7636 15.0693 20.636 14.92C21.2302 15.3515 21.9453 15.6621 22.7559 15.8105C25.7921 16.3657 29.0242 14.4355 29.9753 11.4994ZM22.8401 15.5509C20.7011 15.1597 19.2643 13.5808 19.0305 11.6534C19.0176 11.5325 19.0091 11.4089 19.0053 11.2822C18.9889 10.7492 19.0534 10.2338 19.1866 9.74436C19.2059 9.67547 19.2267 9.60646 19.249 9.53742C19.8526 7.67357 21.4226 6.23596 23.2586 5.64275C24.2215 5.33503 25.2627 5.25692 26.2866 5.47223C26.9624 5.61439 27.5387 5.90833 27.949 6.17082C28.1173 6.27835 28.2561 6.37962 28.3608 6.46124C29.7492 7.61198 30.3361 9.5068 29.7067 11.4503C28.8022 14.2432 25.7279 16.0791 22.8401 15.5509Z" fill="#141942"/>
<path d="M13.9751 32.027C14.7314 31.6027 14.9241 30.9888 15.6932 30.958C16.5109 30.9251 18.0328 31.4566 18.742 31.8247C19.3403 32.1356 20.3428 33.0436 20.9164 34.4846C22.0585 37.3518 20.7941 40.8807 18.1023 42.3908C16.9488 43.0381 15.7369 43.1253 15.3462 43.064C14.0451 42.8595 12.4067 42.5351 11.0446 41.1335C10.5901 40.6657 11.4372 40.627 11.1688 39.9533C10.027 37.0858 11.2834 33.5369 13.9751 32.027Z" fill="#AF8B09"/>
<path d="M19.8558 38.5605C20.9515 35.465 19.6422 32.1776 16.9313 31.218C14.2204 30.2584 11.1345 31.9899 10.0388 35.0855C8.94299 38.181 10.2523 41.4683 12.9632 42.428C15.6741 43.3876 18.76 41.6561 19.8558 38.5605Z" fill="#FFD02C"/>
<path d="M15.5917 42.4208L16.9596 41.8762C17.2383 41.6911 17.8709 41.238 18.1727 40.9066C16.2757 42.1871 14.4928 42.5651 12.4361 41.6198C11.3469 41.1192 10.2619 39.116 9.88184 38.2432L9.97425 38.999L10.6867 40.5784L12.0088 41.8732L13.6749 42.5308L15.5917 42.4208Z" fill="#FFE178"/>
<path d="M14.7764 31.6175C14.0066 31.6307 13.182 32.0639 12.5996 32.2956C14.7132 30.9543 16.1823 31.3635 16.8437 31.6679C17.3728 31.9116 18.0963 32.2938 18.6817 32.8698C16.5923 31.7682 16.3067 31.5911 14.7764 31.6175Z" fill="#FFE178"/>
<path d="M18.6245 38.0688C19.451 35.734 18.4635 33.2546 16.4188 32.5308C14.3741 31.807 12.0466 33.113 11.2201 35.4478C10.3936 37.7826 11.3812 40.262 13.4259 40.9858C15.4705 41.7096 17.7981 40.4036 18.6245 38.0688Z" fill="#EEC226"/>
<path d="M17.335 38.0474C17.2491 37.8315 17.0045 37.7262 16.7886 37.8122C16.5727 37.8981 16.4675 38.1427 16.5534 38.3586C16.6393 38.5744 16.8839 38.6797 17.0998 38.5938C17.3157 38.5079 17.4209 38.2633 17.335 38.0474Z" fill="#FFE178"/>
<path d="M17.3621 37.3519C17.3181 37.2416 17.1931 37.1876 17.0828 37.2316C16.9726 37.2756 16.9186 37.4006 16.9626 37.5109C17.0066 37.6214 17.1315 37.6751 17.2418 37.6311C17.3521 37.5874 17.4061 37.4622 17.3621 37.3519Z" fill="#FFE178"/>
<path d="M11.6987 38.2895C12.2486 40.1707 14.0238 40.8359 14.7663 41.0001L13.4425 40.835L12.118 40.0299L11.2261 38.4778L11.04 36.6353L11.6476 34.6776L12.903 33.2469L14.2402 32.6055C13.8409 32.8859 12.9752 33.5384 12.7076 33.9056C12.3729 34.3646 11.0114 35.9379 11.6987 38.2895Z" fill="#B6910F"/>
<path fill-rule="evenodd" clip-rule="evenodd" d="M13.3625 32.8457C15.3928 31.7068 17.7368 32.5365 18.5979 34.6993C19.4593 36.862 18.5116 39.5386 16.4815 40.6778C14.4511 41.8166 12.1071 40.9869 11.2459 38.8242C10.3846 36.6614 11.3322 33.9848 13.3625 32.8457ZM13.4634 33.0994C15.3623 32.0338 17.5546 32.8102 18.36 34.8327C19.1654 36.8556 18.2793 39.3588 16.3803 40.4241C14.4816 41.4896 12.2893 40.7133 11.4838 38.6907C10.6783 36.6679 11.5646 34.1646 13.4634 33.0994Z" fill="#141942"/>
<path fill-rule="evenodd" clip-rule="evenodd" d="M15.693 30.9609C15.693 30.9609 15.5777 30.953 15.3821 30.9585C14.5538 30.9588 13.6971 31.1767 12.8789 31.6357C11.9611 32.1508 11.2102 32.9028 10.6643 33.7838C9.54153 35.5841 9.28851 37.9055 10.1843 39.8233C10.4731 40.4548 10.8613 40.9924 11.3201 41.4256C12.5627 42.6301 14.099 42.8712 15.3038 43.0601L15.346 43.0668C15.7367 43.1281 16.9486 43.041 18.1021 42.3937C20.794 40.8836 22.0583 37.355 20.9163 34.4874C20.3426 33.0465 19.3401 32.1384 18.7418 31.8276C18.0326 31.4595 16.5107 30.928 15.693 30.9609ZM19.8202 34.0935C19.446 33.1529 18.86 32.4027 18.1467 31.8721C18.3262 31.9475 18.4863 32.0214 18.6165 32.0889C19.1659 32.3743 20.1279 33.2383 20.6784 34.6209C21.7639 37.347 20.5625 40.7032 18.0012 42.1403C17.4545 42.4471 16.8905 42.6225 16.4148 42.7137C15.9344 42.8058 15.5631 42.8082 15.4029 42.7829L15.3795 42.7794C15.1962 42.7507 15.0071 42.7207 14.8137 42.687C15.5466 42.6401 16.2951 42.4231 17.014 42.0198C19.7058 40.5096 20.9623 36.9608 19.8202 34.0935ZM16.9131 41.7661C15.0165 42.8301 12.9029 42.5319 11.493 41.1971C11.4058 41.1123 11.3203 41.0226 11.2365 40.9276C10.8838 40.5275 10.6045 40.0896 10.3946 39.628C10.3655 39.5626 10.3375 39.496 10.3106 39.4285C9.58582 37.6087 9.87691 35.4999 10.9117 33.8712C11.4565 33.0201 12.2083 32.2954 13.1339 31.8076C13.745 31.4856 14.3762 31.3442 14.8597 31.2844C15.0578 31.2597 15.2293 31.2492 15.3619 31.2451C17.1653 31.2451 18.8265 32.3291 19.5824 34.227C20.6684 36.9543 19.4735 40.3298 16.9131 41.7661Z" fill="#141942"/>
<path d="M46.9821 11.6485C47.7383 11.2242 47.9309 10.6104 48.7 10.5796C49.5177 10.5468 51.0399 11.0781 51.7487 11.4463C52.3474 11.7571 53.3495 12.6652 53.9235 14.1061C55.0653 16.9736 53.8009 20.5022 51.1091 22.0123C49.9555 22.6596 48.744 22.7467 48.3533 22.6854C47.0519 22.481 45.4136 22.1566 44.0516 20.755C43.597 20.2875 44.444 20.2485 44.1756 19.5748C43.0338 16.7073 44.2903 13.1586 46.9821 11.6485Z" fill="#AF8B09"/>
<path d="M52.8607 18.1796C53.9564 15.0841 52.6471 11.7968 49.9362 10.8371C47.2253 9.87753 44.1394 11.609 43.0436 14.7046C41.9479 17.8001 43.2572 21.0875 45.9681 22.0471C48.679 23.0067 51.7649 21.2752 52.8607 18.1796Z" fill="#FFD02C"/>
<path d="M48.5975 22.0378L49.9657 21.4929C50.2441 21.3078 50.8767 20.8547 51.1785 20.5233C49.2815 21.8038 47.4988 22.1818 45.442 21.2365C44.3527 20.7359 43.2678 18.733 42.8877 17.8599L42.9801 18.6157L43.6925 20.1951L45.0147 21.4902L46.6809 22.1475L48.5975 22.0378Z" fill="#FFE178"/>
<path d="M47.7833 11.2384C47.0134 11.2517 46.1889 11.6848 45.6064 11.9167C47.7199 10.5755 49.1893 10.9844 49.8507 11.289C50.3795 11.5327 51.103 11.915 51.6888 12.491C49.599 11.3892 49.3137 11.212 47.7833 11.2384Z" fill="#FFE178"/>
<path d="M51.6284 17.6831C52.4549 15.3483 51.4674 12.8688 49.4227 12.145C47.378 11.4213 45.0505 12.7272 44.224 15.062C43.3975 17.3968 44.3851 19.8763 46.4298 20.6001C48.4744 21.3239 50.802 20.0179 51.6284 17.6831Z" fill="#EEC226"/>
<path d="M50.3416 17.6641C50.2556 17.4482 50.011 17.3429 49.7952 17.4289C49.5796 17.5148 49.4743 17.7594 49.5602 17.9753C49.6462 18.1911 49.8908 18.2964 50.1066 18.2105C50.3222 18.1246 50.4275 17.88 50.3416 17.6641Z" fill="#FFE178"/>
<path d="M50.3679 16.9685C50.3239 16.8582 50.199 16.8045 50.0887 16.8482C49.9784 16.8922 49.9245 17.0174 49.9685 17.1277C50.0124 17.238 50.1374 17.2917 50.2477 17.248C50.3582 17.204 50.4119 17.0787 50.3679 16.9685Z" fill="#FFE178"/>
<path d="M44.7056 17.9106C45.2552 19.792 47.0305 20.4572 47.7729 20.6215L46.4492 20.456L45.1247 19.651L44.2328 18.0988L44.0469 16.2564L44.6543 14.2988L45.9099 12.868L47.247 12.2266C46.8475 12.507 45.982 13.1596 45.7142 13.5268C45.3796 13.9858 44.0181 15.5589 44.7056 17.9106Z" fill="#B6910F"/>
<path fill-rule="evenodd" clip-rule="evenodd" d="M46.3674 12.4649C48.3975 11.3259 50.7415 12.1558 51.6029 14.3185C52.464 16.4811 51.5164 19.1577 49.4862 20.2969C47.4561 21.436 45.1121 20.606 44.2507 18.4433C43.3896 16.2805 44.3372 13.6039 46.3674 12.4649ZM46.4682 12.7184C48.367 11.6531 50.5594 12.4293 51.3648 14.4521C52.1704 16.4747 51.2841 18.9782 49.3853 20.0435C47.4866 21.1087 45.2942 20.3324 44.4888 18.3098C43.6831 16.287 44.5695 13.7837 46.4682 12.7184Z" fill="#141942"/>
<path fill-rule="evenodd" clip-rule="evenodd" d="M48.7007 10.5751C48.7007 10.5751 48.5855 10.5672 48.3898 10.5729C47.5616 10.5732 46.7049 10.791 45.8869 11.2501C44.9689 11.765 44.218 12.5169 43.6722 13.398C42.5492 15.1982 42.2964 17.5196 43.1921 19.4375C43.481 20.0689 43.869 20.6065 44.3277 21.0397C45.5707 22.2443 47.1067 22.4854 48.3115 22.6742L48.3541 22.681C48.7447 22.7423 49.9563 22.6552 51.1098 22.0079C53.8017 20.4977 55.0661 16.9691 53.9243 14.1016C53.3503 12.6607 52.3481 11.7527 51.7495 11.4419C51.0406 11.0736 49.5184 10.5423 48.7007 10.5751ZM52.8282 13.7077C52.4537 12.7673 51.8677 12.017 51.1544 11.4865C51.3342 11.5617 51.4943 11.6357 51.6243 11.7032C52.1736 11.9886 53.1356 12.8524 53.6861 14.2351C54.7719 16.9612 53.5706 20.3173 51.0089 21.7545C50.4622 22.0613 49.8982 22.2369 49.4228 22.3279C48.9424 22.4199 48.5708 22.4223 48.411 22.3971L48.3872 22.3936C48.2042 22.3648 48.015 22.3352 47.8214 22.3015C48.5544 22.2545 49.3029 22.0372 50.022 21.6339C52.7136 20.1238 53.97 16.5752 52.8282 13.7077ZM49.9208 21.3805C48.0244 22.4446 45.9106 22.146 44.5008 20.8112C44.4137 20.7265 44.328 20.6367 44.2444 20.5417C43.8916 20.1417 43.6124 19.7038 43.4024 19.2421C43.3734 19.1767 43.3452 19.1104 43.3185 19.043C42.5935 17.2228 42.8847 15.114 43.9195 13.4855C44.4644 12.6342 45.2161 11.9095 46.1417 11.4218C46.753 11.0998 47.3841 10.9584 47.8675 10.8986C48.0655 10.874 48.237 10.8634 48.3696 10.8594C50.1731 10.8592 51.8343 11.9432 52.5901 13.8412C53.6762 16.5685 52.4813 19.944 49.9208 21.3805Z" fill="#141942"/>
<path d="M19.0844 13.0632C18.7764 12.198 18.7392 11.8004 18.7031 11.0982L11.5406 10.5312L8.38657 11.5826L3.12988 44.174L4.70689 46.2766L39.6636 54.1615L42.0293 52.5845L44.6575 50.7447L46.4973 42.0711L47.286 41.8083L48.863 40.7571L50.3494 34.5763L49.7335 32.5672L48.4671 31.2143L49.3886 26.3013L49.4109 22.5953C49.1763 22.6539 48.751 22.7419 48.1351 22.6539L45.709 18.1533L19.0844 13.0632Z" fill="#865BFF"/>
<path d="M7.30915 40.4445C7.80754 41.1414 8.88707 41.2226 9.72031 40.6267C10.5536 40.0304 10.825 38.9825 10.3266 38.2859C9.82819 37.5893 8.74866 37.5078 7.91539 38.1037C7.08217 38.7 6.81073 39.7479 7.30915 40.4445Z" fill="#AC8EFF"/>
<path d="M9.96037 42.1476C10.1673 42.4368 10.5863 42.4917 10.8961 42.2699C11.2059 42.0482 11.2893 41.6341 11.0824 41.3449C10.8754 41.0557 10.4565 41.0009 10.1467 41.2226C9.83683 41.444 9.75345 41.8585 9.96037 42.1476Z" fill="#AC8EFF"/>
<path d="M5.03659 44.9816C3.80998 44.1357 8.87333 15.7907 8.00052 14.1152C7.69204 14.8005 4.73362 34.7031 3.29297 44.5686L4.77542 46.3662L30.9462 52.3406C23.6333 49.2809 6.26317 45.8274 5.03659 44.9816Z" fill="#AC8EFF"/>
<path d="M39.0708 31.7857C38.1684 31.8285 37.2146 32.3884 36.8506 32.6629L37.2803 31.7857L38.8919 30.98L46.1797 32.3766L47.6358 32.0986L48.3691 31.3214C48.5122 31.3988 49.51 32.0901 49.7965 32.3766L50.0848 33.1122L50.2987 34.5716L49.1598 40.5847L47.5194 41.8562H44.9525C45.5139 39.316 46.4498 33.1122 46.4498 33.1122C46.4498 33.1122 40.1991 31.732 39.0708 31.7857Z" fill="#6D51BE"/>
<path d="M12.0484 10.4268C12.4133 10.4267 16.7833 10.8999 18.7176 11.0277V11.0472C18.7176 11.2289 18.7176 11.3802 18.7469 11.6729C18.7469 12.0688 19.0548 12.9487 19.0548 12.9487C18.8756 12.9257 18.5944 13.0042 18.4389 12.8754C18.0137 12.5234 18.1128 11.5527 18.0137 11.5409C16.8519 11.4034 14.4462 11.1656 13.7455 11.1567C12.5922 11.1421 10.029 11.2358 8.8916 11.2844C8.89157 11.1993 9.00103 10.9852 9.43897 10.81C9.98641 10.591 11.5922 10.4268 12.0484 10.4268Z" fill="#4A24B8"/>
<path d="M46.4337 32.3713L47.9136 22.6113C48.1779 22.6465 48.3779 22.6747 48.5589 22.6861C48.8299 22.7034 49.0581 22.6841 49.3948 22.5967L48.4122 31.1734L49.688 32.2753L50.3186 34.1084L50.1292 36.4779L49.3024 40.4591L48.1802 41.571L46.6284 42.1452L44.5064 50.3484L42.4795 51.9635L44.9015 41.7692L47.6617 41.571L49.0862 40.5298L49.913 36.3762L50.0253 33.8738L49.5593 32.5833L48.3682 31.5128L47.3124 32.2753L46.4337 32.3713Z" fill="#4A24B8"/>
<path d="M48.9853 31.9648C48.0761 33.0354 47.9456 33.0823 47.1522 33.4313C45.8034 34.0249 38.5714 30.8181 37.8109 32.918C37.3545 34.1783 36.4911 38.0601 37.3269 38.6959C38.8553 39.8585 41.2864 40.221 44.9379 40.9689C46.6592 40.9598 47.7828 40.9689 49.308 39.5758" stroke="white" stroke-width="0.262835" stroke-linejoin="round" stroke-dasharray="1.05 1.05"/>
<path d="M3.6543 43.6467L37.8372 51.6498C38.6258 51.8252 40.0762 51.6055 40.707 49.2926C41.3376 46.9797 42.0014 43.1288 42.3518 41.4641M44.1532 31.8083L45.3417 23.1124C45.5171 22.2361 45.1927 20.4053 43.7209 19.7745C42.2489 19.3539 19.687 15.1733 8.12247 13.1582" stroke="white" stroke-width="0.262835" stroke-linejoin="round" stroke-dasharray="1.05 1.05"/>
<path d="M46.1432 19.3188C45.6827 18.7812 43.1149 17.8365 41.8887 17.4312L45.4607 18.1277L47.2295 19.4868L47.9346 21.622L46.5591 32.4348L45.8235 32.1471C46.1751 29.4917 46.911 23.9191 47.0389 22.8697C47.199 21.5581 46.7192 19.9904 46.1432 19.3188Z" fill="#6D51BE"/>
<path d="M41.4309 51.9432C41.8861 51.2152 43.0918 44.7994 43.6379 41.6826L44.7527 41.8873L42.7962 51.2152L42.1817 52.4664L40.2026 54.1273H38.041C38.9816 53.7026 40.976 52.6711 41.4309 51.9432Z" fill="#6D51BE"/>
<path fill-rule="evenodd" clip-rule="evenodd" d="M48.0754 22.4787C48.2156 20.5494 47.6053 19.6416 47.0049 18.8858C45.8869 17.478 43.1317 17.3255 40.9338 16.9149C40.6299 16.8595 35.2682 15.9271 29.6783 14.9006L29.6528 14.8959C23.8841 13.8363 18.0352 12.7621 17.7328 12.707C15.6595 12.329 13.2027 11.8817 11.5866 11.5878C11.241 11.525 11.1657 12.0456 11.4926 12.105C13.1562 12.4075 15.1304 12.7669 17.2747 13.1578C18.0437 13.2979 18.8341 13.4421 19.6401 13.5892C25.7409 14.7023 32.7221 15.9802 37.775 16.9149C40.9807 17.5079 43.4077 17.9625 44.3421 18.1494C45.4393 18.3687 46.1755 18.8345 46.6644 19.3809C47.5241 20.3423 47.6543 21.5964 47.5504 22.3226C47.5502 22.3235 47.5502 22.3244 47.5502 22.3256L46.272 32.0385L39.4476 30.7747C39.4441 30.7742 39.4406 30.7736 39.4371 30.773C38.7511 30.675 37.2233 30.8888 36.53 32.5066C36.1208 33.4613 35.8545 34.8049 35.7219 35.9643C35.6554 36.5468 35.6216 37.0908 35.6216 37.5261C35.6216 37.7434 35.6301 37.9375 35.648 38.0977C35.6648 38.249 35.6929 38.4001 35.748 38.5101L35.7492 38.5127C35.8835 38.7811 36.0979 39.2101 36.5605 39.6372C37.0245 40.0654 37.7228 40.4783 38.8106 40.7502C40.3953 41.1465 43.0308 41.7278 44.3612 42.0146C44.0726 43.9735 43.3652 48.1324 42.5639 50.9363C42.456 51.3143 42.3204 51.6455 42.165 51.9358C41.1737 53.7856 39.3168 54.0423 38.3974 53.9041C33.185 52.7216 25.2663 50.9093 18.4397 49.3135C15.0242 48.5154 11.8827 47.7714 9.49021 47.1877C7.08597 46.6011 5.46262 46.182 5.06107 46.0316C4.28449 45.7403 3.90347 45.2872 3.72691 44.8569C3.5461 44.4164 3.57112 43.9785 3.6445 43.7216C3.64778 43.7098 3.65028 43.6981 3.65198 43.6864C4.39656 38.4743 5.53976 30.6821 6.5493 24.1146C7.05409 20.8306 7.52529 17.854 7.89648 15.6596C8.08214 14.5618 8.24245 13.6617 8.36924 13.0172C8.43271 12.6946 8.48726 12.4387 8.53193 12.2552C8.55434 12.1631 8.57349 12.0925 8.58927 12.0422C8.59895 12.0114 8.60537 11.9949 8.60798 11.9882C8.60872 11.9863 8.60915 11.9852 8.60924 11.9848C9.14984 11.1813 10.2016 10.8062 11.878 10.7186C12.8454 10.7218 15.602 10.7586 18.8048 11.1429V10.5856C16.1725 10.3408 13.5335 10.1057 11.8505 10.1936C10.1411 10.283 8.85438 10.6694 8.1669 11.7006C8.13018 11.7558 8.10507 11.8296 8.08771 11.8849C8.06706 11.9508 8.04483 12.0337 8.02119 12.1308C7.97376 12.3256 7.91748 12.5903 7.85349 12.9157C7.72532 13.5672 7.56406 14.4729 7.3782 15.5719C7.00634 17.7704 6.53463 20.75 6.02973 24.0349C5.02095 30.5973 3.87887 38.3816 3.13402 43.5952C3.03638 43.9521 3.01354 44.5035 3.24063 45.0566C3.47585 45.6297 3.97096 46.1841 4.8765 46.5237C5.316 46.6885 6.98246 47.117 9.36562 47.6983C11.7606 48.2826 14.904 49.027 18.32 49.8256C25.1523 51.4223 33.0773 53.236 38.2903 54.4188C38.2965 54.4203 38.3026 54.4215 38.3085 54.4224C39.3488 54.5825 41.4312 54.308 42.5768 52.2775C43.9406 51.8147 44.6838 50.8113 44.8973 50.3257C44.9005 50.3183 44.9035 50.3107 44.9061 50.3031C44.9088 50.2943 44.9114 50.2855 44.9132 50.2767L46.7099 42.1193C46.9729 42.1032 47.2299 42.0759 47.4613 42.0328C47.7461 41.9797 48.0197 41.8982 48.2192 41.7653C48.882 41.3236 49.2486 40.835 49.3598 40.6127C49.3697 40.593 49.3771 40.5719 49.3818 40.5502C49.6449 39.3228 50.0191 37.5173 50.3018 35.9649C50.6585 34.0054 50.4749 32.331 48.562 31.1977L48.8362 29.6268C49.1961 27.3767 49.6777 23.5797 49.8499 22.4787C49.8499 22.4787 49.5859 22.552 49.5126 22.5666C49.4393 22.5813 49.3366 22.596 49.3366 22.596C49.3366 24.0976 48.4426 28.9862 48.0103 31.3012C47.9546 31.6001 47.2836 32.0385 46.7894 32.1359L46.9166 31.1681L48.0754 22.4787ZM46.4395 32.6043L39.3576 31.2927C38.8144 31.2173 37.5797 31.3921 37.013 32.7137C36.6338 33.5992 36.3745 34.8841 36.2443 36.0241C36.1795 36.5916 36.1472 37.1152 36.1472 37.5261C36.1472 37.7317 36.1554 37.9053 36.1704 38.0396C36.1862 38.183 36.2076 38.2537 36.2182 38.2751C36.347 38.5323 36.5267 38.8905 36.9171 39.2509C37.3072 39.6111 37.9231 39.9865 38.9379 40.2402C40.6088 40.6578 43.4628 41.2846 44.6973 41.5494C45.1358 41.5926 45.8306 41.6307 46.4858 41.6043C46.8043 41.5917 47.1079 41.5638 47.3651 41.516C47.6288 41.4667 47.8179 41.401 47.9276 41.328C48.4904 40.9526 48.7884 40.5567 48.8755 40.4041C49.1377 39.1793 49.5061 37.4002 49.7845 35.871C50.1323 33.9605 50.0112 32.6043 48.4127 31.6441C47.9288 32.2453 47.0953 32.7727 46.4395 32.6043ZM44.8809 42.0932C44.5911 44.06 43.8799 48.2439 43.0695 51.0809C43.0208 51.2513 42.9666 51.4141 42.9076 51.5692C43.7725 51.1293 44.255 50.4609 44.4058 50.1368L46.1676 42.1381C45.7012 42.1428 45.2416 42.1214 44.8809 42.0932Z" fill="#141942"/>
<path d="M42.9642 37.9801C43.9906 36.9537 43.9906 35.2895 42.9642 34.2631C41.9378 33.2367 40.2736 33.2367 39.2472 34.2631C38.2208 35.2895 38.2208 36.9537 39.2472 37.9801C40.2736 39.0065 41.9378 39.0065 42.9642 37.9801Z" fill="#BFBFBF"/>
<path d="M41.1045 38.2579C42.2906 38.2579 43.252 37.2962 43.252 36.1104C43.252 34.9243 42.2906 33.9629 41.1045 33.9629C39.9184 33.9629 38.957 34.9243 38.957 36.1104C38.957 36.1277 39.0078 36.2776 39.0084 36.2949C39.2433 35.1947 39.9894 34.3474 41.1045 34.3474C42.2355 34.3474 42.8778 35.3267 42.8778 36.2949C42.8778 37.4094 42.178 38.057 41.033 38.2318C41.0497 38.2321 41.0875 38.2579 41.1045 38.2579Z" fill="white"/>
<path fill-rule="evenodd" clip-rule="evenodd" d="M41.107 38.2235C42.2682 38.2235 43.2096 37.2823 43.2096 36.1209C43.2096 34.9597 42.2682 34.0183 41.107 34.0183C39.9456 34.0183 39.0041 34.9597 39.0041 36.1209C39.0041 37.2823 39.9456 38.2235 41.107 38.2235ZM41.107 38.7494C42.5585 38.7494 43.7352 37.5724 43.7352 36.1209C43.7352 34.6694 42.5585 33.4927 41.107 33.4927C39.6552 33.4927 38.4785 34.6694 38.4785 36.1209C38.4785 37.5724 39.6552 38.7494 41.107 38.7494Z" fill="#141942"/>
<path d="M19.6768 23.3478C19.7912 24.2074 20.2901 24.6136 20.0343 25.3395C19.7621 26.1112 18.7054 27.3286 18.1009 27.8513C17.5909 28.2921 16.3764 28.8875 14.8255 28.8875C11.7391 28.8875 8.9284 26.4074 8.52128 23.3478C8.34678 22.0365 8.71418 20.8785 8.91568 20.5383C9.58688 19.405 10.4945 18.0031 12.3006 17.2561C12.9033 17.0068 12.6259 17.8083 13.3511 17.8083C16.4377 17.8083 19.2697 20.2884 19.6768 23.3478Z" fill="#AF8B09"/>
<path d="M19.3332 26.3925C21.2277 24.2291 20.7609 20.7216 18.2905 18.5583C15.8202 16.395 12.2818 16.3951 10.3873 18.5584C8.49283 20.7218 8.95963 24.2293 11.43 26.3926C13.9003 28.5559 17.4387 28.5558 19.3332 26.3925Z" fill="#FFD02C"/>
<path d="M9.42578 21.0069V22.4795C9.49468 22.8068 9.68156 23.5621 9.87789 23.9651C9.39 21.7287 9.69848 19.9329 11.3376 18.3717C12.2056 17.5452 14.468 17.278 15.4196 17.2481L14.6832 17.0542L12.9523 17.1316L11.2601 17.881L10.0329 19.1856L9.42578 21.0069Z" fill="#FFE178"/>
<path d="M19.7609 24.2455C20.0334 23.5254 19.936 22.5989 19.936 21.9722C20.4 24.432 19.4767 25.6457 18.9491 26.1475C18.5267 26.5487 17.9041 27.0796 17.1523 27.4104C18.9491 25.8768 19.2192 25.677 19.7609 24.2455Z" fill="#FFE178"/>
<path d="M18.3034 25.4299C19.7323 23.7982 19.3802 21.1527 17.517 19.521C15.6537 17.8894 12.9849 17.8894 11.556 19.5211C10.1271 21.1528 10.4792 23.7983 12.3424 25.43C14.2057 27.0616 16.8745 27.0616 18.3034 25.4299Z" fill="#EEC226"/>
<path d="M12.8435 24.2455C13.0758 24.2455 13.264 24.0572 13.264 23.8249C13.264 23.5926 13.0758 23.4043 12.8435 23.4043C12.6112 23.4043 12.4229 23.5926 12.4229 23.8249C12.4229 24.0572 12.6112 24.2455 12.8435 24.2455Z" fill="#FFE178"/>
<path d="M13.4777 24.5262C13.5964 24.5262 13.6927 24.4299 13.6927 24.3112C13.6927 24.1924 13.5964 24.0962 13.4777 24.0962C13.3589 24.0962 13.2627 24.1924 13.2627 24.3112C13.2627 24.4299 13.3589 24.5262 13.4777 24.5262Z" fill="#FFE178"/>
<path d="M14.7001 18.918C12.7489 18.7327 11.4741 20.1358 11.0469 20.7649L11.6903 19.5961L12.9281 18.6638L14.7001 18.4092L16.4806 18.918L18.0747 20.2068L18.9393 21.9023L19.0405 23.382C18.9279 22.9074 18.6419 21.8615 18.3996 21.477C18.097 20.9963 17.1394 19.1495 14.7001 18.918Z" fill="#B6910F"/>
<path fill-rule="evenodd" clip-rule="evenodd" d="M19.1438 22.4761C19.4509 24.7834 17.8128 26.6541 15.485 26.6541C13.1569 26.6541 11.0208 24.7834 10.7138 22.4761C10.4067 20.1685 12.0449 18.2979 14.3728 18.2979C16.7007 18.2979 18.8367 20.1685 19.1438 22.4761ZM18.871 22.4761C19.1582 24.6342 17.626 26.3836 15.4489 26.3836C13.2717 26.3836 11.2738 24.6342 10.9866 22.4761C10.6994 20.3178 12.2316 18.5683 14.4088 18.5683C16.586 18.5683 18.5839 20.3178 18.871 22.4761Z" fill="#141942"/>
<path fill-rule="evenodd" clip-rule="evenodd" d="M20.0343 25.3435C20.0343 25.3435 20.0842 25.2391 20.1514 25.0555C20.4575 24.2859 20.5719 23.4093 20.4482 22.4795C20.3094 21.4363 19.8889 20.4602 19.2721 19.6272C18.015 17.9182 15.952 16.8242 13.8387 16.9468C13.1451 16.9815 12.5022 17.1434 11.93 17.4094C10.3511 18.118 9.55884 19.4563 8.9375 20.5057L8.91568 20.5423C8.71416 20.8825 8.34678 22.0405 8.52129 23.3518C8.92841 26.4114 11.7391 28.8915 14.8255 28.8915C16.3764 28.8915 17.5909 28.2961 18.1009 27.8553C18.7054 27.3326 19.7622 26.1155 20.0343 25.3435ZM15.5971 28.0189C16.6093 28.0189 17.5232 27.7523 18.2799 27.2857C18.1435 27.425 18.0156 27.5462 17.9044 27.6421C17.436 28.0471 16.2778 28.6211 14.7895 28.6211C11.8551 28.6211 9.18158 26.2633 8.79417 23.3518C8.71146 22.7306 8.75692 22.1416 8.84825 21.6659C8.94046 21.1855 9.07573 20.8397 9.15826 20.7004L9.1704 20.6799C9.26487 20.5203 9.36248 20.3555 9.46531 20.1883C9.23783 20.8866 9.1626 21.6624 9.27133 22.4795C9.67845 25.5389 12.5105 28.0189 15.5971 28.0189ZM9.54421 22.4795C9.25734 20.3238 10.3166 18.4705 12.0783 17.6543C12.1893 17.6047 12.3043 17.5587 12.4236 17.5158C12.9257 17.336 13.4358 17.2387 13.9425 17.2146C14.014 17.2117 14.086 17.2102 14.1586 17.2102C16.1177 17.2102 17.9693 18.2608 19.0993 19.8246C19.6885 20.6459 20.0836 21.6123 20.1945 22.6526C20.2675 23.3395 20.1654 23.9783 20.042 24.4496C19.9915 24.6429 19.9378 24.8059 19.8927 24.9306C19.2257 26.6062 17.6038 27.7485 15.561 27.7485C12.6252 27.7485 9.93147 25.3896 9.54421 22.4795Z" fill="#141942"/>
<path d="M38.8944 51.1525C38.78 52.0121 38.2811 52.4183 38.5369 53.1442C38.809 53.9159 39.8658 55.1333 40.4699 55.656C40.9803 56.0968 42.1948 56.6922 43.7457 56.6922C46.8321 56.6922 49.6427 54.2121 50.0498 51.1525C50.2243 49.8411 49.8571 48.6832 49.6553 48.343C48.9842 47.2097 48.0765 45.8078 46.2704 45.0608C45.668 44.8115 45.9451 45.613 45.2201 45.613C42.1335 45.613 39.3015 48.0931 38.8944 51.1525Z" fill="#AF8B09"/>
<path d="M47.1402 54.1976C49.6105 52.0343 50.0773 48.5268 48.1828 46.3634C46.2883 44.2 42.7499 44.2 40.2796 46.3633C37.8092 48.5266 37.3424 52.034 39.2369 54.1974C41.1314 56.3608 44.6698 56.3609 47.1402 54.1976Z" fill="#FFD02C"/>
<path d="M49.1441 48.8116V50.2842C49.0752 50.6115 48.8884 51.3668 48.6919 51.7697C49.1799 49.5334 48.8714 47.7376 47.2324 46.1764C46.3643 45.3499 44.1018 45.0827 43.1504 45.0528L43.8866 44.8589L45.6176 44.9363L47.3099 45.6857L48.537 46.9902L49.1441 48.8116Z" fill="#FFE178"/>
<path d="M38.8094 52.0507C38.5369 51.3306 38.6343 50.4041 38.6343 49.7773C38.1703 52.2372 39.0936 53.4508 39.6212 53.9527C40.0435 54.3539 40.6662 54.8847 41.4179 55.2156C39.6212 53.682 39.3511 53.4822 38.8094 52.0507Z" fill="#FFE178"/>
<path d="M46.226 53.2348C48.0892 51.6032 48.4413 48.9577 47.0124 47.326C45.5834 45.6943 42.9146 45.6942 41.0514 47.3259C39.1882 48.9576 38.8361 51.603 40.265 53.2347C41.6939 54.8665 44.3627 54.8665 46.226 53.2348Z" fill="#EEC226"/>
<path d="M45.7282 52.0506C45.4959 52.0506 45.3076 51.8623 45.3076 51.6301C45.3076 51.3978 45.4959 51.2095 45.7282 51.2095C45.9605 51.2095 46.1488 51.3978 46.1488 51.6301C46.1488 51.8623 45.9605 52.0506 45.7282 52.0506Z" fill="#FFE178"/>
<path d="M45.0929 52.3313C45.2116 52.3313 45.3079 52.2351 45.3079 52.1164C45.3079 51.9976 45.2116 51.9014 45.0929 51.9014C44.9742 51.9014 44.8779 51.9976 44.8779 52.1164C44.8779 52.2351 44.9742 52.3313 45.0929 52.3313Z" fill="#FFE178"/>
<path d="M43.8688 46.7208C45.82 46.5354 47.095 47.9385 47.522 48.5676L46.8788 47.3989L45.6408 46.4665L43.8688 46.2119L42.0885 46.7208L40.4944 48.0095L39.6295 49.705L39.5283 51.1847C39.6412 50.7101 39.9272 49.6643 40.1695 49.2798C40.4721 48.7991 41.4297 46.9522 43.8688 46.7208Z" fill="#B6910F"/>
<path fill-rule="evenodd" clip-rule="evenodd" d="M39.4247 50.2808C39.1176 52.5881 40.7559 54.4587 43.0838 54.4587C45.4117 54.4587 47.5477 52.5881 47.8548 50.2808C48.1619 47.9732 46.5238 46.1025 44.196 46.1025C41.8678 46.1025 39.7318 47.9732 39.4247 50.2808ZM39.6977 50.2808C39.4106 52.4388 40.9428 54.1883 43.1199 54.1883C45.297 54.1883 47.2949 52.4388 47.582 50.2808C47.8692 48.1224 46.337 46.373 44.1599 46.373C41.9828 46.373 39.9849 48.1224 39.6977 50.2808Z" fill="#141942"/>
<path fill-rule="evenodd" clip-rule="evenodd" d="M38.5364 53.1463C38.5364 53.1463 38.4863 53.0419 38.4194 52.8583C38.1132 52.0887 37.9985 51.212 38.1223 50.2823C38.2613 49.239 38.6819 48.2629 39.2987 47.43C40.5557 45.721 42.6188 44.627 44.7319 44.7496C45.4256 44.7842 46.0685 44.9461 46.6407 45.2121C48.2195 45.9207 49.012 47.259 49.6332 48.3084L49.6549 48.3451C49.8566 48.6853 50.2238 49.8432 50.0493 51.1545C49.6422 54.2141 46.8316 56.6942 43.7453 56.6942C42.1944 56.6942 40.9798 56.0988 40.4695 55.658C39.8653 55.1354 38.8086 53.9182 38.5364 53.1463ZM42.9736 55.8217C41.9615 55.8217 41.0476 55.5551 40.2909 55.0885C40.4273 55.2278 40.5551 55.3489 40.666 55.4448C41.1344 55.8498 42.2929 56.4238 43.7811 56.4238C46.7155 56.4238 49.3891 54.066 49.7766 51.1545C49.8593 50.5333 49.8138 49.9444 49.7223 49.4687C49.6302 48.9882 49.495 48.6425 49.4123 48.5031L49.4003 48.4826C49.3058 48.3231 49.2082 48.1582 49.1055 47.9911C49.3328 48.6894 49.4082 49.4651 49.2994 50.2823C48.8923 53.3416 46.0603 55.8217 42.9736 55.8217ZM49.0263 50.2823C49.3135 48.1266 48.2541 46.2732 46.4923 45.457C46.3814 45.4074 46.2664 45.3614 46.1471 45.3186C45.6449 45.1388 45.1349 45.0414 44.6281 45.0174C44.5568 45.0144 44.4847 45.013 44.4119 45.013C42.453 45.013 40.6015 46.0635 39.4714 47.6274C38.8819 48.4486 38.4868 49.415 38.3763 50.4553C38.3032 51.1422 38.4053 51.781 38.5288 52.2523C38.5792 52.4456 38.6326 52.6087 38.6781 52.7333C39.345 54.4089 40.9669 55.5513 43.0097 55.5513C45.9453 55.5513 48.6392 53.1923 49.0263 50.2823Z" fill="#141942"/>
<path d="M44.7054 6.57083C44.2144 5.85616 44.3124 5.22042 43.6361 4.85304C42.9169 4.46249 41.3167 4.26698 40.5181 4.28426C39.8438 4.2988 38.5436 4.67079 37.3924 5.71013C35.1015 7.77846 34.6774 11.5029 36.4254 14.0465C37.1745 15.1367 38.2233 15.75 38.6008 15.8676C39.8584 16.2588 41.4718 16.6914 43.3128 16.0353C43.9273 15.8165 43.1844 15.4077 43.7226 14.9217C46.0135 12.8533 46.4534 9.11453 44.7054 6.57083Z" fill="#AF8B09"/>
<path d="M46.8836 11.0603C47.2675 7.79924 45.2635 4.88313 42.4077 4.54696C39.5519 4.2108 36.9256 6.58188 36.5417 9.84292C36.1579 13.104 38.1618 16.0201 41.0176 16.3562C43.8734 16.6924 46.4997 14.3213 46.8836 11.0603Z" fill="#FFD02C"/>
<path d="M38.6664 15.1792L37.6794 14.0862C37.5114 13.7972 37.1439 13.1114 37.0195 12.6807C38.156 14.6674 39.5885 15.7937 41.8512 15.8541C43.0496 15.8861 44.9076 14.568 45.6341 13.9527L45.2177 14.59L43.8808 15.6925L42.1228 16.2703L40.3376 16.1242L38.6664 15.1792Z" fill="#FFE178"/>
<path d="M44.1665 5.85307C44.851 6.20496 45.3998 6.9577 45.8198 7.42303C44.5158 5.28628 43.0171 5.00425 42.2891 4.98545C41.7069 4.97043 40.8889 4.9938 40.1094 5.25208C42.4707 5.18632 42.805 5.1535 44.1665 5.85307Z" fill="#FFE178"/>
<path d="M45.6663 10.8641C45.9559 8.40445 44.4444 6.20499 42.2904 5.95144C40.1364 5.69789 38.1556 7.48626 37.866 9.94588C37.5765 12.4055 39.088 14.605 41.2419 14.8585C43.3959 15.1121 45.3768 13.3237 45.6663 10.8641Z" fill="#EEC226"/>
<path d="M39.0334 10.4859C39.2056 10.3302 39.4716 10.3438 39.6273 10.5162C39.7831 10.6886 39.7693 10.9546 39.5971 11.1102C39.4247 11.2659 39.1587 11.2523 39.0029 11.0799C38.8472 10.9075 38.861 10.6415 39.0334 10.4859Z" fill="#FFE178"/>
<path d="M39.316 9.85328C39.4043 9.77371 39.5401 9.78063 39.6198 9.86876C39.6993 9.9569 39.6923 10.0929 39.6043 10.1724C39.516 10.252 39.3802 10.2451 39.3004 10.157C39.2209 10.0688 39.228 9.93285 39.316 9.85328Z" fill="#FFE178"/>
<path d="M43.9827 13.1977C42.6585 14.6428 40.772 14.4557 40.0332 14.275L41.2941 14.7111L42.8377 14.5739L44.3235 13.5753L45.3043 12.0045L45.6237 9.97981L45.1292 8.14166L44.2126 6.97559C44.4473 7.40353 44.9356 8.37134 45.0136 8.81902C45.111 9.37862 45.6377 11.3914 43.9827 13.1977Z" fill="#B6910F"/>
<path fill-rule="evenodd" clip-rule="evenodd" d="M44.8951 7.57809C43.5768 5.65951 41.1073 5.36889 39.3792 6.92892C37.6514 8.48894 37.3197 11.3089 38.638 13.2274C39.9564 15.1461 42.4259 15.4368 44.154 13.8766C45.8818 12.3166 46.2138 9.49664 44.8951 7.57809ZM44.6928 7.76096C43.4595 5.96659 41.1498 5.69477 39.5338 7.15378C37.918 8.61283 37.6074 11.2502 38.8407 13.0446C40.0737 14.8391 42.3834 15.1106 43.9994 13.6517C45.6155 12.1927 45.9258 9.55529 44.6928 7.76096Z" fill="#141942"/>
<path fill-rule="evenodd" clip-rule="evenodd" d="M43.6361 4.85304C43.6361 4.85304 43.7431 4.89688 43.9161 4.98839C44.6591 5.35445 45.3313 5.92822 45.8627 6.70143C46.4587 7.56878 46.8004 8.57504 46.901 9.60664C47.1133 11.7176 46.3153 13.9121 44.6646 15.2373C44.1264 15.6763 43.5407 15.9869 42.938 16.1732C41.2909 16.7052 39.8062 16.2427 38.6419 15.8802L38.6008 15.8676C38.2233 15.75 37.1745 15.1367 36.4254 14.0466C34.6774 11.5029 35.1015 7.77849 37.3924 5.71016C38.5436 4.67081 39.8438 4.29883 40.5181 4.28425C41.3167 4.26701 42.9169 4.46249 43.6361 4.85304ZM38.5498 5.84073C39.3009 5.16243 40.1579 4.74804 41.0322 4.58708C40.838 4.57523 40.6615 4.57089 40.5151 4.57406C39.896 4.58743 38.6515 4.93768 37.547 5.93505C35.369 7.90146 34.9645 11.4431 36.6281 13.8637C36.983 14.3803 37.4115 14.7871 37.7978 15.0789C38.1881 15.3734 38.5204 15.5397 38.675 15.5878L38.6979 15.5948C38.875 15.6499 39.0577 15.7068 39.246 15.762C38.6093 15.3962 38.0336 14.871 37.5669 14.1915C35.8186 11.6478 36.2589 7.90906 38.5498 5.84073ZM37.7693 14.0087C39.0011 15.801 41.0293 16.4668 42.8838 15.8919C42.9993 15.8541 43.1157 15.8115 43.2328 15.7631C43.7258 15.5602 44.1698 15.2907 44.562 14.9689C44.6171 14.9232 44.6717 14.8759 44.7253 14.8273C46.1795 13.5144 46.8497 11.4939 46.6405 9.5759C46.5276 8.57143 46.1733 7.58931 45.5583 6.74296C45.1521 6.18417 44.6482 5.77846 44.2408 5.51124C44.0739 5.40182 43.9249 5.31658 43.8076 5.25438C42.1898 4.45773 40.2207 4.69662 38.7043 6.06563C36.5252 8.03298 36.1066 11.5892 37.7693 14.0087Z" fill="#141942"/>
<path d="M5.37587 0.885742C5.77645 2.95267 6.45625 3.62862 8.46363 3.97353C6.16064 4.26154 5.55889 4.99976 5.37587 7.06129C4.92447 5.15975 4.23954 4.49066 2.28809 3.97353C4.30336 3.57761 4.98626 2.90732 5.37587 0.885742Z" fill="white"/>
<path d="M2.5468 6.64697C2.76457 7.77064 3.13412 8.1381 4.2254 8.32561C2.97342 8.48219 2.64628 8.88351 2.5468 10.0042C2.3014 8.97047 1.92903 8.60676 0.868164 8.32561C1.96373 8.11036 2.33498 7.74597 2.5468 6.64697Z" fill="white"/>
<path d="M53.1607 41.8643C53.4883 43.5545 54.0441 44.1071 55.6857 44.3892C53.8024 44.6247 53.3103 45.2283 53.1607 46.9142C52.7917 45.3591 52.2315 44.8121 50.6357 44.3892C52.2838 44.0654 52.8422 43.5173 53.1607 41.8643Z" fill="white"/>
</svg>
