<svg width="32" height="23" viewBox="0 0 32 23" fill="none" xmlns="http://www.w3.org/2000/svg">
<path d="M30.7528 1.93319C29.5976 0.560063 27.465 0 23.3921 0H8.60756C4.4415 0 2.27269 0.59625 1.12194 2.05813C0 3.48338 0 5.5835 0 8.49019V14.0302C0 19.6613 1.33119 22.5203 8.60756 22.5203H23.3922C26.9242 22.5203 28.8813 22.0261 30.1475 20.8143C31.446 19.5717 32 17.5428 32 14.0302V8.49019C32 5.42488 31.9132 3.31238 30.7528 1.93319ZM20.5441 12.025L13.8305 15.5337C13.6804 15.6122 13.5162 15.6511 13.3524 15.6511C13.1667 15.6511 12.9816 15.6012 12.8176 15.5019C12.5087 15.3148 12.3201 14.9799 12.3201 14.6189V7.62388C12.3201 7.26344 12.5082 6.92894 12.8164 6.74169C13.1248 6.55444 13.5083 6.54163 13.8281 6.70781L20.5417 10.1939C20.8833 10.3713 21.0978 10.7239 21.0983 11.1086C21.0987 11.4938 20.8852 11.8469 20.5441 12.025Z" fill="#D7143A"/>
</svg>
