<svg width="77" height="21" viewBox="0 0 77 21" fill="none" xmlns="http://www.w3.org/2000/svg">
<g clip-path="url(#clip0_2_71039)">
<path d="M76.2711 3.96568C76.2626 3.9374 76.254 3.90913 76.2428 3.88086C69.545 3.88369 62.85 3.88086 56.1551 3.88369C56.1381 3.90348 56.1268 3.92327 56.124 3.94871C56.124 9.1424 56.124 14.3332 56.1211 19.5269C56.1635 19.804 56.3162 20.0556 56.5198 20.2451C56.5283 20.2479 56.5481 20.2506 56.5565 20.2535C56.6612 20.3637 56.811 20.4175 56.9524 20.4684C57.057 20.4628 57.1588 20.508 57.2634 20.4967H65.5755C65.6547 20.4938 65.7366 20.508 65.813 20.4769C65.8158 20.4656 65.8186 20.4458 65.8214 20.4345C65.8243 20.4203 65.8271 20.3892 65.8299 20.3723C66.0081 19.3771 66.1805 18.3791 66.37 17.3839L66.3869 17.2567C65.618 17.2538 64.8461 17.2567 64.0771 17.2538C63.8905 17.2482 63.6983 17.2538 63.5116 17.2312C63.1922 17.217 62.8699 17.2283 62.5504 17.1973C62.1546 17.1973 61.7616 17.1605 61.3658 17.1605C61.0548 17.1294 60.741 17.1407 60.4271 17.1266C60.2236 17.1012 60.0143 17.1124 59.808 17.1039C59.4716 17.0672 59.1295 17.0927 58.793 17.0559C58.4368 17.0588 58.0806 17.0276 57.7243 17.0191C57.7271 17.0163 57.73 17.005 57.73 17.0022C57.8487 17.005 57.9646 16.9965 58.0834 16.9937C58.3463 16.9597 58.6121 16.9824 58.875 16.9456C59.1493 16.9456 59.4207 16.9089 59.6949 16.9089C59.9381 16.8749 60.184 16.8947 60.4271 16.8608C60.7127 16.8608 60.9926 16.8241 61.2782 16.8212C61.5129 16.7901 61.7503 16.8071 61.985 16.776C62.2593 16.7788 62.5307 16.7364 62.8049 16.7393C63.0735 16.7081 63.3477 16.7165 63.6163 16.6883C63.5909 16.5838 63.571 16.4791 63.5485 16.3744C63.5287 16.3095 63.4495 16.3236 63.3986 16.3151C62.7851 16.2274 62.1744 16.1398 61.5637 16.055C61.6033 16.0238 61.657 16.038 61.7023 16.0323C62.1773 15.9956 62.6494 15.9532 63.1244 15.9193C63.2318 15.9136 63.3364 15.8938 63.4439 15.891C63.3958 15.744 63.3675 15.5828 63.3025 15.4471C62.2876 15.2916 61.2725 15.1531 60.2604 14.9863C60.5233 14.9439 60.7891 14.9241 61.052 14.8958L61.0746 14.8873C61.9143 14.7996 62.7568 14.7007 63.5965 14.6187C64.6624 14.6131 65.7255 14.6158 66.7914 14.6187C66.8252 14.6131 66.8847 14.63 66.8903 14.5819C66.978 14.1239 67.0628 13.666 67.1504 13.2079C67.2719 12.5718 67.4642 11.9441 67.761 11.3645C68.2275 10.4315 68.9655 9.63991 69.8645 9.11407C70.7042 8.62212 71.6768 8.38463 72.6437 8.3394C72.9576 8.31112 73.2742 8.3196 73.5852 8.35919C73.7888 8.40725 73.998 8.4638 74.1591 8.60233C74.292 8.70977 74.3712 8.86809 74.4306 9.02642C74.5607 9.40245 74.6341 9.79261 74.6963 10.1856C74.6991 10.3439 74.7274 10.522 74.6426 10.6662C74.5634 10.8076 74.4052 10.8755 74.2553 10.9179C73.7096 11.0592 73.1385 10.9263 72.5928 11.0592C72.1434 11.1553 71.7249 11.4041 71.4393 11.7632C71.1029 12.1816 70.9248 12.7018 70.8258 13.2221C70.7495 13.6858 70.6533 14.1494 70.577 14.6159C71.1142 14.6188 71.6542 14.6131 72.1942 14.6188C72.4091 14.6188 72.6296 14.7375 72.7172 14.941C72.8303 15.2012 72.8049 15.4952 72.7681 15.7694C72.7229 16.0776 72.6494 16.3829 72.5108 16.6657C72.3949 16.906 72.2027 17.1265 71.9397 17.2113C71.804 17.2651 71.657 17.2538 71.5128 17.2538C71.0378 17.2538 70.5628 17.2594 70.0879 17.2538C70.0115 17.6015 69.9607 17.9577 69.8928 18.3112C69.7685 18.9981 69.6469 19.688 69.5224 20.3779C69.5196 20.4005 69.5168 20.4486 69.5168 20.474C69.7401 20.4853 69.9635 20.474 70.1868 20.4796C71.8436 20.4796 73.5032 20.4768 75.1628 20.4796C75.3409 20.4853 75.5219 20.4429 75.6774 20.3552C75.7707 20.3213 75.8272 20.2393 75.9092 20.1941C75.9884 20.1489 76.011 20.0556 76.0789 19.9962C76.1524 19.8661 76.2287 19.7305 76.2344 19.5777C76.2428 19.5777 76.2655 19.5749 76.2768 19.5721C76.2682 14.37 76.2767 9.16784 76.2711 3.96568Z" fill="url(#paint0_linear_2_71039)" stroke="#FCD422" stroke-width="0.00265763"/>
<path d="M58.7585 0.545528C58.9988 0.469192 59.2505 0.520083 59.4965 0.503119C64.1134 0.505947 68.7303 0.503119 73.3472 0.503119C73.6214 0.49181 73.8618 0.64731 74.1162 0.726473C74.3198 0.808464 74.5318 0.873491 74.7354 0.961136C74.7778 0.978099 74.8089 1.01485 74.8399 1.04595C74.8371 1.41915 74.8399 1.79518 74.8399 2.1712C74.8428 2.27016 74.8258 2.37194 74.8597 2.46807C74.9192 2.47655 74.9502 2.52179 74.9898 2.55854C75.1764 2.64336 75.3347 2.78189 75.5043 2.89498C75.7588 3.07593 76.0303 3.23426 76.279 3.42085C76.2903 3.49436 76.2818 3.5707 76.2592 3.63855C76.2338 3.71772 76.2507 3.80254 76.2423 3.8817C69.5445 3.88453 62.8495 3.8817 56.1546 3.88453C56.1404 3.79123 56.1659 3.69793 56.1263 3.61028C56.1206 3.53677 56.0952 3.44065 56.1659 3.38975C56.4486 3.19185 56.7483 3.01373 57.0253 2.80451C57.1978 2.69425 57.3646 2.58116 57.5314 2.46807C57.5653 2.41152 57.554 2.34084 57.554 2.27864C57.554 1.86869 57.554 1.45873 57.5568 1.04878C57.6529 0.924382 57.8198 0.910245 57.9526 0.848045C58.2213 0.746264 58.4928 0.64731 58.7585 0.545528ZM58.7755 0.593592C58.4136 0.732128 58.0489 0.865009 57.687 1.00354C57.6389 1.01203 57.6134 1.05444 57.588 1.09119C57.5909 1.11381 57.5937 1.15339 57.5937 1.17601C57.5908 1.51528 57.5937 1.85455 57.5908 2.19382C57.5937 2.27864 57.5823 2.36346 57.6134 2.43979C57.5767 2.47655 57.5371 2.5133 57.4918 2.54158C57.0819 2.80734 56.6861 3.09572 56.2761 3.35865C56.2054 3.40106 56.1263 3.45761 56.1489 3.55091C56.1348 3.6018 56.1602 3.64421 56.2139 3.63007C57.1017 3.62442 57.9866 3.63573 58.8744 3.62159C60.1948 3.62159 61.5123 3.62442 62.8326 3.62159L62.8524 3.61311C62.9118 3.62724 62.9711 3.62159 63.0333 3.62159C65.4251 3.62159 67.817 3.62442 70.2117 3.62159C70.9638 3.62442 71.7186 3.62159 72.4735 3.62159C73.7175 3.62159 74.9643 3.6329 76.2083 3.62724C76.2451 3.61876 76.2564 3.59332 76.2423 3.54808C76.2394 3.50285 76.2564 3.44065 76.2083 3.41237C76.0104 3.31907 75.8408 3.17488 75.6514 3.06179C75.5836 3.00525 75.4959 2.97415 75.445 2.89781C75.2499 2.78755 75.0689 2.65184 74.8767 2.53027C74.8399 2.50765 74.8116 2.47089 74.7806 2.43979C74.7975 2.38042 74.8032 2.31539 74.8032 2.25319C74.8004 1.89413 74.8032 1.53507 74.8003 1.17601C74.8088 1.11946 74.806 1.05444 74.7551 1.01768C74.4158 0.896109 74.0794 0.766055 73.7429 0.641655C73.6383 0.590765 73.5224 0.562492 73.4093 0.545528H58.9591C58.8971 0.548356 58.8377 0.579455 58.7755 0.593592Z" fill="#615B09" stroke="#615B09" stroke-width="0.00265763"/>
<path d="M57.5927 1.17578C57.8415 1.28039 58.1072 1.33976 58.3589 1.44154C58.4946 1.49526 58.537 1.64228 58.5964 1.76102C58.537 1.8204 58.4663 1.86846 58.3956 1.9137C58.1355 2.08899 57.8697 2.25862 57.6125 2.43957C57.5814 2.36323 57.5927 2.27841 57.5898 2.1936C57.5927 1.85432 57.5899 1.51505 57.5927 1.17578ZM74.0332 1.44154C74.2848 1.34259 74.5478 1.27474 74.7994 1.17578C74.8023 1.53484 74.7994 1.89391 74.8023 2.25297C74.8023 2.31517 74.7966 2.3802 74.7797 2.43957C74.5591 2.2869 74.3358 2.14271 74.1152 1.99286C74.0078 1.9137 73.8891 1.85432 73.7929 1.7582C73.8523 1.63945 73.8976 1.49526 74.0332 1.44154Z" fill="#FDBF15" stroke="#FDBF15" stroke-width="0.00265763"/>
<path d="M61.9065 1.55725C62.2175 1.48374 62.5652 1.76081 62.5398 2.08595C62.5426 2.40543 62.2061 2.66554 61.898 2.59203C61.7736 2.54962 61.6548 2.48459 61.5785 2.37433C61.4796 2.22448 61.4569 2.02375 61.5361 1.85977C61.5926 1.70144 61.7453 1.59401 61.9065 1.55725ZM69.9727 1.73537C70.1027 1.59118 70.3091 1.50919 70.5013 1.56008C70.6455 1.60249 70.7869 1.69579 70.8491 1.83715C70.9735 2.08029 70.8774 2.40826 70.6342 2.53548C70.4193 2.65423 70.1479 2.59768 69.984 2.42522C69.8172 2.23579 69.8058 1.92479 69.9727 1.73537Z" fill="#D2B92B" stroke="#D2B92B" stroke-width="0.00265763"/>
<path d="M58.3961 1.91331C58.4668 1.86808 58.5375 1.82001 58.5969 1.76064L58.6167 1.78043C58.6365 1.92745 58.6223 2.07729 58.628 2.22431C58.6195 2.66536 58.6365 3.10924 58.6167 3.5503C57.7939 3.5503 56.9713 3.54464 56.1485 3.5503C56.1258 3.457 56.205 3.40045 56.2757 3.35804C56.6856 3.09511 57.0815 2.80673 57.4914 2.54096C57.5367 2.51269 57.5762 2.47594 57.613 2.43918C57.8703 2.25824 58.136 2.0886 58.3961 1.91331ZM73.7651 1.85677C73.7651 1.82001 73.7736 1.78891 73.7934 1.75781C73.8895 1.85394 74.0083 1.91331 74.1157 1.99248C74.3362 2.14232 74.5595 2.28651 74.7801 2.43918C74.8112 2.47028 74.8394 2.50704 74.8762 2.52966C75.0685 2.65123 75.2493 2.78694 75.4445 2.8972C75.4954 2.97354 75.583 3.00464 75.6509 3.06118C75.8403 3.17427 76.0099 3.31846 76.2078 3.41176C76.2559 3.44003 76.2389 3.50223 76.2418 3.54747C75.419 3.5503 74.5991 3.54464 73.7764 3.5503C73.7623 3.43721 73.7707 3.32412 73.7679 3.21385C73.768 2.76149 73.7623 2.30913 73.7651 1.85677Z" fill="#F8E946" stroke="#F8E946" stroke-width="0.00265763"/>
<path d="M76.2419 3.54748C75.4191 3.5503 74.5992 3.54465 73.7765 3.5503C73.7623 3.43721 73.7708 3.32412 73.768 3.21386C73.768 2.7615 73.7623 2.30913 73.7651 1.85677C73.7651 1.82002 73.7737 1.78892 73.7934 1.75782C73.8528 1.63907 73.898 1.49488 74.0337 1.44116C74.2853 1.34221 74.5483 1.27436 74.7999 1.1754C74.8084 1.11886 74.8056 1.05383 74.7547 1.01707C74.4154 0.895503 74.079 0.765448 73.7425 0.641049C73.6379 0.590158 73.522 0.561885 73.4089 0.544922H58.9587C58.8965 0.547749 58.8372 0.578849 58.775 0.592985C58.4131 0.731521 58.0484 0.864403 57.6865 1.00294C57.6384 1.01142 57.6129 1.05383 57.5875 1.09058C57.5903 1.1132 57.5932 1.15278 57.5932 1.1754C57.842 1.28001 58.1077 1.33938 58.3594 1.44116C58.4951 1.49488 58.5375 1.6419 58.5969 1.76064L58.6166 1.78044C58.6364 1.92745 58.6222 2.0773 58.6279 2.22432C58.6194 2.66537 58.6364 3.10925 58.6166 3.5503C57.7939 3.5503 56.9712 3.54465 56.1484 3.5503C56.1342 3.60119 56.1597 3.6436 56.2134 3.62947C57.1012 3.62381 57.9861 3.63512 58.8739 3.62098C60.1943 3.62098 61.5118 3.62381 62.8321 3.62098L62.8519 3.6125C62.9113 3.62664 62.9706 3.62098 63.0328 3.62098C65.4246 3.62098 67.8165 3.62381 70.2112 3.62098C70.9632 3.62381 71.7181 3.62098 72.473 3.62098C73.717 3.62098 74.9638 3.63229 76.2078 3.62664C76.2447 3.61816 76.256 3.59271 76.2419 3.54748ZM61.5373 1.8596C61.5938 1.70127 61.7464 1.59384 61.9076 1.55708C62.2186 1.48357 62.5664 1.76064 62.5409 2.08578C62.5438 2.40526 62.2073 2.66537 61.8991 2.59186C61.7748 2.54945 61.6559 2.48442 61.5797 2.37416C61.4807 2.22432 61.4581 2.02358 61.5373 1.8596ZM69.9738 1.7352C70.1039 1.59101 70.3103 1.50902 70.5025 1.55991C70.6467 1.60232 70.7881 1.69562 70.8503 1.83698C70.9747 2.08013 70.8785 2.40809 70.6354 2.53532C70.4205 2.65406 70.1491 2.59751 69.9851 2.42505C69.8183 2.23563 69.8069 1.92463 69.9738 1.7352Z" fill="url(#paint1_radial_2_71039)" stroke="#FCD422" stroke-width="0.00265763"/>
<path d="M70.6955 4.78939C70.735 4.79787 70.4895 4.55342 70.5375 4.54212C70.5827 4.54777 70.7543 4.41463 70.9616 4.52326C71.1689 4.63188 71.1175 4.88608 71.094 4.98034C71.066 5.09253 70.9946 5.16411 70.938 5.22066C70.9069 5.2461 70.8372 5.28569 70.7948 5.28286C70.8202 5.14432 70.7382 5.1217 70.7326 4.98034L70.6955 4.78939Z" fill="url(#paint2_linear_2_71039)" stroke="#FCD422" stroke-width="0.00265763"/>
<path d="M61.6581 4.94325C61.6524 5.08461 61.5704 5.10723 61.5959 5.24577C61.5535 5.24859 61.4837 5.20901 61.4526 5.18357C61.3961 5.12702 61.3248 5.05544 61.2967 4.94325C61.2732 4.84902 61.2218 4.59482 61.4291 4.48617C61.6364 4.37751 61.8079 4.51065 61.8532 4.50502C61.9012 4.51633 61.6557 4.76078 61.6952 4.7523L61.6581 4.94325Z" fill="url(#paint3_linear_2_71039)" stroke="#FCD422" stroke-width="0.00265763"/>
<path d="M70.3238 6.60138C70.3663 6.56445 70.3946 6.56445 70.4511 6.56445C70.1118 7.29954 69.716 8.03463 69.1209 8.60695C69.0573 8.66377 68.99 8.71645 68.9196 8.76466C68.8515 8.8145 68.7847 8.86126 68.7183 8.9089C68.6533 8.95406 68.5887 8.99946 68.5257 9.04682C68.3646 9.13446 68.2232 9.25606 68.0451 9.30975C67.7199 9.46525 67.3694 9.56986 67.016 9.64337C66.8775 9.66602 66.7361 9.69992 66.5948 9.70274C66.4195 9.75366 66.2329 9.71688 66.0547 9.72819C65.9558 9.74515 65.8681 9.68861 65.772 9.69992C65.6886 9.68813 65.6054 9.67399 65.5227 9.65748C65.4388 9.64033 65.3554 9.62054 65.2728 9.59813C63.9767 9.19381 62.7044 8.20427 62.3338 6.86598C62.3171 6.77585 62.3086 6.68439 62.3086 6.59273C62.3481 6.67189 62.3892 6.75049 62.4316 6.82835C62.9589 7.97808 64.005 8.88281 65.2408 9.15561C65.3411 9.20136 65.4497 9.18533 65.5458 9.22491C65.6335 9.22491 65.7183 9.22208 65.8031 9.25035C66.0943 9.25598 66.3855 9.25318 66.6767 9.25318C66.7163 9.25601 66.753 9.23622 66.7927 9.22774C67.278 9.21128 67.7535 9.07891 68.1963 8.87817C68.2849 8.83802 68.3722 8.79514 68.4579 8.7499C68.533 8.71039 68.6063 8.66758 68.6775 8.6216C68.7476 8.57647 68.8156 8.5284 68.8816 8.47752C69.405 8.0629 69.8574 7.52572 70.1646 6.90799C70.223 6.79683 70.2765 6.69389 70.3238 6.60138Z" fill="#D2B92B" stroke="#D2B92B" stroke-width="0.00265763"/>
<path d="M69.8633 9.11358C70.703 8.62164 71.6756 8.38415 72.6426 8.33891C72.9564 8.31064 73.273 8.31912 73.584 8.3587C73.7876 8.40677 73.9968 8.46331 74.158 8.60185C74.076 8.6075 73.9968 8.57075 73.9148 8.55944C73.683 8.5142 73.4427 8.53117 73.208 8.52551C72.5266 8.52551 71.8396 8.57923 71.1809 8.76583C70.8359 8.87044 70.491 8.99201 70.1772 9.17296C69.6344 9.47265 69.1452 9.86846 68.7494 10.3434C68.0426 11.1549 67.627 12.184 67.4263 13.2329C67.3301 13.7955 67.2198 14.3553 67.1322 14.9207C66.9909 14.9349 66.8467 14.9264 66.7053 14.9264C66.0833 14.9236 65.4613 14.9207 64.8393 14.9152C64.7064 14.9207 64.5763 14.8897 64.4435 14.8981C63.3126 14.9038 62.1817 14.8953 61.0508 14.8953L61.0734 14.8868C61.9131 14.7991 62.7556 14.7001 63.5953 14.6182C64.6611 14.6126 65.7242 14.6153 66.7901 14.6182C66.824 14.6126 66.8834 14.6295 66.8891 14.5814C66.9767 14.1234 67.0615 13.6654 67.1491 13.2074C67.2708 12.5713 67.463 11.9436 67.7599 11.3641C68.2264 10.4311 68.9643 9.63943 69.8633 9.11358Z" fill="#0F76CB" stroke="#0F76CB" stroke-width="0.00265763"/>
<path d="M71.1803 8.76571C71.839 8.57911 72.526 8.52539 73.2074 8.52539C73.4421 8.53105 73.6824 8.51408 73.9142 8.55932C73.9962 8.57063 74.0753 8.60738 74.1574 8.60173C74.2902 8.70916 74.3694 8.86749 74.4288 9.02582C74.5589 9.40184 74.6323 9.792 74.6945 10.185C74.6974 10.3433 74.7256 10.5214 74.6408 10.6656C74.5617 10.807 74.4034 10.8748 74.2535 10.9173C73.7078 11.0586 73.1368 10.9257 72.5911 11.0586C72.1416 11.1547 71.7231 11.4035 71.4375 11.7626C71.1011 12.181 70.923 12.7012 70.824 13.2215C70.7477 13.6851 70.6516 14.1488 70.5752 14.6153C70.5413 14.7199 70.5215 14.833 70.5017 14.9433C71.036 14.9518 71.5704 14.9433 72.1048 14.9489C72.3083 14.9433 72.5118 14.9546 72.7155 14.9404C72.8285 15.2006 72.8031 15.4946 72.7663 15.7688C72.7211 16.077 72.6476 16.3823 72.5091 16.6651C72.3931 16.9054 72.2009 17.1259 71.938 17.2107C71.8023 17.2645 71.6552 17.2531 71.511 17.2531C71.036 17.2531 70.561 17.2588 70.0861 17.2531C70.0098 17.6009 69.9589 17.9571 69.891 18.3105C69.7667 18.9975 69.6451 19.6874 69.5207 20.3773C69.5178 20.3999 69.515 20.448 69.515 20.4734V20.4762C68.2795 20.4762 67.0468 20.4791 65.8113 20.4762C65.8141 20.465 65.8169 20.4451 65.8198 20.4338C65.8226 20.4197 65.8254 20.3886 65.8283 20.3716C65.8311 20.3943 65.8339 20.4367 65.8368 20.4565C65.9131 20.465 66.0517 20.5045 66.0714 20.3943C66.2637 19.3538 66.4418 18.3077 66.6397 17.2673C66.5634 17.2503 66.4842 17.2503 66.4051 17.2645C66.3938 17.304 66.3824 17.3436 66.3683 17.3832L66.3853 17.2559C65.6163 17.2531 64.8444 17.2559 64.0755 17.2531C63.8888 17.2475 63.6966 17.2531 63.51 17.2305C63.1905 17.2163 62.8682 17.2276 62.5487 17.1965C62.1529 17.1965 61.7599 17.1598 61.3641 17.1598C61.0531 17.1287 60.7393 17.14 60.4255 17.1258C60.222 17.1004 60.0127 17.1117 59.8063 17.1032C59.4699 17.0665 59.1278 17.092 58.7914 17.0552C58.4351 17.058 58.0789 17.0269 57.7227 17.0184C57.7255 17.0156 57.7283 17.0043 57.7283 17.0015C57.8471 17.0043 57.963 16.9958 58.0817 16.993C58.3447 16.9591 58.6104 16.9816 58.8734 16.9449C59.1476 16.9449 59.419 16.9081 59.6933 16.9081C59.9364 16.8742 60.1824 16.894 60.4255 16.8601C60.7111 16.8601 60.9909 16.8233 61.2765 16.8205C61.5112 16.7894 61.7487 16.8064 61.9833 16.7753C62.2576 16.7781 62.529 16.7357 62.8032 16.7385C63.0718 16.7073 63.346 16.7159 63.6146 16.6876C63.5892 16.583 63.5694 16.4784 63.5468 16.3738C63.527 16.3087 63.4479 16.3228 63.397 16.3144C62.7835 16.2267 62.1728 16.1391 61.5621 16.0543C61.6017 16.0231 61.6554 16.0372 61.7006 16.0317C62.1756 15.9948 62.6477 15.9524 63.1227 15.9186C63.2302 15.9129 63.3348 15.8931 63.4422 15.8903C63.3941 15.7433 63.3659 15.5821 63.3008 15.4464C62.2859 15.2909 61.2709 15.1524 60.2587 14.9856C60.5216 14.9432 60.7874 14.9233 61.0503 14.8951C62.1812 14.8951 63.3122 14.9036 64.4431 14.8979C64.5759 14.8894 64.706 14.9205 64.8389 14.9149C65.4609 14.9205 66.0829 14.9234 66.7049 14.9262C66.8462 14.9262 66.9904 14.9347 67.1318 14.9205C67.2194 14.3551 67.3297 13.7953 67.4258 13.2327C67.6266 12.1837 68.0422 11.1547 68.749 10.3433C69.1448 9.86826 69.6339 9.47244 70.1767 9.17275C70.4904 8.99189 70.8353 8.87032 71.1803 8.76571Z" fill="#128AEC" stroke="#128AEC" stroke-width="0.00265763"/>
<path d="M70.5751 14.6152C71.1123 14.6181 71.6523 14.6124 72.1923 14.6181C72.4072 14.6181 72.6277 14.7368 72.7153 14.9404C72.5118 14.9545 72.3082 14.9433 72.1046 14.9489C71.5703 14.9433 71.0359 14.9518 70.5016 14.9433C70.5214 14.833 70.5411 14.7199 70.5751 14.6152ZM66.4049 17.2644C66.484 17.2503 66.5633 17.2503 66.6395 17.2672C66.4416 18.3077 66.2635 19.3538 66.0713 20.3942C66.0515 20.5045 65.9129 20.4649 65.8366 20.4564C65.8337 20.4367 65.831 20.3942 65.8281 20.3716C66.0062 19.3764 66.1786 18.3784 66.3681 17.3832C66.3823 17.3435 66.3936 17.304 66.4049 17.2644Z" fill="#0F76CB" stroke="#0F76CB" stroke-width="0.00265763"/>
<path d="M70.8217 4.86894C70.7991 4.82653 70.7963 4.77564 70.7963 4.72758L70.7737 4.7304C70.7398 4.606 70.6352 4.48726 70.4995 4.4816C70.3976 4.47312 70.2704 4.47595 70.2111 4.57208C70.098 4.72475 70.1517 4.91983 70.146 5.09229C70.146 5.1036 70.1489 5.12339 70.1489 5.1347C70.1489 5.25062 70.1348 5.36371 70.115 5.4768C70.098 5.51073 70.0896 5.54748 70.0896 5.58706C70.0415 5.85283 69.9453 6.11576 69.8153 6.35608C69.7899 6.39001 69.77 6.42676 69.7616 6.46634C69.6768 6.61336 69.575 6.74907 69.4704 6.88478C69.4534 6.89891 69.4393 6.91588 69.4251 6.93284C69.3516 7.02331 69.2725 7.09965 69.1905 7.17881C69.1707 7.19012 69.1566 7.20426 69.1396 7.21557C69.0435 7.30887 68.936 7.39651 68.8201 7.46719C68.8059 7.47568 68.7918 7.48698 68.7748 7.49829C68.051 7.9761 67.1718 8.17401 66.3151 8.18249C65.5885 8.20511 64.8562 8.04961 64.2003 7.73578C64.189 7.73013 64.1608 7.71882 64.1494 7.71317C64.0392 7.65379 63.9261 7.6029 63.8243 7.52939C63.8016 7.51808 63.779 7.50395 63.7536 7.49264C63.649 7.43044 63.55 7.36259 63.4567 7.28342C63.4256 7.25515 63.3917 7.23253 63.3578 7.20709C63.256 7.1251 63.1514 7.03745 63.0638 6.9385C63.0412 6.91305 63.0185 6.89043 62.9959 6.86781C62.6878 6.54833 62.4475 6.15817 62.3203 5.73408C62.1986 5.39764 62.2157 5.03009 62.2015 4.67669C62.0997 4.52119 61.8849 4.43354 61.7152 4.52967C61.6445 4.58056 61.6361 4.67386 61.5823 4.73889C61.4947 5.67188 61.8933 6.60205 62.5295 7.27494C62.5295 7.29756 62.5408 7.31169 62.5606 7.32018C62.6737 7.42478 62.7839 7.53222 62.897 7.634C62.9168 7.65379 62.9394 7.67358 62.9649 7.69055C63.078 7.78385 63.1995 7.86867 63.3183 7.95631C63.3409 7.97327 63.3635 7.98741 63.389 8.00155C63.5445 8.09202 63.6914 8.19945 63.8583 8.26165C63.8696 8.27014 63.8894 8.28427 63.9007 8.28993C64.4379 8.54721 65.0175 8.7225 65.6112 8.77904C65.6762 8.77904 65.7413 8.7847 65.8063 8.79883C66.089 8.8158 66.3717 8.80732 66.6545 8.80166C67.528 8.72533 68.43 8.51328 69.1594 7.99872L69.1679 8.01003C69.1905 7.99024 69.2103 7.97327 69.2329 7.95631C69.3489 7.87149 69.462 7.78102 69.5751 7.68772C69.6005 7.66793 69.6287 7.64531 69.6542 7.61987C69.7786 7.48416 69.9228 7.35976 70.0274 7.20426L70.0444 7.21274C70.0529 7.1986 70.067 7.17033 70.0756 7.1562C70.1716 7.02614 70.2593 6.89043 70.3441 6.75472C70.3497 6.74624 70.3639 6.73211 70.3695 6.72362L70.3583 6.71231C70.3668 6.70101 70.3866 6.67839 70.395 6.66708C70.5505 6.35042 70.689 6.01963 70.7371 5.66905C70.7569 5.66057 70.7683 5.64361 70.7683 5.62382C70.7711 5.51073 70.8107 5.40329 70.7994 5.2902C70.8245 5.15167 70.8274 5.0103 70.8217 4.86894Z" fill="#0D0D0D" stroke="#0D0D0D" stroke-width="0.00265763"/>
<mask id="mask0_2_71039" style="mask-type:luminance" maskUnits="userSpaceOnUse" x="61" y="4" width="10" height="5">
<path d="M70.8217 4.86894C70.7991 4.82653 70.7963 4.77564 70.7963 4.72758L70.7737 4.7304C70.7398 4.606 70.6352 4.48726 70.4995 4.4816C70.3976 4.47312 70.2704 4.47595 70.2111 4.57208C70.098 4.72475 70.1517 4.91983 70.146 5.09229C70.146 5.1036 70.1489 5.12339 70.1489 5.1347C70.1489 5.25062 70.1348 5.36371 70.115 5.4768C70.098 5.51073 70.0896 5.54748 70.0896 5.58706C70.0415 5.85283 69.9453 6.11576 69.8153 6.35608C69.7899 6.39001 69.77 6.42676 69.7616 6.46634C69.6768 6.61336 69.575 6.74907 69.4704 6.88478C69.4534 6.89891 69.4393 6.91588 69.4251 6.93284C69.3516 7.02331 69.2725 7.09965 69.1905 7.17881C69.1707 7.19012 69.1566 7.20426 69.1396 7.21557C69.0435 7.30887 68.936 7.39651 68.8201 7.46719C68.8059 7.47568 68.7918 7.48698 68.7748 7.49829C68.051 7.9761 67.1718 8.17401 66.3151 8.18249C65.5885 8.20511 64.8562 8.04961 64.2003 7.73578C64.189 7.73013 64.1608 7.71882 64.1494 7.71317C64.0392 7.65379 63.9261 7.6029 63.8243 7.52939C63.8016 7.51808 63.779 7.50395 63.7536 7.49264C63.649 7.43044 63.55 7.36259 63.4567 7.28342C63.4256 7.25515 63.3917 7.23253 63.3578 7.20709C63.256 7.1251 63.1514 7.03745 63.0638 6.9385C63.0412 6.91305 63.0185 6.89043 62.9959 6.86781C62.6878 6.54833 62.4475 6.15817 62.3203 5.73408C62.1986 5.39764 62.2157 5.03009 62.2015 4.67669C62.0997 4.52119 61.8849 4.43354 61.7152 4.52967C61.6445 4.58056 61.6361 4.67386 61.5823 4.73889C61.4947 5.67188 61.8933 6.60205 62.5295 7.27494C62.5295 7.29756 62.5408 7.31169 62.5606 7.32018C62.6737 7.42478 62.7839 7.53222 62.897 7.634C62.9168 7.65379 62.9394 7.67358 62.9649 7.69055C63.078 7.78385 63.1995 7.86867 63.3183 7.95631C63.3409 7.97327 63.3635 7.98741 63.389 8.00155C63.5445 8.09202 63.6914 8.19945 63.8583 8.26165C63.8696 8.27014 63.8894 8.28427 63.9007 8.28993C64.4379 8.54721 65.0175 8.7225 65.6112 8.77904C65.6762 8.77904 65.7413 8.7847 65.8063 8.79883C66.089 8.8158 66.3717 8.80732 66.6545 8.80166C67.528 8.72533 68.43 8.51328 69.1594 7.99872L69.1679 8.01003C69.1905 7.99024 69.2103 7.97327 69.2329 7.95631C69.3489 7.87149 69.462 7.78102 69.5751 7.68772C69.6005 7.66793 69.6287 7.64531 69.6542 7.61987C69.7786 7.48416 69.9228 7.35976 70.0274 7.20426L70.0444 7.21274C70.0529 7.1986 70.067 7.17033 70.0756 7.1562C70.1716 7.02614 70.2593 6.89043 70.3441 6.75472C70.3497 6.74624 70.3639 6.73211 70.3695 6.72362L70.3583 6.71231C70.3668 6.70101 70.3866 6.67839 70.395 6.66708C70.5505 6.35042 70.689 6.01963 70.7371 5.66905C70.7569 5.66057 70.7683 5.64361 70.7683 5.62382C70.7711 5.51073 70.8107 5.40329 70.7994 5.2902C70.8245 5.15167 70.8274 5.0103 70.8217 4.86894Z" fill="white"/>
</mask>
<g mask="url(#mask0_2_71039)">
<path d="M61.3672 4.77354C61.5964 4.84544 62.1229 4.66455 62.2719 4.83008M61.4991 5.47091C61.7188 5.39449 62.1897 5.21355 62.385 5.32013M61.7253 6.16831C61.8315 6.20269 62.0408 6.01618 62.1447 5.96153C62.2994 5.88019 62.458 5.81784 62.63 5.79135M62.0646 6.9034C62.1741 6.74779 62.3052 6.61855 62.4633 6.50801C62.6201 6.39848 63.0491 6.10583 63.2332 6.206M62.385 7.43117C62.5093 7.33235 62.5599 7.15757 62.6904 7.05375C62.8483 6.92817 63.0901 6.90563 63.252 6.828M62.9175 7.82223C62.9546 7.54889 63.2322 7.21904 63.497 7.24264M63.3274 8.20394C63.4674 8.18992 63.5858 7.87666 63.6804 7.77049C63.8222 7.61146 63.9691 7.56255 64.1567 7.50654M64.1379 8.54321C64.1288 8.34542 64.3332 7.7783 64.5714 7.80812M64.741 8.73171C64.7311 8.49795 64.852 7.79484 65.1369 7.77044M65.363 9.10867C65.309 8.78178 65.3125 8.30889 65.5703 8.07199M66.1358 9.18407C66.1071 8.91158 65.8363 8.36074 66.1358 8.1474M66.9651 8.99558C66.8359 8.8457 66.7607 8.25452 66.8143 8.09085M67.7568 8.86363C67.6571 8.6826 67.5335 8.51259 67.4958 8.30244C67.4732 8.17686 67.5128 7.99795 67.4929 7.90236M68.4165 8.5809C68.2002 8.43945 68.1402 7.91958 68.2091 7.69503M69.0573 8.29817C68.9035 7.9682 68.7395 7.71237 68.7369 7.33691M69.6793 7.69503C69.4403 7.53425 69.1353 7.24197 69.1704 6.92226M70.339 7.18613C69.9759 7.10566 69.54 6.78073 69.3212 6.48873M70.6406 6.56413C70.3786 6.50795 69.513 6.17023 69.5662 5.82904M70.9233 5.90444C70.5583 5.77063 70.0273 5.65033 69.7359 5.39554M71.1118 5.30128C70.8819 5.32095 70.5525 5.20964 70.3188 5.16933C70.0593 5.12457 69.8187 5.03712 69.5662 4.98083M70.8856 4.71699C70.4421 4.74354 70.026 4.5918 69.6228 4.45312" stroke="#3B3B3B" stroke-width="0.0565453"/>
</g>
<path d="M14.1423 6.07701C14.5521 6.01517 15.0236 5.97653 15.3714 6.2316C15.5879 6.39389 15.6652 6.68761 15.6497 6.95049C15.6652 7.38334 15.4642 7.84716 15.0778 8.07136C14.7376 8.25688 14.3279 8.27226 13.9491 8.23364C13.694 8.20277 13.439 8.06367 13.3076 7.83175C13.0138 7.15923 13.3771 6.20842 14.1423 6.07701ZM1.88251 6.564C1.90566 6.33208 2.1144 6.12337 2.35401 6.13115C4.13971 6.13115 5.91761 6.13884 7.69553 6.13115C7.88877 6.11568 8.09751 6.20067 8.19021 6.37073C8.3216 6.60265 8.20568 6.85773 8.19021 7.09739C8.13616 7.42199 8.15157 7.85493 7.77286 7.97857C6.47418 8.01721 5.17551 7.97857 3.87683 7.99403C3.75317 8.81337 3.63722 9.62502 3.5135 10.4367C3.5135 10.4676 3.52127 10.5372 3.52127 10.5681C4.47205 10.5604 5.42283 10.5681 6.37362 10.5604C6.63647 10.5449 6.9147 10.7692 6.89151 11.0474C6.86836 11.3334 6.8065 11.6117 6.76788 11.8977C6.73689 12.0909 6.58232 12.2687 6.38133 12.3074C5.3223 12.3305 4.2478 12.2842 3.18887 12.3305C3.01876 13.4978 2.81776 14.665 2.63996 15.8322C2.61683 16.0642 2.43125 16.2651 2.19936 16.2728C1.75879 16.2806 1.31812 16.2806 0.877557 16.2728C0.591551 16.2806 0.359629 15.9635 0.436898 15.693C0.908571 12.6475 1.39554 9.60967 1.88251 6.564ZM9.73619 6.14653C10.1382 6.11565 10.5478 6.13884 10.9499 6.13115C11.1972 6.11568 11.4446 6.3089 11.4677 6.564C11.4677 6.76494 11.4136 6.96595 11.3905 7.16692C11.0658 9.23859 10.7334 11.3103 10.4087 13.3819C10.3623 13.7143 10.2773 14.0698 10.3778 14.41C10.4938 14.7501 11.0116 14.6032 11.1353 14.9588C11.2126 15.2448 11.1275 15.5462 11.1044 15.84C11.0812 16.2265 10.6406 16.3115 10.3392 16.3967C9.68213 16.5203 8.88586 16.4275 8.41433 15.8864C8.07421 15.4922 8.051 14.9356 8.12064 14.4409C8.53031 11.8127 8.93998 9.18454 9.35745 6.54854C9.38066 6.35527 9.53523 6.17749 9.73619 6.14653ZM25.0803 6.564C25.1035 6.33208 25.3122 6.13115 25.5441 6.13115H26.7191C27.0128 6.12337 27.2525 6.44034 27.1829 6.71857C26.9124 8.43466 26.6341 10.1508 26.3636 11.8667C26.7732 11.8049 27.2371 11.7276 27.5231 11.3953C28.0023 10.8541 28.3966 10.2281 28.6903 9.57102C28.7908 9.31589 28.8449 8.94487 29.1773 8.89847C29.6179 8.88301 30.0662 8.89073 30.5068 8.89847C30.8083 8.89073 31.0325 9.23085 30.932 9.50911C30.8161 9.91889 30.6228 10.2976 30.4219 10.6609C29.9735 11.3876 29.4788 12.1064 28.8294 12.6784C29.1154 13.5365 29.4788 14.3713 29.7957 15.2139C29.8884 15.4922 30.1127 15.8168 29.9039 16.0874C29.6642 16.4121 29.2159 16.2497 28.8835 16.2883C28.5357 16.2497 28.0332 16.4275 27.84 16.0333C27.4766 15.1907 27.1752 14.325 26.8041 13.4824C26.5877 13.49 26.3636 13.4978 26.1471 13.4747C26.1317 13.5056 26.1007 13.5674 26.0852 13.5983C25.9693 14.3713 25.8456 15.1443 25.7219 15.9173C25.6755 16.1028 25.5286 16.2652 25.3277 16.2807C24.918 16.2961 24.5006 16.2883 24.0832 16.2883C23.9053 16.2883 23.743 16.1724 23.6657 16.0178C23.5884 15.8631 23.6348 15.6854 23.6581 15.5154C24.1373 12.5316 24.6088 9.54775 25.0803 6.564ZM46.5621 7.40658C46.6162 7.19007 46.8249 7.04325 47.0414 7.05094C47.3506 7.05872 47.6675 7.04325 47.9844 7.05872C48.2396 7.06641 48.4405 7.32151 48.4096 7.56887C48.3632 8.0095 48.2549 8.45013 48.2241 8.89067C48.5255 8.89067 48.8347 8.88298 49.1362 8.89067C49.4068 8.89067 49.631 9.16899 49.5845 9.43175C49.5459 9.67148 49.4917 9.90339 49.4531 10.1429C49.4144 10.344 49.2444 10.5063 49.0512 10.5372C48.6801 10.5604 48.3169 10.5217 47.9535 10.5604C47.7989 11.5961 47.6289 12.6319 47.4665 13.6679C47.4433 13.9075 47.4279 14.178 47.567 14.3867C47.7757 14.6418 48.139 14.549 48.4328 14.58C48.6647 14.6495 48.8115 14.9047 48.7729 15.1366C48.7342 15.3994 48.7265 15.6622 48.6647 15.9173C48.5719 16.2032 48.2395 16.2574 47.9844 16.3269C47.281 16.5125 46.4693 16.5125 45.8433 16.1028C45.2635 15.7085 45.1707 14.9433 45.2325 14.2939C45.3948 13.0417 45.65 11.7972 45.7891 10.5372C45.5727 10.5448 45.3098 10.5758 45.1475 10.3825C44.962 10.1893 45.0548 9.90328 45.0857 9.66359C45.1321 9.40851 45.1243 9.07614 45.4026 8.93698C45.6268 8.85191 45.8819 8.91383 46.1215 8.88287C46.2684 8.38824 46.4075 7.89355 46.5621 7.40658ZM42.1946 9.91106C42.6816 9.42406 43.2691 9.02211 43.9416 8.82118C44.2353 8.68974 44.6141 8.93712 44.6064 9.26178C44.5523 9.68694 44.4518 10.1043 44.3822 10.5217C44.3512 10.7305 44.1735 10.9083 43.9648 10.9314C43.2072 11.0628 42.5502 11.5188 42.0246 12.06C41.8932 12.2224 41.6999 12.3769 41.6767 12.6011C41.5144 13.6833 41.3443 14.7655 41.1743 15.8477C41.1511 16.0796 40.9501 16.3038 40.7105 16.2883H39.5355C39.2649 16.3038 39.0253 16.0333 39.0562 15.7627C39.3964 13.6214 39.7365 11.488 40.0689 9.34674C40.0843 9.13034 40.239 8.92163 40.4631 8.89842C40.7491 8.88295 41.0351 8.89067 41.3289 8.89067C41.5608 8.89067 41.7772 9.09938 41.7772 9.33904C41.7772 9.67142 41.7463 10.0115 41.7385 10.3516C41.9241 10.2358 42.04 10.0502 42.1946 9.91106ZM13.2998 8.92935C13.7172 8.84436 14.1501 8.91394 14.5675 8.8907C14.8071 8.85982 15.0622 9.01439 15.1008 9.25406C15.1318 9.47046 15.0699 9.67919 15.0467 9.88793C14.7298 11.8746 14.4128 13.8612 14.1036 15.8478C14.0804 16.072 13.895 16.2961 13.6553 16.2884C13.2379 16.2884 12.8205 16.2961 12.3954 16.2807C12.1325 16.2497 11.9393 15.9483 12.0089 15.6932C12.3413 13.6293 12.6582 11.5731 12.9906 9.50913C13.0061 9.28496 13.0679 9.02211 13.2998 8.92935ZM38.3141 9.02991C37.1623 8.8134 35.9874 8.65881 34.8201 8.77475C33.7766 8.90619 32.7253 9.37775 32.0838 10.2358C31.1948 11.3643 30.8933 12.8795 31.0942 14.2864C31.2025 14.9588 31.4962 15.6391 32.0451 16.0565C32.5553 16.4507 33.2432 16.5048 33.8617 16.4043C34.7274 16.2342 35.4617 15.6778 36.0647 15.0593C36.0956 15.3221 36.0337 15.585 36.0492 15.8401C36.0647 16.0796 36.2811 16.3038 36.5207 16.2883H37.3093C37.5412 16.2883 37.7344 16.072 37.7499 15.8477C38.0823 13.7529 38.4146 11.6658 38.7393 9.57871C38.7856 9.31586 38.577 9.06079 38.3141 9.02991ZM36.1421 12.6707C35.8328 13.2505 35.3999 13.7761 34.9129 14.2244C34.6347 14.4563 34.279 14.696 33.9004 14.6187C33.5293 14.5414 33.3515 14.1549 33.2665 13.8225C33.0732 12.9568 33.251 12.0136 33.738 11.2639C33.9544 10.916 34.3022 10.6532 34.7042 10.5449C35.2685 10.4058 35.8638 10.4753 36.4126 10.6299L36.4435 10.6609C36.374 11.3334 36.2425 11.9982 36.1421 12.6707ZM23.1401 11.5112C23.1324 10.7382 22.9237 9.92658 22.3826 9.34679C22.0116 8.93712 21.455 8.72841 20.9139 8.73607C20.0172 8.70523 19.1746 9.14586 18.5176 9.73328C18.3707 9.84928 18.2702 10.0193 18.1079 10.1121C18.1079 9.85691 18.1311 9.60187 18.1233 9.33907C18.1311 9.09938 17.9069 8.8907 17.675 8.8907H16.8865C16.6392 8.8907 16.4382 9.10718 16.4227 9.34676C15.9357 12.4388 15.441 15.5308 14.954 18.6228C14.8845 18.9088 15.1319 19.2026 15.4256 19.1949C15.8585 19.1871 16.2991 19.2258 16.7242 19.1639C17.0644 19.0711 17.0566 18.6769 17.1107 18.3909C17.2344 17.7106 17.3195 17.0304 17.3967 16.3424C18.9196 16.6361 20.6897 16.4352 21.826 15.2834C22.7536 14.2708 23.1865 12.8717 23.1401 11.5112ZM20.9757 12.2919C20.9294 13.0031 20.6742 13.722 20.1796 14.2399C19.538 14.8506 18.5639 14.7655 17.7755 14.5569C17.7601 14.5336 17.7368 14.4872 17.7291 14.4641C17.8528 13.7916 17.9146 13.1113 18.0693 12.4465C18.5021 11.7354 19.0277 11.0165 19.7776 10.6223C20.0558 10.4909 20.4346 10.5218 20.6356 10.7769C20.9757 11.202 21.0067 11.7741 20.9757 12.2919Z" fill="#128AEC" stroke="#128AEC" stroke-width="0.00285554"/>
</g>
<defs>
<linearGradient id="paint0_linear_2_71039" x1="66.1989" y1="3.88083" x2="66.1989" y2="20.4985" gradientUnits="userSpaceOnUse">
<stop stop-color="#F7E830"/>
<stop offset="1" stop-color="#FDCB06"/>
</linearGradient>
<radialGradient id="paint1_radial_2_71039" cx="0" cy="0" r="1" gradientUnits="userSpaceOnUse" gradientTransform="translate(66.1113 11.4604) scale(13.5166 13.5166)">
<stop offset="0.596" stop-color="#F29405"/>
<stop offset="0.736" stop-color="#F7D01E"/>
<stop offset="1" stop-color="#FDCB06"/>
</radialGradient>
<linearGradient id="paint2_linear_2_71039" x1="70.823" y1="4.48025" x2="70.8278" y2="5.26717" gradientUnits="userSpaceOnUse">
<stop stop-color="#FADA1C"/>
<stop offset="1" stop-color="#FDCB06"/>
</linearGradient>
<linearGradient id="paint3_linear_2_71039" x1="61.5676" y1="4.44316" x2="61.5629" y2="5.23008" gradientUnits="userSpaceOnUse">
<stop stop-color="#FADA1C"/>
<stop offset="1" stop-color="#FDCB06"/>
</linearGradient>
<clipPath id="clip0_2_71039">
<rect width="75.8635" height="20" fill="white" transform="translate(0.421875 0.5)"/>
</clipPath>
</defs>
</svg>
