<svg width="100" height="100" viewBox="0 0 100 100" fill="none" xmlns="http://www.w3.org/2000/svg">
<g clip-path="url(#clip0_313_2932)">
<path d="M50 100C77.6142 100 100 77.6142 100 50C100 22.3858 77.6142 0 50 0C22.3858 0 0 22.3858 0 50C0 77.6142 22.3858 100 50 100Z" fill="black"/>
<path fill-rule="evenodd" clip-rule="evenodd" d="M13.3152 44.9482H11.7725V55.9893H21.7465V54.7842H13.3152V44.9482Z" fill="white"/>
<path fill-rule="evenodd" clip-rule="evenodd" d="M18.9082 48.8537H20.052L22.1289 44.9482H20.4574L18.9082 48.8537Z" fill="white"/>
<path fill-rule="evenodd" clip-rule="evenodd" d="M30.4262 43.0801C25.9516 43.0801 22.9014 46.2363 22.9014 50.0584C22.9014 54.0813 26.2711 56.9199 30.4262 56.9199C34.5809 56.9199 37.9486 54.1219 37.9486 50.0584C37.9484 46.2363 34.8604 43.0801 30.4262 43.0801ZM30.3732 55.5504C27.2766 55.5504 24.7254 53.0607 24.7254 50.0617C24.7254 47.0658 27.1568 44.4572 30.4926 44.4572C33.7473 44.4572 36.1387 47.0654 36.1387 50.0617C36.1391 53.0609 33.4686 55.5504 30.3732 55.5504Z" fill="white"/>
<path fill-rule="evenodd" clip-rule="evenodd" d="M50.775 48.1434C50.6236 46.1709 49.2961 44.9482 46.908 44.9482H39.9541V55.9893H41.5398V51.3588H46.0664L49.3969 55.9893H51.3949C51.3957 55.9893 49 52.8727 48.0135 51.3736C50.5406 50.6984 50.7871 48.8148 50.775 48.1434ZM41.5404 50.0529V46.2559H46.8725C48.0992 46.2559 48.79 46.8291 49.0389 47.5568C49.2031 48.0566 49.0975 48.7121 48.8264 49.1578C48.3805 49.8967 47.534 50.0529 46.692 50.0529H41.5404Z" fill="white"/>
<path fill-rule="evenodd" clip-rule="evenodd" d="M69.6268 44.9482L64.0166 55.9893H65.9127L67.3486 53.1316H74.0772L75.5252 55.9893H77.402L71.7869 44.9482H69.6268ZM68.0584 51.7498L70.702 46.4752L73.3781 51.7498H68.0584Z" fill="white"/>
<path fill-rule="evenodd" clip-rule="evenodd" d="M79.7969 54.7842V44.9482H78.2539V55.9893H88.2279V54.7842H79.7969Z" fill="white"/>
<path fill-rule="evenodd" clip-rule="evenodd" d="M58.4942 43.166L57.1577 44.6672L61.3513 43.166H58.4942Z" fill="white"/>
<path fill-rule="evenodd" clip-rule="evenodd" d="M53.3662 55.9893H63.233V54.7842H55.0592V50.9252H61.1982V49.7043H55.0592V46.151H63.233V44.9482H53.3662V55.9893Z" fill="white"/>
</g>
<defs>
<clipPath id="clip0_313_2932">
<rect width="100" height="100" fill="white"/>
</clipPath>
</defs>
</svg>
